<?xml version="1.0" encoding="utf-8"?>
<!-- Generator: Adobe Illustrator 26.5.0, SVG Export Plug-In . SVG Version: 6.00 Build 0)  -->
<svg version="1.1" id="Layer_1" xmlns="http://www.w3.org/2000/svg" xmlns:xlink="http://www.w3.org/1999/xlink" x="0px" y="0px"
	 viewBox="0 0 24 24" style="enable-background:new 0 0 24 24;" xml:space="preserve">
<style type="text/css">
	.st0{fill:#FFFFFF;}
</style>
<g>
	<path class="st0" d="M19,11.4H5c-0.3,0-0.6,0.3-0.6,0.6s0.3,0.6,0.6,0.6h14c0.3,0,0.6-0.3,0.6-0.6S19.3,11.4,19,11.4z"/>
	<path class="st0" d="M5,7h14c0.3,0,0.6-0.3,0.6-0.6S19.3,5.8,19,5.8H5c-0.3,0-0.6,0.3-0.6,0.6S4.7,7,5,7z"/>
	<path class="st0" d="M19,17H5c-0.3,0-0.6,0.3-0.6,0.6s0.3,0.6,0.6,0.6h14c0.3,0,0.6-0.3,0.6-0.6S19.3,17,19,17z"/>
</g>
</svg>
