<?xml version="1.0" encoding="UTF-8"?>
<svg xmlns="http://www.w3.org/2000/svg" data-name="Layer 1" viewBox="0 0 500 500" width="64" height="64"><defs><linearGradient id="a" x1="250.03" x2="250.03" y1="419.21" y2="-118.78" gradientUnits="userSpaceOnUse"><stop offset=".09" stop-color="#006fe6" stop-opacity="0"/><stop offset=".42" stop-color="#006fe6" stop-opacity=".35"/><stop offset="1" stop-color="#006fe6"/></linearGradient></defs><path fill="url(#a)" d="M458.68 287.97c0 1.23.38 2.45.36 3.67-.02 1.23-.38 2.44-.42 3.66-.04 1.22.01 2.45-.05 3.67s.03 2.46-.06 3.67c-.08 1.22-.19 2.44-.3 3.66-.11 1.22-.26 2.44-.39 3.65s-.22 2.44-.37 3.65-.59 2.39-.76 3.6c-.17 1.21-.11 2.46-.31 3.66s-.56 2.39-.77 3.59c-.21 1.21-.42 2.41-.66 3.61s-.38 2.42-.63 3.62-.66 2.36-.94 3.55-.46 2.41-.75 3.59-.39 2.43-.71 3.61-.87 2.3-1.21 3.48c-.34 1.18-.81 2.31-1.17 3.48s-.44 2.43-.82 3.59-1.01 2.24-1.41 3.4-.98 2.25-1.4 3.39-.69 2.35-1.13 3.49-.64 2.38-1.1 3.51-.91 2.28-1.39 3.4-1.26 2.12-1.77 3.23-1.16 2.16-1.68 3.26c-.52 1.11-.93 2.27-1.47 3.36s-1.1 2.18-1.66 3.27c-.56 1.09-1.11 2.18-1.68 3.26s-.95 2.27-1.54 3.34-1.48 1.97-2.09 3.03-1.03 2.23-1.67 3.28c-.63 1.05-1.49 1.96-2.14 2.99s-1.18 2.15-1.85 3.17c-.67 1.02-1.31 2.07-2 3.08-.69 1.01-1.62 1.85-2.33 2.85s-1.34 2.05-2.06 3.03-1.49 1.93-2.23 2.91-1.39 2.01-2.15 2.97c-.76.96-1.41 2.01-2.18 2.95s-1.49 1.95-2.28 2.88-1.68 1.78-2.49 2.7c-.81.92-1.8 1.67-2.62 2.57s-1.64 1.81-2.47 2.7-1.59 1.76-2.44 2.64c-1.81.35-1.82.15-3.67.15-1.85 0-1.85.1-3.69.1s-1.85-.37-3.69-.37c-1.85 0-1.85.37-3.69.37s-1.84-.03-3.69-.03-1.84-.19-3.69-.19-1.84.08-3.69.08-1.84.11-3.69.11-1.84-.13-3.69-.13-1.85.1-3.69.1-1.85.11-3.69.11c-1.85 0-1.85-.14-3.69-.14-1.85 0-1.85-.23-3.69-.23s-1.84-.08-3.69-.08-1.84.41-3.69.41c-1.84 0-1.84-.31-3.69-.31-1.85 0-1.85.25-3.69.25s-1.85-.19-3.69-.19-1.85.05-3.69.05c-1.85 0-1.85-.21-3.69-.21s-1.85.37-3.69.37c-1.85 0-1.85-.2-3.69-.2s-1.85.3-3.69.3-1.85.03-3.69.03c-1.85 0-1.85-.34-3.69-.34-1.85 0-1.85.3-3.69.3-1.85 0-1.85-.09-3.69-.09-1.85 0-1.85-.3-3.69-.3s-1.85.08-3.69.08c-1.84 0-1.84.02-3.69.02s-1.84.15-3.69.15h-3.69c-1.85 0-1.84-.25-3.69-.25s-1.85.23-3.69.23-1.85-.26-3.69-.26c-1.84 0-1.84.39-3.69.39s-1.84-.16-3.69-.16c-1.84 0-1.84-.21-3.69-.21s-1.84.4-3.69.4c-1.84 0-1.84-.17-3.69-.17h-3.69c-1.85 0-1.85.06-3.69.06-1.85 0-1.85.06-3.69.06-1.84 0-1.84-.24-3.69-.24-1.84 0-1.84.22-3.69.22s-1.85-.1-3.69-.1c-1.85 0-1.85-.26-3.69-.26s-1.85.05-3.69.05-1.85.23-3.69.23-1.85-.16-3.69-.16c-1.85 0-1.85-.09-3.69-.09-1.85 0-1.85.31-3.69.31s-1.85-.34-3.69-.34c-1.85 0-1.85.41-3.69.41s-1.85-.28-3.69-.28-1.85.03-3.69.03-1.85.23-3.69.23c-1.85 0-1.85-.23-3.69-.23-1.85 0-1.85-.17-3.69-.17-1.85 0-1.85.44-3.69.44-1.85 0-1.85-.3-3.69-.3-1.85 0-1.85.11-3.69.11s-1.85-.13-3.69-.13c-1.85 0-1.85-.05-3.69-.05s-1.85.24-3.69.24-1.85.07-3.69.07c-1.85 0-1.85-.11-3.69-.11-1.84 0-1.84-.15-3.69-.15s-1.85.11-3.69.11c-1.85 0-1.85-.21-3.69-.21-1.85 0-1.85.27-3.7.27s-1.85-.07-3.69-.07-1.85.1-3.7.1-1.85.05-3.7.05-1.85.07-3.7.07-1.85-.44-3.7-.44-1.85-.01-3.7-.01-1.85.15-3.7.15-1.85.22-3.7.22-1.85-.08-3.7-.08-1.93.55-3.75.2c-.85-.88-1.8-1.87-2.63-2.76-.84-.89-1.6-1.85-2.43-2.76s-1.38-2.04-2.19-2.96-1.72-1.74-2.51-2.68-1.56-1.88-2.33-2.83c-.77-.95-1.79-1.7-2.55-2.66s-1.4-2.01-2.14-2.99-1.57-1.89-2.29-2.87c-.72-.99-1.46-1.97-2.17-2.96s-1.28-2.09-1.97-3.1-1.19-2.14-1.86-3.17c-.67-1.02-1.4-2-2.05-3.04s-1.48-1.96-2.11-3.01c-.63-1.05-.93-2.29-1.55-3.35s-1.31-2.06-1.91-3.13-1.25-2.1-1.83-3.18-1.06-2.21-1.62-3.29c-.56-1.09-1.44-2.01-1.98-3.11s-1.06-2.21-1.58-3.32-.85-2.3-1.35-3.42c-.5-1.11-1.03-2.22-1.51-3.34-.48-1.12-.71-2.35-1.17-3.48-.46-1.13-.9-2.27-1.34-3.41s-1.01-2.23-1.43-3.38c-.42-1.15-.94-2.26-1.34-3.42s-.59-2.38-.98-3.54-.91-2.27-1.27-3.44-.61-2.37-.94-3.55-.61-2.36-.93-3.55-.59-2.37-.88-3.56-.9-2.3-1.18-3.49-.18-2.46-.44-3.66-.49-2.39-.73-3.59-.49-2.39-.7-3.6-.84-2.34-1.03-3.55-.19-2.45-.36-3.66-.2-2.44-.35-3.65-.59-2.39-.72-3.61c-.13-1.21-.22-2.44-.32-3.66s.01-2.45-.07-3.68-.38-2.43-.45-3.65.07-2.45.03-3.68-.08-2.44-.1-3.67.02-2.44.02-3.67-.19-2.46-.17-3.69.29-2.45.34-3.68c.04-1.23-.22-2.47-.16-3.7s.43-2.44.51-3.66c.09-1.23 0-2.47.11-3.69.11-1.23.35-2.44.48-3.66s.1-2.47.25-3.68c.15-1.22.38-2.43.56-3.65s.4-2.43.6-3.64c.19-1.22.6-2.39.81-3.6s.13-2.48.37-3.68.42-2.43.68-3.63.5-2.41.78-3.61.74-2.35 1.04-3.54.5-2.41.82-3.6.99-2.28 1.34-3.45.44-2.43.8-3.61.68-2.37 1.06-3.53.81-2.33 1.21-3.49.87-2.3 1.3-3.45.83-2.32 1.27-3.46c.45-1.15 1.15-2.19 1.61-3.33.47-1.14.66-2.39 1.14-3.52s1.33-2.1 1.83-3.22c.51-1.12.95-2.27 1.47-3.38.53-1.11.7-2.39 1.25-3.49s1.11-2.2 1.67-3.29 1.46-2.01 2.04-3.09.99-2.26 1.6-3.33 1.18-2.16 1.8-3.22c.62-1.06 1.26-2.11 1.9-3.16s1.28-2.1 1.94-3.14 1.64-1.86 2.32-2.89c.68-1.03 1.3-2.09 1.99-3.1.7-1.01 1.29-2.1 2-3.1s1.41-2.01 2.14-3 1.43-2 2.18-2.98 1.41-2.02 2.18-2.98c.76-.96 1.55-1.91 2.33-2.86s1.65-1.83 2.44-2.76 1.5-1.95 2.32-2.87 1.77-1.72 2.6-2.62c.83-.91 1.77-1.71 2.62-2.6s1.56-1.91 2.42-2.79c.86-.88 1.94-1.54 2.81-2.4s1.63-1.85 2.52-2.69 1.68-1.8 2.59-2.63 1.87-1.59 2.79-2.41 2.01-1.43 2.95-2.22 1.86-1.6 2.81-2.38c.95-.78 1.73-1.77 2.69-2.54.96-.76 1.96-1.49 2.93-2.24s2.07-1.34 3.06-2.07 2.04-1.37 3.04-2.08 1.87-1.61 2.88-2.31 2.04-1.37 3.07-2.05c1.03-.68 2.16-1.18 3.2-1.84s1.97-1.48 3.02-2.12 2.23-1.05 3.29-1.67c1.06-.62 2.12-1.24 3.19-1.84s2.14-1.21 3.22-1.79 2.04-1.4 3.13-1.96 2.26-.97 3.37-1.51 2.25-.98 3.36-1.5c1.11-.53 2.11-1.28 3.23-1.79s2.32-.82 3.45-1.3 2.14-1.25 3.28-1.72 2.35-.74 3.49-1.19c1.14-.44 2.35-.73 3.5-1.16s2.25-1 3.41-1.4c1.16-.4 2.26-.99 3.43-1.37s2.46-.37 3.64-.73 2.24-1.09 3.42-1.43c1.18-.34 2.45-.36 3.64-.68 1.18-.32 2.29-.94 3.49-1.24 1.19-.3 2.42-.43 3.62-.71 1.2-.28 2.43-.37 3.64-.62s2.34-.83 3.54-1.06 2.46-.2 3.67-.41 2.37-.72 3.58-.91 2.47-.13 3.68-.3 2.39-.64 3.62-.79 2.46-.1 3.69-.23c1.22-.13 2.45-.2 3.67-.31s2.43-.47 3.66-.55 2.46-.01 3.69-.07 2.46.05 3.69 0 2.45-.29 3.68-.32 2.46.02 3.69.02 2.46.23 3.69.25c1.23.02 2.47-.19 3.69-.15 1.23.04 2.44.48 3.67.54s2.48-.24 3.7-.15c1.23.09 2.43.52 3.65.63s2.48-.1 3.7.03 2.4.62 3.62.77c1.22.15 2.44.29 3.65.46s2.45.24 3.66.43c1.22.19 2.48.12 3.68.33s2.39.62 3.59.85 2.43.4 3.63.65 2.42.45 3.62.73 2.34.81 3.53 1.11 2.46.31 3.65.63 2.28.97 3.46 1.31 2.4.57 3.57.93 2.35.72 3.52 1.1 2.24 1.04 3.4 1.44c1.16.4 2.37.67 3.52 1.09 1.15.43 2.36.72 3.5 1.17s2.29.91 3.42 1.37 2.2 1.11 3.33 1.6 2.38.7 3.5 1.21 2.15 1.22 3.26 1.74c1.11.53 2.16 1.18 3.26 1.73s2.27.96 3.36 1.52 2.17 1.16 3.25 1.74 2.08 1.32 3.15 1.92c1.07.6 2.34.86 3.4 1.48s1.9 1.62 2.95 2.26c1.05.64 2.13 1.22 3.17 1.88s2.15 1.19 3.18 1.87c1.03.68 2.15 1.22 3.16 1.91 1.01.7 1.85 1.65 2.85 2.36s2.11 1.28 3.1 2.01 1.89 1.58 2.87 2.33 1.89 1.57 2.85 2.33c.96.76 2.11 1.3 3.06 2.08s1.91 1.55 2.85 2.35 1.6 1.9 2.52 2.72 1.94 1.52 2.84 2.35 1.98 1.49 2.87 2.33 1.77 1.71 2.65 2.57c.88.86 1.61 1.87 2.47 2.75s1.58 1.89 2.42 2.78 1.88 1.6 2.71 2.51c.83.91 1.42 2.03 2.24 2.95s1.93 1.58 2.73 2.52c.8.93 1.61 1.87 2.39 2.81.78.95 1.18 2.2 1.95 3.17s1.71 1.78 2.45 2.76 1.47 1.97 2.2 2.96 1.64 1.85 2.35 2.85c.71 1 1.38 2.04 2.08 3.05s1.04 2.26 1.72 3.29 1.62 1.88 2.27 2.92c.66 1.04 1.21 2.14 1.85 3.19.64 1.05 1.45 2 2.07 3.06s1.04 2.24 1.64 3.31c.6 1.07 1.25 2.12 1.83 3.2s1.08 2.21 1.64 3.3 1.4 2.05 1.94 3.15 1.03 2.23 1.56 3.34.8 2.34 1.31 3.46.93 2.27 1.42 3.4c.49 1.13 1.32 2.11 1.79 3.25s.51 2.44.96 3.59 1.28 2.14 1.7 3.3.63 2.38 1.04 3.55.58 2.39.96 3.56.85 2.3 1.22 3.48 1.06 2.25 1.4 3.43c.34 1.18.42 2.43.74 3.62s.82 2.33 1.12 3.52c.3 1.19.53 2.4.8 3.6s.34 2.44.6 3.64.7 2.36.94 3.57.62 2.39.83 3.6.21 2.46.4 3.67.52 2.41.69 3.63c.17 1.22.38 2.43.53 3.65.15 1.22.14 2.46.27 3.68.13 1.22-.02 2.47.08 3.69.11 1.22.32 2.44.41 3.66.09 1.22.1 2.45.16 3.68s.24 2.45.28 3.68c.04 1.23.14 2.45.16 3.68s-.19 2.46-.19 3.69z"/><path fill="none" stroke="#006fe6" stroke-miterlimit="10" stroke-width="4.5" d="M124.13 247.49c1.58-1 1.39-1.3 2.96-2.3 1.58-1 1.61-.96 3.18-1.96 1.58-1 1.56-1.03 3.14-2.04s2.39-.25 3.27-1.9c.92-1.72-.14-1.99-.14-3.94s.28-1.96.28-3.91-1.43-2.38-.09-3.81c1.25-1.34 1.72.08 3.55.08s1.83-.19 3.65-.19 1.83.07 3.65.07 1.83-.07 3.65-.07 1.83.13 3.65.13 1.83-.26 3.65-.26 1.83.15 3.66.15 1.83-.07 3.66-.07c.4 0-1.2.2-.8.2 1.83 0 1.83.12 3.65.12s1.83-.39 3.65-.39 1.83.25 3.65.25 1.83-.26 3.65-.26 1.83.21 3.65.21 1.83.12 3.65.12 1.83-.02 3.66-.02 2.47-1.54 3.72-.2c1.34 1.43.02 2.01.02 3.97s.12 1.96.12 3.91-1.17 2.21-.25 3.94 1.52 1.13 3.1 2.13 1.65.89 3.22 1.9c1.58 1 1.57 1.02 3.15 2.03 1.58 1 1.5 1.13 3.08 2.13"/><path fill="#fff" d="M230.31 442.5c1.62.53 1.37-1.11 2.84-1.96s1.59-.65 3.07-1.5l2.96-1.7c1.48-.85 1.51-.8 2.99-1.65s1.37-1.05 2.85-1.91 2.53.07 2.89-1.6c.4-1.84-.98-1.49-1.92-3.12-.94-1.63-.8-1.71-1.74-3.35-.94-1.63-.74-1.75-1.68-3.39s-1.31-1.42-2.26-3.05c-.94-1.63-.59-1.83-1.54-3.46s-1.14-1.52-2.08-3.15-1.09-1.55-2.03-3.19-.62-1.82-1.56-3.46c-.95-1.64-1.13-1.53-2.08-3.17s.02-2.86-1.78-3.44c-1.62-.53-1.46 1.08-2.93 1.93s-1.51.79-2.99 1.65c-1.48.85-1.55.73-3.03 1.58s-1.54.75-3.01 1.6c-1.48.85-1.45.91-2.93 1.77-1.48.85-2.73.12-3.09 1.79-.4 1.84 1.2 1.65 2.14 3.28s1.1 1.54 2.04 3.18.74 1.75 1.68 3.38 1.09 1.55 2.03 3.18.8 1.71 1.74 3.34.76 1.74 1.7 3.38c.94 1.63 1.16 1.51 2.1 3.14s.84 1.69 1.78 3.33 1.48 1.4 2.07 3.2c.63 1.92-.03 2.77 1.77 3.35z"/><path fill="none" stroke="#3c1053" stroke-miterlimit="10" stroke-width="4.5" d="M230.31 442.5c1.62.53 1.37-1.11 2.84-1.96s1.59-.65 3.07-1.5l2.96-1.7c1.48-.85 1.51-.8 2.99-1.65s1.37-1.05 2.85-1.91 2.53.07 2.89-1.6c.4-1.84-.98-1.49-1.92-3.12-.94-1.63-.8-1.71-1.74-3.35-.94-1.63-.74-1.75-1.68-3.39s-1.31-1.42-2.26-3.05c-.94-1.63-.59-1.83-1.54-3.46s-1.14-1.52-2.08-3.15-1.09-1.55-2.03-3.19-.62-1.82-1.56-3.46c-.95-1.64-1.13-1.53-2.08-3.17s.02-2.86-1.78-3.44c-1.62-.53-1.46 1.08-2.93 1.93s-1.51.79-2.99 1.65c-1.48.85-1.55.73-3.03 1.58s-1.54.75-3.01 1.6c-1.48.85-1.45.91-2.93 1.77-1.48.85-2.73.12-3.09 1.79-.4 1.84 1.2 1.65 2.14 3.28s1.1 1.54 2.04 3.18.74 1.75 1.68 3.38 1.09 1.55 2.03 3.18.8 1.71 1.74 3.34.76 1.74 1.7 3.38c.94 1.63 1.16 1.51 2.1 3.14s.84 1.69 1.78 3.33 1.48 1.4 2.07 3.2c.63 1.92-.03 2.77 1.77 3.35z"/><path fill="#fff" d="M100.19 442.37c-1.62.53-1.34-.95-2.82-1.8-1.48-.85-1.6-.64-3.08-1.49s-1.44-.92-2.92-1.77-1.45-.91-2.93-1.76c-1.48-.85-1.46-.88-2.94-1.74-1.48-.85-2.57.06-2.93-1.61-.4-1.84 1.03-1.51 1.97-3.14s.89-1.66 1.84-3.29c.94-1.63.62-1.82 1.57-3.45s1.04-1.58 1.98-3.21 1.02-1.59 1.96-3.22c.94-1.63 1.16-1.51 2.11-3.14.94-1.63.65-1.8 1.6-3.43s1.03-1.59 1.97-3.22c.95-1.64.84-1.7 1.78-3.33s.23-2.54 2.02-3.13c1.62-.53 1.49.68 2.97 1.54 1.48.85 1.44.91 2.92 1.76s1.37 1.04 2.85 1.89 1.64.57 3.12 1.42c1.48.85 1.36 1.06 2.84 1.92s2.66-.05 3.02 1.62c.4 1.84-1.06 1.57-2 3.2-.94 1.63-1.03 1.58-1.97 3.22-.94 1.63-.84 1.69-1.79 3.32s-.73 1.76-1.67 3.39c-.94 1.63-1.05 1.57-1.99 3.2s-.96 1.63-1.9 3.26-1.05 1.57-1.99 3.21c-.94 1.63-.71 1.77-1.65 3.41s-1.25 1.46-1.86 3.25c-.64 1.87-.28 2.55-2.08 3.13z"/><path fill="none" stroke="#3c1053" stroke-miterlimit="10" stroke-width="4.5" d="M100.19 442.37c-1.62.53-1.34-.95-2.82-1.8-1.48-.85-1.6-.64-3.08-1.49s-1.44-.92-2.92-1.77-1.45-.91-2.93-1.76c-1.48-.85-1.46-.88-2.94-1.74-1.48-.85-2.57.06-2.93-1.61-.4-1.84 1.03-1.51 1.97-3.14s.89-1.66 1.84-3.29c.94-1.63.62-1.82 1.57-3.45s1.04-1.58 1.98-3.21 1.02-1.59 1.96-3.22c.94-1.63 1.16-1.51 2.11-3.14.94-1.63.65-1.8 1.6-3.43s1.03-1.59 1.97-3.22c.95-1.64.84-1.7 1.78-3.33s.23-2.54 2.02-3.13c1.62-.53 1.49.68 2.97 1.54 1.48.85 1.44.91 2.92 1.76s1.37 1.04 2.85 1.89 1.64.57 3.12 1.42c1.48.85 1.36 1.06 2.84 1.92s2.66-.05 3.02 1.62c.4 1.84-1.06 1.57-2 3.2-.94 1.63-1.03 1.58-1.97 3.22-.94 1.63-.84 1.69-1.79 3.32s-.73 1.76-1.67 3.39c-.94 1.63-1.05 1.57-1.99 3.2s-.96 1.63-1.9 3.26-1.05 1.57-1.99 3.21c-.94 1.63-.71 1.77-1.65 3.41s-1.25 1.46-1.86 3.25c-.64 1.87-.28 2.55-2.08 3.13z"/><path fill="#006fe6" d="M255.01 354.71c0-2.16.31-4.33.16-6.46-.15-2.16-.78-4.26-1.08-6.37-.3-2.14-1.05-4.17-1.5-6.25s-.25-4.37-.86-6.42-1.78-3.94-2.53-5.95-1.46-4.04-2.35-5.98a85.64 85.64 0 0 0-2.9-5.74c-1.03-1.89-1.85-3.9-3.01-5.7-1.16-1.81-2.26-3.69-3.54-5.4s-2.65-3.42-4.05-5.04-3.12-2.98-4.64-4.5c-1.52-1.52-2.88-3.23-4.5-4.64s-3.64-2.34-5.36-3.63c-1.71-1.29-3.18-2.96-4.98-4.12-1.8-1.16-3.97-1.73-5.86-2.76-1.88-1.03-3.72-2.14-5.67-3.03-1.95-.89-3.82-1.99-5.84-2.74s-4.25-.76-6.32-1.37-3.99-1.63-6.1-2.08c-2.09-.45-4.23-.63-6.37-.94-2.11-.3-4.23-.65-6.38-.81-2.12-.15-4.27-.24-6.43-.24s-4.34-.31-6.46-.16c-2.16.15-4.2 1.21-6.31 1.51-2.14.3-4.26.5-6.34.95s-4.2.9-6.25 1.5c-2.07.61-4.3.74-6.3 1.49-2.02.75-3.92 1.82-5.87 2.71-1.96.89-3.69 2.22-5.57 3.25-1.89 1.03-3.64 2.24-5.44 3.4s-3.53 2.4-5.25 3.68c-1.72 1.29-3.71 2.22-5.33 3.63s-3.27 2.81-4.78 4.32c-1.52 1.52-2.63 3.42-4.03 5.04s-3.05 3.04-4.34 4.76c-1.29 1.71-2.31 3.62-3.48 5.42s-2.35 3.58-3.38 5.47c-1.03 1.88-2.28 3.66-3.18 5.62s-1.42 4.06-2.17 6.08-1.58 3.99-2.18 6.06c-.6 2.05-.74 4.23-1.2 6.33s-.75 4.19-1.05 6.33-.77 4.2-.92 6.36-.2 4.26-.2 6.43.31 4.28.46 6.41c.15 2.16.35 4.27.65 6.38.3 2.14.64 4.24 1.09 6.32s1.1 4.13 1.7 6.18c.61 2.07.59 4.33 1.34 6.34.75 2.02 1.86 3.9 2.75 5.84s1.81 3.9 2.84 5.78 2.49 3.51 3.65 5.31 2.16 3.71 3.45 5.42 2.43 3.56 3.83 5.18 3.04 3.04 4.56 4.56c1.52 1.52 3.14 2.91 4.77 4.32s3.06 3.05 4.78 4.33c1.71 1.29 3.7 2.2 5.5 3.36 1.8 1.16 3.39 2.71 5.28 3.74s4.15 1.29 6.1 2.19c1.95.89 3.78 2.03 5.8 2.78 2 .75 4.01 1.52 6.07 2.13s4.19.88 6.3 1.34 4.21.67 6.34.97 4.19.97 6.34 1.12c2.12.15 4.28.07 6.44.07s4.33.24 6.45.09c2.16-.15 4.23-.9 6.34-1.2s4.26-.55 6.35-1c2.11-.46 4.11-1.23 6.16-1.83 2.07-.61 4.24-.83 6.25-1.57s3.96-1.67 5.91-2.56c1.96-.89 3.98-1.66 5.86-2.69 1.89-1.03 3.79-2.07 5.59-3.23s3.55-2.45 5.27-3.73 3.28-2.79 4.9-4.2 3.02-3.04 4.54-4.56c1.52-1.52 2.99-3.06 4.4-4.68s2.73-3.29 4.02-5.01 2.6-3.4 3.76-5.21c1.16-1.8 2.67-3.42 3.7-5.3 1.03-1.88 1.29-4.15 2.19-6.1.89-1.95 2.3-3.68 3.05-5.7s1.07-4.16 1.68-6.23 1.31-4.08 1.77-6.19c.45-2.09.56-4.24.86-6.38.3-2.11.5-4.23.65-6.39.15-2.12.44-4.25.44-6.42z"/><path fill="#fff" d="M243.57 354.71c0-2.09.32-4.16.16-6.21s-.74-4.08-1.05-6.12-.11-4.21-.59-6.21-1.6-3.86-2.24-5.82-.84-4.11-1.63-6.02c-.8-1.92-2.23-3.54-3.16-5.38s-1.49-3.91-2.58-5.67c-1.09-1.77-2.55-3.28-3.76-4.95-1.22-1.68-2.1-3.62-3.45-5.2s-2.79-3.09-4.26-4.55-2.95-2.95-4.52-4.29c-1.57-1.34-3.32-2.51-4.99-3.73-1.67-1.22-3.72-1.86-5.49-2.95-1.76-1.08-3.45-2.26-5.29-3.21s-3.77-1.65-5.69-2.44c-1.91-.79-3.74-1.76-5.71-2.4-1.96-.64-4-.98-6.02-1.46-2-.48-3.9-1.6-5.95-1.93-2.03-.32-4.13-.43-6.21-.59s-4.14.46-6.23.46-4.18-.58-6.22-.42c-2.08.16-4.09.8-6.13 1.12-2.06.32-4.18.3-6.18.78s-4.03 1.09-5.99 1.73c-1.98.64-4.02 1.18-5.92 1.97-1.92.8-3.74 1.85-5.58 2.79-1.85.94-3.57 2.14-5.33 3.22s-3.47 2.26-5.15 3.48c-1.68 1.22-3.37 2.42-4.94 3.77-1.57 1.35-3.16 2.7-4.62 4.17-1.46 1.46-3.06 2.84-4.41 4.42-1.34 1.57-2.04 3.67-3.26 5.34-1.22 1.67-2.28 3.42-3.37 5.19s-2.48 3.34-3.42 5.19-1.97 3.66-2.76 5.58c-.79 1.91-1.37 3.91-2.02 5.89s-1.35 3.92-1.83 5.95c-.48 2-.9 4.05-1.23 6.11-.32 2.03-.49 4.11-.65 6.19s-.34 4.13-.34 6.22.11 4.18.27 6.22c.16 2.08.21 4.18.53 6.22s.81 4.1 1.29 6.11 1.39 3.93 2.03 5.89c.64 1.98 1.03 4.06 1.82 5.96s2.24 3.54 3.18 5.37c.94 1.85 1.51 3.9 2.6 5.66 1.09 1.77 2.36 3.42 3.57 5.09 1.22 1.68 2.27 3.51 3.62 5.08s3.18 2.71 4.64 4.18 2.62 3.28 4.19 4.62c1.57 1.34 3.44 2.34 5.12 3.56s3.56 2.1 5.33 3.18c1.76 1.08 3.31 2.54 5.16 3.48 1.84.94 3.89 1.44 5.81 2.23s3.64 2.08 5.62 2.73c1.96.64 4.08.8 6.11 1.28 2 .48 4.06.71 6.12 1.04 2.03.32 4.08.51 6.16.67s4.1.64 6.19.64 4.17-.05 6.22-.21 4.15-.4 6.18-.72c2.06-.32 3.97-1.3 5.97-1.78 2.02-.48 4.14-.56 6.1-1.2s3.85-1.55 5.76-2.34 3.71-1.83 5.54-2.77c1.85-.94 3.99-1.36 5.76-2.44 1.77-1.09 3.38-2.44 5.05-3.66 1.68-1.22 3.17-2.67 4.75-4.02s3.04-2.81 4.5-4.27 3.19-2.7 4.53-4.27c1.34-1.57 2.29-3.47 3.51-5.15 1.22-1.67 2.44-3.34 3.53-5.1s2.09-3.57 3.03-5.42c.94-1.84 2.1-3.59 2.9-5.51.79-1.91 1.16-3.98 1.8-5.96s1.18-3.95 1.66-5.97c.48-2 1.35-3.95 1.67-6.01s.36-4.13.52-6.21c.16-2.05-.29-4.13-.29-6.22z"/><g fill="#3c1053"><path d="M164.89 358.3c-1.77 0-3.6-1.82-3.6-3.59 0-2.83.77-2.83.77-5.67s-.74-2.84-.74-5.67c0-2.84.1-2.84.1-5.68s-.03-2.84-.03-5.68c0-1.77 1.73-3.58 3.5-3.58s2.88 1.81 2.88 3.58c0 2.83.71 2.83.71 5.67s-.15 2.84-.15 5.67c0 2.84.05 2.84.05 5.68s-.16 2.84-.16 5.68c0 1.77-1.57 3.59-3.34 3.59z"/><path d="M164.89 358.19c-.54 0-1.17-.28-1.68-.57-1.53-.89-1.76-2.85-.88-4.38 1.61-2.73 1.46-2.81 3.07-5.54 1.61-2.72 1.7-2.67 3.31-5.39 1.61-2.72 1.55-2.76 3.16-5.49 1.61-2.73 1.63-2.72 3.24-5.44 1.61-2.73 1.68-2.69 3.29-5.42.89-1.53 2.79-2.32 4.32-1.44 1.53.89 1.84 2.94.95 4.48-1.61 2.73-1.37 2.87-2.98 5.59s-1.37 2.86-2.99 5.58c-1.61 2.72-2.18 2.39-3.79 5.11-1.61 2.73-1.78 2.63-3.39 5.35-1.61 2.73-1.57 2.75-3.18 5.48-.59 1.03-1.35 2.06-2.46 2.06z"/><path d="M171.42 354.71c0-1.82-.68-3.46-1.87-4.66-1.19-1.19-2.84-2.04-4.66-2.04s-3.24 1.07-4.44 2.27c-1.19 1.19-2.29 2.61-2.29 4.44s1.01 3.33 2.2 4.52c1.19 1.19 2.7 2.04 4.52 2.04s3.56-.62 4.76-1.81 1.77-2.94 1.77-4.76z"/></g><g fill="none" stroke="#3c1053" stroke-linecap="round" stroke-miterlimit="10" stroke-width="5.25"><path d="M163.93 290.74c0 3.8.12 3.8.12 7.6s-.15 3.8-.15 7.6M131.54 299.83l3.8 6.58c1.9 3.29 1.98 3.24 3.88 6.53M107.84 323.84c3.29 1.9 2.97 2.45 6.26 4.34 3.29 1.9 3.26 1.96 6.55 3.86M99.17 357.46c3.8 0 3.8-.63 7.6-.63s3.8.31 7.6.31M108.37 390.02c3.29-1.9 3.2-2.06 6.49-3.96s3.3-1.88 6.59-3.78M132.58 413.7c1.9-3.29 2.11-3.17 4.01-6.46s1.77-3.36 3.67-6.65M165.45 422.19c0-3.8-.22-3.8-.22-7.6s.19-3.8.19-7.6M198.15 413.15c-1.9-3.29-1.43-3.56-3.33-6.85-1.9-3.29-2.21-3.11-4.11-6.4M222.35 388.39c-3.29-1.9-3.56-1.44-6.85-3.34-3.29-1.9-3.22-2.03-6.51-3.93M230.62 355.69c-3.8 0-3.8-.01-7.6-.01s-3.8.01-7.6.01M221.3 322.71c-3.29 1.9-3.06 2.29-6.35 4.19s-3.3 1.88-6.59 3.78M197.21 299.23c-1.9 3.29-1.67 3.42-3.57 6.71s-2.15 3.14-4.05 6.43"/></g><path fill="none" stroke="#3c1053" stroke-linecap="round" stroke-linejoin="round" stroke-width="4.69" d="M437.2 445.01c-1.86 0-1.86-.24-3.73-.24s-1.86-.02-3.73-.02h-3.73c-1.86 0-1.86.35-3.73.35s-1.86-.3-3.73-.3-1.86.12-3.73.12c-1.86 0-1.86.11-3.73.11-1.86 0-1.86-.41-3.73-.41s-1.86.14-3.73.14-1.86.13-3.73.13c-1.86 0-1.86.05-3.73.05s-1.86-.25-3.73-.25-1.86.26-3.73.26-1.86-.06-3.73-.06h-3.73c-1.86 0-1.86-.19-3.73-.19s-1.86.22-3.73.22c-1.86 0-1.86.01-3.73.01s-1.86-.28-3.73-.28c-1.86 0-1.86.12-3.73.12s-1.86.08-3.73.08c-1.86 0-1.86.24-3.73.24-1.86 0-1.86-.23-3.73-.23s-1.86.2-3.73.2-1.86-.09-3.73-.09-1.86-.26-3.73-.26h-3.73c-1.87 0-1.86.11-3.73.11s-1.86.04-3.73.04c-1.86 0-1.86.04-3.73.04s-1.86.17-3.73.17-1.86-.1-3.72-.1-1.86-.37-3.72-.37-1.86.1-3.72.1-1.86.14-3.73.14-1.86-.16-3.73-.16-1.86-.06-3.73-.06-1.86.38-3.73.38c-1.86 0-1.86-.32-3.72-.32s-1.86.08-3.72.08-1.86.15-3.72.15-1.86.17-3.73.17c-1.86 0-1.86-.34-3.73-.34-1.86 0-1.86.06-3.73.06-1.86 0-1.86.25-3.73.25-1.86 0-1.86-.32-3.73-.32-1.86 0-1.86.14-3.73.14s-1.86-.24-3.73-.24-1.86.04-3.73.04c-1.86 0-1.86.41-3.73.41-1.86 0-1.86-.26-3.73-.26-1.86 0-1.86-.03-3.73-.03-1.86 0-1.86-.08-3.73-.08-1.87 0-1.87.36-3.73.36s-1.86-.44-3.73-.44-1.86.27-3.73.27-1.86.15-3.73.15c-1.87 0-1.87-.23-3.73-.23h-3.73c-1.86 0-1.86-.06-3.73-.06-1.87 0-1.87.27-3.73.27-1.86 0-1.86-.45-3.73-.45-1.87 0-1.87.3-3.73.3-1.86 0-1.86.1-3.73.1s-1.87.01-3.73.01c-1.87 0-1.87-.23-3.73-.23s-1.87-.17-3.73-.17-1.87.4-3.73.4-1.87-.34-3.73-.34c-1.86 0-1.86.4-3.73.4-1.87 0-1.87-.16-3.73-.16-1.86 0-1.86-.17-3.73-.17-1.87 0-1.87.25-3.73.25s-1.86.08-3.73.08-1.87-.02-3.73-.02-1.87-.13-3.73-.13-1.87-.06-3.73-.06-1.87.13-3.73.13h-3.73c-1.87 0-1.87.09-3.73.09s-1.87.03-3.73.03c-1.87 0-1.87-.48-3.74-.48s-1.87.13-3.74.13"/><path fill="none" stroke="#3c1053" stroke-linecap="round" stroke-linejoin="round" stroke-width="5.33" d="M114.35 445.06c-2.17 0-2.17-.34-4.33-.34s-2.17.09-4.34.09-2.17-.21-4.33-.21c-2.17 0-2.17.39-4.34.39s-2.17-.37-4.34-.37-2.17.25-4.34.25-2.17.22-4.34.22-2.17-.35-4.34-.35-2.17.27-4.34.27-2.17-.41-4.34-.41-2.17.28-4.34.28-2.17.11-4.34.11"/><g><path fill="#006fe6" fill-rule="evenodd" d="M424.99 253.58c1.26-.02 2.46.26 3.62.61s2.39.73 3.41 1.41 1.96 1.56 2.73 2.51c.78.96 1.39 2.07 1.82 3.22s.44 2.38.47 3.63c.02 1.25.13 2.52-.25 3.67-.39 1.17-1.23 2.13-1.96 3.12s-1.64 1.75-2.63 2.49-1.99 1.35-3.15 1.76-2.31.77-3.56.79c-1.28.02-2.49-.2-3.62-.53-1.21-.36-2.42-.72-3.41-1.42s-1.67-1.79-2.39-2.8c-.7-.98-1.39-1.99-1.76-3.2-.34-1.13-.29-2.36-.29-3.64 0-1.24.05-2.4.38-3.51.35-1.17.83-2.25 1.49-3.22s1.59-1.72 2.54-2.44 1.83-1.56 2.99-1.95 2.32-.49 3.56-.51zM364.81 68.63c1.02.6 1.98 1.29 2.98 1.92s2.1 1.11 3.07 1.77c.98.66 1.95 1.35 2.9 2.04s1.89 1.43 2.82 2.15 1.71 1.65 2.61 2.4c.91.76 2.01 1.29 2.89 2.07s1.55 1.8 2.4 2.62 1.61 1.72 2.43 2.56 1.67 1.65 2.46 2.53 1.67 1.67 2.43 2.57c.75.91 1.46 1.85 2.17 2.79s1.58 1.76 2.26 2.72c.68.96 1.09 2.11 1.74 3.09.64.99 1.42 1.89 2.03 2.9s.98 2.15 1.55 3.18 1.21 2.01 1.74 3.07 1.06 2.1 1.55 3.17.82 2.2 1.27 3.3 1.2 2.05 1.61 3.16c.41 1.1.78 2.22 1.15 3.34.37 1.11.59 2.28.92 3.42s.73 2.23 1.03 3.38.74 2.24 1.01 3.4c.26 1.14.17 2.37.4 3.53.24 1.24.83 2.42 1.02 3.66s.21 2.52.37 3.77.14 2.52.28 3.78.16 2.52.3 3.77.46 2.49.62 3.74c-.02 1.22.03 2.44-.06 3.65s-.3 2.42-.43 3.63-.21 2.43-.39 3.63-.24 2.43-.45 3.63-.76 2.34-.99 3.53c-.23 1.19-.2 2.44-.45 3.63s-.65 2.35-.91 3.54c-.23 1.08-.34 2.18-.57 3.26s-.55 2.14-.77 3.22-.23 2.2-.43 3.29-.77 2.11-.94 3.2-.03 2.23-.16 3.32c-.13 1.1-.5 2.17-.58 3.27-.08 1.11-.14 2.22-.14 3.33s.13 2.22.23 3.32c.1 1.1.44 2.17.63 3.26s.17 2.23.46 3.3.67 2.11 1.06 3.16.97 1.98 1.46 2.99c.55 1.11.95 2.26 1.33 3.37s.57 2.36.77 3.53.22 2.38.24 3.58.28 2.42.1 3.62-.69 2.29-1.04 3.47-.72 2.26-1.22 3.39c-.49 1.1-.83 2.35-1.55 3.4s-1.64 1.86-2.5 2.78c-.83.89-1.9 1.54-2.88 2.33s-1.81 1.7-2.88 2.33c-1.06.63-2.19 1.16-3.34 1.63-1.14.46-2.3.92-3.52 1.2s-2.43.51-3.68.59-2.49.15-3.74.01-2.41-.52-3.64-.87c-1.15-.33-2.23-.97-3.4-1.51-1.07-.5-2.16-.95-3.23-1.35s-2.32-.44-3.42-.76-2.19-.88-3.32-1.11-2.31-.37-3.46-.51-2.32-.15-3.49-.2-2.32 0-3.48.03-2.33-.14-3.5-.05-2.29.42-3.45.58-2.33.15-3.48.37-2.3.35-3.44.61c-1.13.25-2.23.67-3.36.96-1.17.3-2.34.54-3.5.8s-2.32.67-3.48.91-2.36.49-3.53.69-2.41.14-3.59.31c-1.19.17-2.35.63-3.53.76-1.2.13-2.4.18-3.59.27s-2.41.02-3.6.07c-1.2.05-2.4-.06-3.6-.05s-2.4.15-3.59.12-2.4-.03-3.6-.1-2.41-.02-3.6-.14-2.39-.25-3.58-.42-2.33-.63-3.51-.84-2.36-.4-3.53-.66-2.3-.66-3.46-.96-2.28-.72-3.43-1.07c-1.14-.35-2.35-.51-3.48-.9s-2.18-.99-3.3-1.43-2.3-.69-3.4-1.18c-1.09-.48-2.22-.91-3.3-1.43-1.07-.52-2.04-1.26-3.11-1.82s-2.17-1.02-3.21-1.62-1.93-1.42-2.95-2.06-2.24-.94-3.24-1.62-1.81-1.59-2.78-2.29-2.1-1.18-3.06-1.92c-.94-.73-1.73-1.66-2.66-2.43s-2.01-1.33-2.92-2.12-1.61-1.79-2.49-2.61c-.87-.8-1.84-1.5-2.67-2.32-.84-.83-1.61-1.73-2.41-2.59s-1.54-1.79-2.31-2.68c-.77-.89-1.66-1.69-2.39-2.6s-1.41-1.9-2.11-2.84-1.47-1.85-2.13-2.82c-.67-.97-1.24-2.01-1.87-3-.63-1-1.33-1.95-1.92-2.97s-.78-2.26-1.33-3.3-1.38-1.94-1.89-3-1.06-2.11-1.52-3.19-.82-2.21-1.25-3.31-.75-2.23-1.14-3.34-.71-2.24-1.06-3.37-.55-2.28-.85-3.43c-.3-1.13-.97-2.18-1.24-3.33s-.36-2.33-.58-3.49-.49-2.3-.68-3.47c-.19-1.17-.24-2.36-.39-3.52s-.31-2.35-.43-3.52c-.12-1.18-.03-2.37-.11-3.54s-.17-2.36-.21-3.53-.34-2.36-.35-3.54.11-2.37.15-3.54.07-2.37.15-3.54c.08-1.18.15-2.36.28-3.53s.33-2.34.5-3.51.63-2.29.84-3.45c.21-1.16.14-2.38.39-3.53.26-1.15.42-2.33.72-3.47s.62-2.29.96-3.42.76-2.24 1.15-3.36.89-2.19 1.32-3.29 1.08-2.1 1.55-3.19.73-2.26 1.25-3.32 1.24-2.01 1.79-3.06.8-2.25 1.39-3.28c.58-1.02 1.53-1.83 2.15-2.84.62-1 1.31-1.95 1.96-2.94s1.15-2.06 1.84-3.03c.68-.95 1.5-1.81 2.22-2.75s1.34-1.94 2.09-2.86 1.65-1.68 2.43-2.58c.78-.9 1.35-1.99 2.15-2.86s1.74-1.64 2.57-2.47 1.56-1.81 2.43-2.62c.87-.81 1.8-1.56 2.7-2.34s1.87-1.47 2.8-2.21 1.8-1.57 2.75-2.27c.95-.71 2-1.3 2.97-1.97s1.96-1.35 2.96-1.98 2.09-1.12 3.12-1.72 1.9-1.47 2.95-2.03 2.19-.94 3.26-1.46c1.07-.51 2.11-1.09 3.2-1.57s2.3-.64 3.41-1.08c1.1-.43 2.15-1.01 3.28-1.4s2.22-.83 3.36-1.18 2.32-.51 3.47-.82 2.26-.71 3.42-.99 2.28-.7 3.45-.93c1.16-.23 2.34-.4 3.52-.6 1.2-.2 2.44-.13 3.63-.29s2.37-.62 3.57-.74 2.43-.17 3.63-.25 2.42-.26 3.63-.3c1.21-.04 2.43-.04 3.64-.03 1.21 0 2.43.07 3.64.12s2.4.45 3.61.55 2.4.29 3.6.43c1.2.14 2.42.14 3.62.32s2.38.42 3.57.66 2.41.3 3.59.58c1.18.28 2.26.91 3.43 1.24s2.41.38 3.56.75 2.21 1.01 3.35 1.42c1.13.41 2.4.5 3.52.96s2.14 1.16 3.25 1.66 2.25.89 3.34 1.44 2.17 1.07 3.24 1.65 2.05 1.29 3.1 1.91z" data-name="00:-Visual-assets-/-Icons-/-Cora-/-32x32"/></g><path fill="#3c1053" d="M233.03 254.31c-.11 1.1.09 2.09.39 3.08.31 1.03.68 1.99 1.35 2.81s1.37 1.69 2.32 2.2 2.02.63 3.12.74c1.1.11 2.09-.2 3.08-.51s1.95-.72 2.77-1.39 1.52-1.43 2.03-2.38.68-1.91.79-3.01c.11-1.1.12-2.12-.18-3.11s-.76-1.98-1.44-2.8-1.38-1.7-2.33-2.21-2.03-.67-3.13-.78-2.23-.18-3.23.12-1.86 1.11-2.68 1.78-1.55 1.44-2.06 2.39-.69 1.95-.8 3.05z"/><g fill="#3c1053"><path fill-rule="evenodd" d="M185.85 254.1c.99 1.46 1.46 1 2.88 2.05s1.51.93 2.93 1.98 1.4 1.08 2.82 2.13 1.29 1.24 2.71 2.29 1.32 1.19 2.74 2.24c1.42 1.05 1.51.93 2.94 1.98s1.58.83 3 1.89 1.33 1.18 2.75 2.23 1.44 1.03 2.86 2.08 1.45 1.01 2.87 2.06c1.42 1.05 1.23 1.31 2.65 2.37 1.42 1.05 1.5.95 2.92 2s1.51.94 2.93 1.99 1.29 1.24 2.71 2.29 1.64.75 3.06 1.8 1.4 1.08 2.82 2.14 1.33 1.18 2.75 2.23 1.37 1.12 2.8 2.17c1.42 1.05 1.41 1.07 2.83 2.12 1.42 1.05 1.46 1.01 2.88 2.06s1.54.89 2.96 1.94 1.33 1.17 2.76 2.23 1.41 1.07 2.83 2.12 1.42 1.06 2.84 2.11 1.43 1.04 2.86 2.1 1.21 1.38 2.91 1.91c.73-.99 1.28-1.81 1.89-2.85.61-1.06 1.31-2.08 1.79-3.18s1-2.25 1.35-3.4.23-2.45.44-3.64.66-2.36.74-3.57-.11-2.43-.16-3.64-.06-2.43-.25-3.63c-.19-1.21-.53-2.4-.85-3.59-.33-1.18-.6-2.39-1.06-3.54s-.89-2.31-1.47-3.4c-.58-1.08-1.33-2.07-2.04-3.09s-1.48-1.96-2.29-2.89-1.67-1.79-2.58-2.63c-.89-.83-1.78-1.69-2.78-2.43-1.49-1.11-1.55-1.03-3.04-2.14s-1.46-1.15-2.95-2.26-1.5-1.1-2.99-2.2-1.57-1-3.07-2.1c-1.49-1.11-1.57-1.01-3.06-2.11-1.5-1.11-1.31-1.35-2.81-2.46s-1.58-1-3.07-2.11c-.99-.74-2.08-1.29-3.12-1.9s-2.09-1.27-3.2-1.76-2.19-1.14-3.35-1.51-2.38-.66-3.57-.9c-1.2-.24-2.46-.1-3.67-.2s-2.43-.49-3.65-.46-2.46.11-3.67.28-2.42.43-3.61.73-2.37.66-3.51 1.09-2.2 1.08-3.29 1.64-2.02 1.33-3.05 2.02-2.23 1.07-3.17 1.87-1.54 1.91-2.38 2.81c-.83.88-1.78 1.67-2.52 2.67z"/><path d="M260.89 311.76l-1.83-.57c-1.58-.5-2.21-1-2.92-1.65-.22-.2-.43-.4-.79-.66-.7-.52-1.05-.78-1.41-1.03-.37-.27-.73-.53-1.45-1.07l-2.85-2.11c-.73-.54-1.09-.81-1.45-1.08-.34-.26-.69-.52-1.39-1.04-.8-.59-1.2-.95-1.56-1.26-.31-.27-.58-.51-1.2-.97-.59-.44-.87-.6-1.23-.81a15 15 0 0 1-1.73-1.14c-.68-.5-1.02-.74-1.37-.98-.38-.26-.76-.53-1.51-1.08l-1.44-1.08c-.35-.26-.69-.53-1.39-1.04-.76-.56-1.13-.86-1.49-1.16-.32-.26-.64-.52-1.3-1.01-.81-.6-1.21-.96-1.56-1.27-.31-.27-.57-.51-1.18-.96-.74-.55-1.1-.83-1.46-1.11-.34-.26-.68-.52-1.36-1.03-.48-.36-.7-.45-1.05-.62-.48-.22-1.08-.49-2.02-1.19a14.08 14.08 0 0 1-1.62-1.37c-.29-.28-.52-.5-1.09-.92-.62-.46-.93-.65-1.28-.87-.4-.25-.84-.53-1.64-1.12-.63-.47-.96-.68-1.3-.89-.39-.25-.83-.53-1.62-1.11-.91-.67-1.34-1.14-1.69-1.51-.27-.29-.44-.48-.96-.85-.68-.5-1.02-.74-1.37-.98-.38-.26-.76-.53-1.5-1.08-.69-.51-1.04-.76-1.39-1.01-.37-.26-.74-.53-1.47-1.07-.81-.6-1.21-.95-1.56-1.26-.31-.27-.58-.51-1.19-.97-.54-.4-.8-.54-1.15-.72-.43-.23-.98-.51-1.85-1.16-.61-.46-.92-.64-1.27-.86-.4-.25-.86-.53-1.67-1.12-.82-.6-1.22-.97-1.57-1.29-.3-.27-.56-.51-1.17-.96a14.08 14.08 0 0 1-1.62-1.37c-.29-.28-.52-.5-1.09-.92-.73-.54-1.09-.82-1.45-1.1-.34-.26-.68-.52-1.37-1.03-.62-.46-.92-.64-1.27-.86-.4-.25-.85-.53-1.66-1.12-.31-.23-.51-.32-.8-.45-.88-.38-1.75-.85-2.71-2.26l-1.08-1.58 1.14-1.54c.61-.82 1.3-1.5 1.91-2.09.27-.27.55-.53.8-.81.25-.27.51-.61.78-.97.49-.66 1.05-1.4 1.83-2.06.79-.67 1.62-1.1 2.36-1.47.4-.2.77-.39 1.06-.58.3-.2.6-.42.9-.63.74-.53 1.5-1.08 2.42-1.54.3-.15.6-.32.9-.48.83-.45 1.69-.92 2.67-1.28 1.23-.46 2.51-.86 3.8-1.18 1.05-.26 2.44-.59 3.9-.79 1.24-.17 2.58-.27 3.97-.3 1.01-.03 1.91.14 2.72.29.44.08.86.15 1.23.19.41.04.82.04 1.23.04.82 0 1.75.01 2.74.21 1.51.31 2.74.61 3.86.97.95.3 1.82.73 2.58 1.11.35.17.7.35 1.05.51 1.04.46 1.97 1.02 2.88 1.55l.59.35c.25.15.51.29.76.44.85.48 1.73.98 2.6 1.62.67.5 1.02.72 1.38.94.41.26.87.55 1.7 1.16.92.68 1.37 1.15 1.73 1.52.29.3.5.52 1.08.94.67.5 1.03.73 1.38.95.4.26.86.55 1.68 1.16.67.49.99.7 1.37.94.41.26.87.55 1.7 1.16.74.55 1.11.82 1.48 1.09.38.28.76.55 1.51 1.11.78.58 1.16.88 1.55 1.18.35.27.69.55 1.4 1.07.69.51 1.05.75 1.41 1 .41.28.83.55 1.62 1.14.96.71 1.77 1.47 2.56 2.21l.44.41c1.07.99 1.98 1.92 2.79 2.85.77.89 1.67 1.96 2.48 3.13l.47.67c.59.84 1.2 1.7 1.72 2.68.57 1.06.99 2.12 1.4 3.15l.2.51c.41 1.03.68 2.05.94 3.02l.25.92c.33 1.2.67 2.43.88 3.75.17 1.1.21 2.14.25 3.15l.03.78c.02.37.05.73.08 1.1.07.86.15 1.84.08 2.85-.06.99-.3 1.9-.5 2.69-.1.39-.2.79-.28 1.18-.06.34-.09.76-.11 1.2-.05.82-.1 1.76-.4 2.74-.35 1.15-.81 2.21-1.26 3.24l-.2.45c-.41.95-.92 1.78-1.41 2.59-.18.29-.35.58-.52.87-.62 1.07-1.21 1.97-2.05 3.1l-1.14 1.54zm-70.95-58.06c.13.09.26.18.41.28.62.46.92.64 1.27.86.4.25.85.53 1.66 1.12.73.54 1.09.82 1.45 1.1.34.26.68.52 1.37 1.03.85.63 1.26 1.02 1.62 1.37.29.28.52.5 1.09.92.81.6 1.22.96 1.57 1.28.3.27.56.51 1.17.96.62.46.92.64 1.27.86.4.25.86.53 1.67 1.12.54.4.8.54 1.15.72.43.23.97.51 1.85 1.16.81.6 1.21.95 1.56 1.26.31.27.58.51 1.19.97.69.51 1.04.76 1.39 1.01.37.26.74.53 1.47 1.07.68.5 1.02.74 1.37.98.38.26.76.53 1.5 1.08.91.67 1.34 1.14 1.69 1.51.27.29.44.48.96.85.63.47.96.68 1.3.89.39.25.83.53 1.62 1.11.62.46.93.65 1.28.87.4.25.85.53 1.64 1.12.85.63 1.26 1.02 1.62 1.37.29.28.52.5 1.09.92.48.36.7.46 1.05.62.48.22 1.08.49 2.02 1.19.73.54 1.09.82 1.45 1.1.34.26.68.53 1.38 1.04.81.6 1.21.96 1.56 1.27.31.27.57.51 1.18.96.76.56 1.13.86 1.5 1.16.32.26.64.52 1.3 1.01l1.44 1.08c.35.26.69.53 1.39 1.04.68.5 1.02.74 1.37.98.38.26.76.53 1.51 1.08.59.44.87.6 1.23.81.42.25.9.52 1.73 1.14.8.59 1.2.95 1.56 1.26.31.27.58.51 1.2.97.72.53 1.08.81 1.44 1.08.35.26.69.53 1.4 1.05l2.85 2.11c.71.53 1.06.78 1.42 1.04.36.26.72.53 1.44 1.06.2.15.38.29.53.41.11-.17.21-.35.32-.53.19-.33.39-.65.59-.98.41-.68.8-1.32 1.06-1.93l.2-.47c.4-.93.79-1.8 1.04-2.65.11-.38.15-.92.18-1.5.03-.56.07-1.19.19-1.84.09-.52.23-1.04.36-1.56.16-.62.31-1.21.34-1.7.04-.62-.02-1.32-.08-2.06-.04-.43-.07-.85-.09-1.28l-.03-.83c-.03-.89-.06-1.73-.19-2.51-.16-1.02-.45-2.06-.75-3.16l-.26-.98c-.23-.86-.44-1.67-.73-2.39l-.21-.54c-.37-.93-.71-1.8-1.14-2.59-.37-.69-.86-1.39-1.38-2.12l-.5-.71c-.66-.95-1.43-1.88-2.11-2.65-.67-.77-1.45-1.57-2.37-2.42l-.46-.43c-.71-.66-1.38-1.29-2.09-1.81-.7-.52-1.06-.76-1.42-1-.41-.28-.82-.55-1.62-1.14-.78-.58-1.16-.88-1.54-1.18-.35-.27-.69-.55-1.4-1.08-.74-.55-1.11-.82-1.48-1.09-.38-.28-.76-.55-1.51-1.11-.67-.49-.99-.7-1.37-.94-.41-.26-.87-.55-1.7-1.16-.68-.5-1.03-.73-1.38-.96-.4-.26-.86-.55-1.68-1.16-.92-.69-1.37-1.15-1.74-1.52-.29-.3-.5-.52-1.08-.94-.67-.5-1-.71-1.38-.95-.41-.26-.87-.55-1.69-1.16-.61-.45-1.31-.85-2.05-1.26-.28-.16-.56-.32-.83-.48l-.61-.36c-.81-.48-1.57-.93-2.32-1.27-.42-.19-.84-.4-1.25-.6-.65-.32-1.26-.63-1.82-.8-.93-.3-1.97-.56-3.28-.82-.47-.1-1.07-.1-1.7-.1-.53 0-1.08 0-1.67-.06-.61-.05-1.2-.16-1.71-.25-.61-.11-1.17-.22-1.64-.2-1.19.03-2.32.11-3.37.25-.94.13-1.96.33-3.31.67-1.1.28-2.18.61-3.22 1-.63.24-1.29.6-1.99.98-.34.18-.67.36-1.01.54-.56.28-1.13.69-1.73 1.13-.34.25-.69.49-1.04.73-.55.37-1.11.65-1.6.9-.52.27-1.01.52-1.32.78-.31.27-.65.71-1 1.18-.33.44-.7.94-1.15 1.41-.13.14-.27.28-.41.42z"/></g><path fill="#3c1053" d="M96.46 254.3c.11 1.1.18 2.23-.12 3.22s-.98 1.95-1.66 2.77-1.63 1.32-2.58 1.83-1.84 1.14-2.94 1.25-2.24 0-3.24-.3-1.98-.95-2.8-1.62-1.32-1.65-1.83-2.59-1.07-1.86-1.17-2.96.06-2.2.37-3.19.72-2.1 1.39-2.92 1.6-1.52 2.55-2.02 2.02-.73 3.12-.83 2.24-.16 3.24.15 1.93 1.03 2.75 1.7c.82.67 1.39 1.58 1.9 2.53s.92 1.89 1.02 2.99z"/><g fill="#3c1053"><path fill-rule="evenodd" d="M143.46 254.07c-.99 1.46-1.38 1.09-2.8 2.14s-1.49.96-2.91 2.01-1.32 1.19-2.74 2.25-1.5.95-2.92 2-1.35 1.15-2.77 2.21c-1.42 1.05-1.49.97-2.91 2.02s-1.55.88-2.97 1.94-1.37 1.12-2.79 2.17-1.18 1.38-2.6 2.43-1.56.86-2.98 1.91-1.5.94-2.92 1.99-1.45 1.02-2.87 2.07-1.22 1.32-2.64 2.37c-1.42 1.05-1.39 1.1-2.81 2.16-1.42 1.05-1.46.99-2.89 2.05s-1.37 1.13-2.79 2.18c-1.42 1.05-1.54.9-2.96 1.95s-1.52.93-2.94 1.98-1.43 1.05-2.85 2.1-1.44 1.03-2.86 2.08-1.26 1.27-2.68 2.32-1.48.98-2.9 2.04-1.56.87-2.98 1.92-1.3 1.22-2.72 2.27c-1.43 1.06-1.37 1.13-2.8 2.19-1.43 1.06-1.27 1.35-2.96 1.88-.73-.99-1.32-1.86-1.92-2.9s-1.37-2.05-1.85-3.16-.75-2.33-1.1-3.49-.67-2.35-.89-3.54-.53-2.4-.61-3.61.2-2.44.25-3.65.1-2.43.29-3.63c.19-1.21.66-2.36.98-3.55.33-1.18.44-2.44.9-3.59s1.12-2.19 1.71-3.28 1.15-2.17 1.85-3.19c.69-1.01 1.54-1.9 2.35-2.84s1.71-1.73 2.62-2.58 1.7-1.78 2.7-2.52c1.49-1.11 1.58-.99 3.08-2.09 1.49-1.1 1.5-1.09 3-2.19 1.49-1.11 1.55-1.02 3.05-2.13s1.5-1.1 2.99-2.2 1.28-1.4 2.77-2.5 1.5-1.1 3-2.2 1.45-1.17 2.95-2.28c.99-.74 2.08-1.34 3.12-1.95s2.28-.92 3.39-1.41 2.23-.99 3.39-1.36 2.36-.6 3.55-.84c1.2-.24 2.39-.48 3.6-.59 1.22-.11 2.43-.29 3.65-.26s2.45.07 3.66.23 2.43.35 3.62.64 2.35.71 3.5 1.14c1.14.43 2.25.97 3.34 1.52 1.08.55 2.13 1.19 3.15 1.87 1.01.67 1.9 1.51 2.84 2.31a31.3 31.3 0 0 1 2.63 2.53c.83.88 1.68 1.71 2.42 2.7z"/><path d="M68.48 311.83l-1.14-1.54c-.85-1.14-1.47-2.09-2.09-3.16-.19-.33-.4-.66-.61-.99-.46-.72-.98-1.53-1.38-2.45-.42-.97-.69-1.95-.93-2.82-.09-.32-.18-.65-.27-.96-.46-1.52-.76-2.71-.96-3.84-.06-.33-.13-.66-.19-.99-.19-.93-.39-1.89-.45-2.93-.07-.99.04-1.93.14-2.75.05-.4.1-.81.11-1.21v-.33c.07-1.16.12-2.36.32-3.6.16-1.01.46-1.94.72-2.76.11-.36.23-.72.33-1.09.11-.39.19-.79.27-1.2.16-.82.35-1.74.72-2.68.39-.98.88-1.84 1.35-2.67.16-.29.33-.58.49-.88l.17-.32c.55-1.03 1.12-2.09 1.83-3.13.63-.92 1.33-1.71 2.01-2.48l.53-.6c.81-.93 1.67-1.73 2.52-2.5l.31-.29c.28-.26.55-.54.83-.81.6-.6 1.28-1.29 2.1-1.9.83-.62 1.3-.91 1.72-1.17.38-.23.7-.44 1.36-.92.76-.56 1.14-.84 1.52-1.11.37-.27.74-.53 1.47-1.08.8-.6 1.22-.87 1.64-1.15.36-.24.72-.47 1.41-.98l2.99-2.2c.54-.4.72-.6 1-.9.36-.4.82-.89 1.77-1.6.76-.56 1.14-.84 1.52-1.11.37-.27.74-.54 1.48-1.09.7-.52 1.04-.79 1.38-1.07.38-.31.77-.62 1.56-1.21.98-.72 1.97-1.3 2.94-1.86l.43-.25c.87-.51 1.75-.83 2.52-1.11.38-.14.76-.28 1.13-.44 1.26-.56 2.4-1.06 3.67-1.46 1.25-.4 2.46-.64 3.63-.88l.21-.04c1.3-.26 2.56-.52 3.89-.63l.91-.09c.97-.1 1.97-.21 3.04-.18 1.26.03 2.61.07 3.96.26 1.18.16 2.55.36 3.91.7 1.38.35 2.69.81 3.79 1.23 1.31.49 2.57 1.11 3.62 1.65 1.1.56 2.22 1.23 3.42 2.03.92.61 1.69 1.29 2.45 1.94.21.18.42.37.64.55.96.81 1.89 1.71 2.86 2.74.19.21.38.41.58.61.68.71 1.38 1.44 2.04 2.33l1.14 1.54-1.08 1.58c-.94 1.38-1.72 1.85-2.58 2.29-.28.14-.51.26-.85.51-.78.58-1.19.84-1.6 1.11-.33.22-.67.43-1.31.9-.6.45-.86.68-1.16.95-.35.32-.76.69-1.58 1.29-.79.58-1.23.87-1.62 1.11-.33.21-.67.42-1.3.89-.63.47-.93.73-1.23.98-.35.3-.75.64-1.53 1.22-.78.57-1.18.84-1.59 1.1-.34.22-.67.44-1.32.92-.84.62-1.32.9-1.75 1.14-.35.2-.63.36-1.22.79-.66.49-.98.75-1.3 1.01-.37.3-.73.6-1.49 1.16-.47.35-.61.52-.86.8-.33.39-.79.92-1.74 1.63-.86.64-1.38.92-1.8 1.15-.35.19-.62.34-1.18.76-.8.59-1.24.87-1.64 1.12-.35.22-.66.41-1.28.87-.74.55-1.11.81-1.49 1.07-.35.25-.7.49-1.38 1-.51.38-.68.56-.95.85-.35.38-.78.84-1.69 1.52-.67.5-1 .76-1.33 1.02-.36.29-.73.58-1.48 1.14-.75.56-1.14.82-1.53 1.09-.34.23-.69.47-1.35.96-.66.49-.97.75-1.29 1.01-.37.3-.74.61-1.5 1.17-.83.61-1.3.89-1.72 1.14-.36.21-.64.38-1.24.81-.81.6-1.27.88-1.67 1.12-.35.21-.65.4-1.27.85l-2.85 2.1c-.73.54-1.1.8-1.47 1.07-.35.25-.7.5-1.4 1.01-.55.41-.75.61-1.04.9-.34.35-.77.78-1.65 1.42-.77.57-1.16.83-1.56 1.1-.34.23-.68.45-1.34.94-.85.63-1.34.91-1.78 1.15-.35.2-.63.35-1.2.77-.59.43-.82.66-1.12.94-.36.34-.76.72-1.6 1.34-.66.49-.97.75-1.29 1.01-.37.3-.74.61-1.51 1.18-.36.27-.6.48-.8.65-.75.66-1.37 1.13-2.96 1.63l-1.83.57zm49.57-68c-.68 0-1.4.08-2.17.15-.33.03-.66.07-.99.1-1.04.09-2.1.31-3.22.53l-.29.06c-1.07.22-2.09.42-3.05.73-1 .32-2 .76-3.11 1.25-.48.21-.98.4-1.48.58-.62.22-1.2.44-1.64.7l-.44.26c-.88.51-1.7.99-2.44 1.54-.7.52-1.04.79-1.38 1.07-.38.31-.77.62-1.56 1.21-.76.56-1.14.84-1.52 1.11-.37.27-.74.54-1.48 1.09-.54.4-.72.6-1 .9-.36.4-.81.89-1.77 1.6l-2.99 2.2c-.81.6-1.22.87-1.64 1.15-.36.24-.71.47-1.4.98-.76.56-1.14.84-1.52 1.11-.37.27-.74.53-1.47 1.08-.83.62-1.3.91-1.72 1.17-.38.23-.7.44-1.36.92-.49.36-.97.84-1.47 1.36-.33.33-.66.66-1 .97l-.32.29c-.76.71-1.49 1.37-2.1 2.07l-.56.64c-.6.68-1.17 1.32-1.61 1.96-.55.79-1.02 1.68-1.52 2.61l-.17.32c-.18.33-.36.65-.54.98-.4.71-.78 1.38-1.04 2.03-.19.48-.31 1.09-.44 1.73-.11.53-.21 1.06-.36 1.57-.12.43-.26.86-.39 1.29-.22.7-.43 1.36-.53 1.97-.15.94-.2 1.94-.24 3l-.02.33c-.02.52-.08 1.05-.14 1.57-.08.65-.15 1.27-.11 1.78.04.68.2 1.42.36 2.2.08.37.15.74.22 1.1.17.92.42 1.92.82 3.24.11.36.21.72.31 1.08.21.77.41 1.49.68 2.11.23.52.59 1.09.97 1.68.25.4.5.79.74 1.2.12.22.25.43.38.64.16-.13.34-.27.55-.43.66-.48.97-.75 1.29-1 .37-.31.74-.61 1.51-1.18.58-.43.82-.65 1.12-.94.36-.34.77-.72 1.6-1.34.85-.63 1.34-.91 1.78-1.15.35-.2.63-.35 1.2-.77.77-.57 1.16-.83 1.56-1.1.34-.23.68-.45 1.34-.94.55-.41.75-.61 1.04-.9.34-.35.77-.78 1.65-1.42.73-.54 1.1-.8 1.47-1.07.35-.25.7-.5 1.4-1.01l2.85-2.1c.81-.6 1.27-.88 1.67-1.12.35-.21.65-.4 1.27-.85.83-.61 1.3-.89 1.72-1.14.36-.21.64-.38 1.24-.81.65-.48.97-.74 1.29-1 .37-.3.74-.61 1.51-1.18.76-.56 1.15-.82 1.54-1.09.34-.23.69-.47 1.35-.96.67-.5 1-.76 1.33-1.02.36-.29.73-.58 1.48-1.14.51-.38.68-.56.95-.85.35-.38.78-.84 1.69-1.52.74-.54 1.11-.81 1.48-1.07.35-.25.7-.49 1.38-1 .8-.59 1.24-.87 1.64-1.12.35-.22.66-.41 1.28-.87.86-.64 1.38-.92 1.8-1.15.35-.19.62-.34 1.18-.76.46-.34.61-.52.86-.8.33-.39.79-.92 1.74-1.63.66-.49.98-.75 1.3-1.01.37-.3.73-.6 1.5-1.16.84-.62 1.32-.9 1.75-1.14.35-.2.63-.36 1.22-.79.78-.58 1.18-.84 1.59-1.1.34-.22.67-.44 1.32-.91.63-.47.93-.72 1.23-.98.35-.3.75-.64 1.54-1.22s1.23-.86 1.62-1.11c.33-.21.67-.42 1.3-.89.6-.45.86-.68 1.16-.95.35-.32.76-.69 1.57-1.29.78-.58 1.19-.84 1.6-1.11.33-.22.67-.43 1.31-.9.17-.13.33-.24.48-.34-.16-.16-.31-.33-.47-.49-.82-.88-1.61-1.64-2.4-2.31l-.69-.6c-.66-.57-1.27-1.11-1.9-1.53a26.45 26.45 0 0 0-2.89-1.71c-.96-.49-2-1-3.06-1.4-.96-.36-2.08-.76-3.21-1.04-1.09-.27-2.29-.45-3.32-.59-1.08-.15-2.21-.18-3.36-.21h-.19z"/></g></svg>
