<?xml version="1.0" encoding="UTF-8"?>
<svg xmlns="http://www.w3.org/2000/svg" data-name="Layer 1" viewBox="0 0 500 500" width="64" height="64"><defs><linearGradient id="a" x1="250.04" x2="250.04" y1="56.72" y2="411.1" gradientUnits="userSpaceOnUse"><stop offset="0" stop-color="#e51565"/><stop offset=".04" stop-color="#e51565" stop-opacity=".89"/><stop offset=".13" stop-color="#e51565" stop-opacity=".68"/><stop offset=".23" stop-color="#e51565" stop-opacity=".5"/><stop offset=".33" stop-color="#e51565" stop-opacity=".34"/><stop offset=".44" stop-color="#e51565" stop-opacity=".22"/><stop offset=".55" stop-color="#e51565" stop-opacity=".12"/><stop offset=".67" stop-color="#e51565" stop-opacity=".05"/><stop offset=".81" stop-color="#e51565" stop-opacity=".01"/><stop offset="1" stop-color="#e51565" stop-opacity="0"/></linearGradient></defs><path fill="url(#a)" d="M375.12 370.86c.76-1.1 1.46-2.24 2.2-3.36s1.7-2.1 2.4-3.23c.7-1.14 1.45-2.26 2.12-3.42.67-1.15 1-2.51 1.64-3.69s1.41-2.28 2.03-3.47 1.02-2.48 1.6-3.69c.58-1.2 1.64-2.19 2.19-3.41s.63-2.65 1.15-3.88c.52-1.23.86-2.53 1.35-3.78s1.39-2.34 1.84-3.6c.45-1.26.6-2.63 1.01-3.9s.82-2.54 1.21-3.83c.38-1.28.58-2.61.92-3.91.35-1.29.66-2.59.97-3.89s.71-2.58.99-3.89.7-2.59.94-3.91.19-2.68.4-4 .76-2.59.94-3.92.24-2.67.38-4 0-2.68.1-4.02.95-2.62 1.02-3.96-.15-2.69-.12-4.03-.24-2.68-.24-4.02.06-2.66.02-3.99-.63-2.63-.69-3.95.3-2.68.2-4c-.1-1.33.12-2.68-.02-4s-.69-2.6-.87-3.91-.2-2.66-.41-3.97-.47-2.62-.71-3.92-.39-2.64-.66-3.93c-.28-1.3-.98-2.5-1.29-3.79s-.64-2.57-.98-3.85c-.34-1.29-.2-2.7-.58-3.98-.38-1.28-.52-2.63-.93-3.89s-1.37-2.35-1.81-3.6c-.44-1.25-.7-2.58-1.17-3.81s-.84-2.53-1.35-3.76c-.51-1.23-1.25-2.36-1.79-3.57s-1.21-2.37-1.79-3.56c-.57-1.2-1.1-2.42-1.7-3.6s-1.58-2.17-2.21-3.33c-.64-1.17-.66-2.68-1.32-3.83s-1.29-2.34-1.98-3.47-1.64-2.12-2.36-3.23-1.85-1.96-2.6-3.05c-.75-1.09-1-2.55-1.78-3.62s-2.16-1.7-2.97-2.75-1.41-2.26-2.24-3.3-1.48-2.22-2.35-3.23c-.86-1.01-1.66-2.08-2.55-3.07-.89-.99-1.56-2.19-2.48-3.15-.91-.96-2.25-1.53-3.19-2.47s-1.78-1.98-2.74-2.9-2.18-1.56-3.16-2.45c-.99-.89-1.75-2.03-2.76-2.89s-2.13-1.6-3.16-2.43-2.22-1.47-3.27-2.28-1.97-1.79-3.05-2.57-2.1-1.64-3.19-2.39c-1.09-.75-2.36-1.24-3.48-1.96s-2.32-1.29-3.45-1.98c-1.13-.69-2.04-1.76-3.19-2.43s-2.23-1.46-3.4-2.1-2.57-.82-3.75-1.42-2.2-1.53-3.4-2.1-2.53-.85-3.75-1.39-2.35-1.25-3.58-1.76-2.55-.75-3.8-1.23-2.47-.97-3.72-1.41-2.34-1.38-3.6-1.79-2.65-.43-3.92-.81-2.55-.72-3.84-1.06c-1.28-.34-2.57-.64-3.87-.94s-2.61-.47-3.91-.75c-1.3-.27-2.52-.92-3.83-1.16-1.3-.24-2.57-.74-3.89-.94s-2.69.06-4.01-.11c-1.31-.17-2.6-.6-3.93-.73-1.32-.14-2.68.13-4 .02s-2.62-.62-3.95-.69-2.67.27-4 .24-2.65-.62-3.98-.62-2.67.26-3.99.29-2.64.56-3.96.63-2.65.1-3.97.21-2.63.38-3.95.52-2.65.18-3.96.35c-1.32.17-2.67.09-3.98.3s-2.56.78-3.86 1.02-2.6.52-3.89.8c-1.3.28-2.67.24-3.96.55s-2.62.48-3.9.82c-1.29.34-2.52.86-3.79 1.23s-2.57.7-3.83 1.11-2.38 1.25-3.63 1.7-2.61.59-3.85 1.07c-1.24.48-2.53.82-3.76 1.33s-2.5.93-3.71 1.47-2.31 1.33-3.51 1.91-2.31 1.31-3.49 1.92c-1.18.6-2.6.78-3.76 1.41s-2.31 1.33-3.46 1.99c-1.15.67-2.24 1.44-3.37 2.14s-2.4 1.19-3.51 1.92-2.1 1.65-3.2 2.4-2.02 1.75-3.09 2.53-2.3 1.36-3.35 2.17c-1.05.81-1.98 1.78-3.01 2.62s-2.07 1.67-3.08 2.53c-1.01.86-1.75 2.02-2.74 2.91s-1.95 1.78-2.92 2.7-2.11 1.63-3.05 2.57-1.87 1.88-2.78 2.85-2.01 1.76-2.9 2.75-1.28 2.4-2.15 3.41-2.04 1.75-2.87 2.78c-.84 1.03-1.73 2.02-2.54 3.07-.81 1.05-1.65 2.08-2.43 3.16s-1.72 2.05-2.47 3.14c-.75 1.09-1.26 2.36-1.98 3.47s-1.56 2.16-2.26 3.29-1.26 2.34-1.93 3.49c-.66 1.15-1.62 2.14-2.25 3.31-.63 1.17-.61 2.68-1.22 3.86s-1.4 2.26-1.98 3.46-1.21 2.36-1.76 3.58-1.12 2.41-1.63 3.64-1.28 2.35-1.76 3.59-.97 2.48-1.41 3.74-.76 2.55-1.17 3.82c-.41 1.26-.92 2.5-1.3 3.78-.38 1.27-.59 2.6-.93 3.89-.34 1.28-.39 2.64-.7 3.94s-.53 2.6-.8 3.9c-.27 1.3-.62 2.58-.86 3.89-.24 1.3-.27 2.64-.48 3.96s-.26 2.63-.43 3.95-.84 2.57-.98 3.89.32 2.69.22 4.02c-.1 1.32-.56 2.62-.63 3.94s-.48 2.64-.52 3.97.22 2.66.22 3.99.38 2.67.41 4.01c.03 1.34-.26 2.69-.2 4.02s-.03 2.69.08 4.02c.1 1.34 0 2.7.15 4.03.14 1.33.52 2.64.7 3.97s.6 2.62.81 3.94.69 2.6.93 3.91.02 2.73.3 4.03.39 2.67.7 3.97c.31 1.3.89 2.55 1.23 3.83s.6 2.62.99 3.9c.38 1.28 1.23 2.42 1.65 3.69s.81 2.55 1.26 3.8.8 2.56 1.28 3.8.94 2.51 1.46 3.74 1.2 2.4 1.74 3.62 1.13 2.42 1.71 3.63c.58 1.21.8 2.59 1.41 3.78.61 1.19 1.22 2.39 1.87 3.56.64 1.17 1.33 2.33 2.01 3.48s1.84 2.02 2.54 3.15.9 2.6 1.64 3.72 1.85 1.91 2.61 3.01c1.93.45 1.88-.02 3.86-.02s1.98.57 3.97.57 1.98-.4 3.97-.4 1.98-.2 3.97-.2 1.98.16 3.97.16 1.98.16 3.97.16 1.98.05 3.97.05 1.98-.23 3.97-.23 1.98.42 3.97.42 1.98-.74 3.97-.74 1.98.47 3.97.47 1.98-.17 3.97-.17 1.98.23 3.97.23 1.98-.16 3.97-.16 1.98-.04 3.97-.04 1.98-.01 3.97-.01 1.98.09 3.97.09 1.98.11 3.97.11 1.98.2 3.96.2 1.98-.13 3.96-.13 1.98-.45 3.96-.45 1.98.3 3.97.3 1.98.16 3.97.16 1.98-.21 3.97-.21 1.98.15 3.97.15 1.98.26 3.97.26 1.98-.64 3.97-.64 1.98.03 3.97.03 1.98.09 3.97.09 1.98.08 3.97.08 1.98-.42 3.97-.42 1.98.54 3.97.54 1.98-.35 3.97-.35 1.99.43 3.97.43 1.98-.08 3.97-.08 1.98.12 3.97.12 1.98-.28 3.97-.28 1.99.27 3.97.27 1.98.04 3.97.04 1.98.08 3.97.08 1.99-.29 3.97-.29 1.98-.01 3.97-.01 1.99.34 3.97.34 1.99-.41 3.97-.41 1.99-.06 3.97-.06 1.99-.07 3.97-.07 1.99.02 3.97.02 1.99.56 3.97.56 1.99-.68 3.97-.68 1.98.35 3.97.35 1.99.15 3.97.15 1.98-.37 3.97-.37 1.99.38 3.97.38 1.99-.32 3.97-.32 1.99-.02 3.97-.02 1.99-.15 3.97-.15 1.99.09 3.97.09 1.99.04 3.97.04 1.99.6 3.97.6 1.99-.75 3.97-.75 1.99-.17 3.97-.17 2 .28 3.98.38 2.12.58 4.06.13z"/><g fill="#3c1053"><path d="M347.79 372.01c-1.89 0-1.89.42-3.77.42-1.88 0-1.88-.46-3.77-.46-1.88 0-1.88.08-3.77.08s-1.89-.08-3.77-.08-1.89.27-3.77.27c-1.89 0-1.89-.31-3.77-.31s-1.89.29-3.77.29c-1.88 0-1.88.04-3.77.04s-1.89-.08-3.77-.08c-1.89 0-1.89.16-3.77.16-1.89 0-1.89-.06-3.77-.06s-1.89-.11-3.77-.11-1.89-.18-3.77-.18c-1.89 0-1.89.1-3.77.1-1.89 0-1.89.2-3.77.2s-1.89-.34-3.77-.34c-1.89 0-1.89.24-3.77.24-1.89 0-1.89.12-3.77.12-1.89 0-1.89-.27-3.77-.27s-1.89-.12-3.77-.12-1.89.35-3.77.35-1.89.04-3.77.04c-1.89 0-1.89-.39-3.77-.39-1.88 0-1.88.29-3.77.29s-1.88-.06-3.77-.06c-1.88 0-1.88.2-3.77.2-1.88 0-1.88-.19-3.77-.19-1.89 0-1.89-.18-3.77-.18-1.89 0-1.89.15-3.77.15s-1.88.31-3.77.31-1.88-.01-3.77-.01c-1.89 0-1.89-.11-3.77-.11-1.89 0-1.89-.15-3.77-.15-1.89 0-1.89.22-3.77.22-1.88 0-1.88-.06-3.77-.06-1.89 0-1.89-.13-3.77-.13s-1.89-.21-3.77-.21-1.89.11-3.77.11c-1.89 0-1.89.09-3.77.09-1.89 0-1.89-.21-3.77-.21s-1.89.17-3.77.17c-1.89 0-1.89-.17-3.77-.17s-1.89.45-3.77.45-1.89-.18-3.77-.18c-1.89 0-1.89.12-3.77.12s-1.89-.27-3.77-.27-1.89.07-3.77.07c-1.89 0-1.89.18-3.77.18s-1.89-.16-3.77-.16-1.89-.08-3.77-.08c-1.89 0-1.89-.04-3.77-.04s-1.89.19-3.77.19c-1.89 0-1.89-.11-3.77-.11s-1.89-.18-3.77-.18-1.89.16-3.77.16-1.89.2-3.77.2c-1.89 0-1.89-.21-3.77-.21-1.89 0-1.89.25-3.78.25s-1.89-.35-3.77-.35-1.89.05-3.78.05-1.89-.03-3.78-.03-1.89.4-3.78.4c-.87 0-1.39-1.07-1.39-2.09s.53-1.85 1.39-1.85c1.89 0 1.89-.25 3.77-.25s1.88.12 3.77.12 1.88.05 3.77.05 1.89.28 3.77.28 1.89.02 3.77.02 1.89-.14 3.77-.14 1.89.12 3.77.12 1.88-.16 3.77-.16 1.89.16 3.77.16 1.89.04 3.77.04 1.89-.13 3.77-.13 1.89-.15 3.77-.15 1.89.12 3.77.12 1.89-.05 3.77-.05 1.89-.22 3.77-.22 1.89-.04 3.77-.04 1.89.32 3.77.32 1.89-.03 3.77-.03 1.89-.22 3.77-.22 1.89.13 3.77.13 1.89.24 3.77.24 1.89-.19 3.77-.19 1.89-.18 3.77-.18 1.88.32 3.77.32 1.88-.36 3.77-.36 1.88.26 3.77.26h3.77c1.89 0 1.89-.07 3.77-.07s1.89.21 3.77.21 1.88-.2 3.77-.2 1.88-.26 3.77-.26 1.89.4 3.77.4 1.89-.32 3.77-.32 1.89.14 3.77.14 1.88.08 3.77.08 1.89-.09 3.77-.09 1.89-.07 3.77-.07 1.89-.16 3.77-.16 1.89.02 3.77.02 1.89.06 3.77.06 1.89.39 3.77.39 1.89-.32 3.77-.32 1.89.36 3.77.36 1.89-.31 3.77-.31 1.89-.09 3.77-.09 1.89.39 3.77.39 1.89.02 3.77.02 1.89-.23 3.77-.23 1.89.16 3.77.16 1.89-.21 3.77-.21 1.89.09 3.77.09 1.89-.28 3.77-.28 1.89.46 3.77.46 1.89-.46 3.77-.46 1.89.42 3.77.42 1.89-.37 3.77-.37 1.89-.08 3.77-.08h3.78c1.89 0 1.89.48 3.77.48s1.89-.09 3.78-.09 1.89.1 3.78.1 1.89-.29 3.78-.29c.87 0 1.5.87 1.5 1.89s-.64 1.65-1.5 1.65zM386.11 372.3c-1.99 0-1.99-.23-3.97-.23s-1.99-.05-3.97-.05-1.99-.06-3.97-.06c-1.99 0-1.99.02-3.97.02-1.99 0-1.99.46-3.97.46-1.99 0-1.99-.24-3.97-.24-1.99 0-1.99-.19-3.98-.19s-1.99.11-3.98.11c-.87 0-1.68-.75-1.68-1.76s.81-1.87 1.68-1.87c1.99 0 1.99.11 3.97.11s1.99.18 3.97.18 1.99-.46 3.97-.46 1.99.23 3.97.23 1.99.07 3.97.07 1.99-.18 3.97-.18 1.99.3 3.98.3 1.99-.31 3.98-.31c.87 0 1.34.92 1.34 1.93s-.47 1.95-1.34 1.95z"/></g><path fill="#e51565" d="M202.92 311.12c-1.19.02-2.37-.36-3.53-.45s-2.4.05-3.55-.14-2.34-.44-3.48-.74-2.15-1.03-3.26-1.44-2.22-.78-3.28-1.29-2.05-1.15-3.06-1.75-2.12-1.06-3.07-1.75c-.95-.7-1.87-1.44-2.76-2.22s-1.66-1.68-2.46-2.54c-.81-.86-1.82-1.56-2.54-2.49s-1.39-1.93-2.03-2.92c-.64-.99-1.23-2.03-1.77-3.08-.54-1.04-.75-2.25-1.19-3.35-.44-1.09-.9-2.17-1.24-3.3s-.7-2.24-.94-3.41-.51-2.3-.63-3.49-.1-2.35-.12-3.54.05-2.37.14-3.53.43-2.32.63-3.47.46-2.3.76-3.43.25-2.4.65-3.5 1.23-2.05 1.74-3.11.9-2.18 1.51-3.19c.61-1.01 1.24-2.01 1.93-2.96s1.31-1.99 2.09-2.87c.78-.88 1.6-1.75 2.46-2.56s1.83-1.5 2.76-2.23 2.01-1.24 3-1.88 1.83-1.55 2.88-2.09 2.24-.79 3.34-1.23 2.23-.71 3.37-1.05 2.19-.91 3.36-1.14 2.34-.25 3.52-.38c1.16-.13 2.33-.37 3.52-.39 1.19-.02 2.39-.1 3.55-.02 1.19.09 2.31.66 3.46.86 1.17.2 2.36.23 3.5.53s2.32.54 3.42.95 2.11 1.09 3.17 1.59 2.26.8 3.27 1.4 1.75 1.63 2.7 2.32 1.97 1.29 2.86 2.07c.88.78 1.82 1.51 2.63 2.37s1.41 1.89 2.14 2.82 1.58 1.76 2.22 2.76c.64.99 1.32 1.97 1.86 3.02s.97 2.16 1.41 3.26c.44 1.09.95 2.17 1.29 3.31.34 1.12.22 2.37.45 3.53s.63 2.27.76 3.45.05 2.34.07 3.53.25 2.38.16 3.54c-.09 1.19-.27 2.36-.47 3.51s-.33 2.36-.63 3.49-.93 2.19-1.33 3.29-.63 2.3-1.14 3.36-1.44 1.91-2.04 2.92-1.22 2-1.92 2.95-1.2 2.05-1.98 2.94-1.62 1.72-2.48 2.53c-.86.81-1.93 1.36-2.86 2.09-.93.73-1.87 1.39-2.87 2.03s-1.96 1.27-3.01 1.82c-1.04.54-2.09 1.05-3.19 1.5s-2.11 1.09-3.24 1.43-2.33.36-3.49.6-2.29.49-3.47.62c-1.16.13-2.33.52-3.52.54zm-72.62-27.65c1.53.49 1.43.82 2.96 1.31 1.54.49 1.62.21 3.16.7s1.54.48 3.08.97 1.55.47 2.92 1.33c.28 1.13.61 2.12.95 3.23.34 1.11.63 2.25 1.04 3.34.41 1.09 1.07 2.12 1.53 3.18-.55 1.51-.92 1.33-1.83 2.66s-1 1.26-1.91 2.59-.66 1.5-1.57 2.83-.94 1.31-1.85 2.63c-.64.94-1.09 1.85-1.4 2.82-.33 1.06-.79 2.07-.77 3.11.02 1.33.38 2.64.89 3.84s1.3 2.29 2.21 3.24 2 1.64 3.2 2.2 2.39.96 3.74 1.02c1.24.06 2.55-.07 3.88-.52 1.53-.51 1.59-.31 3.12-.82s1.53-.5 3.06-1c1.53-.51 1.4-.92 2.93-1.43 1.53-.51 1.53-.53 3.14-.64.89.74 1.78 1.28 2.71 1.98s1.89 1.35 2.86 1.99c.97.64 2.12 1.21 3.12 1.8.44 1.55.06 1.65.11 3.26s-.07 1.61-.02 3.22-.17 1.62-.12 3.23.41 1.6.45 3.21c.04 1.32.01 2.56.44 3.66.47 1.2 1.06 2.35 1.88 3.24s2.04 1.45 3.14 2.01 2.25 1.08 3.49 1.24 2.46-.06 3.68-.35 2.22-.85 3.28-1.58c.97-.67 2.16-1.22 2.93-2.3.94-1.31.76-1.44 1.7-2.75s.83-1.39 1.77-2.7 1.13-1.17 2.07-2.49.36-1.94 1.69-2.86c1.72.11 3.59.58 5.35.55 1.75-.03 3.46-.33 5.18-.5 1.35.88 1.07 1.19 2.05 2.47s.81 1.41 1.79 2.69 1.15 1.15 2.14 2.43c.98 1.28 1.06 1.22 2.04 2.5.81 1.05 1.64 1.91 2.63 2.55 1.08.69 2.24 1.02 3.43 1.26 1.23.24 2.48.67 3.7.48s2.38-.83 3.47-1.42 2.18-1.28 3-2.23c.79-.92 1.21-2.13 1.64-3.34.39-1.11.64-2.3.63-3.62 0-1.61-.13-1.61-.14-3.22 0-1.61.27-1.61.26-3.22 0-1.61-.27-1.61-.28-3.22 0-1.61 0-1.6.39-3.16.98-.62 1.84-1.15 2.78-1.82s1.69-1.61 2.6-2.34c.91-.73 1.84-1.47 2.71-2.24 1.61.06 1.48.73 3.03 1.18 1.55.46 1.54.46 3.09.92s1.57.4 3.11.86 1.56.43 3.1.89c1.34.4 2.68.26 3.92.17 1.35-.11 2.7-.22 3.84-.81s2.21-1.51 3.07-2.48 1.48-2.18 1.94-3.4.86-2.51.84-3.84c-.02-1.05-.18-2.16-.55-3.2-.34-.96-1.02-1.84-1.69-2.75-.95-1.29-.82-1.4-1.77-2.69-.95-1.3-1.1-1.19-2.05-2.49s-.93-1.32-1.88-2.62c-.95-1.3-1.46-1.04-2.06-2.54.43-1.07.96-2.24 1.33-3.35s.74-2.2 1.05-3.32.69-2.09.93-3.23c1.33-.9 1.5-.46 3.01-1 1.52-.54 1.38-.94 2.89-1.48 1.52-.54 1.59-.35 3.11-.89 1.52-.54 1.59-.35 3.11-.89 1.08-.39 1.86-1.26 2.69-1.88.9-.67 1.6-1.43 2.2-2.3s1.06-1.85 1.36-2.88.44-2.08.42-3.16-.21-2.1-.55-3.14-.64-2.06-1.3-2.94-1.35-1.69-2.27-2.34c-.85-.59-1.93-.83-3.02-1.18-1.54-.49-1.48-.66-3.01-1.15s-1.59-.3-3.13-.79c-1.54-.49-1.49-.63-3.03-1.12s-1.6-.32-2.97-1.18c-.28-1.13-.75-2.08-1.09-3.19s-.62-2.25-1.02-3.33-.94-2.17-1.41-3.23c.55-1.51 1.06-1.24 1.97-2.57s.81-1.39 1.72-2.72.92-1.32 1.83-2.65 1.07-1.22 1.98-2.55c.64-.94.86-2.04 1.16-3.02.33-1.06.56-2.1.55-3.14-.02-1.33-.3-2.62-.81-3.82s-1.39-2.17-2.3-3.12-1.86-1.78-3.06-2.34-2.4-.9-3.75-.96c-1.24-.06-2.6-.17-3.93.27-1.53.51-1.42.84-2.95 1.35s-1.63.22-3.16.73-1.55.45-3.08.96-1.37 1.34-2.98 1.45c-.89-.74-1.85-1.64-2.78-2.33s-1.74-1.56-2.71-2.2c-.97-.64-1.9-1.15-2.91-1.73-.44-1.55.01-1.57-.03-3.18s-.08-1.61-.13-3.22-.38-1.6-.42-3.21.17-1.62.13-3.23c-.04-1.32-.35-2.54-.78-3.63-.47-1.2-1.28-2.11-2.11-3.01-.85-.92-1.66-1.91-2.76-2.47s-2.37-.76-3.61-.91-2.48-.19-3.7.09-2.19.99-3.25 1.72c-.97.67-2.02 1.32-2.79 2.4-.94 1.31-.89 1.34-1.83 2.65s-1.12 1.18-2.06 2.49-.78 1.43-1.72 2.74-.68 1.53-2.01 2.45c-1.72-.12-3.35-.07-5.1-.04-1.76.03-3.41.08-5.12.25-1.35-.88-1.1-1.12-2.08-2.4-.98-1.28-.88-1.35-1.87-2.63s-.95-1.31-1.93-2.59-1.12-1.17-2.11-2.45c-.81-1.05-1.62-2.03-2.61-2.67-1.08-.69-2.32-1.03-3.51-1.27s-2.47-.13-3.69.06-2.49.38-3.58.98-2.12 1.39-2.94 2.34-1.32 2.09-1.75 3.3c-.39 1.11-.71 2.33-.7 3.66.01 1.61.04 1.61.05 3.22s.14 1.61.15 3.22c.01 1.61.15 1.61.17 3.22s.37 1.7-.02 3.27c-.98.62-2.16 1.16-3.11 1.83s-1.74 1.54-2.64 2.27-1.87 1.13-2.73 1.9c-1.61-.06-1.6-.05-3.15-.5-1.55-.46-1.51-.59-3.05-1.05s-1.6-.28-3.15-.74c-1.55-.46-1.45-.79-3-1.24-1.34-.4-2.67-.2-3.91-.1-1.35.11-2.54.46-3.68 1.04s-2.41 1.16-3.27 2.13c-.87.98-1.57 2.16-2.04 3.39-.46 1.21-.39 2.56-.37 3.88.02 1.05.2 2.04.57 3.09.34.97.47 2.11 1.14 3.02.95 1.29 1.23 1.09 2.18 2.39s.74 1.45 1.7 2.74c.95 1.3.94 1.31 1.9 2.6s1.52.98 2.12 2.47c-.43 1.07-.86 2.23-1.23 3.34s-.63 2.23-.94 3.35-.83 2.06-1.07 3.2c-1.33.9-1.38.81-2.89 1.35s-1.59.34-3.11.88-1.55.45-3.07.99c-1.52.54-1.4.88-2.92 1.42-1.08.39-2.21.59-3.04 1.21-.9.67-1.68 1.52-2.28 2.39-.62.91-1.14 1.94-1.44 2.97s-.48 2.19-.46 3.27.49 2.14.83 3.17.75 2.03 1.4 2.92 1.5 1.48 2.43 2.12c.85.59 1.8.98 2.9 1.33z"/><path fill="none" stroke="#fff" stroke-linecap="round" stroke-linejoin="round" stroke-width="3.69" d="M230.29 233.27c1.02.73 1.93 1.63 2.88 2.43s1.78 1.77 2.67 2.65 1.85 1.71 2.66 2.65c.82.95 1.65 1.9 2.39 2.91s1.27 2.17 1.93 3.23 1.47 2.04 2.05 3.16.84 2.37 1.33 3.52 1.35 2.17 1.75 3.36M215.32 226.07c1.04.29 1.95 1.02 2.95 1.37s2.08.59 3.06 1.01 1.95.92 2.9 1.41M210.17 319.73c-1.15.19-2.31.36-3.48.47s-2.33.3-3.5.33-2.34-.02-3.52-.08c-1.16-.06-2.33-.2-3.5-.35M189.29 318.74c-1.2-.34-2.39-.71-3.54-1.12s-2.2-1.17-3.31-1.68c-1.13-.51-2.2-1.11-3.27-1.71-1.08-.6-2.28-1-3.31-1.67s-1.91-1.58-2.88-2.33-2.01-1.44-2.92-2.27-1.75-1.74-2.59-2.64-1.51-1.94-2.29-2.9-1.65-1.83-2.35-2.85-1.28-2.1-1.9-3.17-1.4-2.05-1.93-3.16-1.08-2.23-1.52-3.38"/><path fill="#e51565" d="M280.05 192.11c0-1.18.23-2.33.35-3.47.13-1.17.35-2.3.61-3.42.26-1.14.39-2.31.77-3.41s.99-2.11 1.49-3.16.92-2.15 1.54-3.14 1.33-1.92 2.06-2.83c.73-.91 1.39-1.9 2.21-2.72s1.79-1.51 2.7-2.23 1.88-1.37 2.87-2 2.09-1.01 3.14-1.52 2.12-.89 3.23-1.27 2.09-1.11 3.24-1.37 2.32-.26 3.49-.39 2.31.01 3.49.01 2.36-.33 3.51-.21 2.34.32 3.47.58c1.14.26 2.29.58 3.38.97 1.11.39 2.2.84 3.25 1.34s2.1 1.07 3.08 1.69c.99.62 1.83 1.47 2.74 2.19.91.73 1.71 1.57 2.54 2.4.82.82 1.81 1.52 2.53 2.43.73.91 1.26 1.97 1.88 2.96s1.36 1.92 1.87 2.97.82 2.19 1.2 3.3.48 2.27.74 3.41c.26 1.13.69 2.23.82 3.4.13 1.15.09 2.32.09 3.5s.04 2.35-.09 3.49-.49 2.29-.75 3.41-.47 2.29-.85 3.38-.84 2.18-1.35 3.22c-.51 1.05-1.24 1.97-1.85 2.95s-1.06 2.1-1.79 3.01c-.73.91-1.57 1.72-2.4 2.55s-1.7 1.6-2.61 2.32-1.74 1.58-2.73 2.2-2.07 1.1-3.12 1.61-2.14.93-3.25 1.32-2.29.43-3.43.69c-1.13.26-2.21.79-3.38.92s-2.32-.11-3.5-.11-2.32-.12-3.46-.25c-1.17-.13-2.39.11-3.52-.14s-2.24-.74-3.33-1.12c-1.11-.39-2.08-1.05-3.13-1.56s-2.07-1.04-3.05-1.66-1.89-1.33-2.8-2.05-1.79-1.46-2.62-2.29-1.85-1.47-2.58-2.38-1.23-1.99-1.85-2.98-1.23-1.97-1.74-3.03-1.13-2.06-1.52-3.16c-.38-1.09-.41-2.3-.67-3.45s-.63-2.24-.76-3.41c-.13-1.15-.15-2.32-.15-3.5zm23.15-58.76c-.56 1.66-.71 1.6-1.27 3.26s-.59 1.65-1.14 3.31.06 1.95-.93 3.39c-1.39.32-2.83.56-4.17.99s-2.66 1.1-3.96 1.65c-1.64-.58-1.41-1.05-2.83-2.06s-1.52-.88-2.94-1.89c-1.42-1.01-1.34-1.12-2.77-2.14-1.57-1.12-3.24-1.64-4.87-1.64-1.35 0-2.76.17-3.93.77s-2.34 1.5-3.15 2.57c-.79 1.05-.97 2.46-1.19 3.81-.2 1.24-.32 2.55.12 3.93.52 1.67.33 1.73.85 3.4s.91 1.55 1.43 3.22 1.02 1.64 1.06 3.39c-.93 1.07-1.84 2.3-2.68 3.44s-1.72 2.4-2.46 3.61c-1.67.49-1.8.04-3.54.06s-1.75-.18-3.5-.16c-1.75.02-1.75-.08-3.5-.06-1.27.01-2.34.53-3.36.98-1.11.49-2.13 1.05-2.9 1.92s-1.18 2-1.55 3.11-.65 2.24-.54 3.42.25 2.39.85 3.44c.56.96 1.53 1.71 2.55 2.47 1.4 1.04 1.34 1.13 2.74 2.17s1.47.96 2.87 2.01c1.41 1.04 1.62.82 2.69 2.2-.12 1.4-.1 2.74-.1 4.17s.07 2.84.18 4.24c-1.07 1.38-1.52.89-2.92 1.93-1.41 1.04-1.23 1.27-2.64 2.32s-1.46.97-2.87 2.02c-1.02.76-1.8 1.64-2.35 2.61-.61 1.05-.74 2.21-.85 3.37s-.08 2.32.29 3.44.91 2.15 1.69 3.04c.76.87 1.57 1.83 2.68 2.33 1.02.45 2.25.38 3.52.4 1.74.02 1.74.32 3.49.34 1.75.02 1.75.08 3.49.09 1.75.02 1.89-.9 3.56-.4.74 1.21 1.51 2.57 2.34 3.71s1.49 2.28 2.42 3.35c-.05 1.75-.49 1.63-1.01 3.3s-.57 1.66-1.09 3.33c-.52 1.67-.49 1.68-1.01 3.35-.43 1.38-.19 2.73.01 3.97.22 1.35.57 2.64 1.36 3.69.8 1.07 1.89 1.91 3.08 2.51s2.49.75 3.84.75c1.63 0 3.39-.2 4.96-1.32 1.42-1.01 1.31-1.16 2.74-2.17s1.48-.93 2.9-1.94 1.11-1.69 2.75-2.27c1.3.55 2.71 1.29 4.06 1.73 1.34.43 2.75.77 4.13 1.09.99 1.44.36 1.73.91 3.39.56 1.66.75 1.6 1.3 3.25s.36 1.73.92 3.39c.4 1.2 1.16 2.19 1.9 3.02.81.9 1.78 1.68 2.84 2.14s2.33.52 3.5.52 2.39-.12 3.47-.59 2.1-1.13 2.92-2.03c.75-.83 1.21-1.94 1.62-3.14.56-1.66.73-1.6 1.29-3.25.56-1.66.43-1.7.99-3.36s.02-1.95 1.01-3.39c1.39-.32 2.9-.52 4.24-.95s2.6-.91 3.9-1.46c1.64.58 1.47.87 2.89 1.88s1.36 1.1 2.79 2.11c1.42 1.01 1.44.98 2.87 2 1.57 1.11 3.3 1.49 4.93 1.49 1.35 0 2.58-.46 3.75-1.06s2.19-1.4 2.99-2.47 1.56-2.17 1.78-3.52c.2-1.24-.08-2.54-.51-3.92-.52-1.67-.16-1.78-.68-3.45-.52-1.67-.92-1.55-1.45-3.22s-.87-1.64-.91-3.39c.93-1.07 1.67-2.31 2.5-3.45s1.83-2.07 2.57-3.28c1.67-.5 1.71-.34 3.45-.36l3.5-.04c1.75-.02 1.75.31 3.5.29 1.27-.01 2.47-.3 3.48-.75 1.11-.49 1.86-1.46 2.62-2.33s1.31-1.87 1.68-2.99.91-2.26.8-3.44-.77-2.2-1.38-3.26c-.56-.96-1.14-2.02-2.16-2.78-1.4-1.04-1.39-1.05-2.8-2.1s-1.55-.85-2.96-1.89-1.74-.74-2.81-2.13c.12-1.4.1-2.86.1-4.29s.22-2.74.1-4.13c1.07-1.38 1.19-1.26 2.59-2.3 1.41-1.04 1.53-.88 2.94-1.92s1.46-.97 2.87-2.01c1.02-.76 1.53-1.88 2.09-2.84.61-1.05 1.29-2.08 1.4-3.24s-.05-2.44-.42-3.56c-.36-1.12-.96-2.24-1.74-3.13s-1.77-1.66-2.88-2.15c-1.02-.45-2.26-.44-3.52-.45-1.75-.02-1.74-.11-3.49-.13s-1.75.15-3.5.13-1.86.45-3.54-.04c-.73-1.21-1.5-2.53-2.34-3.67-.84-1.14-1.54-2.27-2.47-3.34.05-1.75.51-1.63 1.03-3.3s.53-1.67 1.06-3.34.23-1.76.75-3.44c.43-1.38.5-2.64.3-3.88-.22-1.35-.62-2.61-1.41-3.66s-1.76-2.11-2.95-2.72-2.58-1-3.93-1c-1.64 0-3.36.67-4.93 1.79-1.42 1.01-1.4 1.05-2.82 2.06s-1.51.89-2.93 1.9c-1.42 1.01-1.16 1.41-2.81 1.99-1.3-.55-2.57-.89-3.93-1.32-1.34-.43-2.87-.69-4.26-1.02-.99-1.44-.38-1.77-.94-3.43s-.45-1.69-1.01-3.35-.79-1.58-1.35-3.24c-.4-1.2-.77-2.37-1.51-3.2-.81-.9-1.95-1.41-3.01-1.87s-2.24-.98-3.42-.98-2.29.61-3.38 1.08-2.17.93-2.99 1.83c-.75.83-1.25 1.91-1.66 3.11z"/><path fill="none" stroke="#fff" stroke-linecap="round" stroke-linejoin="round" stroke-width="3.69" d="M342.56 215.23c-.7.94-1.25 1.99-2.02 2.85s-1.62 1.69-2.47 2.48-1.78 1.51-2.7 2.22-1.73 1.6-2.71 2.23-2.12 1-3.15 1.54-2.01 1.21-3.08 1.66c-1.07.45-2.21.76-3.32 1.11M348.83 203.33c-.38 1.27-1.08 2.42-1.57 3.62s-1 2.43-1.61 3.58M271.96 199.86c-.19-1.25-.27-2.5-.34-3.77-.06-1.26-.3-2.52-.23-3.79s.18-2.52.37-3.79M273.97 180.95c.35-1.16.81-2.28 1.25-3.39s1.08-2.16 1.62-3.22c.55-1.08 1.07-2.16 1.72-3.16s1.37-1.98 2.11-2.92 1.44-1.93 2.26-2.81 1.7-1.71 2.6-2.5 1.96-1.39 2.93-2.1 1.77-1.67 2.81-2.29 2.18-1.03 3.27-1.56 2.11-1.21 3.24-1.63"/></svg>
