<svg role="presentation" id="uuid-8411f86f-5a5c-4d51-99c0-bf26e27ab573" xmlns="http://www.w3.org/2000/svg" xmlns:xlink="http://www.w3.org/1999/xlink" viewBox="0 0 500 500"><defs><linearGradient id="uuid-632b531b-cb1b-4be4-89e3-f0bda0a319b2" x1="250.08" y1="440.96" x2="250.08" y2="-188.35" gradientUnits="userSpaceOnUse"><stop offset="0" stop-color="#3ad356" stop-opacity="0"></stop><stop offset=".39" stop-color="#3ad356" stop-opacity=".38"></stop><stop offset="1" stop-color="#3ad356"></stop></linearGradient></defs><path d="M494.6,287.38c0,2.04-.12,4.07-.17,6.1s-.01,4.07-.11,6.1-.47,4.05-.62,6.07-.65,4.02-.85,6.04-.09,4.08-.34,6.09-.21,4.08-.51,6.09-.86,3.99-1.21,5.98-.37,4.08-.77,6.06-1.6,3.82-2.05,5.8-.45,4.07-.95,6.04-1.01,3.94-1.55,5.9-1.58,3.77-2.18,5.71-.7,4.04-1.35,5.97-1.17,3.9-1.87,5.81-1.35,3.85-2.09,5.73-1.85,3.64-2.64,5.51-1.69,3.7-2.53,5.55-1.6,3.74-2.48,5.57-1.58,3.76-2.51,5.56-1.99,3.55-2.96,5.33-2.18,3.44-3.19,5.2-1.72,3.71-2.78,5.44-2.56,3.2-3.66,4.9-1.86,3.65-3,5.32-2.46,3.24-3.65,4.89-2.53,3.19-3.75,4.81-2.72,3.02-3.99,4.61-2.55,3.15-3.85,4.71-2.24,3.43-3.58,4.95-2.7,3.04-4.08,4.53-2.93,2.75-4.34,4.2c-2.96,.58-3,.44-6.01,.44s-3.02-.04-6.03-.04-3.02-.39-6.03-.39-3.02-.3-6.03-.3-3.02,.31-6.03,.31-3.02,.44-6.03,.44-3.02-.23-6.03-.23-3.02-.32-6.03-.32-3.02,.45-6.03,.45-3.02-.34-6.03-.34-3.02,.4-6.03,.4-3.02-.41-6.03-.41-3.02,.49-6.03,.49-3.02-.11-6.03-.11-3.02-.24-6.03-.24-3.02-.21-6.03-.21-3.02-.11-6.03-.11-3.02,.66-6.03,.66-3.02-.11-6.03-.11-3.02-.28-6.03-.28-3.02-.3-6.03-.3-3.02-.07-6.03-.07-3.02-.02-6.03-.02-3.02,.62-6.03,.62-3.02,.13-6.03,.13-3.01-.26-6.03-.26-3.01-.46-6.03-.46-3.02,0-6.03,0-3.02,.53-6.04,.53-3.02-.23-6.03-.23-3.02,.35-6.03,.35-3.02-.56-6.03-.56-3.02,.64-6.03,.64-3.02-.49-6.03-.49-3.02,.21-6.03,.21-3.02-.41-6.04-.41-3.02-.04-6.03-.04-3.02,.65-6.04,.65-3.02-.4-6.03-.4-3.02-.14-6.03-.14-3.02-.14-6.03-.14-3.02,.25-6.04,.25-3.02-.02-6.03-.02-3.02,.39-6.04,.39-3.02,.1-6.04,.1-3.02-.05-6.04-.05-3.02-.44-6.04-.44-3.02-.07-6.04-.07-3.02-.21-6.03-.21-3.02,.59-6.03,.59-3.02-.08-6.04-.08-3.02,.07-6.04,.07-3.02-.08-6.04-.08-3.02,.11-6.04,.11-3.02-.25-6.04-.25-3.02,.11-6.04,.11-3.02,.12-6.05,.12-3-.02-5.97-.6c-1.42-1.45-2.7-2.71-4.08-4.2s-3.2-2.58-4.55-4.11-2.12-3.54-3.43-5.09-2.75-2.99-4.01-4.58-2.54-3.16-3.77-4.78-2.31-3.34-3.5-4.98-2.58-3.15-3.72-4.83-2.15-3.44-3.26-5.15-1.96-3.56-3.02-5.29-2.5-3.23-3.52-4.99-1.94-3.57-2.91-5.36-1.74-3.67-2.67-5.48-2.07-3.5-2.96-5.33-1.36-3.84-2.2-5.69-1.91-3.59-2.7-5.46-1.99-3.58-2.73-5.47-1.06-3.94-1.76-5.86-1.13-3.9-1.77-5.83-1.49-3.78-2.09-5.73-1.01-3.93-1.56-5.89-1.46-3.81-1.96-5.78-.83-3.98-1.28-5.96-1.21-3.9-1.61-5.89-.66-4.01-1.01-6.02-.33-4.06-.63-6.07-.51-4.02-.76-6.04-.99-3.97-1.19-6-.07-4.07-.22-6.1-.41-4.04-.51-6.08-.14-4.06-.19-6.1,0-4.06,0-6.1,.33-4.06,.38-6.09-.12-4.07-.02-6.1,.4-4.05,.55-6.07,.15-4.07,.35-6.09,.62-4.02,.87-6.03,.63-4.01,.93-6.02,.15-4.09,.5-6.09,.85-3.98,1.25-5.97,.72-4.01,1.17-5.99,.79-4,1.29-5.96,1.53-3.8,2.08-5.76,.66-4.04,1.26-5.98,1.67-3.74,2.31-5.66,.9-3.99,1.6-5.9,1.28-3.87,2.03-5.76,1.56-3.76,2.35-5.63,1.5-3.79,2.34-5.64,2.25-3.44,3.13-5.27,1.47-3.81,2.39-5.62,1.77-3.67,2.74-5.45,2.16-3.45,3.18-5.21,2.36-3.33,3.42-5.06,2.07-3.49,3.17-5.2,2.27-3.37,3.41-5.05,2.4-3.27,3.59-4.92,2.29-3.35,3.52-4.97,2.49-3.2,3.76-4.79,2.18-3.47,3.48-5.03,2.58-3.15,3.93-4.67,2.91-2.85,4.29-4.34,2.82-2.92,4.24-4.38,2.99-2.75,4.45-4.17,2.79-2.96,4.28-4.34,2.98-2.77,4.5-4.11,3.29-2.4,4.85-3.7,2.92-2.84,4.51-4.11,3.04-2.72,4.65-3.95,3.4-2.24,5.05-3.43,3.13-2.62,4.81-3.76,3.43-2.2,5.13-3.3,3.6-1.9,5.34-2.97,3.54-1.99,5.3-3.01,3.54-1.98,5.32-2.96,3.47-2.11,5.28-3.04,3.56-1.97,5.39-2.85,3.87-1.3,5.73-2.14,3.47-2.21,5.34-3,3.95-1.06,5.84-1.81,3.73-1.6,5.64-2.3,3.69-1.76,5.62-2.41,4.06-.64,6-1.24,3.71-1.77,5.67-2.32,4.03-.65,6-1.15,3.83-1.44,5.81-1.89,4.01-.66,6.01-1.06,3.94-1.05,5.94-1.4,4.05-.45,6.06-.75,4.05-.34,6.07-.59,3.99-.82,6.02-1.02,4.08,.04,6.11-.11,4.02-.72,6.06-.82,4.07,.25,6.11,.2,4.05-.19,6.09-.19,4.07,.1,6.09,.14,4.06,.24,6.08,.34,4.09-.18,6.11-.03,4.05,.45,6.06,.65,4.06,.35,6.07,.6,4.07,.32,6.07,.62,3.92,1.25,5.92,1.6,4.07,.36,6.06,.76,3.95,.97,5.93,1.42,3.94,.98,5.91,1.48,3.89,1.18,5.84,1.73,4.06,.59,6,1.19,3.9,1.16,5.83,1.81,3.76,1.58,5.67,2.27,3.87,1.27,5.76,2.02,3.6,1.95,5.47,2.74,3.82,1.41,5.67,2.24,3.77,1.53,5.6,2.41,3.72,1.67,5.52,2.6,3.61,1.88,5.4,2.85,3.51,2.06,5.27,3.07,3.54,2.02,5.27,3.08,3.49,2.1,5.19,3.21,3.46,2.15,5.13,3.3,3.05,2.73,4.7,3.92,3.17,2.54,4.79,3.76,3.37,2.28,4.96,3.55,3.04,2.69,4.6,4,3.08,2.64,4.6,3.99,3.23,2.48,4.72,3.86,2.79,2.96,4.24,4.38,2.91,2.83,4.33,4.29,3.07,2.69,4.45,4.17,2.6,3.13,3.95,4.65,2.4,3.28,3.71,4.84,3.08,2.73,4.35,4.32,2.26,3.39,3.49,5.01,2.66,3.09,3.85,4.74,2.4,3.28,3.55,4.96,1.78,3.69,2.89,5.4,2.15,3.44,3.21,5.17,2.22,3.4,3.23,5.16,1.98,3.54,2.95,5.32,2.06,3.5,2.99,5.31,1.88,3.6,2.76,5.43,1.77,3.65,2.61,5.51,1.52,3.77,2.31,5.64,1.54,3.76,2.28,5.65,1.54,3.76,2.23,5.67,1.47,3.79,2.12,5.71,1.41,3.81,2.01,5.76,1.28,3.86,1.83,5.82,.53,4.06,1.03,6.03,.92,3.95,1.37,5.93,1.34,3.86,1.74,5.86,.74,3.99,1.09,6,.56,4.02,.86,6.04,.4,4.04,.65,6.06,.24,4.05,.44,6.08,.38,4.03,.53,6.06,.65,4.02,.75,6.06,.49,4.05,.54,6.08-.05,4.06-.05,6.1Z" fill="url(#uuid-632b531b-cb1b-4be4-89e3-f0bda0a319b2)"></path><path d="M347.96,455.57c-3.09,0-3.09-.04-6.19-.04s-3.1,.21-6.19,.21-3.09,.59-6.19,.59-3.09-.55-6.19-.55-3.09,.44-6.19,.44-3.1-.04-6.19-.04-3.09-.06-6.19-.06-3.09-.56-6.19-.56-3.1,.53-6.19,.53-3.09,.24-6.19,.24-3.1-.56-6.19-.56-3.1,.38-6.19,.38-3.1-.26-6.19-.26-3.1,.05-6.19,.05-3.1-.43-6.19-.43-3.1,.78-6.19,.78-3.1-.63-6.19-.63-3.1,0-6.19,0-3.1-.06-6.19-.06-3.1,.41-6.19,.41-3.1,.3-6.19,.3-3.09-.45-6.19-.45-3.1-.02-6.19-.02-3.1,.28-6.19,.28-3.1-.57-6.19-.57-3.1,.29-6.19,.29-3.1,.16-6.2,.16-3.1,.02-6.19,.02-3.1,.05-6.2,.05-3.1,.24-6.2,.24-3.1-.35-6.2-.35c-2.02,0-4.09,.05-5.91-.54s-3.71-1.65-5.28-2.79-3.06-2.62-4.22-4.21-1.55-3.6-2.17-5.49-1.38-3.69-1.38-5.71c0-3.1,.13-3.1,.13-6.21s.19-3.1,.19-6.21,.19-3.1,.19-6.21-.61-3.11-.61-6.21,.41-3.11,.41-6.21-.31-3.11-.31-6.21,.16-3.1,.16-6.21,.27-3.11,.27-6.21-.6-3.11-.6-6.21,.7-3.11,.7-6.21-.42-3.11-.42-6.21-.07-3.11-.07-6.21,.35-3.11,.35-6.21,.24-3.11,.24-6.21-.33-3.11-.33-6.21,.06-3.11,.06-6.21-.47-3.11-.47-6.21,.27-3.11,.27-6.21-.17-3.11-.17-6.21,.31-3.11,.31-6.21-.05-3.11-.05-6.21-.25-3.11-.25-6.21,.16-3.11,.16-6.21,.1-3.1,.1-6.21,.06-3.1,.06-6.21-.05-3.1-.05-6.21-.24-3.11-.24-6.21,.46-3.1,.46-6.21-.63-3.1-.63-6.21,.47-3.11,.47-6.21-.06-3.11-.06-6.21,0-3.1,0-6.21,.06-3.11,.06-6.21,.19-3.11,.19-6.21,.03-3.11,.03-6.21-.16-3.11-.16-6.21-.12-3.11-.12-6.21,.28-3.11,.28-6.21,0-3.11,0-6.21-.69-3.11-.69-6.21,.17-3.11,.17-6.21,.3-3.11,.3-6.21,.23-3.11,.23-6.22,.05-3.11,.05-6.21-.65-3.11-.65-6.21,.11-3.11,.11-6.22,.49-3.1,.49-6.21-.58-3.11-.58-6.21,.04-3.11,.04-6.22,.11-3.11,.11-6.22-.21-3.11-.21-6.22,.12-3.11,.12-6.22,.15-3.11,.15-6.21-.18-3.11-.18-6.22,.03-3.11,.03-6.22,0-3.11,0-6.22c0-2.02,.7-3.9,1.29-5.72s.99-3.94,2.14-5.51,2.77-2.9,4.35-4.05,3.37-2.11,5.25-2.72,3.83-.64,5.85-.64c3.09,0,3.09-.45,6.19-.45s3.1-.02,6.19-.02,3.09,.03,6.19,.03,3.09,.42,6.19,.42,3.09-.45,6.19-.45,3.1,.81,6.19,.81,3.09-.06,6.19-.06,3.09-.43,6.19-.43,3.1-.14,6.19-.14,3.09,.34,6.19,.34,3.1,.18,6.19,.18,3.1-.1,6.19-.1,3.1-.41,6.19-.41,3.1,.1,6.19,.1,3.1,.02,6.19,.02,3.1,.32,6.19,.32,3.1-.28,6.19-.28,3.1-.35,6.19-.35,3.1,.49,6.19,.49,3.1,.01,6.19,.01,3.1-.47,6.19-.47,3.09,.13,6.19,.13,3.1,.26,6.19,.26,3.1-.33,6.19-.33,3.1,.04,6.19,.04,3.1,.38,6.19,.38,3.1,.15,6.2,.15,3.1-.59,6.19-.59,3.1,.7,6.2,.7,3.1-.73,6.2-.73,3.1,.76,6.2,.76c2.02,0,3.92,.05,5.74,.64s3.64,1.46,5.21,2.6,2.76,2.69,3.91,4.27,2.54,3.06,3.16,4.94,.67,3.84,.67,5.86c0,3.1,.39,3.1,.39,6.21s-.02,3.1-.02,6.21-.41,3.1-.41,6.21,.02,3.11,.02,6.21-.34,3.11-.34,6.21,.65,3.11,.65,6.21-.39,3.1-.39,6.21,.1,3.11,.1,6.21-.37,3.11-.37,6.21-.02,3.11-.02,6.21,.48,3.11,.48,6.21-.43,3.11-.43,6.21,.75,3.11,.75,6.21,.01,3.11,.01,6.21-.16,3.11-.16,6.21-.45,3.11-.45,6.21,.06,3.11,.06,6.21,.14,3.11,.14,6.21-.21,3.11-.21,6.21-.14,3.11-.14,6.21,.24,3.11,.24,6.21-.1,3.11-.1,6.21,.6,3.11,.6,6.21-.43,3.1-.43,6.21,.31,3.1,.31,6.21-.18,3.1-.18,6.21-.42,3.11-.42,6.21,.5,3.1,.5,6.21-.19,3.1-.19,6.21,0,3.11,0,6.21,.09,3.11,.09,6.21,.03,3.1,.03,6.21-.09,3.11-.09,6.21,.03,3.11,.03,6.21-.38,3.11-.38,6.21,.45,3.11,.45,6.21-.25,3.11-.25,6.21-.07,3.11-.07,6.21-.14,3.11-.14,6.21,.55,3.11,.55,6.21-.22,3.11-.22,6.21,.36,3.11,.36,6.21-.06,3.11-.06,6.22,0,3.11,0,6.21,.13,3.11,.13,6.21-.6,3.11-.6,6.22,.27,3.1,.27,6.21-.34,3.11-.34,6.21,.62,3.11,.62,6.22-.3,3.11-.3,6.22-.43,3.11-.43,6.22,.58,3.11,.58,6.22-.18,3.11-.18,6.21-.34,3.11-.34,6.22,.7,3.11,.7,6.22-.4,3.11-.4,6.22c0,2.02-.37,3.94-.96,5.77s-1.4,3.71-2.54,5.28-2.61,2.94-4.2,4.1-3.37,1.9-5.26,2.52-3.72,.7-5.74,.7Z" fill="#fff"></path><path d="M329.4,458.68c-1.75,0-2.68-.17-3.51-.31-.72-.13-1.34-.24-2.68-.24s-2.02,.09-2.77,.19c-.8,.11-1.71,.24-3.42,.24-1.56,0-2.34,0-3.12-.02-.77,0-1.53-.02-3.07-.02s-2.35-.01-3.14-.03c-.76-.01-1.53-.03-3.05-.03-1.76,0-2.69-.17-3.51-.32-.72-.13-1.34-.24-2.68-.24s-1.98,.11-2.7,.23c-.82,.14-1.74,.3-3.49,.3-1.46,0-2.16,.05-2.91,.11-.81,.06-1.64,.13-3.28,.13-1.76,0-2.69-.17-3.52-.32-.72-.13-1.34-.24-2.68-.24-1.4,0-2.05,.08-2.81,.17-.79,.1-1.69,.21-3.38,.21s-2.48-.07-3.29-.14c-.75-.06-1.45-.12-2.9-.12-1.53,0-2.29,.01-3.06,.03-.78,.01-1.57,.03-3.14,.03-1.71,0-2.62-.12-3.42-.24-.75-.1-1.39-.19-2.78-.19-1.26,0-1.82,.14-2.52,.32-.86,.21-1.83,.46-3.67,.46s-2.73-.19-3.56-.36c-.71-.14-1.32-.27-2.63-.27h-6.19c-1.57,0-2.36-.02-3.14-.03-.76-.01-1.53-.03-3.05-.03-1.39,0-2.04,.08-2.79,.18-.8,.1-1.7,.22-3.4,.22-1.44,0-2.13,.07-2.87,.14-.82,.08-1.66,.16-3.32,.16s-2.63-.13-3.43-.25c-.74-.11-1.38-.2-2.76-.2-1.56,0-2.33,0-3.11-.01-.77,0-1.54-.01-3.08-.01-1.44,0-2.14,.06-2.89,.13-.81,.07-1.65,.15-3.31,.15-1.76,0-2.7-.17-3.52-.32-.72-.13-1.34-.25-2.67-.25-1.44,0-2.14,.07-2.88,.13-.81,.08-1.66,.16-3.32,.16-1.49,0-2.21,.04-2.98,.08-.79,.04-1.61,.08-3.22,.08s-2.31,0-3.08,0c-.78,0-1.55,0-3.11,0s-2.3,.01-3.06,.02c-.78,.01-1.57,.02-3.13,.02-1.46,0-2.17,.06-2.92,.11-.81,.06-1.64,.13-3.28,.13s-2.54-.1-3.36-.19c-.73-.08-1.42-.16-2.84-.16h-.43c-2.04,.01-4.16,0-6.21-.66-1.96-.64-3.96-1.69-5.94-3.13-1.8-1.31-3.44-2.95-4.74-4.72-1.13-1.55-1.66-3.35-2.13-4.94-.12-.4-.24-.8-.37-1.2-.1-.31-.21-.62-.31-.93-.55-1.62-1.18-3.45-1.18-5.51,0-1.6,.03-2.42,.07-3.2,.03-.75,.06-1.5,.06-3.01,0-1.62,.05-2.45,.1-3.25,.05-.76,.09-1.48,.09-2.96,0-1.62,.05-2.45,.1-3.25,.05-.76,.09-1.48,.09-2.96,0-1.33-.12-1.94-.26-2.65-.16-.83-.35-1.78-.35-3.56s.12-2.61,.22-3.41c.1-.75,.18-1.4,.18-2.8s-.07-2.13-.14-2.87c-.08-.82-.17-1.67-.17-3.34s.04-2.43,.08-3.22c.04-.77,.08-1.49,.08-2.99,0-1.65,.07-2.49,.14-3.3,.06-.75,.12-1.45,.12-2.91,0-1.33-.12-1.95-.26-2.66-.16-.83-.34-1.77-.34-3.55s.22-2.77,.41-3.62c.16-.73,.29-1.3,.29-2.59,0-1.39-.09-2.04-.19-2.79-.11-.8-.23-1.71-.23-3.42,0-1.53-.02-2.29-.04-3.05-.02-.79-.04-1.58-.04-3.16,0-1.68,.1-2.54,.19-3.37,.08-.73,.16-1.42,.16-2.85,0-1.64,.06-2.48,.13-3.29,.06-.75,.11-1.46,.11-2.93s-.07-2.12-.15-2.86c-.09-.82-.18-1.68-.18-3.35,0-1.58,.02-2.36,.03-3.15,.01-.77,.03-1.53,.03-3.06,0-1.38-.1-2.01-.21-2.75-.12-.81-.26-1.73-.26-3.46s.07-2.49,.14-3.31c.06-.75,.12-1.45,.12-2.91s-.04-2.21-.08-2.98c-.04-.79-.09-1.62-.09-3.23s.09-2.52,.17-3.34c.07-.74,.14-1.44,.14-2.87,0-1.53-.01-2.3-.02-3.07-.01-.79-.02-1.57-.02-3.14,0-1.46-.06-2.17-.12-2.92-.06-.81-.13-1.65-.13-3.29s.04-2.44,.08-3.23c.04-.77,.08-1.49,.08-2.98,0-1.59,.03-2.39,.05-3.18,.03-.76,.05-1.51,.05-3.02s.02-2.36,.03-3.15c.02-.76,.03-1.53,.03-3.06s-.01-2.3-.03-3.06c-.01-.79-.03-1.57-.03-3.14,0-1.46-.06-2.17-.11-2.92-.06-.81-.13-1.64-.13-3.29s.14-2.64,.26-3.45c.11-.74,.21-1.38,.21-2.76s-.12-1.93-.27-2.63c-.17-.84-.36-1.78-.36-3.57s.14-2.65,.26-3.46c.11-.74,.21-1.38,.21-2.75,0-1.53-.02-2.29-.03-3.06-.02-.79-.03-1.58-.03-3.15v-6.21c0-1.57,.02-2.36,.04-3.15,.01-.77,.03-1.53,.03-3.06,0-1.62,.05-2.45,.1-3.25,.05-.76,.09-1.48,.09-2.97,0-1.56,0-2.35,.01-3.13,0-.77,.01-1.54,.01-3.08s-.04-2.22-.08-2.99c-.04-.79-.08-1.61-.08-3.23,0-1.51-.03-2.26-.06-3.02-.03-.8-.06-1.6-.06-3.2s.08-2.5,.15-3.32c.07-.75,.13-1.45,.13-2.9v-6.21c0-1.29-.12-1.87-.28-2.6-.19-.85-.4-1.81-.4-3.62,0-1.62,.05-2.44,.09-3.24,.04-.76,.08-1.49,.08-2.98,0-1.67,.08-2.51,.16-3.33,.07-.74,.14-1.44,.14-2.88,0-1.64,.06-2.48,.12-3.28,.06-.75,.11-1.47,.11-2.93,0-1.57,.01-2.36,.03-3.15,.01-.77,.02-1.53,.02-3.07,0-1.31-.13-1.92-.27-2.63-.17-.84-.37-1.79-.37-3.59,0-1.6,.03-2.4,.06-3.2,.03-.75,.06-1.51,.06-3.02,0-1.74,.15-2.66,.27-3.47,.12-.74,.22-1.37,.22-2.74s-.12-1.96-.25-2.68c-.15-.83-.33-1.77-.33-3.54,0-1.57,.01-2.35,.02-3.14,.01-.77,.02-1.54,.02-3.08s.03-2.39,.06-3.19c.03-.76,.05-1.51,.05-3.03s-.05-2.19-.1-2.95c-.05-.8-.11-1.63-.11-3.26s.03-2.4,.06-3.2c.03-.75,.06-1.51,.06-3.01,0-1.61,.04-2.43,.08-3.22,.04-.77,.07-1.5,.07-2.99s-.04-2.21-.08-2.98c-.04-.8-.09-1.62-.09-3.24s0-2.35,.02-3.14c0-.77,.02-1.54,.02-3.09v-6.22c0-2.17,.65-4.12,1.21-5.84l.2-.6c.14-.42,.26-.86,.39-1.29,.46-1.57,.97-3.35,2.09-4.88,1.41-1.93,3.34-3.46,4.87-4.57,1.85-1.34,3.89-2.4,5.91-3.06,2.15-.7,4.43-.76,6.57-.76,1.38,0,2.02-.09,2.76-.2,.8-.12,1.71-.25,3.43-.25,1.54,0,2.31,0,3.08,0,.78,0,1.56,0,3.11,0s2.34,0,3.11,.01c.77,0,1.54,.01,3.07,.01,1.71,0,2.61,.12,3.41,.23,.75,.1,1.39,.19,2.78,.19s2.01-.09,2.75-.2c.8-.12,1.72-.25,3.44-.25,1.85,0,2.83,.26,3.69,.49,.7,.18,1.25,.33,2.5,.33,1.52,0,2.28-.02,3.05-.03,.79-.02,1.57-.03,3.14-.03,1.39,0,2.03-.09,2.77-.19,.8-.11,1.71-.24,3.42-.24,1.5,0,2.22-.03,2.99-.07,.79-.04,1.6-.07,3.2-.07s2.53,.09,3.35,.19c.73,.08,1.42,.16,2.83,.16,1.62,0,2.44,.05,3.23,.09,.76,.04,1.48,.08,2.96,.08s2.26-.02,3.02-.05c.79-.03,1.59-.05,3.17-.05,1.39,0,2.04-.08,2.79-.18,.8-.11,1.7-.22,3.4-.22,1.58,0,2.38,.02,3.17,.05,.76,.02,1.51,.05,3.02,.05s2.34,0,3.11,.01c.77,0,1.54,.01,3.08,.01,1.67,0,2.52,.09,3.34,.17,.73,.08,1.43,.15,2.85,.15s2.14-.06,2.88-.13c.81-.07,1.65-.15,3.31-.15,1.42,0,2.1-.08,2.83-.16,.79-.09,1.68-.19,3.36-.19s2.65,.15,3.46,.27c.73,.12,1.37,.22,2.73,.22h6.19c1.37,0,2.01-.09,2.75-.2,.81-.12,1.72-.26,3.45-.26,1.59,0,2.39,.03,3.19,.06,.75,.03,1.5,.06,3,.06,1.65,0,2.48,.07,3.29,.14,.75,.06,1.45,.12,2.9,.12s2.12-.07,2.85-.15c.82-.09,1.67-.18,3.34-.18,1.56,0,2.35,.01,3.13,.02,.77,.01,1.53,.02,3.07,.02,1.69,0,2.59,.11,3.39,.21,.75,.09,1.4,.17,2.81,.17,1.6,0,2.42,.04,3.21,.08,.77,.04,1.49,.07,2.99,.07,1.33,0,1.94-.12,2.66-.25,.83-.16,1.76-.33,3.53-.33s2.77,.22,3.62,.41c.72,.16,1.29,.29,2.58,.29s1.84-.13,2.56-.3c.85-.2,1.82-.43,3.64-.43s2.8,.24,3.66,.44c.71,.17,1.28,.31,2.55,.31,2.18,0,4.32,.06,6.47,.76,2.19,.71,4.17,1.7,5.86,2.94,1.85,1.35,3.15,3.04,4.43,4.79,.25,.34,.51,.67,.77,1.01,1,1.29,2.12,2.75,2.72,4.59,.69,2.13,.79,4.42,.79,6.58,0,1.4,.08,2.05,.18,2.81,.1,.8,.22,1.7,.22,3.4,0,1.56,0,2.34,0,3.12,0,.77,0,1.54,0,3.09,0,1.71-.12,2.61-.23,3.41-.1,.75-.19,1.4-.19,2.8,0,1.54,0,2.32,.01,3.09,0,.78,.01,1.56,.01,3.12,0,1.68-.09,2.53-.18,3.36-.08,.73-.15,1.43-.15,2.85,0,1.31,.13,1.92,.27,2.63,.17,.84,.37,1.79,.37,3.58,0,1.7-.11,2.6-.21,3.4-.09,.75-.18,1.41-.18,2.81,0,1.52,.02,2.27,.05,3.03,.03,.79,.05,1.59,.05,3.18,0,1.69-.11,2.59-.2,3.38-.09,.73-.17,1.42-.17,2.83,0,1.56,0,2.34,0,3.12,0,.77,0,1.55,0,3.09,0,1.37,.1,2.01,.21,2.75,.12,.81,.27,1.73,.27,3.46s-.13,2.63-.24,3.43c-.1,.75-.19,1.39-.19,2.78,0,1.27,.14,1.84,.31,2.55,.21,.86,.44,1.83,.44,3.66,0,1.55,0,2.32,0,3.1,0,.78,0,1.56,0,3.11s-.04,2.43-.08,3.23c-.04,.77-.08,1.49-.08,2.99,0,1.72-.13,2.64-.25,3.44-.11,.74-.2,1.39-.2,2.77,0,1.53,.01,2.3,.03,3.06,.01,.79,.03,1.58,.03,3.15s.03,2.23,.07,3c.03,.79,.07,1.61,.07,3.21s-.06,2.46-.11,3.26c-.05,.76-.1,1.47-.1,2.95,0,1.61-.04,2.42-.07,3.22-.04,.77-.07,1.5-.07,3s.05,2.17,.11,2.93c.06,.81,.13,1.64,.13,3.28s-.03,2.39-.05,3.19c-.03,.76-.05,1.51-.05,3.03,0,1.33,.12,1.94,.26,2.66,.16,.83,.35,1.78,.35,3.55s-.13,2.62-.24,3.42c-.1,.75-.19,1.39-.19,2.78s.07,2.13,.14,2.87c.08,.82,.17,1.67,.17,3.34s-.05,2.45-.1,3.24c-.04,.76-.09,1.48-.09,2.97,0,1.71-.12,2.62-.23,3.42-.1,.75-.19,1.4-.19,2.79s.1,2,.22,2.73c.13,.81,.28,1.74,.28,3.48,0,1.63-.05,2.45-.1,3.25-.05,.76-.09,1.48-.09,2.96v6.21c0,1.52,.02,2.28,.04,3.03,.02,.79,.05,1.59,.05,3.18s0,2.31,.02,3.08c0,.78,.02,1.56,.02,3.13s-.02,2.38-.05,3.17c-.02,.76-.04,1.52-.04,3.04s0,2.31,.02,3.08c0,.78,.02,1.57,.02,3.13,0,1.7-.11,2.59-.21,3.39-.09,.73-.17,1.41-.17,2.82s.09,2.02,.2,2.77c.12,.81,.25,1.72,.25,3.45s-.07,2.49-.13,3.3c-.06,.75-.12,1.46-.12,2.92,0,1.58-.02,2.37-.04,3.16-.02,.76-.04,1.53-.04,3.05,0,1.61-.04,2.42-.07,3.21-.04,.77-.07,1.5-.07,3,0,1.35,.11,1.97,.24,2.7,.15,.82,.31,1.76,.31,3.52,0,1.64-.06,2.47-.12,3.27-.05,.76-.1,1.47-.1,2.94s.08,2.11,.16,2.84c.09,.79,.19,1.69,.19,3.38,0,1.58-.01,2.36-.03,3.15-.01,.77-.03,1.53-.03,3.07v6.21c0,1.5,.04,2.26,.07,3.01,.03,.79,.07,1.6,.07,3.21,0,1.78-.18,2.72-.34,3.55-.14,.72-.26,1.33-.26,2.67,0,1.45,.06,2.16,.12,2.9,.07,.81,.14,1.65,.14,3.31s-.09,2.54-.18,3.36c-.08,.73-.16,1.43-.16,2.85,0,1.32,.12,1.94,.26,2.65,.17,.83,.35,1.78,.35,3.56,0,1.67-.08,2.51-.16,3.33-.07,.74-.14,1.44-.14,2.88,0,1.71-.13,2.62-.24,3.43-.1,.75-.19,1.39-.19,2.79s.12,1.96,.25,2.68c.15,.83,.33,1.77,.33,3.54,0,1.62-.05,2.45-.1,3.25-.04,.76-.09,1.48-.09,2.97,0,1.68-.09,2.54-.19,3.37-.08,.73-.16,1.43-.16,2.85,0,1.29,.13,1.87,.29,2.59,.19,.85,.41,1.81,.41,3.63,0,1.71-.12,2.61-.22,3.41-.1,.75-.18,1.41-.18,2.81,0,2.12-.36,4.3-1.07,6.49-.78,2.41-1.72,4.35-2.88,5.93-1.21,1.66-2.8,3.22-4.72,4.61-1.57,1.15-3.45,2.05-5.92,2.85-2.2,.72-4.41,.81-6.46,.81-1.56,0-2.34,0-3.12-.02-.77,0-1.53-.02-3.07-.02s-2.18,.05-2.94,.1c-.8,.05-1.63,.11-3.25,.11-1.32,0-1.94,.12-2.65,.25-.83,.16-1.76,.34-3.53,.34Zm-6.19-5.24c1.75,0,2.68,.17,3.51,.31,.72,.13,1.34,.24,2.68,.24s1.94-.12,2.65-.25c.83-.16,1.76-.34,3.53-.34,1.47,0,2.18-.05,2.94-.1,.8-.05,1.63-.11,3.25-.11s2.34,0,3.12,.02c.77,0,1.53,.02,3.07,.02,1.67,0,3.43-.07,5.01-.58,1.98-.64,3.44-1.34,4.61-2.18,1.52-1.11,2.76-2.31,3.69-3.58,.87-1.2,1.57-2.67,2.21-4.62,.57-1.75,.84-3.39,.84-5.04s.12-2.61,.22-3.41c.1-.75,.18-1.41,.18-2.81,0-1.29-.13-1.87-.29-2.59-.19-.85-.41-1.81-.41-3.63,0-1.68,.09-2.54,.19-3.37,.08-.73,.16-1.43,.16-2.85,0-1.62,.05-2.45,.1-3.25,.04-.76,.09-1.48,.09-2.97,0-1.34-.12-1.96-.25-2.68-.15-.83-.33-1.77-.33-3.54s.13-2.62,.24-3.43c.1-.75,.19-1.39,.19-2.79,0-1.67,.08-2.51,.16-3.33,.07-.74,.14-1.44,.14-2.88,0-1.32-.12-1.94-.26-2.65-.17-.83-.35-1.78-.35-3.56,0-1.68,.09-2.54,.18-3.36,.08-.73,.16-1.43,.16-2.85s-.06-2.16-.12-2.9c-.07-.81-.14-1.65-.14-3.31,0-1.78,.18-2.72,.34-3.55,.14-.72,.26-1.33,.26-2.67,0-1.5-.03-2.26-.06-3.01-.03-.79-.07-1.6-.07-3.21v-6.21c0-1.58,0-2.36,.02-3.15,.01-.77,.03-1.53,.03-3.07,0-1.42-.08-2.11-.16-2.84-.09-.79-.19-1.69-.19-3.38s.06-2.47,.12-3.27c.05-.76,.1-1.47,.1-2.94,0-1.35-.11-1.97-.24-2.7-.15-.82-.31-1.76-.31-3.52,0-1.61,.04-2.42,.07-3.21,.04-.77,.07-1.5,.07-3,0-1.58,.02-2.37,.04-3.16,.02-.76,.04-1.53,.04-3.05,0-1.65,.07-2.49,.13-3.29,.06-.75,.12-1.46,.12-2.92,0-1.38-.09-2.02-.2-2.77-.12-.81-.25-1.72-.25-3.45s.11-2.6,.21-3.39c.09-.72,.17-1.41,.17-2.82,0-1.54,0-2.31-.02-3.08,0-.78-.02-1.57-.02-3.13s.02-2.38,.05-3.17c.02-.76,.04-1.52,.04-3.04s0-2.31-.02-3.08c0-.78-.02-1.56-.02-3.13s-.02-2.28-.05-3.04c-.02-.79-.05-1.59-.05-3.18v-6.21c0-1.62,.06-2.45,.11-3.25,.05-.76,.09-1.48,.09-2.96,0-1.37-.1-2-.22-2.73-.13-.81-.28-1.74-.28-3.48s.12-2.62,.23-3.42c.1-.75,.19-1.4,.19-2.8,0-1.62,.05-2.44,.1-3.24,.04-.76,.09-1.48,.09-2.97s-.07-2.13-.14-2.87c-.08-.82-.17-1.67-.17-3.34s.13-2.62,.24-3.43c.1-.75,.19-1.39,.19-2.78s-.12-1.94-.26-2.66c-.16-.83-.35-1.77-.35-3.55,0-1.59,.03-2.39,.05-3.19,.03-.76,.05-1.51,.05-3.03s-.05-2.17-.11-2.93c-.06-.81-.13-1.64-.13-3.28s.04-2.42,.07-3.21c.04-.77,.07-1.5,.07-3,0-1.63,.06-2.46,.11-3.26,.05-.76,.1-1.48,.1-2.95s-.03-2.23-.07-3c-.03-.79-.07-1.61-.07-3.21s-.01-2.3-.03-3.06c-.02-.79-.03-1.58-.03-3.15,0-1.72,.13-2.64,.25-3.44,.11-.74,.2-1.39,.2-2.77,0-1.61,.04-2.43,.08-3.23,.04-.77,.08-1.49,.08-2.99s0-2.32,0-3.1c0-.78,0-1.56,0-3.11,0-1.27-.14-1.84-.31-2.55-.21-.86-.44-1.83-.44-3.66,0-1.71,.13-2.63,.24-3.43,.1-.75,.19-1.39,.19-2.78s-.1-2.01-.21-2.75c-.12-.81-.27-1.73-.27-3.46,0-1.56,0-2.34,0-3.12,0-.77,0-1.55,0-3.09,0-1.69,.11-2.59,.2-3.38,.09-.73,.17-1.42,.17-2.83,0-1.52-.02-2.27-.05-3.03-.03-.79-.05-1.59-.05-3.18,0-1.7,.11-2.6,.21-3.4,.09-.75,.18-1.41,.18-2.81,0-1.31-.13-1.92-.27-2.63-.17-.84-.37-1.79-.37-3.58,0-1.68,.09-2.53,.18-3.36,.08-.73,.15-1.43,.15-2.85,0-1.54,0-2.32-.01-3.09,0-.78-.01-1.56-.01-3.12,0-1.71,.12-2.61,.23-3.41,.1-.75,.19-1.4,.19-2.8,0-1.56,0-2.34,0-3.12,0-.77,0-1.54,0-3.09,0-1.4-.08-2.06-.18-2.81-.1-.8-.22-1.7-.22-3.4,0-2.05-.1-3.7-.56-5.13-.35-1.07-1.14-2.09-1.97-3.17-.29-.37-.58-.74-.85-1.12-1.09-1.5-2.1-2.81-3.4-3.76-1.32-.96-2.81-1.7-4.55-2.27-1.5-.49-3.16-.53-5.02-.53s-2.8-.24-3.66-.44c-.71-.17-1.28-.31-2.55-.31s-1.84,.13-2.56,.3c-.85,.2-1.82,.43-3.64,.43s-2.77-.22-3.62-.41c-.72-.16-1.29-.29-2.58-.29s-1.94,.12-2.66,.25c-.83,.16-1.76,.33-3.53,.33-1.6,0-2.42-.04-3.21-.08-.77-.04-1.49-.07-2.99-.07-1.69,0-2.59-.11-3.39-.21-.75-.09-1.4-.17-2.81-.17-1.56,0-2.35-.01-3.13-.02-.77-.01-1.53-.02-3.07-.02-1.43,0-2.12,.07-2.85,.15-.82,.09-1.67,.18-3.34,.18s-2.48-.07-3.29-.14c-.75-.06-1.45-.12-2.9-.12-1.59,0-2.39-.03-3.19-.06-.75-.03-1.5-.06-3-.06-1.37,0-2.01,.1-2.75,.21-.81,.12-1.72,.26-3.45,.26h-6.19c-1.73,0-2.65-.16-3.46-.28-.73-.12-1.37-.22-2.73-.22s-2.1,.08-2.83,.16c-.79,.09-1.68,.19-3.36,.19-1.44,0-2.14,.06-2.88,.13-.81,.07-1.65,.15-3.31,.15s-2.52-.09-3.34-.17c-.73-.08-1.43-.15-2.85-.15-1.56,0-2.33,0-3.11-.01-.77,0-1.54-.01-3.08-.01s-2.38-.02-3.17-.05c-.76-.02-1.51-.05-3.02-.05-1.39,0-2.04,.08-2.79,.18-.8,.11-1.7,.22-3.4,.22-1.51,0-2.26,.02-3.02,.05-.79,.03-1.59,.05-3.17,.05s-2.44-.05-3.23-.09c-.76-.04-1.48-.08-2.96-.08-1.68,0-2.53-.09-3.35-.19-.73-.08-1.42-.16-2.83-.16-1.5,0-2.22,.03-2.99,.07-.79,.04-1.6,.07-3.2,.07-1.39,0-2.03,.09-2.77,.19-.8,.11-1.71,.24-3.42,.24-1.52,0-2.28,.02-3.05,.03-.79,.02-1.57,.03-3.14,.03-1.85,0-2.83-.26-3.69-.49-.7-.18-1.25-.33-2.5-.33-1.38,0-2.01,.09-2.75,.2-.8,.12-1.72,.25-3.44,.25s-2.61-.12-3.41-.23c-.75-.1-1.39-.19-2.78-.19-1.56,0-2.34,0-3.11-.01-.77,0-1.54-.01-3.07-.01s-2.31,0-3.08,0c-.78,0-1.56,0-3.11,0-1.38,0-2.02,.09-2.76,.2-.8,.12-1.71,.25-3.43,.25-1.85,0-3.63,.04-5.13,.53-1.56,.5-3.15,1.33-4.6,2.39-1.25,.91-2.82,2.13-3.84,3.54-.63,.87-.99,2.11-1.37,3.42-.14,.48-.28,.96-.43,1.43l-.2,.62c-.5,1.52-.98,2.96-.98,4.37v6.22c0,1.57,0,2.35-.02,3.14,0,.77-.02,1.54-.02,3.09s.04,2.21,.08,2.98c.04,.8,.09,1.62,.09,3.24s-.04,2.43-.08,3.22c-.04,.77-.07,1.5-.07,2.99,0,1.6-.03,2.4-.06,3.2-.03,.75-.06,1.51-.06,3.01s.05,2.19,.1,2.95c.05,.8,.11,1.63,.11,3.26s-.03,2.39-.06,3.19c-.03,.76-.05,1.51-.05,3.03s-.01,2.35-.02,3.14c-.01,.77-.02,1.54-.02,3.08,0,1.34,.12,1.96,.25,2.68,.15,.83,.33,1.77,.33,3.54s-.15,2.66-.27,3.47c-.12,.74-.22,1.37-.22,2.74,0,1.6-.03,2.4-.06,3.19-.03,.75-.06,1.51-.06,3.02,0,1.31,.13,1.92,.27,2.63,.17,.84,.37,1.79,.37,3.58,0,1.57-.01,2.36-.03,3.15-.01,.77-.02,1.53-.02,3.07,0,1.64-.06,2.47-.12,3.28-.06,.75-.11,1.47-.11,2.93,0,1.67-.08,2.51-.16,3.33-.07,.74-.14,1.44-.14,2.88,0,1.62-.05,2.44-.09,3.24-.04,.76-.08,1.49-.08,2.98,0,1.29,.13,1.87,.29,2.6,.19,.85,.4,1.81,.4,3.62v6.21c0,1.66-.08,2.5-.16,3.32-.07,.75-.13,1.45-.13,2.9s.03,2.26,.06,3.02c.03,.8,.06,1.6,.06,3.2,0,1.49,.04,2.22,.08,2.99,.04,.79,.08,1.61,.08,3.23s0,2.34-.01,3.13c0,.77-.01,1.54-.01,3.08,0,1.62-.05,2.45-.1,3.25-.05,.76-.09,1.48-.09,2.97,0,1.57-.01,2.36-.03,3.15-.01,.77-.03,1.53-.03,3.06v6.21c0,1.53,0,2.29,.02,3.06,.02,.79,.03,1.58,.03,3.15,0,1.73-.14,2.65-.26,3.46-.11,.74-.21,1.38-.21,2.75s.12,1.93,.27,2.64c.17,.84,.36,1.78,.36,3.57s-.14,2.64-.26,3.45c-.11,.74-.21,1.38-.21,2.76,0,1.46,.06,2.17,.11,2.92,.06,.81,.13,1.64,.13,3.29,0,1.53,.01,2.3,.03,3.06,.01,.79,.03,1.57,.03,3.14s-.02,2.36-.03,3.15c-.02,.76-.03,1.53-.03,3.06s-.03,2.39-.05,3.18c-.03,.76-.05,1.51-.05,3.02,0,1.61-.04,2.43-.08,3.23-.04,.77-.08,1.49-.08,2.98s.06,2.17,.12,2.92c.06,.81,.13,1.65,.13,3.29,0,1.53,.01,2.3,.02,3.07,.01,.79,.02,1.57,.02,3.14,0,1.67-.09,2.52-.17,3.34-.07,.74-.14,1.44-.14,2.87s.04,2.21,.08,2.98c.04,.79,.09,1.62,.09,3.23s-.07,2.49-.14,3.31c-.06,.75-.12,1.45-.12,2.91,0,1.38,.1,2.01,.21,2.75,.12,.81,.26,1.73,.26,3.46,0,1.58-.02,2.36-.03,3.15-.01,.77-.03,1.53-.03,3.06,0,1.43,.07,2.12,.15,2.86,.09,.82,.18,1.68,.18,3.35s-.06,2.48-.13,3.29c-.06,.75-.11,1.46-.11,2.93,0,1.68-.1,2.54-.19,3.37-.08,.73-.16,1.42-.16,2.85,0,1.53,.02,2.29,.04,3.05,.02,.79,.04,1.58,.04,3.16,0,1.39,.09,2.04,.19,2.79,.11,.8,.23,1.71,.23,3.42,0,1.81-.22,2.77-.41,3.62-.16,.73-.29,1.3-.29,2.59s.12,1.95,.26,2.66c.16,.83,.34,1.77,.34,3.55,0,1.65-.07,2.49-.14,3.31-.06,.75-.12,1.45-.12,2.9,0,1.61-.04,2.43-.08,3.22-.04,.77-.08,1.49-.08,2.99s.07,2.13,.14,2.87c.08,.82,.17,1.67,.17,3.34s-.12,2.61-.22,3.41c-.1,.75-.18,1.4-.18,2.8,0,1.33,.12,1.94,.26,2.65,.16,.83,.35,1.78,.35,3.56,0,1.62-.05,2.45-.1,3.25-.05,.76-.09,1.48-.09,2.96,0,1.62-.05,2.45-.1,3.25-.05,.76-.09,1.48-.09,2.96,0,1.6-.03,2.42-.07,3.2-.03,.75-.06,1.5-.06,3.01,0,1.28,.45,2.6,.93,3.99,.11,.33,.23,.67,.33,1,.14,.43,.27,.88,.4,1.32,.4,1.34,.77,2.61,1.43,3.51,1,1.37,2.31,2.68,3.7,3.69,1.55,1.13,3.15,1.98,4.62,2.46,1.34,.43,3,.43,4.76,.43h.43c1.68,0,2.54,.09,3.36,.19,.73,.08,1.42,.16,2.84,.16s2.17-.06,2.92-.11c.81-.06,1.64-.13,3.28-.13,1.53,0,2.3-.01,3.06-.02,.78-.01,1.57-.02,3.13-.02s2.31,0,3.08,0c.78,0,1.55,0,3.11,0s2.21-.04,2.98-.08c.79-.04,1.61-.08,3.22-.08,1.44,0,2.14-.07,2.88-.13,.81-.08,1.66-.16,3.32-.16,1.76,0,2.7,.17,3.52,.32,.72,.13,1.34,.25,2.67,.25,1.44,0,2.14-.06,2.89-.13,.81-.07,1.65-.15,3.31-.15,1.56,0,2.33,0,3.11,.01,.77,0,1.54,.01,3.08,.01,1.72,0,2.63,.13,3.43,.25,.74,.11,1.38,.2,2.76,.2s2.13-.07,2.87-.14c.82-.08,1.66-.16,3.32-.16,1.39,0,2.04-.08,2.79-.18,.8-.1,1.7-.22,3.4-.22,1.57,0,2.36,.01,3.14,.03,.76,.01,1.53,.03,3.05,.03h6.19c1.78,0,2.73,.19,3.56,.36,.71,.14,1.32,.27,2.63,.27s1.82-.14,2.53-.32c.86-.21,1.83-.46,3.67-.46,1.71,0,2.62,.12,3.42,.24,.75,.1,1.39,.19,2.78,.19,1.53,0,2.29-.01,3.06-.03,.78-.01,1.57-.03,3.14-.03,1.65,0,2.48,.07,3.29,.14,.75,.06,1.45,.12,2.9,.12s2.05-.08,2.81-.17c.79-.1,1.69-.21,3.38-.21s2.69,.17,3.52,.32c.72,.13,1.34,.24,2.68,.24,1.46,0,2.16-.05,2.91-.11,.81-.06,1.64-.13,3.28-.13,1.35,0,1.98-.11,2.7-.23,.82-.14,1.74-.3,3.49-.3s2.69,.17,3.51,.32c.72,.13,1.34,.24,2.68,.24,1.57,0,2.35,.01,3.14,.03,.76,.01,1.53,.03,3.05,.03s2.34,0,3.12,.02c.77,0,1.53,.02,3.07,.02,1.38,0,2.02-.09,2.77-.19,.8-.11,1.71-.24,3.42-.24Z" fill="#3c1053"></path><path d="M344.57,415.42c-3.09,0-3.09-.17-6.17-.17s-3.08,.11-6.17,.11-3.08,.12-6.17,.12-3.08-.02-6.17-.02-3.09-.18-6.17-.18-3.08-.22-6.17-.22-3.08,.51-6.17,.51-3.09-.1-6.17-.1-3.08,0-6.17,0-3.09,.14-6.17,.14-3.09-.61-6.17-.61-3.09-.12-6.17-.12-3.09,.24-6.17,.24-3.09,.21-6.17,.21-3.09-.06-6.17-.06-3.09-.08-6.17-.08-3.09,.09-6.17,.09-3.09-.46-6.17-.46-3.09,.56-6.17,.56-3.09,.02-6.17,.02-3.08,.07-6.17,.07-3.09-.38-6.17-.38-3.09,.37-6.17,.37-3.09-.46-6.17-.46-3.09-.04-6.17-.04-3.09,0-6.18,0-3.09,.03-6.17,.03-3.09,.04-6.18,.04-3.09,.49-6.18,.49-3.09-.51-6.18-.51c-.78,0-1.17-.46-1.17-1.24,0-3.14-.3-3.14-.3-6.27s-.18-3.13-.18-6.27,.59-3.13,.59-6.27-.26-3.13-.26-6.27,.21-3.14,.21-6.27-.52-3.14-.52-6.27,.32-3.13,.32-6.27,.03-3.14,.03-6.27-.17-3.14-.17-6.27-.05-3.13-.05-6.27-.31-3.14-.31-6.27-.05-3.14-.05-6.27,.52-3.14,.52-6.27-.03-3.14-.03-6.27,.28-3.14,.28-6.27-.23-3.14-.23-6.27-.49-3.13-.49-6.27,.39-3.13,.39-6.27,.05-3.14,.05-6.27,.16-3.13,.16-6.27-.38-3.13-.38-6.27,.18-3.13,.18-6.27,.11-3.14,.11-6.27-.49-3.13-.49-6.27,.52-3.13,.52-6.27-.3-3.14-.3-6.27,.43-3.13,.43-6.27-.58-3.14-.58-6.27,.2-3.14,.2-6.27-.33-3.14-.33-6.27,.09-3.14,.09-6.27-.09-3.14-.09-6.27,.04-3.14,.04-6.27,.77-3.14,.77-6.27-.43-3.14-.43-6.27,.45-3.14,.45-6.27-.36-3.14-.36-6.27-.01-3.14-.01-6.27,.04-3.13,.04-6.27-.44-3.14-.44-6.27,.56-3.14,.56-6.27-.16-3.14-.16-6.27-.25-3.14-.25-6.27,.43-3.14,.43-6.28,.14-3.14,.14-6.27-.04-3.14-.04-6.28-.33-3.14-.33-6.28-.19-3.14-.19-6.28c0-.78,.83-1.22,1.61-1.22,3.09,0,3.09,.02,6.17,.02s3.08-.41,6.17-.41,3.08,.35,6.17,.35,3.08-.51,6.17-.51,3.09,.76,6.17,.76,3.08-.65,6.17-.65,3.08,.48,6.17,.48,3.09-.66,6.17-.66,3.08,.22,6.17,.22,3.09,.22,6.17,.22,3.09,.1,6.17,.1,3.09-.52,6.17-.52,3.09,.3,6.17,.3,3.09,.45,6.17,.45,3.09-.45,6.17-.45,3.09,.37,6.17,.37,3.09,.14,6.17,.14,3.09-.22,6.17-.22,3.09,.04,6.17,.04,3.09,.08,6.17,.08,3.08,.08,6.17,.08,3.09-.79,6.17-.79,3.09,.07,6.17,.07,3.09,.63,6.17,.63,3.09-.48,6.17-.48,3.09,.44,6.18,.44,3.09-.41,6.17-.41,3.09,.13,6.18,.13,3.09,.4,6.18,.4,3.09,0,6.18,0c.78,0,1.52,.24,1.52,1.02,0,3.14-.05,3.14-.05,6.27s.36,3.13,.36,6.27-.36,3.13-.36,6.27,.36,3.13,.36,6.27-.13,3.14-.13,6.27-.32,3.14-.32,6.27,.29,3.13,.29,6.27-.08,3.14-.08,6.27-.07,3.14-.07,6.27-.02,3.13-.02,6.27,.21,3.14,.21,6.27-.26,3.14-.26,6.27-.3,3.14-.3,6.27,.23,3.14,.23,6.27-.19,3.14-.19,6.27,.11,3.14,.11,6.27-.21,3.13-.21,6.27,.08,3.13,.08,6.27,.05,3.14,.05,6.27,.3,3.13,.3,6.27,0,3.13,0,6.27-.41,3.13-.41,6.27,.52,3.14,.52,6.27,.22,3.13,.22,6.27-.25,3.13-.25,6.27-.24,3.14-.24,6.27,.33,3.13,.33,6.27-.67,3.14-.67,6.27,.79,3.14,.79,6.27-.78,3.14-.78,6.27,.08,3.14,.08,6.27,.43,3.14,.43,6.27-.2,3.14-.2,6.27,.23,3.14,.23,6.27-.29,3.14-.29,6.27,.12,3.14,.12,6.27,.38,3.14,.38,6.27-.63,3.14-.63,6.27,.53,3.13,.53,6.27-.68,3.14-.68,6.27,.06,3.14,.06,6.27,.27,3.14,.27,6.27,.31,3.14,.31,6.27-.4,3.14-.4,6.28-.14,3.14-.14,6.27,.44,3.14,.44,6.28,.22,3.14,.22,6.28-.65,3.14-.65,6.28c0,.78-.32,1.63-1.1,1.63Z" fill="#3ad356"></path><path d="M282.87,417.97c-1.77,0-2.71-.19-3.54-.35-.71-.14-1.32-.26-2.63-.26-1.59,0-2.38-.03-3.18-.06-.75-.03-1.5-.06-2.99-.06s-2.16,.05-2.9,.11c-.8,.06-1.63,.13-3.27,.13-1.46,0-2.18,.05-2.93,.1-.8,.05-1.62,.11-3.25,.11s-2.35-.01-3.13-.03c-.76-.01-1.52-.03-3.04-.03s-2.36-.02-3.15-.04c-.76-.02-1.51-.04-3.02-.04s-2.27,.02-3.02,.04c-.79,.02-1.58,.04-3.15,.04-1.72,0-2.63-.14-3.43-.25-.74-.11-1.37-.2-2.74-.2s-1.95,.11-2.67,.24c-.82,.15-1.75,.32-3.51,.32-1.54,0-2.3,0-3.07,0-.78,0-1.55,.01-3.1,.01s-2.27,.02-3.03,.03c-.78,.02-1.57,.03-3.14,.03-1.69,0-2.58-.11-3.38-.21-.75-.09-1.4-.17-2.8-.17s-2.09,.08-2.81,.17c-.79,.09-1.68,.2-3.36,.2s-2.63-.13-3.43-.25c-.74-.11-1.37-.2-2.74-.2-1.56,0-2.34,0-3.12-.02-.76,0-1.53-.02-3.06-.02h-6.18c-1.53,0-2.3,.01-3.07,.02-.78,0-1.55,.01-3.11,.01s-2.29,.01-3.06,.02c-.78,.01-1.56,.02-3.12,.02-1.36,0-1.99,.1-2.72,.22-.81,.13-1.73,.28-3.46,.28s-2.66-.15-3.47-.28c-.73-.12-1.36-.22-2.71-.22-2.07,0-3.51-1.47-3.51-3.58,0-1.46-.07-2.17-.14-2.91-.08-.83-.16-1.68-.16-3.36,0-1.5-.04-2.23-.09-3-.05-.8-.09-1.63-.09-3.27,0-1.79,.18-2.73,.34-3.57,.14-.73,.25-1.35,.25-2.7,0-1.47-.06-2.19-.12-2.94-.07-.82-.14-1.66-.14-3.33s.06-2.49,.11-3.3c.05-.77,.1-1.49,.1-2.98,0-1.37-.11-2.01-.23-2.75-.14-.82-.29-1.76-.29-3.52s.09-2.55,.17-3.38c.08-.74,.15-1.45,.15-2.89,0-1.58,0-2.37,.02-3.16,0-.78,.02-1.55,.02-3.11s-.04-2.24-.08-3.01c-.04-.8-.09-1.63-.09-3.26s-.01-2.32-.03-3.1c-.01-.79-.03-1.59-.03-3.17,0-1.45-.07-2.16-.15-2.9-.08-.83-.17-1.68-.17-3.37,0-1.55-.01-2.33-.02-3.1-.01-.79-.02-1.58-.02-3.17,0-1.76,.16-2.7,.29-3.52,.12-.74,.23-1.38,.23-2.75,0-1.56,0-2.33-.02-3.11,0-.79-.02-1.58-.02-3.16,0-1.67,.07-2.52,.15-3.34,.07-.75,.13-1.47,.13-2.93s-.05-2.2-.11-2.96c-.06-.81-.12-1.65-.12-3.31,0-1.38-.1-2.03-.22-2.77-.13-.82-.27-1.75-.27-3.5s.11-2.62,.21-3.42c.1-.76,.18-1.42,.18-2.84,0-1.59,.01-2.38,.02-3.17,.01-.78,.02-1.55,.02-3.1,0-1.63,.04-2.45,.08-3.25,.04-.78,.08-1.51,.08-3.01,0-1.43-.08-2.12-.17-2.85-.1-.8-.21-1.71-.21-3.41s.05-2.47,.09-3.27c.04-.77,.09-1.5,.09-3,0-1.61,.03-2.41,.06-3.22,.03-.76,.05-1.53,.05-3.05,0-1.38-.1-2.03-.22-2.77-.13-.82-.27-1.75-.27-3.5s.16-2.7,.29-3.52c.12-.74,.23-1.38,.23-2.75,0-1.45-.07-2.16-.14-2.91-.08-.83-.16-1.68-.16-3.36s.13-2.65,.24-3.46c.1-.76,.19-1.41,.19-2.81s-.12-1.98-.25-2.71c-.16-.83-.33-1.78-.33-3.57,0-1.64,.05-2.48,.11-3.29,.05-.77,.1-1.49,.1-2.98s-.07-2.14-.15-2.89c-.09-.83-.18-1.69-.18-3.38,0-1.6,.02-2.4,.05-3.21,.02-.77,.05-1.53,.05-3.07s-.02-2.3-.05-3.07c-.02-.8-.05-1.6-.05-3.21s.01-2.38,.02-3.17c.01-.78,.02-1.55,.02-3.1,0-1.85,.24-2.83,.45-3.69,.18-.72,.32-1.29,.32-2.58,0-1.41-.09-2.06-.19-2.82-.11-.81-.23-1.73-.23-3.45s.13-2.66,.25-3.47c.11-.75,.2-1.4,.2-2.81s-.08-2.13-.17-2.87c-.09-.8-.2-1.7-.2-3.41,0-1.56,0-2.35,0-3.13,0-.79,0-1.57,0-3.15s.01-2.38,.02-3.17c.01-.78,.02-1.55,.02-3.1,0-1.4-.09-2.06-.2-2.81-.11-.81-.24-1.73-.24-3.46s.17-2.72,.32-3.55c.13-.73,.24-1.37,.24-2.73,0-1.51-.04-2.24-.08-3.02-.04-.8-.08-1.63-.08-3.25,0-1.48-.06-2.19-.12-2.95-.06-.82-.13-1.66-.13-3.32s.13-2.65,.24-3.46c.1-.76,.19-1.41,.19-2.82,0-1.62,.04-2.44,.07-3.24,.03-.78,.07-1.52,.07-3.03s-.01-2.33-.02-3.11c-.01-.79-.02-1.58-.02-3.17,0-1.45-.07-2.15-.15-2.9-.09-.83-.18-1.69-.18-3.39,0-1.5-.04-2.23-.09-3-.05-.81-.1-1.64-.1-3.28,0-2,1.74-3.56,3.96-3.56,1.55,0,2.32,0,3.1,0,.77,0,1.54,0,3.07,0,1.39,0,2.03-.08,2.78-.18,.79-.11,1.7-.22,3.39-.22s2.57,.1,3.35,.19c.72,.08,1.41,.16,2.82,.16s1.98-.1,2.7-.22c.81-.13,1.73-.29,3.47-.29,1.83,0,2.79,.24,3.65,.45,.71,.17,1.27,.31,2.52,.31s1.9-.13,2.6-.27c.83-.18,1.78-.38,3.57-.38s2.64,.14,3.45,.27c.73,.11,1.36,.21,2.72,.21s1.9-.13,2.6-.28c.84-.18,1.79-.38,3.58-.38,1.63,0,2.45,.06,3.25,.12,.75,.05,1.46,.11,2.92,.11,1.63,0,2.45,.06,3.25,.12,.75,.05,1.46,.1,2.92,.1,1.58,0,2.37,.03,3.16,.05,.75,.02,1.5,.05,3.01,.05,1.35,0,1.97-.11,2.7-.23,.81-.14,1.74-.29,3.48-.29s2.5,.08,3.31,.16c.73,.07,1.43,.14,2.86,.14,1.71,0,2.62,.13,3.42,.25,.74,.11,1.38,.2,2.75,.2s2.01-.09,2.75-.2c.8-.12,1.71-.25,3.43-.25s2.58,.11,3.37,.2c.72,.09,1.4,.17,2.8,.17,1.6,0,2.41,.04,3.2,.07,.77,.04,1.49,.07,2.98,.07s2.17-.05,2.92-.1c.8-.06,1.63-.12,3.25-.12s2.34,0,3.12,.02c.76,0,1.53,.02,3.06,.02s2.36,.02,3.15,.04c.76,.02,1.51,.04,3.02,.04s2.36,.02,3.15,.04c.75,.02,1.51,.04,3.02,.04,1.25,0,1.8-.14,2.5-.32,.86-.22,1.83-.47,3.67-.47,1.57,0,2.35,.02,3.14,.04,.76,.02,1.52,.03,3.03,.03,1.78,0,2.73,.19,3.56,.37,.7,.14,1.31,.27,2.62,.27s2-.1,2.73-.21c.81-.12,1.72-.27,3.45-.27s2.62,.13,3.42,.25c.74,.11,1.38,.2,2.75,.2s2.03-.09,2.77-.19c.8-.11,1.7-.23,3.4-.23,1.6,0,2.41,.04,3.19,.07,.77,.03,1.49,.07,2.99,.07,1.7,0,2.6,.12,3.39,.22,.75,.1,1.4,.18,2.79,.18h6.18c2.66,0,3.87,1.74,3.87,3.36s-.01,2.38-.03,3.17c-.01,.77-.03,1.55-.03,3.1,0,1.43,.08,2.13,.17,2.86,.09,.8,.2,1.7,.2,3.41s-.1,2.61-.2,3.4c-.08,.74-.16,1.43-.16,2.87s.08,2.13,.17,2.86c.09,.8,.2,1.7,.2,3.41s-.03,2.42-.07,3.23c-.03,.76-.06,1.52-.06,3.04,0,1.69-.09,2.54-.17,3.37-.08,.75-.15,1.45-.15,2.9s.06,2.17,.13,2.92c.08,.82,.15,1.67,.15,3.35s-.02,2.4-.04,3.2c-.02,.77-.04,1.54-.04,3.08s-.02,2.39-.04,3.19c-.02,.77-.04,1.54-.04,3.08s0,2.36,0,3.15c0,.78,0,1.56,0,3.12s.05,2.21,.1,2.98c.05,.81,.11,1.65,.11,3.29s-.07,2.51-.14,3.33c-.06,.76-.12,1.47-.12,2.94,0,1.68-.08,2.54-.16,3.36-.07,.75-.14,1.45-.14,2.91s.05,2.21,.11,2.97c.06,.81,.12,1.65,.12,3.3s-.05,2.47-.1,3.28c-.05,.77-.09,1.5-.09,2.99s.03,2.29,.05,3.06c.03,.8,.05,1.61,.05,3.21s-.06,2.48-.11,3.29c-.05,.76-.1,1.49-.1,2.97s.02,2.31,.04,3.08c.02,.8,.04,1.6,.04,3.19s.01,2.32,.03,3.1c.01,.79,.03,1.59,.03,3.17,0,1.45,.07,2.16,.14,2.91,.08,.83,.16,1.68,.16,3.36v6.27c0,1.72-.13,2.63-.23,3.44-.1,.76-.19,1.42-.19,2.83s.11,2.01,.23,2.75c.14,.82,.29,1.76,.29,3.52,0,1.49,.05,2.21,.1,2.97,.06,.81,.11,1.65,.11,3.29s-.07,2.5-.13,3.32c-.06,.76-.12,1.48-.12,2.95,0,1.66-.06,2.5-.13,3.31-.06,.76-.11,1.48-.11,2.96s.07,2.15,.15,2.89c.09,.83,.18,1.69,.18,3.38,0,1.81-.2,2.78-.38,3.62-.15,.71-.28,1.33-.28,2.65s.14,1.85,.32,2.56c.22,.87,.46,1.85,.46,3.71s-.24,2.84-.46,3.7c-.18,.72-.32,1.29-.32,2.57,0,1.54,.02,2.31,.04,3.07,.02,.8,.04,1.6,.04,3.2,0,1.41,.09,2.06,.19,2.82,.11,.81,.24,1.73,.24,3.46s-.05,2.48-.1,3.28c-.05,.77-.09,1.49-.09,2.99s.05,2.2,.11,2.97c.06,.81,.12,1.65,.12,3.31s-.08,2.53-.15,3.35c-.07,.75-.13,1.46-.13,2.92s.03,2.29,.06,3.05c.03,.81,.06,1.61,.06,3.22,0,1.43,.08,2.12,.17,2.85,.1,.8,.21,1.71,.21,3.42,0,1.8-.19,2.76-.36,3.6-.14,.72-.27,1.34-.27,2.67s.11,2.01,.23,2.74c.14,.83,.3,1.76,.3,3.53s-.21,2.78-.39,3.63c-.16,.74-.29,1.32-.29,2.64,0,1.55,.02,2.32,.03,3.09,.02,.8,.03,1.59,.03,3.18,0,1.47,.06,2.18,.12,2.94,.07,.82,.14,1.67,.14,3.34,0,1.45,.07,2.16,.14,2.91,.08,.83,.17,1.68,.17,3.37s-.12,2.63-.22,3.44c-.1,.76-.18,1.42-.18,2.84,0,1.62-.04,2.44-.07,3.24-.03,.78-.07,1.52-.07,3.04,0,1.41,.09,2.06,.2,2.81,.11,.81,.24,1.73,.24,3.46,0,1.49,.05,2.21,.11,2.97,.06,.81,.12,1.65,.12,3.31,0,1.81-.2,2.77-.38,3.62-.15,.72-.28,1.33-.28,2.66,0,2.3-1.45,3.97-3.45,3.97-1.61,0-2.42-.04-3.21-.09-.76-.04-1.48-.08-2.96-.08s-2.25,.03-3,.05c-.79,.03-1.58,.06-3.17,.06-1.5,0-2.24,.03-2.99,.06-.79,.03-1.59,.06-3.17,.06s-2.33,0-3.1-.01c-.77,0-1.53-.01-3.07-.01-1.61,0-2.43-.05-3.22-.09-.76-.04-1.48-.08-2.95-.08-1.62,0-2.45-.06-3.25-.11-.75-.05-1.46-.1-2.92-.1-1.35,0-1.97,.1-2.7,.22-.81,.14-1.73,.29-3.47,.29-1.58,0-2.37-.03-3.16-.05-.75-.02-1.51-.05-3.01-.05h-6.17c-1.49,0-2.22,.04-2.98,.08-.78,.03-1.6,.07-3.19,.07Zm-12.34-5.42c1.59,0,2.38,.03,3.18,.06,.75,.03,1.5,.06,2.99,.06,1.77,0,2.71,.19,3.54,.35,.71,.14,1.32,.26,2.63,.26,1.49,0,2.22-.03,2.98-.07,.78-.03,1.6-.07,3.19-.07h6.17c1.58,0,2.37,.02,3.16,.04,.75,.02,1.5,.05,3.01,.05,1.35,0,1.97-.1,2.7-.22,.81-.14,1.73-.29,3.47-.29,1.62,0,2.45,.06,3.25,.11,.75,.05,1.46,.1,2.92,.1,1.61,0,2.43,.05,3.22,.09,.76,.04,1.48,.08,2.95,.08,1.55,0,2.33,0,3.1,.01,.77,0,1.53,.01,3.07,.01s2.24-.03,2.99-.06c.79-.03,1.59-.06,3.17-.06,1.5,0,2.25-.03,3-.05,.79-.03,1.58-.06,3.17-.06s2.42,.04,3.21,.09c.51,.03,1.01,.05,1.73,.07,.05-1.37,.22-2.17,.37-2.89,.15-.72,.28-1.33,.28-2.66,0-1.49-.05-2.21-.11-2.97-.06-.81-.12-1.65-.12-3.31,0-1.41-.09-2.06-.2-2.81-.11-.81-.24-1.73-.24-3.46,0-1.62,.04-2.44,.07-3.24,.03-.78,.07-1.52,.07-3.03,0-1.72,.12-2.63,.22-3.44,.1-.76,.18-1.42,.18-2.84s-.07-2.16-.14-2.91c-.08-.83-.17-1.68-.17-3.37,0-1.47-.06-2.18-.12-2.94-.07-.82-.14-1.67-.14-3.34,0-1.54-.02-2.32-.03-3.09-.02-.8-.03-1.59-.03-3.18,0-1.82,.21-2.78,.39-3.63,.16-.74,.29-1.32,.29-2.64s-.11-2.01-.23-2.74c-.14-.83-.3-1.76-.3-3.52s.19-2.76,.36-3.6c.14-.72,.27-1.34,.27-2.67,0-1.43-.08-2.12-.17-2.85-.1-.8-.21-1.71-.21-3.42,0-1.52-.03-2.29-.06-3.05-.03-.81-.06-1.61-.06-3.22s.08-2.53,.15-3.35c.07-.75,.13-1.46,.13-2.92s-.05-2.2-.11-2.97c-.06-.81-.12-1.65-.12-3.31s.05-2.48,.1-3.28c.05-.77,.09-1.49,.09-2.99,0-1.41-.09-2.06-.19-2.82-.11-.81-.24-1.73-.24-3.46,0-1.54-.02-2.31-.04-3.07-.02-.8-.04-1.6-.04-3.2,0-1.86,.24-2.84,.46-3.7,.18-.72,.32-1.29,.32-2.57s-.14-1.84-.32-2.56c-.22-.87-.46-1.85-.46-3.71s.2-2.78,.38-3.62c.15-.71,.28-1.33,.28-2.65,0-1.45-.07-2.15-.15-2.89-.09-.83-.18-1.69-.18-3.38s.06-2.5,.13-3.31c.06-.76,.11-1.48,.11-2.96,0-1.66,.07-2.5,.13-3.32,.06-.76,.12-1.48,.12-2.95s-.05-2.21-.1-2.97c-.06-.81-.11-1.65-.11-3.3,0-1.37-.11-2.01-.23-2.75-.14-.82-.29-1.76-.29-3.52s.12-2.63,.23-3.44c.1-.76,.19-1.42,.19-2.83v-6.27c0-1.45-.06-2.16-.13-2.91-.08-.83-.16-1.68-.16-3.36,0-1.55-.01-2.32-.03-3.1-.01-.79-.03-1.59-.03-3.18s-.02-2.31-.04-3.08c-.02-.8-.04-1.6-.04-3.19s.06-2.48,.11-3.29c.05-.76,.1-1.49,.1-2.97s-.03-2.29-.05-3.06c-.03-.8-.05-1.61-.05-3.21s.05-2.47,.1-3.28c.05-.77,.09-1.5,.09-2.99s-.05-2.21-.11-2.97c-.06-.81-.12-1.65-.12-3.3s.08-2.54,.16-3.36c.07-.75,.14-1.46,.14-2.91,0-1.67,.07-2.51,.14-3.33,.06-.76,.12-1.47,.12-2.94s-.05-2.21-.1-2.98c-.05-.81-.11-1.65-.11-3.29s0-2.36,0-3.15c0-.78,0-1.56,0-3.12s.02-2.39,.04-3.19c.02-.77,.04-1.54,.04-3.08s.02-2.4,.04-3.2c.02-.77,.04-1.54,.04-3.07s-.06-2.17-.13-2.92c-.08-.82-.15-1.67-.15-3.35s.09-2.54,.17-3.37c.08-.75,.15-1.45,.15-2.9,0-1.62,.03-2.42,.07-3.23,.03-.76,.06-1.52,.06-3.04,0-1.43-.08-2.13-.17-2.86-.09-.8-.2-1.7-.2-3.41s.1-2.61,.2-3.4c.08-.74,.16-1.43,.16-2.87s-.08-2.13-.17-2.86c-.09-.8-.2-1.7-.2-3.41,0-1.59,.01-2.38,.03-3.17,0-.51,.02-1.03,.02-1.77h-5.36c-1.7,0-2.6-.11-3.39-.22-.75-.1-1.4-.18-2.79-.18-1.6,0-2.41-.04-3.19-.07-.77-.03-1.49-.07-2.99-.07-1.39,0-2.03,.09-2.77,.19-.8,.11-1.7,.23-3.4,.23s-2.62-.13-3.42-.25c-.74-.11-1.38-.2-2.75-.2s-2,.1-2.73,.21c-.81,.12-1.72,.27-3.45,.27s-2.73-.19-3.56-.37c-.7-.14-1.31-.27-2.62-.27-1.57,0-2.35-.02-3.14-.04-.76-.02-1.52-.03-3.03-.03-1.25,0-1.8,.14-2.5,.32-.86,.22-1.83,.47-3.67,.47-1.57,0-2.36-.02-3.15-.04-.75-.02-1.51-.04-3.02-.04s-2.36-.02-3.15-.04c-.76-.02-1.51-.04-3.02-.04s-2.34,0-3.12-.02c-.76,0-1.53-.02-3.06-.02s-2.17,.05-2.92,.1c-.8,.06-1.63,.12-3.25,.12s-2.41-.04-3.2-.07c-.77-.04-1.49-.07-2.98-.07-1.69,0-2.58-.11-3.37-.2-.72-.09-1.4-.17-2.8-.17s-2.01,.09-2.75,.2c-.8,.12-1.71,.25-3.43,.25s-2.62-.13-3.42-.25c-.74-.11-1.38-.2-2.75-.2-1.66,0-2.5-.08-3.31-.16-.73-.07-1.43-.14-2.86-.14-1.35,0-1.97,.11-2.7,.23-.81,.14-1.74,.29-3.48,.29-1.58,0-2.37-.03-3.16-.05-.75-.02-1.51-.05-3.01-.05-1.63,0-2.45-.06-3.25-.12-.75-.05-1.46-.1-2.92-.1-1.63,0-2.45-.06-3.25-.12-.75-.05-1.46-.11-2.92-.11-1.3,0-1.87,.12-2.6,.28-.84,.18-1.79,.38-3.58,.38s-2.64-.14-3.45-.27c-.73-.11-1.36-.21-2.72-.21s-1.9,.13-2.6,.27c-.83,.18-1.78,.38-3.57,.38s-2.79-.24-3.65-.45c-.71-.17-1.27-.31-2.52-.31-1.35,0-1.98,.1-2.7,.22-.81,.13-1.73,.29-3.47,.29s-2.57-.1-3.35-.19c-.72-.08-1.41-.16-2.82-.16s-2.03,.08-2.77,.18c-.79,.11-1.7,.22-3.39,.22-1.55,0-2.32,0-3.1,0-.63,0-1.27,0-2.33,0,.02,.8,.05,1.32,.08,1.87,.05,.81,.1,1.64,.1,3.29,0,1.45,.07,2.15,.15,2.9,.09,.83,.18,1.69,.18,3.38,0,1.55,.01,2.33,.02,3.11,.01,.79,.02,1.58,.02,3.17s-.04,2.44-.07,3.24c-.03,.78-.07,1.52-.07,3.03,0,1.73-.13,2.65-.24,3.46-.1,.76-.19,1.41-.19,2.82s.06,2.19,.12,2.95c.06,.82,.13,1.66,.13,3.32,0,1.51,.04,2.24,.08,3.02,.04,.8,.08,1.63,.08,3.26,0,1.78-.17,2.72-.32,3.55-.13,.73-.24,1.36-.24,2.73s.09,2.06,.2,2.81c.11,.81,.24,1.73,.24,3.46,0,1.58-.01,2.38-.02,3.17-.01,.78-.02,1.55-.02,3.1s0,2.35,0,3.13c0,.79,0,1.57,0,3.15,0,1.43,.08,2.13,.17,2.87,.09,.8,.2,1.7,.2,3.41s-.13,2.66-.25,3.47c-.11,.75-.2,1.4-.2,2.81s.09,2.06,.19,2.82c.11,.81,.23,1.73,.23,3.45,0,1.85-.24,2.83-.45,3.69-.18,.72-.32,1.29-.32,2.58,0,1.58-.01,2.38-.02,3.17-.01,.78-.02,1.55-.02,3.1s.02,2.3,.05,3.07c.02,.8,.05,1.6,.05,3.21s-.02,2.4-.05,3.21c-.02,.77-.05,1.53-.05,3.07,0,1.44,.07,2.14,.15,2.89,.09,.83,.18,1.69,.18,3.38s-.05,2.48-.11,3.29c-.05,.77-.1,1.49-.1,2.98,0,1.35,.12,1.98,.25,2.71,.16,.83,.33,1.78,.33,3.57s-.13,2.65-.24,3.46c-.1,.76-.19,1.41-.19,2.81s.07,2.16,.14,2.91c.08,.83,.16,1.68,.16,3.36s-.16,2.7-.29,3.52c-.12,.74-.23,1.38-.23,2.75s.1,2.03,.22,2.77c.13,.82,.27,1.75,.27,3.5,0,1.61-.03,2.41-.06,3.22-.03,.76-.05,1.53-.05,3.05,0,1.64-.05,2.47-.09,3.27-.04,.77-.09,1.5-.09,3s.08,2.12,.17,2.85c.1,.8,.21,1.71,.21,3.41s-.04,2.45-.08,3.25c-.04,.78-.08,1.51-.08,3.01,0,1.59-.01,2.38-.02,3.17-.01,.78-.02,1.55-.02,3.1,0,1.71-.11,2.62-.21,3.42-.1,.76-.18,1.42-.18,2.84s.1,2.03,.22,2.77c.13,.82,.27,1.75,.27,3.5,0,1.48,.05,2.2,.11,2.97,.06,.81,.12,1.65,.12,3.3s-.07,2.52-.15,3.34c-.07,.75-.13,1.46-.13,2.93,0,1.56,0,2.33,.02,3.11,0,.79,.02,1.58,.02,3.16,0,1.76-.16,2.7-.29,3.52-.12,.74-.23,1.38-.23,2.75,0,1.55,.01,2.33,.02,3.1,.01,.79,.02,1.58,.02,3.17,0,1.45,.07,2.15,.15,2.9,.08,.83,.17,1.68,.17,3.37,0,1.55,.01,2.32,.03,3.1,.01,.79,.03,1.59,.03,3.17s.04,2.24,.08,3.01c.04,.8,.09,1.63,.09,3.26s0,2.37-.02,3.16c0,.78-.02,1.56-.02,3.11,0,1.69-.09,2.55-.17,3.38-.08,.74-.15,1.45-.15,2.89s.11,2.01,.23,2.75c.14,.82,.29,1.76,.29,3.52,0,1.65-.06,2.49-.11,3.3-.05,.77-.1,1.49-.1,2.98s.06,2.19,.12,2.94c.07,.82,.14,1.66,.14,3.33,0,1.79-.18,2.73-.34,3.57-.14,.73-.25,1.35-.25,2.7,0,1.5,.04,2.23,.09,3,.05,.8,.09,1.63,.09,3.27,0,1.46,.07,2.17,.14,2.91,.06,.63,.12,1.27,.15,2.28,1.03,.05,1.69,.16,2.3,.26,.73,.12,1.36,.22,2.71,.22s1.99-.1,2.72-.22c.81-.13,1.73-.28,3.46-.28,1.53,0,2.29-.01,3.06-.02,.78-.01,1.56-.02,3.12-.02s2.3,0,3.07-.01c.78,0,1.55-.01,3.11-.01h6.18c1.56,0,2.34,0,3.12,.01,.76,0,1.53,.02,3.06,.02,1.72,0,2.63,.13,3.43,.25,.74,.11,1.37,.2,2.74,.2s2.09-.08,2.81-.17c.79-.09,1.68-.2,3.36-.2s2.58,.11,3.38,.21c.75,.09,1.4,.17,2.8,.17,1.52,0,2.27-.02,3.03-.03,.78-.02,1.57-.03,3.14-.03s2.3,0,3.07,0c.78,0,1.55-.01,3.1-.01,1.33,0,1.95-.11,2.67-.24,.82-.15,1.75-.32,3.51-.32s2.63,.14,3.43,.25c.74,.11,1.37,.2,2.74,.2,1.51,0,2.27-.02,3.02-.04,.79-.02,1.58-.04,3.15-.04s2.36,.02,3.15,.04c.76,.02,1.51,.04,3.02,.04s2.35,.01,3.13,.03c.76,.01,1.52,.03,3.04,.03s2.18-.05,2.93-.1c.8-.05,1.62-.11,3.25-.11,1.45,0,2.16-.05,2.9-.11,.8-.06,1.63-.13,3.27-.13Z" fill="#3c1053"></path><g><path d="M252.82,429.55c-.1-.08-.26,.05-.09,.12,.02,.02,.09-.12,.09-.12Z" fill="#fff"></path><path d="M252.73,432.02c-.31,0-.62-.06-.9-.18h0c-.9-.37-1.48-1.2-1.52-2.15-.03-.92,.51-1.83,1.33-2.24,.86-.43,1.89-.33,2.64,.27,.89,.71,1.14,1.96,.6,2.96-.49,.89-1.19,1.2-1.69,1.3-.15,.03-.31,.05-.46,.05Zm-.84-.32c.59,.25,1.28,.23,1.87-.07l-1.01-1.99-.02,.03h0s-.42,.52-.42,.52l.42-.52-.84,2.03Zm2.3-3.85l-1.35,1.69,2.16-.03c-.03-.66-.33-1.26-.81-1.67Zm-1.92-.47c-.77,.16-1.3,.66-1.51,1.05l1.93,1.05-.42-2.11Z" fill="#3c1053"></path></g><g><path d="M252.57,436.68s.03,.01,.06,0c.01,0-.02-.06-.01-.07,.01-.01-.21-.31-.2-.31,0,0,.12,.08,.13,.08-.04,.02,.07,.27,.03,.3Z" fill="#fff"></path><path d="M252.61,439.02s-.03,0-.05,0c-.74,0-1.46-.36-1.91-1-.15-.21-.25-.43-.32-.67-.58-1.16-.13-2.32,.68-2.93h0c.79-.57,1.92-.6,2.76-.04,.34,.21,.63,.51,.83,.89,.1,.19,.18,.4,.22,.6h0c.36,1.03-.03,2.2-.95,2.79-.38,.24-.83,.37-1.28,.37Zm1.1-.61s0,0,0,0c0,0,0,0,0,0Zm.03-.02s-.02,.01-.03,.02c.01,0,.02-.01,.03-.02h0Z" fill="#3c1053"></path></g><path d="M256.97,426.12c-1.6-1.6-3.88-2.65-6.16-2.89s-4.43,.71-6.29,2.07c-.54,.4-1.42,.51-1.62,1.13-1.58,1.77-2.6,4.25-2.65,6.66-.05,2.14,.87,4.21,2.16,5.78s3.24,2.43,5.26,2.98c2.06,.56,4.3,1.03,6.18,.26s3.18-2.62,4.21-4.52c.99-1.83,1.63-3.86,1.43-5.89s-1.01-4.06-2.52-5.58Z" fill="#fff"></path><path d="M251.63,444.86c-1.53,0-3.08-.34-4.57-.74-2.93-.79-5.05-2.02-6.46-3.76-1.78-2.19-2.74-4.79-2.68-7.31,.06-2.79,1.18-5.72,3.01-7.89,.55-.99,1.5-1.42,2-1.64,.09-.04,.18-.08,.26-.12,2.61-1.91,5.28-2.76,7.88-2.49,2.85,.3,5.61,1.6,7.57,3.57,1.79,1.79,2.92,4.28,3.19,7,.23,2.29-.35,4.72-1.7,7.24-1.01,1.87-2.67,4.48-5.4,5.58-1.01,.41-2.05,.57-3.1,.57Zm-6.81-17.06c-.05,.07-.11,.14-.16,.21-1.23,1.37-2.01,3.34-2.05,5.14-.03,1.39,.56,2.94,1.63,4.25,.77,.95,2.1,1.66,4.05,2.19,1.73,.47,3.5,.83,4.69,.36,1.33-.54,2.37-2.24,3.03-3.46,.9-1.67,1.3-3.2,1.16-4.54-.16-1.65-.82-3.12-1.85-4.15h0c-1.2-1.2-2.97-2.03-4.74-2.22-1.41-.14-2.98,.4-4.66,1.63-.39,.28-.78,.46-1.06,.59h-.02Zm.33-.64s0,0,0,0c0,0,0,0,0,0Z" fill="#3c1053"></path><path d="M406.53,457.98c-2.53,0-2.53-.07-5.07-.07s-2.53-.16-5.07-.16-2.53,.1-5.06,.1-2.53,.43-5.06,.43-2.53-.09-5.07-.09-2.53-.04-5.07-.04-2.53-.11-5.07-.11-2.53-.21-5.07-.21-2.53,.18-5.07,.18-2.53-.02-5.07-.02-2.53-.14-5.07-.14-2.53,.49-5.07,.49-2.53-.56-5.07-.56-2.53,.54-5.07,.54-2.53-.58-5.07-.58-2.53,.13-5.07,.13-2.53,.19-5.07,.19-2.53-.03-5.07-.03-2.53,.31-5.07,.31-2.53,.06-5.07,.06-2.53-.32-5.07-.32-2.53-.17-5.07-.17-2.53,.02-5.07,.02-2.53,.45-5.07,.45-2.53-.41-5.06-.41-2.53,.14-5.06,.14-2.53,.22-5.06,.22-2.53-.19-5.06-.19-2.53-.26-5.07-.26-2.53,.15-5.07,.15-2.53-.24-5.06-.24-2.53,.1-5.06,.1-2.53-.13-5.07-.13-2.53-.04-5.07-.04-2.53,.3-5.07,.3-2.53-.15-5.06-.15-2.53,.01-5.07,.01-2.53,.5-5.07,.5-2.53-.05-5.07-.05-2.53-.3-5.07-.3-2.53,.31-5.07,.31-2.53-.19-5.07-.19-2.53,.07-5.07,.07-2.53,.08-5.07,.08-2.53,.02-5.07,.02-2.53-.37-5.07-.37-2.53-.22-5.07-.22-2.53,.52-5.07,.52-2.54-.1-5.07-.1-2.54-.4-5.07-.4-2.54,.09-5.07,.09-2.53,.1-5.07,.1-2.53,.2-5.07,.2-2.53,.13-5.07,.13-2.53-.3-5.07-.3-2.54,.04-5.07,.04-2.54,.35-5.07,.35-2.54-.13-5.07-.13-2.54-.46-5.07-.46-2.54,.22-5.07,.22-2.54-.24-5.07-.24-2.54,.14-5.08,.14-2.54,.29-5.08,.29c-1.17,0-2.04-1.07-2.04-2.25s.86-2.24,2.04-2.24c2.53,0,2.53,.31,5.07,.31s2.53,.14,5.07,.14,2.53,.01,5.06,.01,2.53-.55,5.06-.55,2.53,.4,5.07,.4,2.53-.04,5.07-.04,2.53-.25,5.07-.25,2.53-.02,5.07-.02,2.53,.11,5.07,.11,2.53-.19,5.07-.19,2.53,.07,5.07,.07,2.53,0,5.07,0,2.53,.28,5.07,.28,2.53,.16,5.07,.16,2.53-.19,5.07-.19,2.53-.02,5.07-.02,2.53-.28,5.07-.28,2.53,.4,5.07,.4,2.53-.03,5.07-.03,2.53,.09,5.07,.09,2.53-.02,5.07-.02,2.53-.07,5.07-.07,2.53-.03,5.07-.03,2.53-.24,5.07-.24,2.53,0,5.06,0,2.53,.35,5.06,.35,2.53-.09,5.06-.09,2.53-.13,5.06-.13,2.53,.02,5.07,.02,2.53-.11,5.07-.11,2.53,.21,5.06,.21,2.53-.39,5.06-.39,2.53,.33,5.07,.33,2.53-.2,5.07-.2,2.53,.39,5.07,.39,2.53-.27,5.06-.27,2.53-.26,5.07-.26,2.53,.31,5.07,.31,2.53-.32,5.07-.32,2.53,.01,5.07,.01,2.53,.29,5.07,.29,2.53,.17,5.07,.17,2.53-.27,5.07-.27,2.53,.31,5.07,.31,2.53-.14,5.07-.14,2.53,.16,5.07,.16,2.53-.56,5.07-.56,2.53,.41,5.07,.41,2.54-.33,5.07-.33,2.54,.49,5.07,.49,2.54-.16,5.07-.16,2.53,0,5.07,0,2.53-.15,5.07-.15,2.53,.07,5.07,.07,2.53-.15,5.07-.15,2.54-.25,5.07-.25,2.54,.21,5.07,.21,2.54-.13,5.07-.13,2.54,.21,5.07,.21,2.54-.08,5.07-.08,2.54-.19,5.07-.19,2.54,.58,5.08,.58,2.54-.24,5.08-.24c1.17,0,1.92,.94,1.92,2.11s-.75,2.05-1.92,2.05Z" fill="#3c1053"></path><path d="M427.01,458.23c-2.5,0-2.5-.27-5-.27s-2.5,.39-5,.39c-1.17,0-2.31-1.25-2.31-2.42s1.14-2.47,2.31-2.47c2.5,0,2.5,.61,5,.61s2.5-.41,5-.41c1.17,0,1.92,1.1,1.92,2.27s-.75,2.3-1.92,2.3Z" fill="#3c1053"></path><g><path d="M261.95,296.48c-.37-.3-.86,.21-.19,.48,.14,0,.19-.48,.19-.48Z" fill="#fff"></path><path d="M260.17,324.12c.09-.05,.09-.33,.18-.39,.04-.02,.37,.53,.4,.51,.05-.04,.27-.01,.29-.03,0,0-.02,.1-.01,.09-.15,.09-.7-.31-.86-.19Z" fill="#fff"></path><path d="M277.21,284.1c-1.57-1.57-3.15-3.05-4.99-4.31s-3.54-2.74-5.57-3.66-4.09-1.89-6.24-2.47-4.44-.56-6.65-.8-4.45-.57-6.67-.44-4.38,.86-6.53,1.38-4.5,.66-6.52,1.58-4.02,2.07-5.83,3.39c-2.12,1.55-3.18,4.34-3.95,6.78-1.55,1.73-3.39,3.34-4.62,5.31s-2.59,3.94-3.46,6.09-1.32,4.5-1.8,6.77-.72,4.6-.77,6.94c-.05,2.33,.17,4.63,.58,6.84s1.36,4.37,2.23,6.46,1.52,4.39,2.78,6.28,3.01,3.47,4.61,5.1,3.44,2.96,5.31,4.29,3.59,2.91,5.66,3.89,4.21,1.93,6.43,2.53c2.25,.61,4.65,.48,6.91,.67s4.6,.15,6.88-.08,4.47-.93,6.67-1.58,4.58-.92,6.62-1.99,3.62-2.85,5.42-4.3,3.78-2.66,5.26-4.45,2.25-3.95,3.37-6.02c1.09-2.02,2.2-4,2.93-6.17s1.57-4.34,1.93-6.6,.55-4.59,.52-6.88-.01-4.66-.44-6.91-1.72-4.28-2.57-6.41-1.84-4.12-3.11-6.06-2.74-3.54-4.39-5.19Z" fill="#fff"></path></g><path d="M284.21,357.36c-3.13,0-3.13,.31-6.26,.31s-3.13-.8-6.27-.8-3.13,.53-6.27,.53-3.13-.4-6.27-.4-3.13,.74-6.27,.74-3.14-.68-6.27-.68-3.13,.3-6.27,.3-3.14-.09-6.27-.09-3.14-.15-6.28-.15-3.14,.28-6.28,.28c-2.19,0-4.39-.34-6.5-.04s-4.19,1.24-6.23,1.84-4.15,1.24-6.1,2.13-3.66,2.27-5.46,3.43-3.61,2.32-5.23,3.73-3.08,2.97-4.49,4.6-3.07,3.07-4.24,4.89-2.2,3.73-3.1,5.7-1.2,4.13-1.82,6.21-1.4,4.07-1.71,6.22-.59,4.27-.59,6.45c0,2.66-.07,2.66-.07,5.31s-1.96,3.86,.08,5.56c2.45,2.04,3.4-.28,6.59-.28s3.19,.07,6.38,.07,3.19,.11,6.38,.11,3.19-.34,6.38-.34,3.19,.48,6.38,.48,3.19-.67,6.38-.67,3.19,.6,6.38,.6,3.19-.32,6.38-.32,3.19,.03,6.38,.03,3.19-.36,6.38-.36,3.19,.64,6.38,.64,3.19-.16,6.38-.16,3.19,.04,6.38,.04,3.19,.31,6.38,.31,3.19-.28,6.38-.28,3.19-.07,6.38-.07,3.19,.15,6.38,.15,3.19,.04,6.38,.04,3.19-.27,6.38-.27,3.19-.14,6.39-.14,3.19,.07,6.38,.07,3.19,.07,6.39,.07,3.2-.15,6.39-.15,3.91,2.22,6.37,.17c2.04-1.7,.47-2.63,.47-5.29s-.9-2.66-.9-5.31c0-2.19,.73-4.4,.43-6.5s-1.34-4.16-1.94-6.21-.94-4.27-1.83-6.22-2.19-3.75-3.35-5.56-2.49-3.52-3.9-5.15-2.73-3.4-4.36-4.81-3.8-2.08-5.62-3.25-3.41-2.66-5.38-3.56-4.12-1.17-6.2-1.78-4.04-1.46-6.19-1.77-4.26-.37-6.44-.37Z" fill="#fff"></path><path d="M304.38,171.64c0,3.27,.51,3.27,.51,6.54s-.15,3.27-.15,6.54-.29,3.27-.29,6.54,.6,3.27,.6,6.54-.61,3.27-.61,6.55,.54,3.28,.54,6.55-.5,3.28-.5,6.55c0,2.09-.33,3.97-1.08,5.78s-1.66,3.68-3.08,5.09-3.24,2.23-5.13,3.01-3.67,1.06-5.75,1.06c-2.86,0-2.86,.41-5.72,.41s-2.86,.09-5.73,.09-2.87-.47-5.73-.47-3.47-1.38-5.89,.15c-2.79,1.76-1.86,2.89-3.51,5.74s-1.51,2.94-3.16,5.79-1.34,3.04-2.98,5.89c-1.25,2.17-3.53,3.52-5.72,3.52s-4.69-1.22-5.94-3.4c-1.65-2.85-1.23-3.1-2.88-5.95s-1.88-2.72-3.53-5.58-.47-3.91-3.25-5.67c-2.42-1.53-2.8,.11-5.66,.11s-2.86-.03-5.73-.03-2.87-.19-5.73-.19-2.87-.25-5.73-.25c-2.09,0-3.91-.57-5.72-1.32s-3.62-1.64-5.03-3.06-3.08-2.82-3.86-4.7-.39-3.97-.39-6.05c0-3.27-.24-3.27-.24-6.54s0-3.27,0-6.54,.09-3.27,.09-6.54-.31-3.27-.31-6.54-.33-3.27-.33-6.55,.29-3.28,.29-6.55,.13-3.28,.13-6.55c0-2.09,.62-3.98,1.38-5.8s1.83-3.54,3.25-4.96,2.91-2.87,4.79-3.65,3.88-1.11,5.97-1.11c3.2,0,3.2,.4,6.41,.4s3.2-.12,6.41-.12,3.2,.07,6.4,.07,3.2,.01,6.4,.01,3.2,.14,6.41,.14,3.2-.65,6.41-.65,3.2,.19,6.41,.19,3.2-.13,6.41-.13,3.2,.49,6.41,.49,3.21-.03,6.41-.03,3.21,0,6.42,0,3.21,.06,6.42,.06c2.09,0,4.23-.27,6.05,.48s3.43,2.29,4.84,3.71,2.14,3.29,2.92,5.17,1.14,3.63,1.14,5.72Z" fill="#fff"></path></svg>