<svg role="presentation" id="uuid-8ce3c870-f6ef-4bdc-a022-fd8a372b0b40" xmlns="http://www.w3.org/2000/svg" xmlns:xlink="http://www.w3.org/1999/xlink" viewBox="0 0 500 500"><defs><linearGradient id="uuid-2cf6f8b5-e806-402c-a45e-be51cd4e61bc" x1="8380.57" y1="5590.76" x2="8604.15" y2="5378.54" gradientTransform="translate(2663.71 9640.34) rotate(-140.68) scale(1.06 1.04) skewX(-11.15)" gradientUnits="userSpaceOnUse"><stop offset=".1" stop-color="#8d22e9" stop-opacity=".9"></stop><stop offset=".2" stop-color="#8d22e9" stop-opacity=".75"></stop><stop offset=".41" stop-color="#8d22e9" stop-opacity=".49"></stop><stop offset=".61" stop-color="#8d22e9" stop-opacity=".28"></stop><stop offset=".77" stop-color="#8d22e9" stop-opacity=".13"></stop><stop offset=".91" stop-color="#8d22e9" stop-opacity=".03"></stop><stop offset="1" stop-color="#8d22e9" stop-opacity="0"></stop></linearGradient></defs><g id="uuid-a0043876-c55b-4915-9885-f6eea1aa3a0c"><path d="m332.85,90.1c0,5.11.19,5.11.19,10.23s.2,5.11.2,10.23-.04,5.11-.04,10.23-.3,5.11-.3,10.23-.36,5.11-.36,10.23.86,5.11.86,10.23c0,5.11-.17,5.11-.17,10.23s.02,5.11.02,10.23c0,5.11.23,5.11.23,10.23s-1.02,5.11-1.02,10.23-.2,5.11-.2,10.23.4,5.11.4,10.22.35,5.11.35,10.23-.09,5.11-.09,10.23-.14,5.11-.14,10.23.14,5.11.14,10.23-.77,5.11-.77,10.23.94,5.12.94,10.23.03,5.11.03,10.23.11,5.11.11,10.23-.64,5.12-.64,10.23.61,5.12.61,10.23c0,5.12-.76,5.12-.76,10.23s-.07,5.12-.07,10.23.01,5.11.01,10.23.05,5.11.05,10.23.07,5.12.07,10.23.82,5.12.82,10.23-.85,5.12-.85,10.23-.12,5.12-.12,10.24.5,5.12.5,10.24c0,3.08-1.06,6.15-3.08,8.16s-5.08,2.39-8.16,2.39c-5.25,0-5.25.43-10.5.43s-5.25-.36-10.5-.36-5.25.87-10.5.87-5.25-.54-10.5-.54-5.25-.05-10.5-.05-5.25.28-10.5.28c-5.25,0-5.25.09-10.5.09s-5.25.53-10.5.53-5.25.08-10.5.08-5.25-.87-10.49-.87-5.25.05-10.5.05-5.25-.46-10.5-.46-5.25.38-10.5.38-5.25.82-10.5.82-5.25-.65-10.5-.65-5.25-.08-10.5-.08-5.25-.27-10.5-.27-5.25.63-10.5.63-5.25-.3-10.5-.3-5.25-.19-10.5-.19-5.25.82-10.5.82-5.25-.87-10.5-.87-5.25.51-10.5.51-5.25-.73-10.5-.73c-5.25,0-5.25.98-10.5.98-5.25,0-5.25-.34-10.51-.34s-5.25.56-10.5.56-5.25-.16-10.51-.16-5.25.16-10.51.16c-3.08,0-6.32-1.5-8.34-3.52s-2.17-5.26-2.17-8.34c0-5.11-.71-5.11-.71-10.23s.75-5.11.75-10.23-.61-5.11-.61-10.23-.02-5.11-.02-10.23.07-5.11.07-10.23-.73-5.11-.73-10.23.93-5.11.93-10.23-.26-5.11-.26-10.23-.42-5.11-.42-10.23.72-5.11.72-10.23.23-5.11.23-10.23-.07-5.11-.07-10.22-.55-5.11-.55-10.23-.32-5.11-.32-10.23.66-5.11.66-10.23.03-5.11.03-10.23-.68-5.11-.68-10.23.59-5.12.59-10.23-.86-5.11-.86-10.23,1.27-5.11,1.27-10.23-1.09-5.12-1.09-10.23.81-5.12.81-10.23-1.1-5.12-1.1-10.23.37-5.12.37-10.23.37-5.11.37-10.23.17-5.11.17-10.23-.87-5.12-.87-10.23.51-5.12.51-10.23.75-5.12.75-10.23-.76-5.12-.76-10.24.62-5.12.62-10.24c0-3.08,1.28-5.38,3.3-7.4s4.32-3.43,7.4-3.43c5.25,0,5.25.06,10.5.06s5.25.14,10.5.14,5.25.14,10.5.14,5.25-1.33,10.5-1.33,5.25.12,10.5.12,5.25,1.06,10.5,1.06,5.25-.8,10.5-.8,5.25.74,10.5.74,5.25-.69,10.5-.69,5.25.23,10.49.23,5.25.67,10.5.67,5.25,0,10.5,0,5.25-.84,10.5-.84,5.25.09,10.5.09,5.25-.61,10.5-.61,5.25.6,10.5.6,5.25-.61,10.5-.61,5.25.22,10.5.22,5.25.53,10.5.53,5.25-.48,10.5-.48,5.25.14,10.5.14,5.25.12,10.5.12,5.25.03,10.5.03,5.25-.35,10.5-.35,5.25.44,10.5.44,5.25.51,10.51.51,5.25-.38,10.5-.38,5.25.32,10.51.32,5.25-.18,10.51-.18c3.08,0,5.48,1.44,7.5,3.46s3.74,4.42,3.74,7.5Z" fill="url(#uuid-2cf6f8b5-e806-402c-a45e-be51cd4e61bc)"></path></g><path d="m469.83,421.3c-2.53,0-2.53.04-5.06.04s-2.53-.27-5.06-.27-2.53-.2-5.06-.2-2.53.27-5.06.27-2.53.08-5.06.08-2.53-.47-5.06-.47-2.53.03-5.06.03-2.53.26-5.06.26-2.53.33-5.06.33-2.53-.01-5.06-.01-2.53-.66-5.06-.66-2.53.02-5.06.02-2.53.45-5.06.45-2.53-.02-5.06-.02-2.53-.36-5.06-.36-2.53.37-5.06.37-2.53-.45-5.06-.45-2.53.35-5.06.35-2.53.32-5.06.32-2.53-.27-5.06-.27-2.53-.21-5.06-.21-2.53.22-5.06.22-2.53.11-5.06.11-2.53-.32-5.06-.32-2.53.2-5.06.2-2.53-.22-5.05-.22-2.53.42-5.05.42-2.53-.27-5.06-.27-2.53.19-5.06.19-2.53-.11-5.06-.11-2.53.21-5.06.21-2.53-.26-5.06-.26-2.53.15-5.06.15-2.53-.47-5.06-.47-2.53.1-5.06.1-2.53.53-5.06.53-2.53-.44-5.06-.44-2.53-.25-5.06-.25-2.53.6-5.06.6-2.53-.02-5.06-.02-2.53-.2-5.06-.2-2.53-.37-5.06-.37-2.53.13-5.06.13-2.53.55-5.06.55-2.53-.68-5.06-.68-2.53.03-5.06.03-2.53.52-5.06.52-2.53-.54-5.06-.54-2.53.4-5.06.4-2.53-.18-5.06-.18-2.53.09-5.06.09-2.53-.12-5.06-.12-2.53.39-5.06.39-2.53-.2-5.06-.2-2.53-.33-5.06-.33-2.53.47-5.06.47-2.53-.13-5.06-.13-2.53.25-5.06.25-2.53-.48-5.07-.48-2.53.11-5.06.11-2.53.25-5.07.25-2.54-.35-5.07-.35-2.54-.15-5.07-.15c-1.17,0-2.29-.67-2.29-1.84s1.12-1.89,2.29-1.89c2.53,0,2.53-.34,5.06-.34s2.53.07,5.06.07,2.53.38,5.06.38,2.53-.33,5.06-.33,2.53-.3,5.06-.3,2.53.23,5.06.23,2.53.25,5.06.25,2.53-.26,5.06-.26,2.53-.14,5.06-.14,2.53.42,5.06.42,2.53-.5,5.06-.5,2.53.54,5.06.54,2.53-.32,5.06-.32,2.53-.2,5.06-.2,2.53.06,5.06.06,2.53.54,5.06.54,2.53-.65,5.06-.65,2.53.26,5.06.26,2.53-.27,5.06-.27,2.53.17,5.06.17,2.53.24,5.06.24,2.53-.21,5.06-.21,2.53.44,5.06.44,2.53-.27,5.06-.27,2.53-.21,5.06-.21,2.53-.18,5.05-.18,2.53.51,5.05.51,2.53.15,5.06.15,2.53-.62,5.06-.62,2.53.5,5.06.5,2.53-.22,5.06-.22,2.53-.32,5.06-.32,2.53.26,5.06.26,2.53.23,5.06.23,2.53.1,5.06.1,2.53.04,5.06.04,2.53-.63,5.06-.63,2.53.39,5.06.39,2.53-.21,5.06-.21,2.53.27,5.06.27,2.53.13,5.06.13,2.53-.44,5.06-.44,2.53,0,5.06,0,2.53.17,5.06.17,2.53-.04,5.06-.04,2.53.17,5.06.17,2.53.14,5.06.14,2.53-.02,5.06-.02,2.53-.56,5.06-.56,2.53.66,5.06.66,2.53-.2,5.06-.2,2.53.08,5.06.08,2.53-.4,5.06-.4,2.53.15,5.06.15,2.53-.18,5.06-.18,2.53-.05,5.06-.05,2.53.45,5.06.45,2.53-.51,5.06-.51,2.53.1,5.07.1,2.53-.02,5.06-.02,2.53-.02,5.07-.02,2.54.08,5.07.08,2.54.31,5.07.31c1.17,0,1.94.84,1.94,2.01s-.77,2.37-1.94,2.37Z" fill="#420656"></path><path d="m490.28,421.3c-2.49,0-2.49-.13-4.99-.13s-2.49-.17-4.99-.17c-1.17,0-2.3-.9-2.3-2.07s1.13-2.37,2.3-2.37c2.49,0,2.49.29,4.99.29s2.49-.25,4.99-.25c1.17,0,2.09,1.16,2.09,2.33s-.92,2.36-2.09,2.36Z" fill="#420656"></path><path d="m495.94,250.04c0-1.71,0-3.41-.05-5.1s.13-3.42.03-5.11-.74-3.36-.89-5.05-.28-3.39-.48-5.07-.44-3.37-.69-5.05-.11-3.43-.42-5.1-.68-3.34-1.03-5-.82-3.31-1.22-4.96-1.04-3.24-1.5-4.88-.52-3.4-1.03-5.02-1.58-3.06-2.14-4.67-.79-3.33-1.39-4.92-1.18-3.2-1.83-4.76-1.5-3.06-2.2-4.61-1.44-3.08-2.19-4.61-1.39-3.11-2.18-4.61-1.63-2.99-2.46-4.47-1.41-3.13-2.29-4.58-2.15-2.67-3.08-4.1-1.62-3.01-2.59-4.41-1.84-2.88-2.84-4.25-2.17-2.64-3.22-3.97-2.15-2.64-3.24-3.95-2.41-2.42-3.53-3.69-2.34-2.46-3.51-3.7-2.28-2.52-3.49-3.72-2.13-2.69-3.37-3.86-2.92-1.84-4.2-2.97-2.37-2.45-3.68-3.54-2.55-2.26-3.89-3.31-2.79-1.94-4.16-2.95-2.66-2.13-4.06-3.09-2.7-2.08-4.13-3.01-3.06-1.52-4.52-2.4-2.78-1.99-4.26-2.83-2.94-1.73-4.44-2.52-3.07-1.48-4.6-2.22-3.11-1.39-4.66-2.09-3.01-1.61-4.59-2.26-3.23-1.08-4.83-1.69-3.23-1.06-4.84-1.62-3.15-1.31-4.78-1.81-3.29-.88-4.93-1.34-3.35-.62-5-1.03-3.27-.92-4.94-1.27-3.37-.44-5.05-.75-3.28-.98-4.97-1.24-3.39-.31-5.08-.51-3.36-.53-5.06-.68-3.39-.2-5.1-.31-3.39-.42-5.09-.47-3.4,0-5.11,0-3.41.03-5.11.08-3.41.18-5.1.28-3.36.69-5.05.84-3.39.25-5.08.45-3.4.28-5.07.53-3.35.61-5.02.91-3.38.44-5.04.79-3.27.95-4.92,1.35-3.3.83-4.93,1.29-3.29.86-4.91,1.37-3.35.71-4.96,1.26-3.21,1.17-4.8,1.77-3.18,1.24-4.75,1.89-3.18,1.25-4.72,1.95-3.11,1.42-4.63,2.16-3.01,1.6-4.52,2.39-2.93,1.74-4.41,2.58-2.74,2.05-4.19,2.93-2.89,1.78-4.32,2.7-3.18,1.36-4.58,2.33-2.79,1.97-4.15,2.98-2.53,2.29-3.87,3.34-2.82,1.93-4.12,3.02-2.42,2.41-3.69,3.54-2.43,2.38-3.66,3.55-2.56,2.24-3.76,3.44-2.28,2.52-3.44,3.76-2.47,2.35-3.6,3.62-2.43,2.4-3.52,3.71-2.1,2.68-3.15,4.02-1.85,2.87-2.86,4.24-2.06,2.7-3.03,4.1-1.95,2.79-2.88,4.21-1.72,2.94-2.6,4.39-1.69,2.95-2.53,4.43-1.97,2.8-2.76,4.31-1.44,3.09-2.19,4.62-1.26,3.16-1.96,4.72-1.4,3.09-2.05,4.67-1.16,3.19-1.77,4.78-1.42,3.1-1.98,4.71-.99,3.25-1.5,4.88-1.28,3.17-1.74,4.81-.92,3.28-1.32,4.94-.82,3.31-1.18,4.97-.56,3.36-.86,5.04-.6,3.35-.86,5.03-.56,3.36-.76,5.05-.23,3.4-.39,5.1-.33,3.38-.44,5.09.12,3.41.07,5.11-.53,3.39-.53,5.1.29,3.41.34,5.1.33,3.39.43,5.09-.07,3.42.08,5.11.71,3.35.91,5.03.47,3.37.73,5.04.06,3.44.37,5.11.92,3.29,1.27,4.95.92,3.28,1.33,4.92.6,3.36,1.06,4.99,1.06,3.23,1.56,4.86.62,3.38,1.17,4.99,1.65,3.02,2.26,4.61.87,3.31,1.52,4.88,1.25,3.17,1.95,4.72,1.46,3.08,2.2,4.61,1.91,2.84,2.7,4.35,1.52,3.04,2.35,4.52,1.25,3.21,2.13,4.67,2.3,2.57,3.23,4,1.42,3.15,2.38,4.54,2.18,2.63,3.19,3.99,1.75,2.95,2.8,4.28,2.6,2.28,3.69,3.58,1.83,2.92,2.95,4.19,2.54,2.29,3.71,3.53,2.49,2.32,3.69,3.52,2.17,2.64,3.41,3.8,2.38,2.45,3.65,3.57,2.54,2.27,3.85,3.36,2.91,1.81,4.25,2.86,2.72,2.02,4.09,3.03,2.39,2.5,3.79,3.47,3.09,1.51,4.52,2.43,2.91,1.76,4.36,2.64,2.95,1.67,4.43,2.51,2.73,2.1,4.23,2.89,3.08,1.46,4.61,2.21,3.08,1.43,4.64,2.13,3.08,1.44,4.66,2.09,3.26.99,4.85,1.6,3.12,1.37,4.73,1.92,3.29.86,4.92,1.36,3.23,1.04,4.87,1.5,3.29.83,4.95,1.23,3.2,1.24,4.87,1.59,3.32.79,4.99,1.1,3.38.46,5.06.71,3.38.39,5.07.59,3.39.26,5.09.41,3.39.24,5.09.34,3.39.16,5.1.22,3.39.37,5.1.37,3.42-.03,5.11-.08,3.4-.28,5.1-.38,3.42-.05,5.11-.2,3.38-.5,5.06-.7,3.33-.8,5-1.06,3.44-.09,5.11-.39,3.3-.89,4.96-1.24,3.38-.5,5.03-.91,3.28-.94,4.91-1.4,3.35-.69,4.97-1.19,3.24-1.07,4.85-1.63,3.24-1.08,4.83-1.68,3.1-1.44,4.67-2.09,3.07-1.48,4.62-2.18,3.01-1.58,4.54-2.33,3.24-1.13,4.75-1.92,2.94-1.72,4.42-2.56,2.78-1.97,4.24-2.86,3.1-1.46,4.53-2.38,2.84-1.89,4.23-2.86,2.52-2.32,3.89-3.33,2.72-2.03,4.05-3.08,2.98-1.73,4.28-2.81,2.4-2.43,3.67-3.56,2.4-2.4,3.64-3.57,2.87-1.93,4.07-3.13,2.42-2.41,3.58-3.64,2.22-2.59,3.35-3.86,2.03-2.74,3.12-4.05,2.05-2.71,3.1-4.05,2.14-2.64,3.15-4.01,2.14-2.65,3.11-4.05,1.86-2.85,2.79-4.27,1.82-2.87,2.7-4.33,1.5-3.06,2.34-4.54,2.09-2.73,2.88-4.24,1.09-3.26,1.83-4.79,2.08-2.78,2.78-4.33,1.2-3.19,1.86-4.76,1.32-3.14,1.92-4.73.92-3.28,1.48-4.89.98-3.25,1.49-4.88.84-3.29,1.29-4.93,1.15-3.21,1.55-4.86.51-3.36.86-5.03,1.14-3.23,1.44-4.91.64-3.34.89-5.03.44-3.37.65-5.06.59-3.36.75-5.06,0-3.41.11-5.12.38-3.39.43-5.09-.3-3.4-.3-5.11Z" fill="#fff"></path><path d="m327.14,421.62c-1.05,0-2.05-.1-3.02-.2-.75-.08-1.46-.15-2.15-.17-2.08-.06-3.68-.13-5.17-.22l-1-.06c-1.39-.08-2.78-.16-4.17-.29-.65-.06-1.3-.1-1.96-.15-1.04-.07-2.12-.14-3.21-.27-.61-.07-1.22-.14-1.83-.2-1.08-.11-2.2-.23-3.32-.4-.66-.1-1.31-.18-1.97-.26-1.03-.13-2.1-.27-3.17-.46-1.1-.2-2.18-.45-3.22-.69-.62-.14-1.23-.29-1.85-.42-1.06-.23-2.01-.59-2.93-.93-.71-.27-1.38-.52-2.01-.68l-1.36-.33c-1.2-.29-2.43-.58-3.66-.92-1.21-.34-2.41-.72-3.56-1.08l-1.38-.44c-.68-.21-1.37-.38-2.06-.56-.95-.24-1.94-.49-2.93-.83-1-.34-1.94-.75-2.85-1.14-.65-.28-1.29-.56-1.95-.8-.64-.25-1.33-.45-2.05-.66-.93-.28-1.9-.56-2.87-.96-1.12-.46-2.21-.97-3.27-1.46-.48-.22-.97-.45-1.45-.66l-.76-.34c-1.29-.58-2.63-1.18-3.94-1.82-.58-.28-1.17-.55-1.75-.83-.96-.44-1.95-.9-2.92-1.42-.97-.51-1.78-1.13-2.57-1.72-.6-.46-1.17-.89-1.73-1.2-.48-.27-.97-.54-1.46-.81-1-.55-2.03-1.12-3.04-1.74-.49-.3-.98-.59-1.47-.88-.97-.57-1.97-1.16-2.95-1.8-.55-.35-1.19-.66-1.88-.99-.89-.42-1.81-.86-2.7-1.48-.93-.64-1.68-1.42-2.35-2.11-.52-.54-1.01-1.04-1.51-1.41l-1.19-.87c-.97-.71-1.98-1.44-2.96-2.21-.52-.41-1.13-.78-1.78-1.17-.84-.51-1.7-1.04-2.53-1.73-1.18-.99-2.34-2.01-3.46-3.01l-.45-.4c-.79-.7-1.52-1.44-2.22-2.15-.49-.5-.98-1-1.49-1.47-.77-.73-1.42-1.5-2.04-2.24-.49-.58-.95-1.13-1.43-1.61s-1.02-.97-1.53-1.45c-.73-.67-1.48-1.36-2.21-2.13-.47-.5-1-.97-1.57-1.48-.73-.65-1.48-1.31-2.18-2.11-.72-.82-1.27-1.67-1.8-2.5-.41-.64-.79-1.24-1.21-1.74-.39-.47-.93-.93-1.5-1.42-.72-.62-1.54-1.33-2.24-2.22-.65-.83-1.18-1.7-1.68-2.53-.39-.65-.76-1.27-1.17-1.81-.41-.55-.87-1.1-1.36-1.67-.63-.75-1.28-1.52-1.88-2.38-.63-.91-1.06-1.84-1.47-2.74-.31-.68-.61-1.33-.96-1.86-.33-.51-.81-1.04-1.31-1.59-.64-.71-1.37-1.51-1.96-2.47-.57-.94-.94-1.89-1.31-2.8-.28-.7-.54-1.37-.86-1.93-.55-.98-1.05-1.97-1.54-2.93-.28-.55-.56-1.11-.85-1.66-.31-.58-.71-1.17-1.14-1.8-.55-.81-1.13-1.65-1.6-2.62l-.35-.72c-.63-1.29-1.28-2.62-1.89-3.96-.47-1.05-.9-2.11-1.31-3.14-.22-.55-.44-1.1-.67-1.65-.41-.98-.67-1.95-.92-2.89-.2-.73-.39-1.43-.63-2.06-.22-.59-.57-1.21-.94-1.87-.46-.83-.99-1.77-1.35-2.81-.35-1.02-.54-2.01-.72-2.97-.14-.75-.27-1.45-.47-2.08-.19-.62-.4-1.24-.61-1.86-.33-.99-.68-2.01-.97-3.07-.28-1.01-.46-2-.64-2.96-.13-.7-.26-1.41-.43-2.1-.17-.68-.36-1.35-.56-2.03-.28-.95-.56-1.94-.79-2.97-.14-.67-.34-1.36-.55-2.08-.27-.94-.55-1.91-.74-2.94-.19-1.07-.22-2.08-.24-3.06-.02-.76-.04-1.47-.13-2.12l-.15-.97c-.21-1.35-.42-2.74-.59-4.15-.08-.67-.23-1.37-.4-2.11-.21-.95-.43-1.94-.52-3-.09-1.04-.08-2.04-.07-3.02,0-.76.02-1.48-.02-2.17-.04-.7-.12-1.4-.19-2.11-.1-.98-.21-2-.24-3.05-.02-.69-.09-1.4-.16-2.14-.09-.97-.18-1.98-.18-3.03s.15-2.09.29-3.06c.11-.75.22-1.46.23-2.11.02-.69-.01-1.41-.04-2.17-.04-.97-.08-1.97-.02-3.02.08-1.26.19-2.53.31-3.78l.13-1.38c.06-.68.1-1.36.14-2.04.06-1.02.12-2.07.25-3.13.14-1.18.33-2.35.51-3.48.09-.55.18-1.1.26-1.64.27-1.77.59-3.57.87-5.11.12-.66.22-1.32.33-1.97.16-1.02.33-2.08.55-3.14.31-1.46.67-2.91,1.02-4.31l.18-.74c.4-1.61.84-3.22,1.27-4.77l.07-.24c.28-1.01.65-1.95,1.01-2.86.28-.7.54-1.37.74-2.02.18-.59.36-1.18.53-1.77.31-1.04.62-2.11.99-3.18.34-.99.76-1.91,1.16-2.81.31-.68.6-1.33.84-1.97.23-.61.45-1.23.67-1.84.35-.98.71-2,1.13-3.01.65-1.57,1.35-3.13,2.03-4.63l.05-.1c.29-.65.55-1.32.81-1.98.35-.92.72-1.86,1.18-2.8.29-.6.57-1.2.84-1.81.43-.94.87-1.92,1.38-2.87.49-.94,1.07-1.77,1.62-2.57.43-.62.84-1.21,1.17-1.8l.68-1.22c.6-1.07,1.22-2.18,1.88-3.27.34-.57.67-1.14,1-1.72.51-.9,1.05-1.83,1.64-2.74.73-1.12,1.49-2.22,2.25-3.32l.66-.96c.66-.95,1.35-1.87,2.02-2.76.35-.47.71-.93,1.05-1.4.41-.56.79-1.16,1.2-1.8.52-.82,1.06-1.67,1.71-2.5.34-.44.68-.87,1.02-1.31.7-.91,1.42-1.85,2.18-2.76.67-.8,1.39-1.52,2.08-2.21.53-.53,1.03-1.03,1.49-1.55.7-.78,1.43-1.49,2.14-2.17.51-.49,1.02-.99,1.51-1.5.47-.5.92-1.01,1.37-1.52.67-.76,1.37-1.54,2.12-2.3s1.54-1.45,2.3-2.13c.51-.45,1.02-.9,1.51-1.37.49-.47.97-.95,1.45-1.43.72-.72,1.46-1.46,2.26-2.17.52-.46,1.02-.96,1.55-1.5.69-.69,1.4-1.41,2.2-2.08.8-.67,1.63-1.25,2.44-1.81.62-.43,1.2-.83,1.74-1.26.54-.42,1.07-.91,1.63-1.42.72-.66,1.46-1.34,2.31-1.97,1.57-1.16,2.95-2.14,4.22-3.02.92-.64,1.92-1.07,2.79-1.45.69-.3,1.33-.58,1.85-.92,1.36-.88,2.79-1.77,4.38-2.74.57-.35,1.14-.78,1.74-1.24.78-.59,1.58-1.2,2.51-1.73.59-.33,1.17-.69,1.76-1.04.87-.53,1.77-1.07,2.72-1.57.53-.28,1.05-.56,1.58-.85.97-.53,1.97-1.07,3.01-1.58,1.35-.66,2.8-1.33,4.7-2.19,1.06-.48,2.14-.91,3.18-1.33.54-.22,1.08-.43,1.61-.65,1.74-.72,3.32-1.35,4.82-1.92l.39-.15c1.46-.55,2.96-1.12,4.47-1.65,1-.34,1.98-.56,2.93-.77.74-.16,1.45-.32,2.1-.52,1.13-.35,2.28-.66,3.38-.96.53-.14,1.07-.29,1.6-.43,1.55-.43,3.19-.86,5-1.31.69-.17,1.37-.37,2.04-.58.95-.28,1.92-.57,2.95-.79,1.03-.22,2.04-.36,3.02-.49.7-.1,1.4-.19,2.1-.32.55-.1,1.1-.21,1.65-.31,1.12-.21,2.27-.44,3.44-.61,1.05-.16,2.09-.25,3.1-.34.68-.06,1.37-.12,2.05-.2,1.15-.14,2.31-.23,3.42-.32.58-.05,1.15-.09,1.73-.14.65-.06,1.35-.21,2.09-.37.96-.21,1.95-.42,3.04-.48l1.29-.08c1.29-.08,2.59-.16,3.88-.2,2.55-.08,4.71-.07,6.88-.09,1.14-.01,2.32-.02,3.49.01,1.05.03,2.06.15,3.04.26.71.08,1.42.17,2.13.21.55.03,1.1.06,1.66.09,1.15.06,2.33.12,3.51.22,1.07.1,2.11.25,3.12.41.67.1,1.34.2,2.02.28.69.08,1.39.14,2.08.2,1,.08,2.03.17,3.07.33,1.06.16,2.03.44,2.97.72.73.21,1.41.41,2.07.53.7.13,1.42.21,2.13.3.97.12,1.97.24,3,.46,1.06.23,2.09.51,3.08.78.64.18,1.29.35,1.93.51.67.16,1.37.29,2.11.42.96.17,1.96.35,2.96.63.61.17,1.22.33,1.84.49,1.03.27,2.1.54,3.16.87,1,.31,1.95.7,2.86,1.07.66.27,1.32.54,1.99.77.62.22,1.25.42,1.88.62.99.32,2.02.64,3.03,1.03.66.25,1.34.47,2.01.69.94.31,1.92.62,2.88,1.03.97.4,1.87.87,2.74,1.33.67.35,1.29.68,1.92.96.53.24,1.06.47,1.6.7,1.03.45,2.09.91,3.13,1.42.55.27,1.1.53,1.66.79.99.46,2.01.94,3.01,1.47,1.02.54,2.01,1.11,2.97,1.67.51.3,1.02.6,1.54.89.92.52,1.74,1.1,2.53,1.66.62.44,1.2.85,1.79,1.21.58.35,1.23.66,1.91,1,.88.43,1.78.87,2.67,1.44.88.57,1.7,1.19,2.49,1.79.56.43,1.12.85,1.7,1.25.88.61,1.7,1.25,2.49,1.88.54.42,1.08.85,1.63,1.26.55.41,1.13.8,1.7,1.19.83.57,1.69,1.15,2.52,1.81.86.67,1.66,1.38,2.45,2.06.5.43.99.87,1.5,1.29.81.67,1.51,1.39,2.19,2.08.53.54,1.03,1.05,1.54,1.5.45.4,1.05.77,1.69,1.17.82.51,1.74,1.08,2.56,1.85.78.73,1.41,1.52,2.03,2.29.48.59.92,1.15,1.4,1.62.81.81,1.59,1.66,2.33,2.47.4.43.8.87,1.2,1.3.41.44.83.87,1.25,1.3.76.79,1.55,1.6,2.31,2.46.46.51.96,1.01,1.5,1.54.69.69,1.41,1.4,2.08,2.2l.4.48c.95,1.14,1.94,2.32,2.88,3.53.42.54.86,1.06,1.31,1.59.65.78,1.33,1.58,1.96,2.44.63.86,1.21,1.74,1.76,2.6.37.57.74,1.15,1.13,1.71.6.86,1.08,1.75,1.55,2.6.36.66.71,1.29,1.08,1.87.36.56.81,1.11,1.29,1.7.62.76,1.26,1.54,1.82,2.46.55.9.97,1.82,1.37,2.7.32.69.62,1.34.95,1.94.79,1.39,1.68,2.97,2.5,4.53.5.95.94,1.92,1.37,2.85.28.61.56,1.22.85,1.82.8,1.64,1.52,3.12,2.22,4.68.29.64.6,1.26.91,1.89.45.89.91,1.81,1.31,2.79.49,1.17.93,2.36,1.38,3.55l.48,1.28c.38.99.62,1.97.85,2.91.18.74.35,1.43.57,2.08.2.59.53,1.22.88,1.88.44.84.94,1.79,1.28,2.86.32,1.03.48,2.02.64,2.99.12.75.23,1.46.41,2.1.19.68.41,1.36.64,2.03.31.93.63,1.9.88,2.92.14.56.28,1.11.42,1.67.28,1.09.57,2.21.81,3.36l.21,1c.29,1.33.58,2.7.83,4.08.19,1.05.23,2.06.27,3.04.03.76.06,1.48.16,2.14.28,1.83.51,3.5.7,5.12.16,1.31.27,2.62.38,3.94l.11,1.21c.06.64.22,1.33.38,2.06.22.96.45,1.96.51,3.06.06,1.04.03,2.05,0,3.02-.02.75-.04,1.47-.02,2.16.05,1.76.05,3.58.05,5.17,0,.68.07,1.4.14,2.16.09.97.19,1.97.16,3.03-.03,1.05-.14,2.07-.24,3.05-.07.71-.15,1.41-.19,2.11-.04.69-.04,1.41-.03,2.17,0,.97.01,1.98-.08,3.02-.09,1.05-.26,2.06-.43,3.03-.12.7-.24,1.4-.32,2.1l-.1.86c-.17,1.4-.34,2.85-.56,4.28-.2,1.31-.44,2.6-.67,3.86l-.23,1.25c-.19,1.07-.53,2.03-.84,2.96-.25.71-.48,1.39-.61,2.02-.14.68-.25,1.38-.35,2.13-.14.96-.28,1.96-.53,2.97-.25,1.02-.58,1.97-.91,2.9-.25.71-.48,1.38-.67,2.04-.18.66-.35,1.33-.51,1.99-.24.98-.49,1.99-.8,3.01-.19.61-.37,1.22-.54,1.83-.3,1.02-.6,2.08-.97,3.12-.23.65-.41,1.34-.61,2.07-.26.94-.52,1.92-.89,2.89-.51,1.35-1.07,2.68-1.6,3.97l-.35.83c-.27.65-.51,1.31-.75,1.97-.34.94-.7,1.9-1.13,2.87-.47,1.04-1.12,1.92-1.7,2.7-.44.6-.86,1.16-1.12,1.69-.28.57-.5,1.25-.73,1.97-.3.94-.62,1.91-1.13,2.89-.51.97-1.12,1.78-1.71,2.57-.45.6-.88,1.17-1.2,1.74-.34.6-.65,1.24-.97,1.92-.42.88-.86,1.79-1.4,2.68-.97,1.6-1.86,3.03-2.74,4.39l-.8,1.24c-.65,1.02-1.32,2.07-2.03,3.1-.6.87-1.25,1.68-1.87,2.46-.44.54-.87,1.09-1.29,1.65-.69.94-1.42,1.84-2.12,2.71-.36.45-.72.9-1.08,1.35-.41.52-.81,1.06-1.21,1.59-.61.83-1.25,1.68-1.94,2.51-.44.53-.86,1.11-1.31,1.71-.58.79-1.17,1.6-1.86,2.39-.44.5-.87,1-1.29,1.51-.67.79-1.36,1.61-2.11,2.41-1.05,1.11-2.14,2.2-3.19,3.26l-.44.44c-.79.79-1.68,1.4-2.47,1.93-.62.42-1.21.82-1.66,1.25-.51.48-1,.97-1.48,1.47-.7.71-1.42,1.45-2.21,2.15-.51.46-1.01.97-1.54,1.51-.68.7-1.38,1.42-2.19,2.09-.84.7-1.72,1.22-2.57,1.72-.65.38-1.27.75-1.77,1.14-1.33,1.05-2.68,2.07-4.11,3.13-.53.39-1.05.88-1.6,1.4-.72.67-1.46,1.36-2.34,1.98-1.35.93-2.81,1.93-4.29,2.9-.89.58-1.8,1.01-2.68,1.43-.69.33-1.33.64-1.91.99-.58.35-1.16.77-1.78,1.21-.79.57-1.61,1.16-2.53,1.68-.58.33-1.15.67-1.72,1.01-.89.53-1.81,1.08-2.77,1.59-.95.5-1.9.84-2.82,1.17-.72.25-1.39.5-1.99.79-.62.31-1.24.63-1.85.96-.88.47-1.79.96-2.76,1.4-.63.28-1.25.59-1.87.9-.9.45-1.83.91-2.82,1.31-.65.27-1.29.58-1.94.88-.89.42-1.82.86-2.8,1.24-1.18.45-2.37.85-3.53,1.25l-1.94.66c-1.41.49-2.87.99-4.34,1.45-1,.31-1.99.52-2.94.72-.74.16-1.43.31-2.1.49-.6.17-1.2.35-1.8.52-1.03.31-2.09.62-3.18.89-1.02.25-2.02.41-2.99.56-.71.11-1.41.22-2.11.37-.67.14-1.35.33-2.07.54-.94.26-1.92.54-2.96.72-1.06.19-2.07.23-3.05.26-.76.02-1.48.05-2.13.15-.66.1-1.36.27-2.09.46-.95.24-1.92.48-2.98.61-.69.08-1.37.19-2.06.3-.99.16-2.02.32-3.08.41-1.05.09-2.08.12-3.07.13-.7.01-1.41.03-2.11.07-.68.04-1.37.1-2.05.17-1.01.09-2.05.19-3.12.22-1.79.05-3.53.08-5.18.08Zm3.44-338.29c-.55,0-1.12,0-1.69.01-2.13.02-4.26.02-6.78.09-1.24.04-2.48.12-3.72.19l-1.31.08c-.71.04-1.49.21-2.31.38-.85.18-1.73.37-2.67.45-.59.05-1.19.1-1.78.15-1.11.09-2.17.17-3.22.3-.73.09-1.47.15-2.2.22-.98.09-1.9.17-2.8.3-1.07.16-2.12.37-3.24.58-.57.11-1.13.22-1.7.32-.77.14-1.54.25-2.32.35-.93.13-1.81.25-2.65.43-.84.18-1.68.43-2.57.7-.76.23-1.51.45-2.28.64-1.77.43-3.36.85-4.86,1.27-.55.15-1.1.3-1.65.45-1.11.3-2.15.58-3.19.9-.86.27-1.7.45-2.51.63-.85.19-1.65.36-2.38.61-1.44.5-2.91,1.06-4.34,1.6l-.39.15c-1.45.55-2.98,1.16-4.68,1.86-.55.23-1.11.45-1.67.68-1.04.42-2.02.81-2.99,1.25-1.86.84-3.27,1.49-4.57,2.13-.93.46-1.85.95-2.81,1.48-.55.3-1.09.59-1.64.88-.82.43-1.61.91-2.46,1.43-.63.38-1.25.76-1.89,1.12-.64.36-1.28.85-1.96,1.36-.68.52-1.38,1.05-2.17,1.53-1.55.94-2.94,1.81-4.26,2.66-.85.55-1.76.95-2.56,1.29-.74.32-1.43.62-1.96.99-1.23.85-2.57,1.81-4.09,2.93-.63.47-1.25,1.03-1.9,1.63-.6.55-1.23,1.13-1.92,1.67-.66.52-1.33.98-1.97,1.43-.75.52-1.46,1.01-2.09,1.54-.62.52-1.22,1.13-1.85,1.77-.56.57-1.14,1.16-1.78,1.72-.69.61-1.35,1.27-2.05,1.97-.51.51-1.03,1.03-1.56,1.53-.53.5-1.08.98-1.62,1.47-.74.65-1.44,1.27-2.09,1.93-.65.65-1.27,1.35-1.92,2.08-.48.55-.97,1.1-1.47,1.63-.54.57-1.11,1.12-1.67,1.67-.67.65-1.3,1.26-1.87,1.9-.55.62-1.13,1.2-1.69,1.76-.64.65-1.25,1.26-1.78,1.89-.7.84-1.36,1.7-2.06,2.61-.35.45-.69.9-1.05,1.35-.49.63-.94,1.34-1.42,2.09-.43.68-.88,1.39-1.39,2.08-.36.49-.72.97-1.09,1.45-.67.89-1.3,1.72-1.9,2.59l-.67.97c-.73,1.05-1.47,2.11-2.17,3.19-.52.8-.99,1.63-1.5,2.51-.35.61-.7,1.22-1.06,1.82-.62,1.03-1.21,2.07-1.79,3.12l-.7,1.24c-.44.78-.94,1.49-1.41,2.18-.49.71-.96,1.39-1.31,2.06-.44.84-.84,1.71-1.26,2.63-.29.64-.59,1.29-.9,1.92-.37.76-.68,1.57-1.02,2.43-.29.75-.58,1.49-.91,2.22l-.05.1c-.66,1.47-1.35,2.99-1.97,4.5-.37.89-.69,1.8-1.04,2.77-.23.65-.46,1.3-.71,1.94-.3.78-.63,1.53-.96,2.25-.37.83-.73,1.61-1,2.39-.33.96-.62,1.93-.92,2.96-.18.62-.36,1.23-.55,1.85-.26.83-.57,1.61-.87,2.37-.33.82-.63,1.6-.85,2.37l-.07.24c-.42,1.52-.86,3.09-1.24,4.62l-.18.74c-.34,1.37-.69,2.78-.98,4.16-.2.93-.35,1.87-.5,2.87-.11.7-.22,1.4-.35,2.09-.27,1.51-.59,3.26-.85,4.96-.08.56-.18,1.13-.27,1.69-.17,1.08-.35,2.2-.48,3.29-.11.92-.17,1.85-.23,2.84-.04.73-.09,1.46-.15,2.18l-.13,1.4c-.11,1.2-.23,2.4-.3,3.61-.05.79-.01,1.63.03,2.52.03.81.07,1.65.05,2.52-.03.94-.16,1.83-.29,2.68-.12.83-.24,1.62-.24,2.34,0,.82.08,1.68.16,2.58.07.79.15,1.61.17,2.45.03.87.12,1.75.22,2.69.08.78.16,1.55.21,2.33.05.87.04,1.71.03,2.52-.01.89-.02,1.72.05,2.52.07.75.24,1.54.43,2.38.18.82.37,1.67.48,2.58.16,1.34.36,2.66.57,3.99l.15.98c.14.95.17,1.86.19,2.73.02.83.04,1.62.17,2.31.14.79.38,1.61.63,2.46.22.77.45,1.57.63,2.41.18.86.43,1.72.7,2.62.22.74.43,1.48.61,2.23.2.81.35,1.61.49,2.38.17.9.32,1.74.55,2.54.26.93.57,1.85.89,2.82.22.66.44,1.31.65,1.97.28.9.45,1.78.61,2.63.16.83.3,1.61.54,2.29.22.64.6,1.31.99,2.03.44.78.89,1.59,1.24,2.51.32.86.55,1.7.77,2.51.22.83.44,1.61.72,2.3.23.57.46,1.14.69,1.71.41,1.03.8,2,1.23,2.95.57,1.28,1.21,2.57,1.82,3.82l.35.72c.32.65.77,1.3,1.24,2,.49.71.99,1.45,1.43,2.28.3.57.59,1.15.89,1.73.48.95.93,1.85,1.43,2.73.48.85.82,1.7,1.15,2.52.3.77.59,1.49.95,2.08.34.56.85,1.12,1.39,1.71.61.67,1.25,1.37,1.8,2.22.54.83.92,1.67,1.3,2.48.34.74.66,1.44,1.05,2,.46.67,1.01,1.32,1.59,2,.52.61,1.05,1.24,1.56,1.93.54.73.98,1.47,1.42,2.18.45.74.87,1.44,1.34,2.04.4.51.98,1.01,1.58,1.53.66.57,1.41,1.21,2.06,1.99.62.74,1.1,1.51,1.58,2.25.44.7.87,1.36,1.33,1.88.51.57,1.12,1.12,1.77,1.69.62.55,1.27,1.13,1.89,1.78.6.64,1.25,1.24,1.95,1.88.57.52,1.14,1.05,1.69,1.59.64.64,1.19,1.3,1.72,1.94.56.67,1.08,1.29,1.64,1.82.55.52,1.09,1.06,1.62,1.6.67.68,1.31,1.33,1.98,1.92l.46.4c1.09.97,2.22,1.97,3.34,2.91.55.46,1.23.87,1.94,1.31.74.45,1.51.92,2.25,1.5.92.72,1.87,1.41,2.82,2.1l1.21.89c.82.6,1.51,1.31,2.11,1.94.56.58,1.09,1.12,1.62,1.49.57.4,1.28.74,2.03,1.09.79.38,1.61.77,2.42,1.3.9.58,1.81,1.12,2.78,1.69.51.3,1.02.6,1.52.91.93.56,1.87,1.09,2.87,1.64.5.28,1,.55,1.5.83.84.48,1.57,1.03,2.28,1.56.66.5,1.28.97,1.89,1.29.87.45,1.76.87,2.7,1.31.62.29,1.23.57,1.84.87,1.24.61,2.54,1.19,3.8,1.76l.77.35c.5.22.99.45,1.49.68,1.06.49,2.07.96,3.1,1.38.73.3,1.53.54,2.38.79.78.23,1.59.47,2.4.78.72.27,1.43.58,2.15.88.87.37,1.69.72,2.51,1.01.79.27,1.63.49,2.52.71.76.19,1.54.39,2.33.63l1.41.45c1.16.37,2.26.72,3.39,1.03,1.16.32,2.32.6,3.49.88l1.38.33c.92.23,1.76.54,2.58.85.78.3,1.52.58,2.22.73.64.14,1.29.29,1.94.44,1.03.24,2,.47,2.98.65.94.17,1.89.29,2.9.42.7.09,1.39.18,2.09.28,1.01.15,2.02.26,3.1.37.63.07,1.27.13,1.9.21.96.11,1.93.18,2.95.25.69.05,1.38.09,2.06.16,1.33.12,2.67.2,4.01.27l1.01.06c1.44.09,2.99.15,5.03.21.86.03,1.69.11,2.5.19.89.09,1.73.17,2.53.17,1.6,0,3.3-.03,5.04-.08.92-.03,1.84-.11,2.82-.2.74-.07,1.47-.13,2.2-.18.77-.05,1.53-.06,2.3-.08.96-.02,1.86-.04,2.73-.12.9-.08,1.8-.22,2.76-.37.74-.12,1.49-.23,2.23-.32.75-.09,1.54-.29,2.38-.5.81-.2,1.65-.41,2.55-.55.94-.14,1.83-.17,2.7-.2.84-.03,1.63-.05,2.33-.18.81-.15,1.64-.38,2.52-.62.76-.21,1.55-.43,2.36-.61.81-.17,1.61-.3,2.39-.42.91-.14,1.76-.27,2.57-.47.97-.24,1.94-.53,2.95-.83.63-.19,1.26-.37,1.89-.55.81-.23,1.62-.4,2.39-.56.89-.19,1.73-.37,2.51-.61,1.4-.43,2.82-.93,4.2-1.4l1.97-.67c1.12-.38,2.27-.77,3.37-1.19.8-.3,1.6-.68,2.44-1.08.72-.34,1.43-.68,2.16-.98.83-.35,1.65-.75,2.52-1.18.67-.33,1.34-.66,2.03-.97.81-.37,1.61-.79,2.46-1.25.67-.36,1.33-.71,2.02-1.05.84-.41,1.68-.71,2.49-1,.79-.28,1.55-.55,2.19-.89.84-.44,1.66-.93,2.53-1.45.61-.36,1.21-.73,1.83-1.07.68-.39,1.36-.87,2.07-1.39.67-.48,1.35-.98,2.1-1.43.78-.47,1.57-.85,2.33-1.22.77-.37,1.5-.72,2.13-1.13,1.43-.93,2.85-1.9,4.17-2.81.59-.41,1.17-.95,1.78-1.52.63-.59,1.28-1.2,2.04-1.76,1.4-1.03,2.7-2.02,4-3.04.76-.6,1.55-1.06,2.31-1.51.71-.42,1.38-.81,1.91-1.26.61-.51,1.19-1.11,1.81-1.75.57-.58,1.15-1.19,1.8-1.76.67-.59,1.3-1.23,1.97-1.92.53-.54,1.06-1.08,1.62-1.6.73-.69,1.5-1.22,2.25-1.73.67-.46,1.3-.89,1.76-1.35l.44-.44c1.03-1.03,2.09-2.09,3.09-3.15.65-.69,1.27-1.43,1.93-2.21.45-.54.91-1.07,1.37-1.6.54-.61,1.04-1.3,1.57-2.03.47-.64.96-1.31,1.5-1.96.6-.72,1.17-1.49,1.77-2.29.42-.57.85-1.14,1.28-1.7.37-.47.74-.93,1.11-1.4.7-.87,1.36-1.7,2-2.55.45-.61.93-1.21,1.4-1.8.6-.75,1.16-1.45,1.67-2.18.67-.97,1.3-1.96,1.94-2.95l.81-1.26c.85-1.31,1.72-2.71,2.66-4.26.42-.69.79-1.46,1.17-2.26.35-.72.71-1.47,1.13-2.21.47-.84,1.02-1.57,1.55-2.27.5-.66.97-1.29,1.29-1.91.32-.6.56-1.34.81-2.12.27-.85.56-1.72.99-2.6.46-.94,1.05-1.75,1.58-2.46.47-.64.92-1.24,1.17-1.81.36-.8.67-1.64,1-2.54.27-.72.53-1.45.83-2.16l.35-.84c.52-1.25,1.06-2.55,1.55-3.83.29-.76.51-1.57.74-2.44.21-.77.43-1.58.71-2.38.32-.94.6-1.89.89-2.9.19-.64.37-1.27.57-1.91.27-.87.49-1.77.72-2.72.17-.71.35-1.43.55-2.14.23-.82.5-1.59.76-2.34.3-.85.58-1.65.77-2.44.19-.78.31-1.61.43-2.49.11-.8.23-1.62.41-2.47.2-.93.49-1.77.77-2.59.27-.79.53-1.54.66-2.25l.23-1.27c.23-1.23.46-2.45.65-3.69.21-1.37.37-2.75.54-4.13l.1-.87c.09-.78.22-1.56.36-2.34.16-.92.3-1.79.38-2.65.07-.8.07-1.65.06-2.55,0-.8-.01-1.64.04-2.49.05-.78.13-1.55.21-2.33.1-.94.19-1.82.22-2.69.02-.75-.05-1.56-.14-2.42-.08-.84-.16-1.71-.16-2.62,0-1.64,0-3.34-.05-5.03-.03-.84,0-1.66.02-2.46.03-.91.05-1.76,0-2.58-.04-.69-.21-1.45-.4-2.25-.2-.86-.4-1.75-.49-2.72l-.11-1.22c-.11-1.26-.22-2.52-.37-3.77-.19-1.57-.41-3.2-.68-4.97-.14-.93-.17-1.82-.21-2.67-.03-.84-.06-1.64-.19-2.36-.24-1.31-.52-2.62-.8-3.92l-.22-1.01c-.22-1.05-.49-2.07-.77-3.16-.15-.57-.29-1.15-.44-1.72-.21-.83-.48-1.67-.77-2.55-.25-.75-.5-1.5-.71-2.26-.25-.9-.39-1.78-.53-2.63-.13-.83-.26-1.62-.48-2.31-.2-.64-.56-1.31-.93-2.03-.42-.8-.85-1.62-1.18-2.56-.29-.85-.5-1.69-.7-2.51-.21-.84-.4-1.63-.67-2.34l-.49-1.3c-.43-1.14-.85-2.27-1.31-3.39-.34-.81-.74-1.62-1.17-2.47-.34-.69-.69-1.37-1-2.07-.67-1.5-1.37-2.94-2.15-4.54-.31-.64-.61-1.29-.91-1.94-.42-.91-.81-1.77-1.25-2.6-.79-1.5-1.62-2.98-2.43-4.4-.44-.77-.8-1.55-1.14-2.31-.36-.79-.71-1.54-1.11-2.21-.38-.62-.88-1.24-1.42-1.9-.54-.67-1.11-1.35-1.62-2.14-.47-.73-.88-1.47-1.27-2.18-.43-.78-.83-1.51-1.28-2.17-.42-.6-.82-1.22-1.21-1.84-.54-.83-1.04-1.61-1.59-2.35-.54-.74-1.14-1.45-1.77-2.2-.47-.57-.95-1.13-1.4-1.71-.9-1.14-1.86-2.29-2.79-3.41l-.4-.48c-.52-.63-1.13-1.23-1.77-1.86-.57-.56-1.15-1.14-1.72-1.78-.69-.78-1.4-1.52-2.16-2.3-.43-.45-.87-.89-1.29-1.35-.42-.45-.83-.9-1.25-1.35-.75-.81-1.45-1.58-2.19-2.32-.66-.66-1.21-1.35-1.75-2.02-.53-.66-1.03-1.29-1.57-1.79-.46-.44-1.11-.84-1.79-1.26-.74-.46-1.59-.98-2.36-1.66-.64-.57-1.23-1.16-1.79-1.74-.62-.64-1.21-1.24-1.83-1.75-.54-.45-1.06-.91-1.58-1.36-.77-.67-1.49-1.3-2.25-1.9-.71-.56-1.46-1.07-2.26-1.62-.62-.42-1.24-.85-1.84-1.29-.6-.44-1.18-.9-1.76-1.35-.77-.61-1.49-1.18-2.24-1.7-.64-.44-1.26-.91-1.88-1.38-.75-.57-1.46-1.11-2.19-1.58-.64-.41-1.37-.77-2.15-1.15-.75-.37-1.54-.74-2.31-1.21-.74-.45-1.42-.93-2.08-1.4-.73-.52-1.42-1-2.12-1.4-.53-.3-1.06-.61-1.59-.92-.96-.56-1.86-1.08-2.79-1.57-.91-.48-1.83-.91-2.81-1.37-.58-.27-1.15-.54-1.72-.82-.95-.46-1.92-.88-2.94-1.33-.55-.24-1.1-.48-1.65-.73-.76-.34-1.49-.72-2.19-1.09-.81-.42-1.57-.82-2.33-1.14-.79-.33-1.63-.6-2.53-.89-.75-.24-1.5-.49-2.23-.77-.89-.34-1.81-.63-2.78-.94-.67-.21-1.33-.42-1.99-.65-.76-.26-1.5-.56-2.24-.87-.85-.35-1.66-.68-2.46-.93-.95-.29-1.91-.54-2.93-.81-.64-.17-1.29-.33-1.92-.51-.78-.22-1.62-.37-2.51-.52-.79-.14-1.6-.28-2.43-.49-.69-.17-1.37-.36-2.06-.54-.97-.27-1.89-.52-2.81-.71-.81-.17-1.67-.28-2.57-.39-.78-.1-1.58-.2-2.4-.34-.91-.17-1.75-.41-2.56-.65-.82-.24-1.59-.47-2.33-.58-.88-.13-1.79-.21-2.75-.29-.75-.06-1.51-.13-2.26-.22-.72-.09-1.44-.2-2.17-.31-.98-.15-1.9-.29-2.82-.37-1.09-.1-2.17-.15-3.32-.21-.57-.03-1.13-.06-1.7-.09-.83-.05-1.63-.14-2.41-.23-.91-.11-1.77-.21-2.61-.23-.53-.02-1.06-.02-1.6-.02Z" fill="#420656"></path><path d="m470.1,250.04c0-1.71-.17-3.4-.23-5.1s-.22-3.4-.34-5.09-.16-3.4-.34-5.09-.12-3.42-.36-5.1-.34-3.41-.64-5.08-.73-3.34-1.09-5-.93-3.29-1.35-4.93-1.21-3.2-1.69-4.83-.64-3.37-1.17-4.98-.83-3.33-1.42-4.92-1.21-3.2-1.86-4.77-1.84-2.92-2.54-4.46-1.23-3.18-1.99-4.7-1.32-3.16-2.14-4.65-1.7-2.96-2.57-4.42-1.86-2.86-2.78-4.29-1.94-2.8-2.91-4.2-2.09-2.69-3.11-4.05-1.83-2.89-2.9-4.21-2.42-2.42-3.53-3.7-1.96-2.82-3.12-4.06-2.35-2.48-3.55-3.68-2.49-2.33-3.73-3.49-2.6-2.21-3.88-3.33-2.58-2.22-3.9-3.29-2.71-2.06-4.07-3.08-2.8-1.93-4.2-2.9-2.82-1.91-4.25-2.83-3-1.6-4.47-2.47-2.63-2.25-4.13-3.06-3.11-1.41-4.63-2.17-3.22-1.13-4.77-1.84-3-1.61-4.58-2.26-3.15-1.28-4.74-1.88-3.26-.97-4.87-1.51-3.17-1.22-4.81-1.7-3.23-1.08-4.88-1.5-3.38-.44-5.05-.8-3.22-1.23-4.9-1.53-3.44-.02-5.13-.26-3.29-1.03-4.99-1.21-3.43.19-5.13.07-3.37-.45-5.08-.51-3.39.07-5.1.07-3.41-.25-5.11-.19-3.38.57-5.07.68-3.41.08-5.09.25-3.4.25-5.08.48-3.37.52-5.04.81-3.33.74-4.98,1.1-3.41.4-5.06.82-3.27.99-4.9,1.47-3.25,1.04-4.86,1.58-3.18,1.22-4.77,1.82-3.08,1.46-4.65,2.11-3.25,1.05-4.8,1.75-3.17,1.27-4.69,2.04-2.87,1.87-4.36,2.68-3.13,1.38-4.59,2.25-2.67,2.15-4.1,3.07-3.19,1.35-4.59,2.32-2.41,2.47-3.78,3.49-2.68,2.08-4,3.15-3,1.72-4.28,2.83-2.5,2.32-3.74,3.48-2.3,2.52-3.51,3.72-2.58,2.24-3.74,3.49-2.38,2.45-3.49,3.74-2.07,2.71-3.14,4.04-1.76,2.94-2.78,4.3-2.49,2.4-3.46,3.8-1.7,2.96-2.62,4.4-1.95,2.8-2.82,4.26-1.7,2.95-2.52,4.44-1.27,3.17-2.04,4.69-1.77,2.92-2.48,4.47-1.43,3.09-2.08,4.66-1.34,3.13-1.94,4.73-.78,3.33-1.32,4.95-1.34,3.14-1.82,4.78-.79,3.31-1.21,4.96-1.12,3.23-1.48,4.9-.29,3.41-.6,5.09-.76,3.32-1,5.01-.18,3.4-.36,5.1-.77,3.34-.89,5.05.17,3.41.11,5.12-.53,3.39-.53,5.1.34,3.41.4,5.1.2,3.4.32,5.09-.06,3.43.11,5.12.33,3.4.57,5.08.5,3.38.8,5.05.69,3.35,1.05,5.01,1.23,3.21,1.65,4.86.68,3.34,1.16,4.97,1.1,3.22,1.64,4.83.91,3.29,1.51,4.88,1.31,3.15,1.96,4.72,1.36,3.12,2.06,4.67,1.51,3.05,2.27,4.57,1.65,2.97,2.46,4.47,1.15,3.27,2.02,4.73,1.99,2.78,2.91,4.21,2.06,2.71,3.03,4.11,2.01,2.74,3.03,4.1,2.12,2.65,3.19,3.98,1.98,2.77,3.1,4.06,2.01,2.78,3.17,4.02,2.79,2.04,3.99,3.24,2.1,2.72,3.34,3.88,2.47,2.35,3.75,3.47,2.69,2.09,4.02,3.16,2.72,2.04,4.09,3.06,2.56,2.28,3.96,3.25,3.15,1.4,4.59,2.32,2.59,2.28,4.05,3.15,3.11,1.41,4.61,2.23,3.02,1.56,4.54,2.32,2.87,1.89,4.42,2.6,3.13,1.34,4.71,2,3.31.86,4.91,1.46,3.19,1.14,4.81,1.67,3.11,1.43,4.75,1.91,3.23,1.09,4.89,1.51,3.35.63,5.02.99,3.39.37,5.07.67,3.27,1.05,4.96,1.29,3.4.28,5.09.46,3.39.31,5.09.43,3.39.22,5.1.28,3.4.31,5.11.31,3.42-.13,5.11-.19,3.4-.29,5.1-.41,3.4-.32,5.08-.5,3.37-.53,5.05-.77,3.4-.34,5.07-.64,3.36-.59,5.02-.95,3.37-.58,5.02-1,3.14-1.44,4.77-1.92,3.43-.44,5.04-.97,3.17-1.26,4.77-1.86,3.29-.97,4.86-1.62,2.96-1.73,4.51-2.44,3.26-1.08,4.78-1.84,3.03-1.57,4.53-2.39,2.97-1.68,4.43-2.55,2.64-2.21,4.07-3.13,3.1-1.49,4.49-2.47,2.85-1.89,4.21-2.91,2.59-2.23,3.91-3.3,2.75-2.03,4.03-3.15,2.33-2.51,3.58-3.67,2.27-2.54,3.47-3.74,2.44-2.36,3.6-3.61,2.21-2.57,3.33-3.86,2.65-2.22,3.72-3.54,1.95-2.8,2.97-4.16,1.79-2.9,2.76-4.3,2.24-2.59,3.16-4.03,1.42-3.12,2.29-4.58,1.95-2.8,2.77-4.29,1.48-3.06,2.24-4.58,1.74-2.93,2.45-4.48,1.37-3.12,2.02-4.69,1.1-3.22,1.69-4.82,1.39-3.11,1.93-4.73,1.22-3.19,1.7-4.82.36-3.43.78-5.08.8-3.29,1.16-4.96.89-3.28,1.19-4.96.78-3.32,1.02-5.01.08-3.41.26-5.11.32-3.37.44-5.08.27-3.38.33-5.09.25-3.39.25-5.1Z" fill="#8d22e9"></path><path d="m452.68,250.04c0-1.69-.36-3.37-.42-5.04s.36-3.4.22-5.08-.29-3.38-.49-5.04-1.08-3.26-1.35-4.91-.06-3.42-.39-5.06-.76-3.29-1.16-4.92-.73-3.3-1.19-4.92-1.53-3.05-2.06-4.65-.56-3.38-1.16-4.95-1.46-3.05-2.12-4.6-1.63-2.96-2.35-4.47-1.01-3.26-1.8-4.75-1.6-2.97-2.45-4.43-1.59-2.99-2.49-4.41-2.11-2.65-3.06-4.04-2.1-2.64-3.11-3.98-2.03-2.68-3.1-3.98-2.01-2.71-3.12-3.97-2.09-2.66-3.26-3.87-2.69-2.07-3.91-3.24-2.21-2.57-3.47-3.69-2.56-2.2-3.86-3.27-2.5-2.28-3.85-3.3-3.07-1.51-4.45-2.46-2.5-2.32-3.93-3.22-3.08-1.41-4.54-2.26-2.74-2-4.24-2.78-3.21-1.11-4.73-1.83-2.98-1.57-4.53-2.23-3.09-1.33-4.67-1.92-3.21-1-4.81-1.53-3.14-1.23-4.76-1.7-3.24-.92-4.88-1.32-3.29-.7-4.94-1.03-3.32-.53-4.99-.8-3.27-.88-4.95-1.08-3.37-.14-5.05-.27-3.36.03-5.05-.04-3.35-.24-5.04-.24-3.38-.16-5.05-.09-3.35.53-5.02.66-3.42-.28-5.09-.08-3.32.64-4.98.91-3.25.96-4.89,1.3-3.42.14-5.05.54-3.19,1.15-4.8,1.61-3.18,1.1-4.78,1.64-3.13,1.22-4.7,1.82-3.27.89-4.82,1.55-3.1,1.33-4.62,2.05-2.87,1.78-4.36,2.56-3.23,1.13-4.68,1.97-2.88,1.77-4.3,2.67-2.9,1.74-4.29,2.7-2.68,2.06-4.02,3.08-2.79,1.92-4.09,2.99-2.25,2.56-3.51,3.68-2.6,2.14-3.81,3.31-2.44,2.32-3.61,3.53-2.2,2.55-3.32,3.81-2.55,2.25-3.62,3.56-1.92,2.79-2.93,4.13-2.18,2.59-3.14,3.98-1.86,2.82-2.77,4.24-1.76,2.88-2.6,4.34-1.34,3.11-2.13,4.6-1.92,2.81-2.65,4.33-1.41,3.07-2.07,4.62-1.01,3.23-1.61,4.81-1.06,3.19-1.6,4.79-1.4,3.09-1.87,4.71-.42,3.37-.82,5.01-.72,3.27-1.06,4.93-.97,3.24-1.23,4.91-.69,3.3-.89,4.98.16,3.39.03,5.08-.6,3.33-.66,5.02.2,3.36.2,5.06-.4,3.38-.33,5.06.08,3.39.22,5.06.41,3.36.61,5.03.51,3.34.78,5,.44,3.36.77,5,.98,3.24,1.39,4.87.81,3.27,1.28,4.89.67,3.33,1.21,4.92,1.25,3.14,1.85,4.72,1.45,3.05,2.11,4.6,1.54,3,2.26,4.52,1.09,3.22,1.88,4.71,1.62,2.96,2.47,4.42,2.1,2.66,3,4.08,1.45,3.08,2.41,4.46,1.82,2.85,2.83,4.2,2.48,2.34,3.54,3.64,2.13,2.6,3.25,3.86,2.16,2.58,3.33,3.79,2.24,2.52,3.45,3.69,2.61,2.14,3.87,3.26,2.58,2.15,3.89,3.22,2.45,2.33,3.79,3.34,2.85,1.79,4.24,2.75,2.66,2.08,4.08,2.98,2.8,1.88,4.26,2.72,3.1,1.36,4.59,2.14,2.92,1.67,4.44,2.4,2.94,1.68,4.49,2.34,3.17,1.17,4.74,1.77,3.14,1.24,4.74,1.77,3.26.86,4.88,1.33,3.17,1.17,4.81,1.58,3.39.24,5.05.57,3.3.59,4.97.86,3.28.77,4.96.97,3.33.57,5.01.7,3.37-.04,5.06.03,3.36.02,5.05.02,3.39.44,5.06.37,3.38-.2,5.05-.33,3.34-.56,5.01-.76,3.29-.76,4.95-1.03,3.32-.56,4.96-.89,3.44-.06,5.08-.47,3.28-.86,4.89-1.33,3.1-1.4,4.69-1.94,3.19-1.08,4.76-1.68,3.28-.89,4.83-1.55,2.94-1.7,4.46-2.42,3.24-1.08,4.72-1.86,2.8-1.91,4.26-2.75,2.73-1.98,4.15-2.88,2.97-1.6,4.36-2.56,2.88-1.78,4.22-2.79,2.54-2.23,3.84-3.29,2.51-2.24,3.77-3.36,2.71-2.03,3.93-3.19,2.27-2.5,3.44-3.71,2.47-2.3,3.59-3.56,1.89-2.81,2.96-4.12,2.31-2.46,3.33-3.81,1.84-2.82,2.8-4.21,1.98-2.72,2.88-4.15,1.59-2.96,2.44-4.42,1.88-2.8,2.66-4.29,1.4-3.06,2.13-4.58,1.84-2.87,2.5-4.42,1.2-3.16,1.8-4.73.66-3.33,1.2-4.93,1.45-3.07,1.92-4.69,1.14-3.19,1.54-4.83.18-3.41.52-5.06.66-3.29.92-4.96.7-3.29.9-4.97.73-3.31.87-5,.11-3.37.17-5.06-.02-3.37-.02-5.06Z" fill="#fff"></path><path d="m382.9,212.61c0,1.78-.4,3.5-.54,5.15-.15,1.78-.42,3.47-.72,5.1-.32,1.75-.61,3.45-1.09,5.04-.5,1.7-1.15,3.3-1.8,4.84-.69,1.62-1.57,3.1-2.4,4.56s-1.66,3.06-2.66,4.42-2.05,2.82-3.18,4.07-2.29,2.64-3.53,3.79-2.9,1.97-4.22,3.02-2.74,2.14-4.1,3.12c-1.44,1.03-2.89,1.96-4.26,2.89-1.45.94-2.81,1.92-4.13,2.84-1.44,1-2.71,2.1-3.94,3.1-1.37,1.13-2.59,2.26-3.63,3.44-1.17,1.33-2.13,2.68-2.78,4.14s-.83,3.12-.83,4.85c0,3.6,1.92,4.31-.09,7.3-1.35,2.01-2.56-.18-4.97-.18s-2.42-.03-4.84-.03-2.42.17-4.83.17-2.42.12-4.83.12-2.42-.22-4.84-.22-2.42-.17-4.84-.17-2.95,1.73-4.83.2c-1.53-1.25.05-1.96.05-3.94s.27-1.98.27-3.96c0-1.76-.04-3.41.16-5,.22-1.74.36-3.41.78-4.96.46-1.67,1.19-3.17,1.87-4.65.71-1.56,1.53-2.99,2.44-4.36s1.54-3.07,2.64-4.32,2.68-2.09,3.92-3.21,2.21-2.59,3.53-3.62,2.87-1.78,4.23-2.75,2.78-1.9,4.14-2.85c1.38-1.01,2.81-1.95,4.17-2.98s2.83-1.98,4.11-3.09,2.1-2.78,3.26-4,2.35-2.45,3.33-3.83,1.92-2.78,2.62-4.35,1.24-3.11,1.6-4.83c.33-1.6.54-3.27.54-5.07-.07-1.75-.09-3.44-.47-4.97-.42-1.68-.99-3.3-1.77-4.7s-2.13-2.56-3.34-3.71-2.47-2.11-3.98-2.92c-1.4-.75-2.94-1.29-4.62-1.77-1.51-.43-3.07-1.15-4.81-1.35-1.57-.19-3.26.09-5,.09s-3.53-.03-5.21.19-3.48.46-5.14,1-3.06,1.52-4.64,2.4c-1.44.81-3.12,1.42-4.57,2.58-1.27,1.02-2.13,2.65-3.43,3.97-1.14,1.17-2.74,2.06-3.92,3.49-1.05,1.27-2.16,2.62-3.25,4.11-.98,1.34-1.73,2.94-2.75,4.47-2.46-.92-1.9-1.83-3.9-3.53s-2.02-1.67-4.02-3.37-2.13-1.55-4.13-3.25-2.16-1.52-4.16-3.22-1.65-2.12-3.65-3.83-3.02-.84-4.43-3.06c.98-1.35,2.03-3,3.05-4.26s2.52-2.2,3.61-3.38,1.96-2.7,3.13-3.82,2.7-1.92,3.95-2.96,2.64-1.94,3.97-2.87,2.54-2.09,3.95-2.93,2.79-1.75,4.26-2.48,2.97-1.42,4.49-2.03,3.16-.89,4.73-1.38,3.05-1.21,4.66-1.59,3.25-.41,4.88-.68,3.23-.34,4.88-.52,3.2-.76,4.86-.84,3.26.24,4.93.24c1.76,0,3.46.19,5.15.28s3.53-.43,5.21-.24,3.43.69,5.09.99,3.33,1.04,4.96,1.47,3.49.49,5.08,1.05,3.09,1.62,4.63,2.33,3.27,1.23,4.73,2.09,2.69,2.19,4.04,3.22,2.66,2.15,3.89,3.34,2.78,2.13,3.84,3.48,1.7,3,2.59,4.49,1.9,2.86,2.6,4.46,1.32,3.16,1.83,4.84.77,3.32,1.1,5.05.29,3.38.44,5.14.85,3.37.85,5.14Z" fill="#8d22e9"></path><path d="m343,321.41c0,1.91-.16,3.72-.52,5.39-.4,1.85-1.07,3.53-1.87,5.07-.85,1.63-1.9,3.1-3.18,4.35s-2.89,2.02-4.54,2.84c-1.55.78-3.11,1.7-4.96,2.08-1.68.35-3.49.32-5.39.32s-3.65-.23-5.31-.58c-1.84-.38-3.44-1.06-4.98-1.83-1.64-.83-3.34-1.51-4.59-2.76s-2.17-2.83-3-4.47c-.78-1.53-1.65-3.16-2.03-5.01-.34-1.67-.48-3.51-.48-5.4s.18-3.74.54-5.41c.39-1.84.91-3.65,1.69-5.19.83-1.64,2.29-2.85,3.54-4.12s2.56-2.51,4.18-3.37c1.54-.81,3.31-1.16,5.14-1.56,1.67-.37,3.42-1.06,5.32-1.06s3.71.44,5.4.81c1.84.4,3.39,1.33,4.94,2.14,1.63.85,3.36,1.53,4.63,2.8s2.23,2.84,3.09,4.47c.81,1.54,1.15,3.31,1.55,5.16.37,1.68.85,3.43.85,5.33Z" fill="#8d22e9"></path></svg>