<?xml version="1.0" encoding="UTF-8"?>
<svg xmlns="http://www.w3.org/2000/svg" viewBox="0 0 500 500" width="64" height="64"><defs><linearGradient id="a" x1="249.96" x2="249.96" y1="358.29" y2="-99.08" gradientUnits="userSpaceOnUse"><stop offset="0" stop-color="#fbb200" stop-opacity="0"/><stop offset=".17" stop-color="#fbb200" stop-opacity=".23"/><stop offset=".4" stop-color="#fbb200" stop-opacity=".5"/><stop offset=".6" stop-color="#fbb200" stop-opacity=".71"/><stop offset=".78" stop-color="#fbb200" stop-opacity=".87"/><stop offset=".91" stop-color="#fbb200" stop-opacity=".96"/><stop offset="1" stop-color="#fbb200"/></linearGradient></defs><path fill="url(#a)" d="M405.54 385.73c.72-1.09 1.79-1.86 2.49-2.96.7-1.1 1.38-2.22 2.06-3.34s1.35-2.24 2-3.37.94-2.47 1.57-3.61 1.72-2.04 2.32-3.2c.61-1.16 1.08-2.39 1.66-3.56.58-1.17.97-2.43 1.53-3.61.56-1.18 1.09-2.37 1.62-3.56s.72-2.52 1.23-3.73c.51-1.2 1.31-2.28 1.79-3.49s1.16-2.35 1.61-3.58.82-2.48 1.25-3.72.51-2.58.92-3.82c.4-1.24 1.01-2.41 1.39-3.66.38-1.25.98-2.43 1.33-3.69.35-1.26.24-2.63.57-3.9.32-1.26.86-2.47 1.15-3.75s.35-2.59.62-3.87c.27-1.27 1.08-2.44 1.33-3.73.24-1.28.28-2.6.5-3.89.22-1.28.17-2.61.36-3.91.19-1.29.37-2.58.54-3.88.16-1.29.46-2.57.59-3.87.13-1.3.34-2.59.45-3.89s.08-2.61.16-3.92c.08-1.3.06-2.61.11-3.91.05-1.3.28-2.6.3-3.91.03-1.3-.28-2.61-.28-3.92s.28-2.58.26-3.86c-.03-1.29-.62-2.56-.67-3.84-.05-1.29.04-2.58-.04-3.86-.08-1.29.15-2.59.05-3.87-.11-1.29-.41-2.55-.54-3.83-.13-1.28.03-2.6-.13-3.87s-.51-2.53-.69-3.81c-.18-1.28-.39-2.55-.6-3.81-.21-1.27.03-2.63-.2-3.89s-1.2-2.39-1.47-3.65c-.26-1.26-.14-2.6-.43-3.86s-.68-2.49-.99-3.73c-.32-1.25-.33-2.58-.67-3.82-.34-1.24-.71-2.48-1.08-3.72-.37-1.24-1.25-2.31-1.65-3.53-.39-1.23-.7-2.48-1.12-3.7-.42-1.22-.99-2.38-1.44-3.58-.44-1.21-.36-2.62-.83-3.82s-1.17-2.31-1.66-3.5-.8-2.46-1.32-3.64c-.52-1.18-1.42-2.19-1.96-3.36s-1.31-2.22-1.88-3.38-.84-2.46-1.43-3.6c-.59-1.14-1.21-2.27-1.82-3.4-.61-1.13-.96-2.42-1.59-3.54-.64-1.12-1.68-2-2.34-3.11s-1.35-2.19-2.04-3.28c-.68-1.09-1.42-2.14-2.13-3.22s-.96-2.46-1.68-3.52c-.73-1.06-1.63-2.01-2.38-3.05s-1.7-1.94-2.47-2.98-1.73-1.91-2.52-2.93c-.79-1.02-1.3-2.25-2.11-3.25-.81-1-1.62-2.01-2.45-2.99-.83-.98-1.78-1.87-2.63-2.83-.85-.96-1.42-2.19-2.29-3.13s-1.97-1.69-2.86-2.62c-.89-.93-1.79-1.85-2.7-2.76s-2-1.63-2.93-2.52-1.95-1.68-2.89-2.55c-.95-.87-1.41-2.28-2.37-3.13-.96-.85-2.16-1.44-3.14-2.27s-2.03-1.59-3.02-2.4c-1-.81-2.11-1.47-3.13-2.26-1.02-.79-1.88-1.78-2.91-2.55-1.03-.77-2.07-1.54-3.11-2.29-1.05-.75-1.96-1.69-3.03-2.42-1.06-.73-2.52-.87-3.59-1.57-1.08-.7-1.94-1.74-3.03-2.42-1.09-.68-2.21-1.31-3.32-1.97-1.1-.66-2.16-1.4-3.28-2.04-1.12-.64-2.27-1.21-3.4-1.83-1.13-.61-2.19-1.38-3.33-1.97-1.14-.59-2.34-1.08-3.5-1.65-1.16-.57-2.49-.75-3.66-1.29s-2.03-1.76-3.21-2.28-2.48-.75-3.67-1.25-2.37-1-3.58-1.47-2.44-.83-3.65-1.27c-1.21-.44-2.47-.73-3.69-1.14-1.22-.42-2.53-.52-3.76-.91s-2.25-1.43-3.49-1.8c-1.23-.37-2.59-.3-3.84-.64s-2.5-.58-3.75-.9c-1.25-.31-2.4-1.02-3.66-1.31s-2.65.07-3.91-.19c-1.26-.26-2.4-1.1-3.67-1.34s-2.58-.19-3.85-.4c-1.27-.21-2.48-.79-3.76-.98s-2.62.17-3.9.02-2.53-.46-3.82-.59c-1.28-.13-2.54-.52-3.82-.63s-2.56-.3-3.85-.38-2.57-.11-3.86-.16c-1.28-.05-2.58.16-3.87.14-1.28-.03-2.57-.11-3.86-.11s-2.58-.15-3.87-.12-2.57.41-3.85.47-2.6-.4-3.89-.33c-1.29.08-2.56.39-3.84.5-1.29.11-2.51.85-3.78.98s-2.6-.1-3.87.06c-1.28.16-2.59.11-3.86.29s-2.52.55-3.79.76c-1.27.21-2.62.01-3.88.25-1.27.24-2.53.55-3.78.81-1.26.26-2.4 1.09-3.65 1.38-1.26.29-2.51.58-3.75.89s-2.46.74-3.7 1.08c-1.24.34-2.58.34-3.81.71s-2.44.83-3.67 1.22-2.52.6-3.73 1.02c-1.22.42-2.44.83-3.65 1.27-1.21.44-2.35 1.08-3.55 1.55-1.2.47-2.31 1.15-3.5 1.65-1.19.49-2.45.81-3.63 1.32s-2.46.81-3.63 1.35-2.29 1.19-3.45 1.75c-1.16.57-2.26 1.25-3.4 1.84s-2.26 1.24-3.39 1.86c-1.13.61-2.46.89-3.57 1.53-1.12.64-1.98 1.73-3.08 2.39-1.11.66-2.38 1.05-3.47 1.73-1.09.68-2.13 1.46-3.2 2.16s-2.02 1.62-3.08 2.34-2.12 1.45-3.17 2.2-2.13 1.45-3.16 2.22c-1.03.77-2.1 1.49-3.11 2.29-1.02.79-2.27 1.29-3.27 2.1s-1.8 1.87-2.78 2.7c-.98.83-1.74 1.92-2.71 2.77-.96.85-1.9 1.73-2.85 2.6-.95.87-2.17 1.45-3.1 2.34-.93.89-1.93 1.72-2.84 2.63-.91.91-1.7 1.95-2.59 2.87-.89.93-1.74 1.9-2.62 2.85-.87.95-1.81 1.84-2.67 2.8-.85.96-1.36 2.23-2.19 3.21s-1.94 1.74-2.75 2.74-1.29 2.26-2.09 3.27-1.74 1.91-2.51 2.94-1.77 1.89-2.52 2.94-1.44 2.14-2.17 3.2-1.23 2.27-1.94 3.35c-.7 1.08-1.61 2.02-2.3 3.12-.68 1.09-1.26 2.25-1.92 3.35s-1.3 2.22-1.94 3.34c-.64 1.12-1.32 2.21-1.93 3.34s-.86 2.46-1.45 3.6c-.59 1.14-1.05 2.34-1.62 3.5-.57 1.16-1.38 2.19-1.93 3.35-.54 1.17-1.04 2.35-1.56 3.53-.52 1.18-1.28 2.25-1.78 3.44-.49 1.19-.63 2.52-1.1 3.72-.47 1.2-1.34 2.24-1.78 3.45s-.96 2.4-1.38 3.61-.6 2.52-.99 3.74c-.39 1.22-.31 2.59-.68 3.83-.37 1.23-1.22 2.32-1.56 3.57s-.6 2.5-.92 3.75c-.31 1.25-.93 2.43-1.22 3.68-.29 1.25-.29 2.57-.56 3.84s-.52 2.52-.76 3.79c-.24 1.26-.35 2.55-.56 3.82s-.63 2.51-.82 3.78-.2 2.57-.36 3.85c-.16 1.28-.05 2.58-.18 3.86-.13 1.28-.44 2.54-.54 3.83-.1 1.28-.11 2.57-.18 3.86-.08 1.28-.52 2.55-.57 3.84-.05 1.28.25 2.58.22 3.87-.03 1.28-.17 2.57-.17 3.86s.17 2.57.2 3.86-.5 2.6-.45 3.88c.05 1.29.88 2.54.96 3.82s.11 2.57.21 3.85c.11 1.29.38 2.55.51 3.82.13 1.28-.18 2.61-.02 3.88.16 1.28.72 2.5.91 3.77.18 1.28-.07 2.61.14 3.88s.44 2.54.68 3.8c.24 1.27.55 2.52.82 3.77.26 1.26.37 2.56.66 3.81.29 1.26.43 2.55.75 3.8s1.25 2.33 1.59 3.57c.34 1.24.79 2.45 1.15 3.68s.23 2.62.62 3.85.97 2.39 1.38 3.61.86 2.43 1.31 3.63c.44 1.21 1.23 2.28 1.7 3.48.47 1.2.51 2.57 1 3.75.49 1.19 1.23 2.27 1.74 3.45.52 1.18.9 2.42 1.44 3.58s1.44 2.16 2 3.32.53 2.61 1.12 3.76c.59 1.14 1.4 2.18 2.01 3.31.61 1.13 1.54 2.09 2.17 3.2s1.1 2.34 1.76 3.44 1.39 2.16 2.07 3.26c.68 1.09 1.22 2.46 1.92 3.54 1.74.44 1.85-.12 3.64-.11s1.79-.23 3.58-.22 1.79.29 3.58.3 1.79-.13 3.58-.13 1.79-.07 3.58-.06 1.79.13 3.58.14 1.79-.05 3.58-.05 1.79.04 3.59.05 1.79.14 3.59.15c1.79 0 1.79-.21 3.59-.2 1.79 0 1.79.04 3.58.05s1.79.04 3.58.05c1.79 0 1.79.21 3.58.22s1.79-.4 3.59-.39 1.79.12 3.58.13 1.79.33 3.58.33 1.79-.14 3.59-.13c1.79 0 1.79.01 3.59.02 1.79 0 1.79.06 3.58.06s1.79-.04 3.58-.03 1.79-.16 3.58-.15c1.79 0 1.79.18 3.58.19 1.79 0 1.79-.05 3.59-.04 1.79 0 1.79-.12 3.59-.11 1.79 0 1.79-.18 3.59-.17 1.79 0 1.79.45 3.58.46s1.79-.24 3.59-.24 1.79.26 3.58.27c1.79 0 1.79-.44 3.59-.43s1.79.34 3.58.34 1.79-.09 3.59-.08 1.79 0 3.59.01c1.79 0 1.79.07 3.58.08 1.79 0 1.79.04 3.58.04s1.79-.19 3.58-.19 1.79-.1 3.58-.1 1.79.21 3.58.22 1.79.04 3.58.04 1.79-.11 3.58-.1 1.79.07 3.59.08 1.79-.1 3.59-.09c1.79 0 1.79.38 3.58.39 1.79 0 1.79-.27 3.58-.26s1.79.22 3.58.23c1.79 0 1.79-.13 3.58-.12 1.79 0 1.79.16 3.58.16s1.79-.13 3.59-.12c1.79 0 1.79-.25 3.59-.25 1.79 0 1.79.17 3.58.18s1.79.27 3.58.28c1.79 0 1.79-.26 3.58-.25s1.79-.18 3.59-.18 1.79.32 3.59.32c1.79 0 1.79.09 3.59.1s1.79-.04 3.59-.03c1.79 0 1.79-.07 3.59-.07s1.79-.15 3.59-.15c1.79 0 1.79-.06 3.59-.05s1.79.37 3.58.37 1.79.06 3.59.06c1.79 0 1.79-.36 3.59-.35 1.79 0 1.79.15 3.59.16 1.79 0 1.79.06 3.59.07s1.79-.08 3.59-.07 1.79.26 3.59.27 1.8-.43 3.59-.43c1.79 0 1.79.27 3.59.28s1.79-.07 3.59-.06 1.79.19 3.59.19 1.8-.3 3.59-.29 1.79.38 3.59.39c1.79 0 1.79-.09 3.58-.08 1.79 0 1.8-.31 3.59-.31s1.79.03 3.58.04c1.79 0 1.79.39 3.59.4s1.79-.39 3.59-.38 1.79.22 3.59.23 1.79.02 3.59.03c1.79 0 1.79.17 3.59.17s1.8-.37 3.59-.36 1.8.11 3.59.11 1.8-.07 3.59-.07c1.8 0 1.79.26 3.59.27s1.8-.23 3.59-.22 1.79.33 3.59.33c1.8 0 1.8-.15 3.59-.04 1.79.12 1.83.22 3.58-.21z"/><path fill="#fff" d="M200.27 402.51c-1.21 1.18-1.64-.53-3.33-.53s-1.69.82-3.39.82-1.69-.18-3.38-.18-1.69-.53-3.39-.53-1.69.1-3.39.1-1.69.15-3.39.15c-1.7 0-1.7.41-3.39.41-1.7 0-2.27 1.08-3.48-.1s-.02-1.74-.02-3.39c0-1.65.42-1.65.42-3.3s.15-1.65.15-3.3-.63-1.65-.63-3.31-.9-2.03.28-3.18c1.21-1.18 1.57.07 3.27.07s1.69-.4 3.39-.4 1.69.11 3.38.11 1.69.35 3.39.35 1.69.08 3.39.08 1.69-.22 3.39-.22 1.7.06 3.39.06 2.21-1.41 3.43-.23-.09 1.69-.09 3.34.13 1.65.13 3.3-.12 1.65-.12 3.3-.56 1.75-.22 3.36c.37 1.72 1.39 2.04.21 3.2z"/><path fill="#fff" d="M152.03 176.17c1.79 0 1.79.21 3.58.21s1.79-.15 3.58-.15 1.79.19 3.58.19 1.79-.11 3.58-.11 1.79.05 3.58.05 1.79-.21 3.58-.21 1.79-.44 3.58-.44 1.79.7 3.58.7 1.79-.37 3.58-.37 1.79.42 3.58.42h3.58c1.79 0 1.79-.4 3.58-.4s1.79-.14 3.58-.14 1.79.28 3.58.28 1.79.07 3.58.07 1.79-.4 3.58-.4 1.79.19 3.58.19 1.79.31 3.58.31 1.79-.2 3.58-.2 1.79-.51 3.58-.51 1.79.33 3.58.33 1.79-.13 3.58-.13 1.79.31 3.58.31 1.79.3 3.58.3 1.79.14 3.58.14 1.79-.65 3.58-.65 1.79.38 3.58.38 1.79.02 3.59.02 1.79-.8 3.58-.8 1.79.72 3.58.72 1.79.13 3.58.13 1.79.04 3.59.04 1.79-.53 3.58-.53h3.58c1.79 0 1.79.48 3.59.48s1.79-.26 3.58-.26 1.79.47 3.59.47 1.79-.87 3.59-.87 1.79.65 3.59.65 1.79-.4 3.59-.4 1.79.41 3.59.41 1.79-.48 3.58-.48 1.79.36 3.59.36 1.79-.11 3.58-.11 1.79-.22 3.59-.22 1.79.02 3.58.02 1.79.31 3.59.31 1.79.27 3.59.27 1.79-.31 3.59-.31 1.79-.17 3.59-.17 1.79.32 3.59.32 1.79-.25 3.59-.25 1.79.06 3.59.06 1.79-.27 3.59-.27 1.79.16 3.59.16 1.8.56 3.59.56 1.8-.51 3.59-.51c1.39 0 2.65.44 3.86.94s2.45 1.12 3.4 2.07 1.53 2.15 2.05 3.4.94 2.46.94 3.85c0 1.78-.04 1.78-.04 3.57 0 1.78.06 1.78.06 3.56s.32 1.78.32 3.56-.72 1.78-.72 3.57-.07 1.78-.07 3.57 1.04 1.78 1.04 3.57-1.04 1.79-1.04 3.57.14 1.79.14 3.57c0 1.78.07 1.78.07 3.57s.13 1.78.13 3.57-.22 1.78-.22 3.57v3.57c0 1.78.64 1.78.64 3.57s-.11 1.79-.11 3.57-.16 1.79-.16 3.57-.06 1.78-.06 3.57-.14 1.78-.14 3.57.27 1.78.27 3.57c0 1.78-.14 1.78-.14 3.57s.1 1.79.1 3.57.31 1.79.31 3.57-.86 1.78-.86 3.57.24 1.78.24 3.57c0 1.79-.03 1.79-.03 3.57 0 1.79.63 1.79.63 3.57s-.61 1.79-.61 3.57.54 1.79.54 3.57c0 1.79.08 1.79.08 3.57 0 1.79-.64 1.79-.64 3.57 0 1.79.29 1.79.29 3.57s-.03 1.79-.03 3.57c0 1.79-.5 1.79-.5 3.57s.6 1.79.6 3.57-.02 1.79-.02 3.57c0 1.79.29 1.79.29 3.57s-.27 1.79-.27 3.57-.09 1.79-.09 3.57v3.57c0 1.78.06 1.78.06 3.57s.11 1.79.11 3.57-.28 1.78-.28 3.57c0 1.79.34 1.79.34 3.57 0 1.79-.19 1.79-.19 3.57s-.31 1.79-.31 3.58.6 1.79.6 3.57c0 1.79-.59 1.79-.59 3.57s.67 1.79.67 3.58-.21 1.79-.21 3.58.11 1.79.11 3.58-.5 1.79-.5 3.58.12 1.79.12 3.58.16 1.79.16 3.58.19 1.79.19 3.58-.24 1.79-.24 3.58c0 1.39-.05 2.81-.55 4.02-.52 1.25-1.44 2.36-2.38 3.3s-2.19 1.51-3.45 2.03-2.48.7-3.87.7c-1.79 0-1.79-.19-3.58-.19s-1.79.93-3.58.93-1.79-.56-3.58-.56-1.79.63-3.58.63-1.79-1.07-3.58-1.07-1.79.51-3.58.51-1.79-.41-3.58-.41-1.79.5-3.58.5-1.79-.37-3.58-.37-1.79-.34-3.58-.34-1.79.68-3.58.68-1.79.07-3.58.07-1.79.23-3.58.23-1.79-.17-3.58-.17-1.79.07-3.58.07-1.79-.36-3.58-.36-1.79-.29-3.58-.29-1.79.82-3.58.82-1.79-.32-3.58-.32-1.79-.11-3.58-.11-1.79-.05-3.58-.05-1.79-.19-3.58-.19-1.79-.22-3.58-.22-1.79.29-3.58.29-1.79.17-3.58.17-1.79.04-3.58.04-1.79-.26-3.58-.26-1.79-.26-3.59-.26-1.79.33-3.58.33-1.79-.22-3.58-.22-1.79.09-3.58.09-1.79.15-3.59.15-1.79.35-3.58.35-1.79-.48-3.58-.48-1.79.56-3.59.56-1.79-.06-3.58-.06-1.79-.05-3.59-.05c-1.79 0-1.79-.45-3.59-.45s-1.79.16-3.59.16c-1.79 0-1.79.06-3.59.06-1.79 0-1.79-.11-3.59-.11-1.79 0-1.79-.11-3.58-.11s-1.79.32-3.59.32c-1.79 0-1.79.03-3.58.03s-1.79-.05-3.59-.05c-1.79 0-1.79-.22-3.58-.22s-1.79-.34-3.59-.34-1.79.71-3.59.71-1.79-.5-3.59-.5c-1.79 0-1.79.62-3.59.62-1.79 0-1.79.04-3.59.04s-1.79-.89-3.59-.89c-1.79 0-1.79.88-3.59.88s-1.79-.41-3.59-.41c-1.79 0-1.79-.25-3.59-.25s-1.8.11-3.59.11-1.8.49-3.59.49c-1.39 0-2.6-.91-3.81-1.41-1.25-.52-2.42-1.09-3.36-2.03-.95-.95-1.58-2.08-2.1-3.33s-1.14-2.45-1.14-3.84v-3.57c0-1.78.22-1.78.22-3.56s-.27-1.78-.27-3.56-.09-1.78-.09-3.57.15-1.78.15-3.57c0-1.78-.02-1.78-.02-3.57 0-1.79-.03-1.79-.03-3.57 0-1.79.36-1.79.36-3.57v-3.57c0-1.78-.33-1.78-.33-3.57s-.14-1.78-.14-3.57c0-1.78.54-1.78.54-3.57s-.81-1.78-.81-3.57c0-1.79.8-1.79.8-3.57s-.7-1.79-.7-3.57-.01-1.78-.01-3.57.04-1.78.04-3.57.16-1.78.16-3.57.68-1.78.68-3.57-.5-1.79-.5-3.57c0-1.79-.36-1.79-.36-3.57s.37-1.78.37-3.57.1-1.78.1-3.57.07-1.79.07-3.57.2-1.79.2-3.57c0-1.79-.2-1.79-.2-3.57s.02-1.79.02-3.57c0-1.79-.36-1.79-.36-3.57s.25-1.79.25-3.57c0-1.79-.05-1.79-.05-3.57s-.04-1.79-.04-3.57c0-1.79.4-1.79.4-3.57 0-1.79-.3-1.79-.3-3.57 0-1.79.13-1.79.13-3.57 0-1.79.42-1.79.42-3.57s-.77-1.79-.77-3.57.04-1.79.04-3.57c0-1.79.57-1.79.57-3.57 0-1.78-.24-1.78-.24-3.57 0-1.79.1-1.79.1-3.57s.22-1.78.22-3.57c0-1.79-.44-1.79-.44-3.57s-.32-1.79-.32-3.57c0-1.79-.03-1.79-.03-3.58s.11-1.79.11-3.57-.02-1.79-.02-3.57.56-1.79.56-3.58-.02-1.79-.02-3.58.02-1.79.02-3.58-.29-1.79-.29-3.58.2-1.79.2-3.58-.36-1.79-.36-3.58.12-1.79.12-3.58-.22-1.79-.22-3.58c0-1.39.62-2.67 1.12-3.88.52-1.25.95-2.64 1.89-3.59s2.3-1.47 3.55-1.99 2.53-.79 3.92-.79z"/><path fill="none" stroke="#3c1053" stroke-linecap="round" stroke-miterlimit="10" stroke-width="3" d="M93.5 402.81h3.6c1.8 0 1.8.13 3.6.13s1.8-.13 3.6-.13 1.8.08 3.6.08 1.8.26 3.6.26 1.8-.3 3.6-.3h3.6c1.8 0 1.8.05 3.6.05s1.8-.08 3.6-.08 1.8.08 3.6.08 1.8.27 3.6.27 1.8-.11 3.6-.11 1.8-.35 3.6-.35 1.8.08 3.6.08 1.8.15 3.6.15 1.8.02 3.6.02h3.6c1.8 0 1.8.19 3.6.19s1.8.05 3.6.05 1.8-.41 3.6-.41 1.8-.02 3.6-.02 1.8.41 3.6.41 1.8-.37 3.6-.37 1.8.03 3.6.03 1.8-.11 3.6-.11 1.8.25 3.6.25 1.8.21 3.6.21 1.8-.32 3.6-.32 1.8-.04 3.6-.04 1.8.28 3.6.28 1.8-.08 3.6-.08 1.8.17 3.6.17 1.8-.07 3.6-.07 1.8-.11 3.6-.11 1.8.11 3.6.11 1.8-.14 3.6-.14 1.8-.06 3.6-.06 1.8.24 3.59.24 1.8-.33 3.59-.33 1.8.17 3.6.17 1.8.09 3.6.09 1.8.1 3.6.1 1.8-.31 3.6-.31 1.8.17 3.6.17 1.8-.06 3.6-.06 1.8-.05 3.6-.05 1.8.12 3.6.12 1.8.11 3.6.11 1.8-.32 3.6-.32 1.8.07 3.6.07h3.6c1.8 0 1.8-.15 3.6-.15s1.8.02 3.6.02 1.8.1 3.6.1 1.8.2 3.6.2 1.8-.11 3.6-.11 1.8-.22 3.6-.22 1.8.17 3.6.17 1.8-.05 3.6-.05 1.8-.1 3.6-.1 1.8.33 3.6.33 1.8.08 3.6.08 1.8-.06 3.6-.06 1.8-.02 3.6-.02 1.8-.08 3.6-.08 1.8-.23 3.6-.23 1.8.32 3.6.32h3.6c1.8 0 1.8-.08 3.6-.08s1.8-.11 3.6-.11 1.8.05 3.6.05 1.8-.13 3.6-.13 1.8.07 3.6.07 1.8-.21 3.6-.21 1.8.03 3.6.03 1.8.02 3.6.02 1.8.33 3.6.33 1.8-.21 3.6-.21 1.8-.13 3.6-.13 1.8.32 3.61.32 1.8-.2 3.6-.2 1.8-.05 3.6-.05 1.8.1 3.61.1 1.8-.05 3.61-.05 1.8-.1 3.61-.1 1.8.23 3.61.23 1.8-.02 3.61-.02 1.8-.19 3.61-.19 1.81.23 3.61.23 1.81-.16 3.61-.16"/><path fill="#3c1053" d="M139.03 378.28c0 1.21.48 2.37.83 3.47s.84 2.22 1.53 3.17 1.61 1.71 2.56 2.41 1.95 1.32 3.08 1.69 2.27.5 3.49.5c1.76 0 1.76.18 3.52.18s1.76.04 3.53.04 1.76-.05 3.53-.05 1.77.07 3.53.07 1.77-.44 3.54-.44 2.27-1 3.56.21c1.21 1.13.21 1.68.21 3.34s-.46 1.66-.46 3.32.11 1.66.11 3.32.26 1.66.26 3.32c0 .97.64 2 1.61 2 1.69 0 1.69-.43 3.37-.43s1.69.12 3.37.12h3.37c1.68 0 1.69.14 3.37.14s1.69-.26 3.37-.26 1.69.4 3.38.4 1.69-.43 3.38-.43 1.69.09 3.38.09c.97 0 1.81-.65 1.81-1.62 0-1.66.1-1.66.1-3.32s.09-1.66.09-3.32-.11-1.66-.11-3.32-1.38-2.22-.15-3.34c1.35-1.23 1.84 0 3.66 0s1.83.21 3.65.21 1.83-.23 3.66-.23 1.83.13 3.65.13 1.83-.33 3.65-.33 1.83.14 3.66.14 1.83.27 3.65.27 1.83-.06 3.66-.06 1.83.12 3.66.12 1.83-.14 3.66-.14h3.66c1.83 0 1.83-.13 3.66-.13s1.83-.09 3.66-.09 1.83.22 3.66.22 1.83-.14 3.65-.14 1.83.29 3.66.29h3.65c1.82 0 1.83-.25 3.66-.25s1.83-.19 3.66-.19 1.83.2 3.66.2 1.83.23 3.66.23 1.83-.02 3.66-.02 1.83-.17 3.66-.17 1.83.1 3.66.1 1.83-.26 3.66-.26 1.83.08 3.66.08h3.66c1.83 0 2.2-1.05 3.56.18 1.23 1.11-.05 1.54-.05 3.2s.33 1.66.33 3.32-.37 1.66-.37 3.32v3.32c0 .97 1 1.52 1.97 1.52 1.69 0 1.69.08 3.37.08s1.69.19 3.37.19 1.69-.03 3.37-.03 1.69-.08 3.37-.08 1.69-.16 3.37-.16 1.69.4 3.38.4 1.69-.08 3.38-.08 1.69-.21 3.38-.21c.97 0 1.99-.66 1.99-1.63 0-1.66-.3-1.66-.3-3.32s-.18-1.66-.18-3.32.14-1.66.14-3.32-.95-2.02.26-3.16c1.28-1.21 1.61.06 3.37.06s1.76.02 3.53.02 1.76-.35 3.53-.35 1.77.02 3.53.02 1.77.05 3.54.05 1.77.21 3.54.21c1.21 0 2.34-.51 3.43-.87s2.13-.92 3.07-1.61 1.83-1.44 2.53-2.39 1.27-1.96 1.64-3.09.78-2.25.78-3.47c0-1.8.02-1.8.02-3.6s-.19-1.8-.19-3.6v-3.6c0-1.8.03-1.8.03-3.6s.07-1.8.07-3.6-.07-1.8-.07-3.61c0-1.8-.11-1.8-.11-3.6s.28-1.8.28-3.6-.27-1.8-.27-3.6.2-1.8.2-3.6.1-1.8.1-3.6-.43-1.8-.43-3.6.2-1.8.2-3.61c0-1.8-.25-1.8-.25-3.61s.31-1.8.31-3.6.18-1.8.18-3.6-.16-1.8-.16-3.6-.15-1.8-.15-3.6.03-1.8.03-3.61c0-1.8.14-1.8.14-3.61 0-1.8.07-1.8.07-3.6s-.27-1.8-.27-3.6.01-1.8.01-3.61c0-1.8.23-1.8.23-3.61s-.06-1.8-.06-3.61-.09-1.8-.09-3.61c0-1.8-.1-1.8-.1-3.61s-.01-1.8-.01-3.61.32-1.8.32-3.61c0-1.8-.29-1.8-.29-3.61s-.06-1.8-.06-3.61c0-1.8.16-1.8.16-3.61 0-1.8-.17-1.8-.17-3.61s.38-1.8.38-3.61c0-1.8-.02-1.8-.02-3.61s-.13-1.8-.13-3.61-.02-1.8-.02-3.61c0-1.8.1-1.8.1-3.6s-.21-1.8-.21-3.61-.16-1.8-.16-3.6.21-1.8.21-3.61.14-1.8.14-3.61-.25-1.8-.25-3.61c0-1.8-.07-1.8-.07-3.61s.22-1.8.22-3.61.09-1.81.09-3.61-.15-1.81-.15-3.61c0-1.81-.15-1.81-.15-3.61 0-1.81.43-1.81.43-3.61s-.19-1.81-.19-3.61-.12-1.81-.12-3.61c0-1.81-.14-1.81-.14-3.62s.27-1.81.27-3.62c0-1.21-.1-2.43-.45-3.53s-.97-2.21-1.66-3.16-1.74-1.59-2.69-2.28-1.9-1.39-3.03-1.76c-1.1-.36-2.27-.34-3.49-.34-1.8 0-1.8-.37-3.61-.37s-1.8.26-3.61.26-1.8-.21-3.61-.21h-3.6c-1.8 0-1.8.11-3.6.11s-1.8.14-3.6.14-1.8-.3-3.6-.3-1.8.4-3.61.4h-3.61c-1.81 0-1.81-.22-3.61-.22-1.8 0-1.8.1-3.61.1-1.8 0-1.8.04-3.61.04s-1.8-.3-3.61-.3-1.8.02-3.61.02c-1.8 0-1.8.14-3.61.14-1.8 0-1.8.06-3.61.06-1.8 0-1.8.1-3.61.1-1.81 0-1.81-.37-3.61-.37s-1.8.27-3.61.27-1.8-.28-3.61-.28-1.8.42-3.61.42c-1.8 0-1.8-.44-3.61-.44s-1.81.45-3.61.45c-1.81 0-1.81-.01-3.61-.01-1.8 0-1.8-.09-3.61-.09-1.8 0-1.8-.3-3.61-.3-1.8 0-1.8.4-3.61.4s-1.81-.24-3.61-.24c-1.8 0-1.8.13-3.61.13-1.8 0-1.8-.09-3.61-.09s-1.81.22-3.61.22-1.81-.11-3.61-.11-1.81-.04-3.61-.04c-1.81 0-1.81-.09-3.61-.09-1.81 0-1.81-.13-3.61-.13-1.81 0-1.81.17-3.61.17-1.81 0-1.81.14-3.61.14s-1.81-.26-3.61-.26-1.81-.01-3.61-.01-1.81.09-3.61.09-1.81-.16-3.61-.16c-1.8 0-1.8.11-3.61.11-1.81 0-1.81-.13-3.61-.13-1.8 0-1.8.33-3.61.33-1.81 0-1.81-.32-3.61-.32h-3.61c-1.81 0-1.81.15-3.61.15s-1.81-.05-3.61-.05-1.81.11-3.61.11-1.81.19-3.61.19c-1.81 0-1.81-.37-3.61-.37s-1.81.25-3.62.25-1.81.13-3.61.13c-1.81 0-1.81-.13-3.61-.13-1.81 0-1.81.05-3.62.05s-1.81.05-3.62.05-1.81-.18-3.62-.18c-1.21 0-2.39.16-3.49.52s-2.21.9-3.15 1.59-1.67 1.64-2.37 2.6c-.69.95-1.27 1.95-1.64 3.08s-.5 2.25-.5 3.46c0 1.8-.04 1.8-.04 3.6s.11 1.8.11 3.6-.14 1.8-.14 3.6-.25 1.8-.25 3.6.14 1.8.14 3.6-.18 1.8-.18 3.61.37 1.8.37 3.6-.3 1.8-.3 3.6.15 1.8.15 3.6.15 1.8.15 3.6.1 1.8.1 3.6-.23 1.8-.23 3.6.2 1.8.2 3.61c0 1.8.05 1.8.05 3.61 0 1.8-.08 1.8-.08 3.6s-.25 1.8-.25 3.6.34 1.8.34 3.6-.01 1.8-.01 3.6-.35 1.8-.35 3.61c0 1.8.25 1.8.25 3.61s-.1 1.8-.1 3.6.02 1.8.02 3.6.11 1.8.11 3.61c0 1.8-.17 1.8-.17 3.61s-.17 1.8-.17 3.61c0 1.8.34 1.8.34 3.61v3.61c0 1.8-.2 1.8-.2 3.61s.19 1.8.19 3.61c0 1.8-.12 1.8-.12 3.61 0 1.8-.15 1.8-.15 3.61s.05 1.8.05 3.61c0 1.8-.1 1.8-.1 3.61s.31 1.8.31 3.61c0 1.8-.2 1.8-.2 3.61s.01 1.8.01 3.61-.02 1.8-.02 3.61-.04 1.8-.04 3.6.22 1.8.22 3.61c0 1.8-.03 1.8-.03 3.6s-.04 1.8-.04 3.61.01 1.8.01 3.61.04 1.8.04 3.61-.15 1.8-.15 3.61c0 1.8.15 1.8.15 3.61s-.08 1.81-.08 3.61-.1 1.81-.1 3.61c0 1.81-.16 1.81-.16 3.61 0 1.81.43 1.81.43 3.61s-.43 1.81-.43 3.61.28 1.81.28 3.61c0 1.81-.17 1.8-.25 3.61-.08 1.81-.03 1.82-.03 3.63zm59.51 22.64c-1.1 1.26-1.5.2-3.18.2s-1.68-.08-3.35-.08-1.68.11-3.35.11-1.68-.11-3.35-.11c-1.68 0-1.68.06-3.36.06s-1.68-.18-3.36-.18-2.11 1.29-3.22.02c-1.26-1.44 0-1.8 0-3.71 0-1.92.07-1.92.07-3.84s-1.64-2.55-.38-4c1.1-1.26 1.85.12 3.53.12s1.68-.2 3.35-.2 1.68.46 3.35.46 1.68-.11 3.35-.11 1.68-.26 3.36-.26 1.68.38 3.36.38 2.39-1.63 3.5-.36c1.26 1.44-.07 2.04-.07 3.96s-.34 1.94 0 3.83c.34 1.92 1.03 2.25-.24 3.7zm132.9 0c-1.1 1.26-1.5.2-3.18.2s-1.68-.08-3.35-.08-1.68.11-3.35.11-1.68-.11-3.35-.11c-1.68 0-1.68.06-3.36.06s-1.68-.18-3.36-.18-2.11 1.29-3.22.02c-1.26-1.44 0-1.8 0-3.71s.07-1.92.07-3.84-1.64-2.55-.38-4c1.1-1.26 1.85.12 3.53.12s1.68-.2 3.35-.2 1.68.46 3.35.46 1.68-.11 3.35-.11 1.68-.26 3.36-.26 1.68.38 3.36.38 2.39-1.63 3.5-.36c1.26 1.44-.07 2.04-.07 3.96s-.34 1.94 0 3.83c.34 1.92 1.03 2.25-.24 3.7zM143 187.13c0-1.41.1-2.76.76-3.9s1.72-2.11 2.9-2.79c1.14-.66 2.45-1.15 3.86-1.15 1.8 0 1.8.11 3.61.11s1.8-.06 3.61-.06 1.8.18 3.61.18 1.8.04 3.6.04 1.8-.05 3.6-.05 1.8.07 3.6.07 1.8-.44 3.6-.44 1.8.2 3.61.2 1.8-.2 3.61-.2 1.81.46 3.61.46 1.8-.11 3.61-.11 1.8-.26 3.61-.26 1.8.38 3.61.38 1.8-.43 3.61-.43 1.8.12 3.61.12h3.61c1.81 0 1.8.14 3.61.14s1.81-.26 3.61-.26 1.8.4 3.61.4 1.8-.43 3.61-.43 1.8.09 3.61.09 1.8.18 3.61.18 1.81.1 3.61.1 1.81.09 3.61.09 1.8-.11 3.61-.11 1.8-.15 3.61-.15h3.61c1.81 0 1.81.21 3.61.21s1.8-.23 3.61-.23 1.8.13 3.61.13 1.81-.33 3.61-.33 1.81.14 3.61.14 1.81.27 3.61.27 1.81-.06 3.61-.06 1.81.12 3.61.12 1.81-.14 3.61-.14h3.61c1.8 0 1.81-.13 3.61-.13s1.81-.09 3.61-.09 1.81.22 3.61.22 1.81-.14 3.61-.14 1.8.29 3.61.29h3.61c1.8 0 1.8-.25 3.61-.25s1.81-.19 3.61-.19 1.81.2 3.61.2 1.81.23 3.61.23 1.81-.02 3.61-.02 1.81-.17 3.61-.17 1.81.1 3.61.1 1.81-.26 3.61-.26 1.81.08 3.62.08h3.61c1.8 0 1.81.22 3.61.22h3.62c1.81 0 1.81-.33 3.62-.33s1.81.37 3.62.37c1.41 0 2.63.36 3.77 1.02s2.46 1.36 3.14 2.54.99 2.58.99 3.99c0 1.8-.19 1.8-.19 3.6s.03 1.8.03 3.6.08 1.8.08 3.6.16 1.8.16 3.6-.4 1.8-.4 3.6.08 1.8.08 3.61c0 1.8.21 1.8.21 3.6s-.36 1.8-.36 3.6.3 1.8.3 3.6.18 1.8.18 3.6-.14 1.8-.14 3.6-.33 1.8-.33 3.6v3.61c0 1.8-.02 1.8-.02 3.61 0 1.8.35 1.8.35 3.6s-.02 1.8-.02 3.6-.05 1.8-.05 3.6-.21 1.8-.21 3.6.32 1.8.32 3.61c0 1.8.04 1.8.04 3.61s-.1 1.8-.1 3.6-.05 1.8-.05 3.6-.23 1.8-.23 3.61c0 1.8-.02 1.8-.02 3.61s.19 1.8.19 3.61v3.61c0 1.81-.03 1.8-.03 3.61s-.07 1.8-.07 3.61c0 1.8.07 1.8.07 3.61s.11 1.8.11 3.61-.28 1.8-.28 3.61c0 1.8.27 1.8.27 3.61 0 1.8-.2 1.8-.2 3.61 0 1.8-.1 1.8-.1 3.61s.43 1.8.43 3.61c0 1.8-.2 1.8-.2 3.61s.25 1.8.25 3.61c0 1.8-.31 1.8-.31 3.6s-.18 1.8-.18 3.61c0 1.8.16 1.8.16 3.6s.15 1.8.15 3.61-.03 1.8-.03 3.61-.14 1.8-.14 3.61-.07 1.8-.07 3.61.27 1.8.27 3.61-.01 1.81-.01 3.61c0 1.81-.23 1.81-.23 3.61s.06 1.81.06 3.61.09 1.81.09 3.61.1 1.81.1 3.61c0 1.81.01 1.81.01 3.61s-.32 1.81-.32 3.62.29 1.81.29 3.62c0 1.41-.33 2.81-1 3.95s-1.8 2.08-2.97 2.76-2.46 1.21-3.87 1.21c-1.78 0-1.78-.38-3.56-.38s-1.78.02-3.57.02c-1.78 0-1.78.13-3.56.13s-1.78.02-3.57.02c-1.78 0-1.78-.1-3.56-.1s-1.78.21-3.57.21c-1.78 0-1.78.16-3.57.16-1.78 0-1.78-.21-3.57-.21-1.78 0-1.78-.14-3.57-.14s-1.78.25-3.57.25c-1.78 0-1.78.07-3.57.07-1.78 0-1.78-.22-3.57-.22-1.79 0-1.79-.09-3.57-.09-1.79 0-1.79.15-3.57.15s-1.82.15-3.65.15-1.82-.43-3.65-.43c-1.82 0-1.82.19-3.65.19s-1.83.12-3.65.12-1.82.14-3.65.14-1.82-.27-3.65-.27-1.83-.1-3.65-.1c-1.82 0-1.82.04-3.65.04-1.83 0-1.83.29-3.65.29-1.83 0-1.83-.19-3.65-.19s-1.83.21-3.65.21-1.83-.37-3.65-.37c-1.83 0-1.83.26-3.65.26-1.83 0-1.83-.21-3.65-.21h-3.65c-1.82 0-1.82.11-3.65.11-1.83 0-1.83.14-3.65.14-1.82 0-1.82-.3-3.65-.3s-1.83.4-3.65.4h-3.65c-1.82 0-1.83-.22-3.65-.22s-1.83.1-3.65.1-1.83.04-3.65.04c-1.83 0-1.83-.3-3.65-.3-1.83 0-1.83.02-3.65.02-1.83 0-1.83.14-3.65.14s-1.83.06-3.65.06c-1.83 0-1.83.1-3.66.1s-1.83-.37-3.66-.37c-1.78 0-1.78.27-3.56.27s-1.78-.28-3.57-.28-1.78.42-3.56.42-1.78-.44-3.57-.44-1.78.45-3.56.45-1.78-.01-3.57-.01c-1.78 0-1.78-.09-3.57-.09-1.78 0-1.78-.3-3.57-.3-1.78 0-1.78.4-3.57.4-1.78 0-1.78-.24-3.57-.24-1.78 0-1.78.13-3.57.13-1.78 0-1.78-.09-3.57-.09s-1.79.22-3.57.22c-1.79 0-1.79-.11-3.57-.11-1.41 0-2.77-.43-3.91-1.09-1.18-.68-2.1-1.74-2.79-2.91-.66-1.14-.91-2.46-.91-3.87 0-1.8-.17-1.8-.17-3.6s-.14-1.8-.14-3.6.26-1.8.26-3.6.01-1.8.01-3.6-.09-1.8-.09-3.6.16-1.8.16-3.61-.11-1.8-.11-3.6.13-1.8.13-3.6-.33-1.8-.33-3.6.32-1.8.32-3.6v-3.6c0-1.8-.15-1.8-.15-3.6s.05-1.8.05-3.61-.11-1.8-.11-3.61-.19-1.8-.19-3.6.37-1.8.37-3.6-.25-1.8-.25-3.6-.13-1.8-.13-3.6.13-1.8.13-3.61-.05-1.8-.05-3.61-.05-1.8-.05-3.6.18-1.8.18-3.6.04-1.8.04-3.61.02-1.8.02-3.61-.16-1.8-.16-3.61.06-1.8.06-3.61-.04-1.8-.04-3.61c0-1.8.04-1.8.04-3.61 0-1.8-.11-1.8-.11-3.61s.14-1.8.14-3.61c0-1.8.25-1.8.25-3.61s-.14-1.8-.14-3.61.18-1.8.18-3.61c0-1.8-.37-1.8-.37-3.61s.3-1.8.3-3.61-.15-1.8-.15-3.61-.15-1.8-.15-3.61-.1-1.8-.1-3.6.23-1.8.23-3.61c0-1.8-.2-1.8-.2-3.6s-.05-1.8-.05-3.61.08-1.8.08-3.61.25-1.8.25-3.61c0-1.8-.34-1.8-.34-3.61s.01-1.8.01-3.61.35-1.81.35-3.61c0-1.81-.25-1.81-.25-3.61 0-1.81.1-1.81.1-3.61 0-1.81-.02-1.81-.02-3.61s-.11-1.81-.11-3.61c0-1.81.17-1.81.17-3.61 0-1.81.09-1.8.17-3.61.08-1.81.07-1.82.07-3.62z"/><path fill="#3c1053" d="M165.73 336.33c1.87 0 1.87.35 3.74.35s2.24-1.25 3.64 0c1.24 1.1-.11 1.55-.11 3.21s.11 1.66.11 3.32-.07 1.66-.07 3.32.28 1.66.28 3.32-.15 1.66-.15 3.33c0 1.66.18 1.66.18 3.33 0 1.18.03 2.32.46 3.35s1.18 1.96 1.98 2.76 1.72 1.48 2.78 1.92 2.15.44 3.32.44c1.79 0 1.79.04 3.58.04s1.79.41 3.59.41 1.79-.23 3.59-.23 1.79.02 3.58.02 1.79.05 3.58.05 1.79-.19 3.58-.19 1.79-.09 3.58-.09 1.79.37 3.59.37 1.79-.31 3.59-.31 1.79.2 3.58.2h3.58c1.79 0 1.79-.06 3.59-.06s1.79.06 3.59.06 1.79-.26 3.59-.26 1.79-.05 3.58-.05 1.79.45 3.59.45 1.79-.34 3.59-.34 1.79-.02 3.59-.02 1.79.17 3.59.17 1.79-.16 3.59-.16 1.79.17 3.59.17 1.79-.18 3.59-.18 1.79.01 3.59.01 1.79.15 3.59.15h3.59c1.8 0 1.79-.13 3.59-.13s1.79-.04 3.58-.04 1.79.31 3.59.31 1.79-.07 3.58-.07 1.79-.32 3.59-.32 1.79.22 3.59.22 1.79.27 3.59.27 1.79-.34 3.59-.34h3.59c1.8 0 1.8.26 3.59.26s1.8-.27 3.59-.27 1.8.12 3.59.12 1.79-.12 3.59-.12 1.79.36 3.59.36 1.8-.21 3.59-.21 1.8-.27 3.6-.27 1.8.15 3.6.15c1.18 0 2.35-.03 3.37-.46s1.97-1.2 2.77-2 1.59-1.7 2.03-2.76.33-2.21.33-3.38c0-1.8.15-1.8.15-3.6s.18-1.8.18-3.6v-3.6c0-1.8-.38-1.8-.38-3.6s.06-1.8.06-3.6.42-1.8.42-3.6-.27-1.8-.27-3.6-.12-1.8-.12-3.6.1-1.8.1-3.6-.1-1.8-.1-3.6.15-1.8.15-3.6-.21-1.8-.21-3.6.17-1.8.17-3.6-.03-1.8-.03-3.6.17-1.8.17-3.6-.23-1.8-.23-3.6.28-1.8.28-3.6-.23-1.8-.23-3.6.31-1.8.31-3.6v-3.6c0-1.8-.1-1.8-.1-3.6s.12-1.8.12-3.6-.42-1.8-.42-3.6.43-1.8.43-3.6-.27-1.8-.27-3.6-.1-1.8-.1-3.6.29-1.8.29-3.6-.37-1.8-.37-3.6.15-1.8.15-3.6.02-1.8.02-3.6.25-1.8.25-3.6v-3.6c0-1.8-.34-1.8-.34-3.6s.08-1.8.08-3.6.12-1.8.12-3.6-.02-1.8-.02-3.6.18-1.8.18-3.6-.19-1.8-.19-3.6-.26-1.8-.26-3.6.2-1.8.2-3.61c0-1.8-.09-1.8-.09-3.61 0-1.18 0-2.35-.43-3.37s-1.29-1.88-2.09-2.68-1.59-1.73-2.65-2.17-2.23-.36-3.4-.36c-1.79 0-1.79-.32-3.58-.32s-1.79.21-3.59.21h-3.59c-1.79 0-1.79-.1-3.58-.1s-1.79.19-3.58.19-1.79-.12-3.58-.12-1.79.14-3.58.14-1.79-.11-3.59-.11-1.79.07-3.59.07c-1.79 0-1.79.04-3.58.04s-1.79-.11-3.58-.11-1.79-.15-3.59-.15c-1.79 0-1.79.3-3.59.3s-1.79-.38-3.59-.38c-1.79 0-1.79.35-3.58.35s-1.79-.24-3.59-.24-1.79.23-3.59.23h-3.59c-1.8 0-1.79-.26-3.59-.26s-1.79.11-3.59.11-1.79-.11-3.59-.11c-1.79 0-1.79.09-3.59.09s-1.79-.15-3.59-.15h-3.59c-1.8 0-1.79.35-3.59.35h-3.59c-1.79 0-1.79-.11-3.58-.11s-1.79-.1-3.59-.1c-1.79 0-1.79-.08-3.58-.08s-1.79-.09-3.59-.09c-1.79 0-1.79.33-3.59.33s-1.79.01-3.59.01-1.79-.16-3.59-.16c-1.79 0-1.79.27-3.59.27-1.8 0-1.8.02-3.59.02-1.8 0-1.8-.1-3.59-.1s-1.8-.28-3.59-.28c-1.79 0-1.79.23-3.59.23-1.79 0-1.79-.31-3.59-.31-1.8 0-1.8.1-3.59.1s-1.8.34-3.6.34-1.8-.32-3.6-.32c-1.18 0-2.3.34-3.32.76s-1.86 1.23-2.66 2.03-1.4 1.68-1.84 2.74c-.43 1.02-.71 2.06-.71 3.24 0 1.66-.04 1.66-.04 3.32s-.01 1.66-.01 3.32.13 1.66.13 3.32-.12 1.66-.12 3.32-.22 1.66-.22 3.33c0 1.66 1.43 2.29.19 3.4-1.4 1.24-1.93-.02-3.8-.02s-1.87.14-3.74.14c-1.25 0-2.38.21-3.47.66-1.13.47-2.1 1.11-2.95 1.96s-1.83 1.68-2.3 2.8-.58 2.36-.58 3.61c0 .29.29.29.29.59 0 1.25-.12 2.5.34 3.59.47 1.13 1.44 1.93 2.29 2.78s1.78 1.52 2.91 1.99 2.21.96 3.46.96c1.87 0 1.87.11 3.74.11s2.51-1.62 3.84-.31c1.31 1.28.07 1.94.07 3.77s-.19 1.83-.19 3.67c0 1.83.25 1.83.25 3.67 0 1.83-.32 1.83-.32 3.67 0 1.83-.02 1.83-.02 3.67 0 1.83.08 1.83.08 3.66s.19 1.83.19 3.67-.15 1.83-.15 3.66.21 1.83.21 3.67-.06 1.83-.06 3.66-.4 1.83-.4 3.67.06 1.83.06 3.67v3.67c0 1.83.08 1.83.08 3.67 0 1.83-.01 1.83-.01 3.67 0 1.83.15 1.83.15 3.67 0 1.83.12 1.83.12 3.67v3.67c0 1.84 1.03 2.24-.28 3.53-1.33 1.31-1.73-.01-3.6-.01h-3.74c-1.25 0-2.43.42-3.52.87s-2.01 1.27-2.86 2.11-1.66 1.73-2.13 2.86c-.45 1.09-.94 2.27-.94 3.52 0 .29.04.29.04.58 0 1.25.24 2.52.69 3.61s1.24 2.17 2.09 3.02 1.91 1.58 3.03 2.05 2.36.63 3.61.63c.11-.02-.02-.32-.02-.32zm10.76-127.43c0-1.42.9-2.63 1.83-3.56.94-.94 2.14-1.45 3.56-1.45 1.79 0 1.79.06 3.58.06s1.79-.11 3.59-.11 1.79.07 3.59.07 1.79-.28 3.58-.28 1.79.15 3.58.15 1.79-.18 3.58-.18 1.79.21 3.58.21 1.79-.11 3.59-.11 1.79.05 3.59.05 1.79-.22 3.58-.22 1.79.04 3.58.04 1.79.41 3.59.41 1.79-.23 3.59-.23 1.79.02 3.59.02 1.79.05 3.58.05 1.79-.19 3.59-.19 1.79-.09 3.59-.09 1.79.37 3.59.37 1.79-.31 3.59-.31 1.79.2 3.59.2h3.59c1.8 0 1.79-.06 3.59-.06s1.79.06 3.59.06 1.79-.26 3.59-.26 1.79-.05 3.59-.05 1.79.45 3.59.45 1.79-.34 3.58-.34 1.79-.02 3.59-.02 1.79.17 3.58.17 1.79-.16 3.59-.16 1.79.17 3.59.17 1.79-.18 3.59-.18 1.79.01 3.59.01 1.79.15 3.59.15h3.59c1.79 0 1.8-.13 3.59-.13s1.8-.04 3.59-.04 1.79.31 3.59.31 1.79-.07 3.59-.07 1.8-.32 3.59-.32 1.8.22 3.6.22 1.8.27 3.6.27c1.42 0 2.78.26 3.72 1.2s1.55 2.29 1.55 3.72c0 1.8-.26 1.8-.26 3.6s.27 1.8.27 3.6-.12 1.8-.12 3.6.12 1.8.12 3.6-.36 1.8-.36 3.6.21 1.8.21 3.6.27 1.8.27 3.6-.15 1.8-.15 3.6-.21 1.8-.21 3.6.12 1.8.12 3.6-.15 1.8-.15 3.6.34 1.8.34 3.6-.15 1.8-.15 3.6-.18 1.8-.18 3.6v3.6c0 1.8.38 1.8.38 3.6s-.06 1.8-.06 3.6-.42 1.8-.42 3.6.27 1.8.27 3.6.12 1.8.12 3.6-.1 1.8-.1 3.6.1 1.8.1 3.6-.15 1.8-.15 3.6.21 1.8.21 3.6-.17 1.8-.17 3.6.03 1.8.03 3.6-.17 1.8-.17 3.6.23 1.8.23 3.6-.28 1.8-.28 3.6.23 1.8.23 3.6-.31 1.8-.31 3.6v3.6c0 1.8.1 1.8.1 3.6s-.12 1.8-.12 3.6.42 1.8.42 3.6-.43 1.8-.43 3.6.27 1.8.27 3.6.1 1.8.1 3.6-.29 1.8-.29 3.6.37 1.8.37 3.61c0 1.8-.15 1.8-.15 3.61 0 1.42-.61 2.74-1.55 3.68s-2.26 1.27-3.68 1.27h-3.58c-1.79 0-1.79.34-3.59.34-1.79 0-1.79-.08-3.59-.08s-1.79-.12-3.58-.12-1.79.02-3.58.02-1.79-.18-3.58-.18-1.79.19-3.58.19-1.79.26-3.59.26c-1.79 0-1.79-.2-3.59-.2-1.79 0-1.79.09-3.58.09s-1.79-.25-3.58-.25-1.79.25-3.59.25-1.79-.33-3.59-.33c-1.79 0-1.79.32-3.59.32-1.79 0-1.79-.32-3.58-.32s-1.79.21-3.59.21h-3.59c-1.8 0-1.79-.1-3.59-.1s-1.79.19-3.59.19-1.79-.12-3.59-.12-1.79.14-3.59.14c-1.79 0-1.79-.11-3.59-.11s-1.79.07-3.59.07-1.79.04-3.59.04-1.79-.11-3.59-.11-1.79-.15-3.59-.15c-1.79 0-1.79.3-3.58.3s-1.79-.38-3.59-.38-1.79.35-3.58.35-1.79-.24-3.59-.24c-1.79 0-1.79.23-3.59.23h-3.59c-1.8 0-1.79-.26-3.59-.26s-1.79.11-3.59.11-1.8-.11-3.59-.11c-1.8 0-1.8.09-3.59.09s-1.8-.15-3.59-.15h-3.59c-1.79 0-1.79.35-3.59.35h-3.59c-1.8 0-1.8-.11-3.6-.11s-1.8-.1-3.6-.1c-1.42 0-2.61-.62-3.55-1.55-.94-.94-1.38-2.12-1.38-3.55 0-1.66-.33-1.66-.33-3.32s-.01-1.66-.01-3.32.16-1.66.16-3.32-.27-1.66-.27-3.32-.02-1.66-.02-3.33-1.08-2.29.14-3.43c1.31-1.22 1.88.24 3.67.24s1.79-.23 3.58-.23c1.25 0 2.53.05 3.61-.41s2.14-1.27 2.99-2.12 1.24-2.04 1.71-3.16 1-2.19 1-3.44c0-.29-.1-.29-.1-.58 0-1.25-.45-2.36-.9-3.44s-1.1-2.07-1.95-2.92-1.77-1.55-2.89-2.02-2.22-.73-3.47-.73c-1.79 0-1.79-.01-3.58-.01s-2.49 1.34-3.74.06.06-1.99.06-3.82.22-1.83.22-3.66-.22-1.83-.22-3.67c0-1.83.04-1.83.04-3.67s-.14-1.83-.14-3.66.03-1.83.03-3.66.01-1.83.01-3.67.36-1.83.36-3.66-.14-1.83-.14-3.67c0-1.83-.29-1.83-.29-3.66s.38-1.83.38-3.67-.36-1.83-.36-3.67.04-1.83.04-3.67.27-1.83.27-3.67.11-1.83.11-3.67-.35-1.83-.35-3.67c0-1.83-.03-1.83-.03-3.67s.19-1.84.19-3.67-1.46-2.52-.18-3.83c1.25-1.28 1.95.25 3.74.25s1.79.02 3.58.02c1.25 0 2.45-.33 3.54-.78 1.13-.47 2.02-1.3 2.86-2.14s1.64-1.75 2.11-2.88.49-2.28.49-3.53c0-.29.06-.29.06-.59 0-1.25.13-2.54-.32-3.62s-1.25-2.18-2.09-3.03-1.92-1.58-3.05-2.05c-1.09-.45-2.35-.64-3.6-.64-1.79 0-1.79-.01-3.58-.01s-2.28 1.36-3.59.14c-1.22-1.13-.12-1.67-.12-3.33v-3.32c0-1.66.34-1.66.34-3.32s-.05-1.66-.05-3.32.07-1.67-.01-3.33-.38-1.66-.38-3.32zm-10.76 35.69c-1.57 0-2.91-.96-3.95-1.99s-1.61-2.37-1.61-3.95c0-.29.06-.29.06-.59 0-1.57.5-2.93 1.53-3.96s2.39-1.58 3.96-1.58 1.53-.28 3.06-.28 1.53.15 3.07.15 1.53-.18 3.07-.18c.01 0 .02.22.04.22.01 0 .02-.12.04-.12 2.22 0 2.22.05 4.44.05s2.22-.22 4.44-.22c1.57 0 3.12.73 4.16 1.76 1.03 1.03 1.31 2.58 1.31 4.16 0 .29.23.29.23.59 0 1.57-.65 2.98-1.68 4.01-1.03 1.03-2.44 1.62-4.01 1.62-1.81 0-1.81.19-3.63.19-1.81 0-1.81.09-3.63.09-1.81 0-1.81-.37-3.63-.37s-1.81.24-3.63.31-1.82.1-3.64.1zm-5.94 82.17c0-1.57.96-2.91 1.99-3.95 1.03-1.03 2.37-1.61 3.95-1.61s1.53.06 3.06.06 1.53-.11 3.07-.11 1.53.07 3.07.07c.01 0 .02-.27.03-.27.01 0 .02.14.03.14 2.22 0 2.22-.18 4.44-.18s2.22.21 4.44.21c1.57 0 3.03.54 4.06 1.57s1.63 2.49 1.63 4.06c0 .29.22.29.22.58 0 1.57-.73 3.12-1.76 4.16s-2.58 1.31-4.16 1.31c-1.81 0-1.81.23-3.63.23-1.81 0-1.81-.02-3.63-.02s-1.81-.05-3.63-.05-1.82.19-3.63.19c-1.82 0-1.82.09-3.63.09-1.57 0-2.87-.96-3.91-1.99-1.03-1.03-1.93-2.32-1.93-3.89-.04-.32-.1-.31-.1-.6z"/><path fill="#3c1053" d="M314.42 308.31c1.54 0 1.54-.2 3.07-.2s1.54.06 3.08.06 1.54.11 3.08.11c.97 0 1.52-.74 1.52-1.71s-.55-1.8-1.52-1.8c-1.87 0-1.87.24-3.73.24s-2.55 1.26-3.88-.05.06-1.99.06-3.83.08-1.84.08-3.68.23-1.84.23-3.68-.4-1.84-.4-3.68.32-1.84.32-3.68-.28-1.84-.28-3.68.33-1.84.33-3.68-.33-1.84-.33-3.68.31-1.84.31-3.68-.1-1.84-.1-3.68-.2-1.84-.2-3.69c0-1.84-1.14-2.33.18-3.63 1.33-1.31 1.81-.09 3.67-.09h3.73c.97 0 1.77-.76 1.77-1.73s-.8-1.66-1.77-1.66c-1.54 0-1.54-.15-3.07-.15s-1.54-.08-3.08-.08-1.54-.1-3.08-.1c-.97 0-1.93 1.02-1.93 1.99 0 1.83.12 1.83.12 3.67 0 1.83.17 1.83.17 3.67 0 1.83.05 1.83.05 3.67s-.2 1.83-.2 3.67-.09 1.83-.09 3.67.36 1.84.36 3.67c0 1.84-.1 1.84-.1 3.67 0 1.84-.39 1.84-.39 3.67s.43 1.83.43 3.67c0 1.83-.25 1.83-.25 3.67 0 1.84.25 1.84.25 3.67 0 1.84-.25 1.84-.25 3.68s.19 1.84.19 3.68c0 .97.66 1.75 1.63 1.75z"/><path fill="#fbb200" d="M296.06 285.15c0-1.23-.14-2.44-.24-3.65-.1-1.23.04-2.48-.15-3.68-.19-1.22-.59-2.39-.87-3.57s-.48-2.42-.85-3.57-.82-2.32-1.28-3.44c-.47-1.13-1.19-2.15-1.75-3.23s-1.09-2.19-1.73-3.23c-.64-1.04-1.12-2.2-1.84-3.19-.72-.99-1.47-1.98-2.26-2.91s-1.8-1.67-2.67-2.54c-.86-.86-1.89-1.54-2.82-2.33s-1.77-1.69-2.76-2.41-1.95-1.48-2.99-2.12-2.13-1.2-3.22-1.75c-1.09-.55-2.21-1.04-3.34-1.51s-2.25-.97-3.41-1.35-2.4-.46-3.6-.75c-1.18-.28-2.32-.79-3.54-.99-1.2-.19-2.43-.29-3.65-.38s-2.44-.24-3.67-.24-2.45.23-3.66.32c-1.23.1-2.46.13-3.66.31s-2.44.34-3.63.62c-1.2.29-2.38.64-3.54 1.02s-2.32.81-3.45 1.28c-1.13.47-2.16 1.18-3.24 1.74s-2.13 1.2-3.17 1.83-2.04 1.33-3.03 2.05c-.99.72-1.98 1.43-2.91 2.22s-2.02 1.43-2.88 2.29-1.43 2.01-2.22 2.94c-.79.93-1.64 1.81-2.36 2.8s-1.37 2.02-2.01 3.06-1.19 2.12-1.75 3.22c-.55 1.09-.98 2.22-1.45 3.35s-1.12 2.18-1.5 3.35-.57 2.37-.85 3.57c-.28 1.18-.52 2.37-.71 3.59-.19 1.2-.39 2.4-.49 3.63s-.29 2.43-.29 3.66.13 2.46.23 3.67.15 2.46.33 3.66c.19 1.22.34 2.45.62 3.63s.98 2.27 1.35 3.43.5 2.43.96 3.55c.47 1.13 1.08 2.21 1.63 3.29s1.25 2.1 1.89 3.14 1.16 2.17 1.87 3.16 1.69 1.78 2.48 2.71 1.38 2.06 2.24 2.92c.86.86 1.93 1.53 2.86 2.32s1.95 1.46 2.94 2.18 1.81 1.69 2.85 2.33 2.15 1.2 3.24 1.76c1.09.55 2.34.75 3.47 1.22s2.17 1.16 3.34 1.54 2.4.49 3.59.77 2.37.54 3.58.73c1.2.19 2.38.64 3.61.74s2.45-.03 3.68-.03 2.46-.03 3.67-.12c1.23-.1 2.45-.22 3.65-.41s2.35-.71 3.54-.99 2.49-.22 3.64-.59 2.3-.89 3.42-1.36 2.19-1.11 3.28-1.66 2.24-1.02 3.28-1.66 2.05-1.36 3.04-2.07 1.84-1.62 2.77-2.41 1.94-1.51 2.8-2.37 1.48-1.96 2.28-2.88c.79-.93 1.86-1.65 2.58-2.64s1.3-2.08 1.94-3.13 1.14-2.16 1.7-3.25c.55-1.09.97-2.23 1.43-3.37s.94-2.24 1.32-3.41c.38-1.16.81-2.3 1.1-3.5s.66-2.36.85-3.58.21-2.44.3-3.67c.09-1.21.06-2.43.06-3.67z"/><path fill="none" stroke="#fff" stroke-linecap="round" stroke-linejoin="round" stroke-width="3" d="M232.05 302.28c-.9-.9-1.62-1.93-2.37-2.95-.74-1.02-1.41-2.07-1.99-3.21-.57-1.12-1.42-2.15-1.82-3.37s-.68-2.47-.88-3.73-.01-2.54-.01-3.83c0-1.17.24-2.29.4-3.42s-.03-2.38.29-3.47.79-2.21 1.26-3.25 1.02-2.11 1.64-3.08 1.53-1.75 2.29-2.62 1.4-1.88 2.27-2.63c.87-.75 1.89-1.36 2.86-1.99.97-.62 1.96-1.25 3.01-1.73s2.25-.53 3.37-.86 2.18-.66 3.34-.82 2.26-.56 3.43-.56 2.35.07 3.48.23 2.2.82 3.29 1.14 2.25.56 3.29 1.04 2.01 1.13 2.97 1.75 2.05 1.12 2.92 1.87c.87.76 1.48 1.78 2.24 2.65.75.87 1.75 1.57 2.38 2.54s1.08 2.06 1.56 3.11 1.01 2.1 1.34 3.22.15 2.32.32 3.47.58 2.25.58 3.42-.29 2.31-.45 3.44-.43 2.27-.75 3.36-.59 2.25-1.06 3.29-1.04 2.07-1.66 3.04-1.41 1.83-2.16 2.7-1.48 1.79-2.35 2.54-1.92 1.27-2.89 1.9-1.82 1.48-2.87 1.97-2.18.8-3.3 1.12-2.23.62-3.39.78-2.3.21-3.47.21c-1.24 0-2.48-.13-3.67-.31s-2.43-.45-3.59-.82-2.21-1.07-3.3-1.6-2.16-1.11-3.16-1.81M249.15 239.14c0 2.54-.02 2.54-.02 5.08M249.2 326.76c0 2.54-.33 2.54-.33 5.08M207.84 285.43c-2.54 0-2.54-.33-5.08-.33M273.23 324.95c-1.35-2.16-1.17-2.27-2.51-4.42M289.29 308.38c-2.2-1.27-2.26-1.17-4.47-2.44M269.8 249.63c1.35-2.16 1.36-2.15 2.7-4.31M283.84 263.59c2.2-1.27 2.34-1.03 4.54-2.3M226.93 250.94c-1.35-2.16-1.32-2.17-2.67-4.33M213.53 264.53c-2.2-1.27-2.3-1.1-4.5-2.37M213.12 304.32c-2.2 1.27-2.02 1.59-4.22 2.86M226.37 319.23c-1.35 2.16-1.37 2.14-2.71 4.3M295.53 285.59c-2.54 0-2.54-.03-5.08-.03"/><path fill="#3c1053" d="M185.43 247.68c-1.67 0-1.67.02-3.34.02s-1.67-.35-3.34-.35-1.67.3-3.34.3-1.67-.12-3.35-.12-1.68-.04-3.35-.04-1.68-.15-3.35-.15c-1.17 0-2.34.04-3.36-.38-1.06-.44-1.98-1.18-2.78-1.97-.8-.8-1.53-1.73-1.97-2.78s-.44-2.19-.44-3.36c0-.56-.16-.56-.16-1.12 0-1.17.44-2.23.86-3.25s.77-2.23 1.57-3.03 1.91-1.28 2.97-1.72 2.14-.75 3.31-.75c1.67 0 1.67.17 3.34.17s1.67.04 3.34.04 1.67-.2 3.34-.2 1.67.05 3.35.05 1.68.23 3.35.23 1.68-.37 3.35-.37c1.17 0 2.23.55 3.25.97s2.15.85 2.95 1.64c.8.8 1.56 1.75 2 2.8s.46 2.23.46 3.4v1.12c0 1.17-.48 2.19-.91 3.21s-1.01 1.94-1.81 2.73-1.54 1.71-2.59 2.14-2.18.75-3.35.75zM185.76 335.88c-1.67 0-1.67-.12-3.34-.12s-1.67.31-3.34.31-1.67-.22-3.34-.22-1.67-.06-3.35-.06-1.68-.05-3.35-.05-1.68.09-3.35.09c-1.17 0-2.22-.27-3.24-.69s-1.96-1.04-2.75-1.83-1.73-1.56-2.16-2.62-.26-2.21-.26-3.38c0-.56-.2-.56-.2-1.12 0-1.17 0-2.38.42-3.4s1.26-1.95 2.06-2.75 1.78-1.41 2.83-1.84c1.02-.42 2.14-.73 3.31-.73 1.67 0 1.67-.11 3.34-.11s1.67.24 3.34.24 1.67-.09 3.34-.09 1.67-.04 3.35-.04 1.68.31 3.35.31 1.68-.17 3.35-.17c1.17 0 2.21.38 3.22.8s2.02.95 2.82 1.74c.8.8 1.66 1.62 2.09 2.67s.64 2.2.64 3.37c0 .56.11.56.11 1.12 0 1.17-.65 2.22-1.07 3.23s-.76 2.22-1.56 3.02c-.8.8-1.85 1.39-2.9 1.82s-2.17.49-3.34.49zM200.6 402.66c-1.17 1.27-1.83.03-3.55.03s-1.72.05-3.45.05-1.72-.09-3.44-.09-1.72-.02-3.45-.02-1.72.06-3.45.06c-1.72 0-1.72-.13-3.45-.13s-1.73-.04-3.45-.04c-1.73 0-2.17 1.22-3.34-.05-1.27-1.37-.32-1.77-.32-3.64s.26-1.87.26-3.74v-3.74c0-1.87-1.48-2.51-.21-3.89 1.17-1.27 1.88-.05 3.6-.05s1.72.43 3.45.43h3.44c1.72 0 1.72-.44 3.45-.44s1.72-.02 3.45-.02h3.45c1.73 0 1.73.39 3.45.39s2.38-1.53 3.55-.26c1.27 1.37-.1 1.96-.1 3.83s-.09 1.87-.09 3.74-.44 1.94-.04 3.77c.44 2 1.5 2.44.23 3.82zM333.89 402.63c-1.17 1.27-1.79.12-3.52.12-1.72 0-1.72-.37-3.45-.37-1.72 0-1.72.26-3.44.26s-1.72-.23-3.45-.23-1.72.02-3.45.02-1.72.16-3.45.16-1.73-.02-3.45-.02c-1.73 0-2.4 1.36-3.57.1-1.27-1.37.16-1.98.16-3.85s-.12-1.87-.12-3.74.31-1.87.31-3.74-1.34-2.23-.07-3.6c1.17-1.27 1.57-.08 3.29-.08s1.72.18 3.45.18 1.72-.06 3.44-.06 1.72-.28 3.45-.28 1.72.17 3.45.17 1.72-.16 3.45-.16 1.73.12 3.45.12 2.23-1.26 3.4 0c1.27 1.37.21 1.82.21 3.69 0 1.87-.29 1.87-.29 3.74s-.16 1.89.24 3.72c.43 1.98 1.23 2.46-.04 3.83z"/></svg>
