<svg role="presentation" xmlns="http://www.w3.org/2000/svg" xmlns:xlink="http://www.w3.org/1999/xlink" viewBox="0 0 500 500"><defs><linearGradient id="uuid-fbd9097d-cd1b-42c6-8b97-c27bc537c060" x1="253.02" y1="-37.13" x2="253.02" y2="478.04" gradientUnits="userSpaceOnUse"><stop offset="0" stop-color="#fbb200"></stop><stop offset=".06" stop-color="#fbb200" stop-opacity=".92"></stop><stop offset=".33" stop-color="#fbb200" stop-opacity=".6"></stop><stop offset=".56" stop-color="#fbb200" stop-opacity=".34"></stop><stop offset=".76" stop-color="#fbb200" stop-opacity=".16"></stop><stop offset=".91" stop-color="#fbb200" stop-opacity=".04"></stop><stop offset="1" stop-color="#fbb200" stop-opacity="0"></stop></linearGradient></defs><g id="uuid-03ca68d3-cb08-461f-a571-401023d04265"><path d="m424.78,438.53c-2.51,0-2.51.29-5.03.29-2.51,0-2.51-.25-5.03-.25s-2.51-.09-5.03-.09-2.51-.1-5.03-.1c-2.51,0-2.51.08-5.03.08-2.51,0-2.51.5-5.03.5-2.51,0-2.51-.43-5.03-.43-2.51,0-2.51.05-5.03.05s-2.51.19-5.03.19c-2.51,0-2.51.14-5.03.14-2.51,0-2.51.04-5.03.04s-2.51-.16-5.03-.16c-2.51,0-2.51.05-5.03.05-2.51,0-2.51-.49-5.03-.49-2.51,0-2.51.42-5.03.42-2.51,0-2.51-.42-5.03-.42-2.51,0-2.51.16-5.03.16-2.51,0-2.51.35-5.03.35-2.51,0-2.51-.47-5.03-.47s-2.51-.03-5.03-.03c-2.51,0-2.51.26-5.03.26-2.51,0-2.51.32-5.03.32-2.51,0-2.51-.62-5.03-.62s-2.51.14-5.03.14-2.51-.15-5.03-.15-2.51.29-5.03.29-2.52.03-5.03.03c-2.51,0-2.51.01-5.03.01-2.51,0-2.51-.25-5.03-.25-2.51,0-2.51.5-5.03.5s-2.51-.26-5.03-.26c-2.51,0-2.51.08-5.03.08-2.51,0-2.51-.36-5.02-.36-2.51,0-2.51.46-5.02.46-2.51,0-2.51-.42-5.03-.42-2.51,0-2.51.45-5.03.45-2.51,0-2.51-.2-5.03-.2-2.51,0-2.51.13-5.03.13-2.51,0-2.51-.04-5.03-.04q-2.51,0-5.03,0c-2.52,0-2.52.12-5.03.12-2.51,0-2.51-.24-5.03-.24s-2.51-.07-5.03-.07-2.51.2-5.03.2c-2.52,0-2.52-.32-5.03-.32s-2.51.16-5.03.16c-2.51,0-2.51.17-5.03.17-2.52,0-2.52-.32-5.03-.32-2.51,0-2.51.36-5.03.36-2.52,0-2.52.02-5.03.02s-2.51-.47-5.03-.47c-2.52,0-2.52.41-5.03.41-2.52,0-2.52-.33-5.03-.33-2.52,0-2.52.48-5.03.48-2.52,0-2.52-.13-5.03-.13s-2.52.19-5.03.19c-2.52,0-2.52-.63-5.03-.63-2.52,0-2.52.33-5.03.33-2.51,0-2.51.17-5.03.17-2.52,0-2.52.06-5.03.06s-2.51-.43-5.03-.43-2.52.34-5.03.34c-2.52,0-2.52.17-5.03.17s-2.52-.66-5.03-.66-2.52.08-5.03.08c-2.52,0-2.52.14-5.04.14q-2.52,0-5.03,0c-2.52,0-2.52.38-5.04.38s-2.52-.33-5.04-.33-2.52-.12-5.04-.12c-1.35,0-2.43-.93-2.43-2.28s1.08-2.61,2.43-2.61c2.51,0,2.51.41,5.03.41s2.51-.58,5.03-.58,2.51.59,5.03.59,2.51-.54,5.03-.54,2.51.07,5.03.07,2.51.07,5.03.07,2.51.2,5.03.2,2.51-.13,5.03-.13,2.51-.08,5.03-.08,2.51.09,5.03.09,2.51.34,5.03.34,2.51-.61,5.03-.61,2.51.46,5.03.46,2.51.02,5.03.02,2.51.19,5.03.19,2.51-.13,5.03-.13,2.51-.52,5.03-.52,2.51.29,5.03.29,2.51.28,5.03.28,2.51-.04,5.03-.04,2.51-.31,5.03-.31,2.51-.1,5.03-.1,2.51.31,5.03.31,2.51-.13,5.03-.13,2.51.12,5.03.12,2.51-.3,5.03-.3,2.52.25,5.03.25,2.51.01,5.03.01,2.51.04,5.03.04,2.51-.35,5.03-.35,2.51.38,5.03.38,2.51.18,5.03.18,2.51.02,5.02.02,2.51-.68,5.02-.68,2.51.68,5.03.68,2.51-.33,5.03-.33,2.51-.35,5.03-.35,2.51.2,5.03.2,2.51.03,5.03.03,2.51.3,5.03.3,2.52-.37,5.03-.37,2.51.45,5.03.45,2.51-.24,5.03-.24,2.51.07,5.03.07,2.52-.11,5.03-.11,2.51-.22,5.03-.22,2.51.31,5.03.31,2.52-.41,5.03-.41,2.51.22,5.03.22,2.52-.12,5.03-.12,2.51.15,5.03.15,2.52.08,5.03.08,2.52-.1,5.03-.1,2.52-.22,5.03-.22,2.52.04,5.03.04,2.52.35,5.03.35,2.52-.03,5.03-.03,2.52.1,5.03.1,2.51-.15,5.03-.15,2.52.2,5.03.2,2.51-.15,5.03-.15,2.52-.25,5.03-.25,2.52.17,5.03.17,2.52.13,5.03.13,2.52.18,5.03.18,2.52-.49,5.04-.49,2.52.26,5.03.26,2.52,0,5.04,0,2.52.29,5.04.29,2.52-.32,5.04-.32c1.35,0,2.31,1.09,2.31,2.44s-.96,2.35-2.31,2.35Z" fill="#3c1053"></path><path d="m446.85,438.58c-2.74,0-2.74.16-5.48.16-2.74,0-2.74.23-5.48.23-1.35,0-2.65-1.44-2.65-2.79s1.3-2.38,2.65-2.38c2.74,0,2.74-.13,5.48-.13s2.74.16,5.48.16c1.35,0,2.64,1,2.64,2.35s-1.29,2.4-2.64,2.4Z" fill="#3c1053"></path></g><g id="uuid-ed7673dc-7751-494c-9558-776993cdac94"><path d="m128.55,438.19c2.51.39,2.53-.02,5.07-.02s2.54.33,5.09.33,2.54.06,5.08.06,2.54-.53,5.08-.53,2.54.39,5.08.39,2.54-.31,5.09-.31,2.54.48,5.08.48,2.54-.39,5.08-.39,2.54.27,5.08.27,2.54-.35,5.08-.35,2.54.01,5.08.01,2.54.07,5.08.07,2.54-.22,5.08-.22,2.54.43,5.08.43,2.54-.23,5.08-.23,2.54.43,5.08.43,2.54-.5,5.08-.5,2.54.47,5.08.47,2.54-.56,5.08-.56,2.54-.04,5.09-.04,2.54.11,5.08.11,2.54-.15,5.08-.15,2.54.25,5.08.25,2.54.08,5.09.08,2.54,0,5.08,0,2.54.27,5.08.27,2.54-.56,5.09-.56,2.54.57,5.08.57,2.54-.34,5.09-.34,2.54-.26,5.09-.26,2.54.05,5.09.05,2.54.08,5.09.08,2.54-.06,5.09-.06,2.54.23,5.09.23,2.54-.07,5.09-.07,2.54.44,5.09.44,2.54-.45,5.09-.45,2.54.36,5.08.36,2.54-.4,5.09-.4,2.54.05,5.08.05,2.54-.01,5.09-.01,2.54-.17,5.09-.17,2.54.08,5.09.08,2.54.2,5.09.2,2.55,0,5.09,0,2.54.24,5.09.24,2.55.14,5.09.14,2.55-.61,5.1-.61,2.61.86,5.13.47c1.36-1,2.57-2.34,3.9-3.38,1.33-1.03,2.95-1.71,4.26-2.77,1.31-1.06,2.18-2.65,3.46-3.74,1.28-1.09,2.86-1.85,4.11-2.97,1.25-1.12,2.33-2.44,3.56-3.59,1.23-1.15,2.28-2.48,3.48-3.66,1.2-1.18,2.76-2,3.93-3.21,1.17-1.21,2.03-2.72,3.17-3.96,1.14-1.24,2.37-2.39,3.48-3.66s2.21-2.54,3.3-3.83,2-2.71,3.05-4.03c1.05-1.32,2.19-2.56,3.21-3.9s2.19-2.57,3.17-3.94,1.63-2.97,2.58-4.36,1.97-2.73,2.89-4.14c.92-1.41,2.11-2.65,3-4.08.88-1.43,1.41-3.08,2.26-4.53.85-1.45,1.8-2.85,2.61-4.32.81-1.47,1.62-2.95,2.4-4.44s1.69-2.92,2.44-4.43,1.17-3.17,1.88-4.7,1.82-2.87,2.49-4.42,1.21-3.15,1.85-4.71c.63-1.56.99-3.22,1.59-4.8s1.07-3.19,1.63-4.78,1.44-3.06,1.96-4.67.79-3.28,1.27-4.9c.48-1.61.94-3.23,1.38-4.86.44-1.62,1.34-3.13,1.74-4.77.4-1.63.16-3.42.52-5.07s.76-3.27,1.08-4.93c.32-1.65,1.15-3.21,1.43-4.88s.01-3.4.26-5.08.92-3.27,1.12-4.95.3-3.36.46-5.04-.11-3.39,0-5.07.47-3.34.55-5.03.26-3.36.3-5.05-.2-3.37-.2-5.06-.2-3.34-.24-5c-.04-1.67.48-3.36.41-5.02-.08-1.67-.09-3.35-.21-5.01-.12-1.67-.64-3.3-.8-4.96-.16-1.67-.48-3.31-.67-4.96s-.49-3.3-.72-4.95c-.24-1.66-.47-3.3-.75-4.94-.28-1.65-.66-3.27-.97-4.91-.31-1.64-.66-3.27-1.01-4.9s-.57-3.29-.96-4.91c-.39-1.62-.52-3.31-.95-4.92-.43-1.61-.8-3.25-1.27-4.85-.47-1.6-.86-3.24-1.37-4.82-.51-1.59-1.24-3.11-1.78-4.69-.55-1.58-1.31-3.08-1.89-4.64s-1.37-3.04-1.99-4.59-1.14-3.14-1.79-4.67c-.66-1.54-.84-3.28-1.54-4.8-.69-1.52-1.65-2.92-2.38-4.42-.73-1.5-1.64-2.91-2.41-4.39-.77-1.48-1.67-2.89-2.47-4.35-.8-1.47-1.13-3.2-1.96-4.64s-1.68-2.9-2.55-4.32-1.88-2.77-2.79-4.17-1.75-2.85-2.69-4.23c-.94-1.38-2.21-2.54-3.17-3.89s-1.73-2.88-2.73-4.21-2.18-2.54-3.21-3.85c-1.03-1.31-2.28-2.45-3.34-3.73-1.06-1.29-2.12-2.57-3.22-3.83-1.09-1.26-2.22-2.48-3.35-3.72-1.12-1.23-2.11-2.59-3.26-3.8-1.15-1.21-2.23-2.49-3.41-3.67-1.18-1.18-2.23-2.5-3.44-3.65-1.21-1.15-2.58-2.13-3.81-3.26s-2.47-2.25-3.73-3.34-2.66-2.03-3.94-3.09-2.34-2.42-3.65-3.45-2.91-1.7-4.24-2.7c-1.33-1-2.62-2.06-3.98-3.03s-2.63-2.07-4.01-3.01-2.68-2.01-4.08-2.91c-1.4-.9-2.95-1.59-4.37-2.46-1.42-.87-2.94-1.58-4.38-2.42s-3.01-1.45-4.47-2.25c-1.46-.8-2.87-1.7-4.35-2.47s-2.85-1.76-4.35-2.49c-1.5-.73-3.06-1.32-4.58-2.02s-2.98-1.52-4.51-2.17-3.18-1.03-4.74-1.65-3.01-1.46-4.58-2.04-3.1-1.24-4.68-1.78-3.13-1.17-4.72-1.68c-1.59-.51-3.21-.92-4.82-1.39-1.6-.47-3.34-.44-4.95-.87s-3.12-1.26-4.74-1.65-3.26-.72-4.89-1.07c-1.63-.35-3.3-.5-4.94-.82s-3.3-.47-4.95-.74c-1.64-.27-3.29-.49-4.95-.72s-3.28-.61-4.94-.81c-1.65-.2-3.31-.33-4.98-.48s-3.28-.79-4.95-.9c-1.66-.12-3.35.21-5.03.13s-3.32-.56-4.99-.6c-1.66-.04-3.34.11-5.01.11s-3.34.37-5,.41-3.36-.37-5.02-.29c-1.67.08-3.35.14-5.01.26-1.67.12-3.31.52-4.97.67s-3.29.65-4.94.85c-1.66.2-3.4-.2-5.04.04s-3.29.63-4.93.91-3.33.42-4.96.73-3.22.94-4.85,1.29c-1.63.35-3.25.76-4.87,1.15-1.62.39-3.24.82-4.85,1.25s-3.29.64-4.89,1.11-3.05,1.44-4.64,1.94-3.26.79-4.83,1.33-3.12,1.19-4.68,1.77c-1.57.58-3.25.85-4.8,1.47-1.55.62-2.92,1.69-4.45,2.34s-3.23.95-4.75,1.65c-1.52.69-2.84,1.81-4.34,2.54s-3.08,1.3-4.56,2.07-2.9,1.66-4.36,2.46-2.94,1.58-4.38,2.42-2.88,1.69-4.3,2.56-2.77,1.86-4.17,2.76c-1.4.9-2.93,1.62-4.31,2.56s-2.79,1.83-4.15,2.8-2.59,2.11-3.92,3.12c-1.34,1-2.85,1.77-4.16,2.8s-2.51,2.21-3.8,3.27-2.45,2.27-3.71,3.36-2.72,1.97-3.95,3.09-2.21,2.52-3.42,3.67-2.38,2.33-3.56,3.51-2.68,2.04-3.84,3.25-1.99,2.71-3.12,3.94c-1.12,1.23-2.48,2.26-3.57,3.52s-1.8,2.85-2.87,4.13-2.21,2.5-3.25,3.81c-1.03,1.31-1.9,2.74-2.9,4.08-1,1.33-2.5,2.31-3.47,3.67s-1.65,2.92-2.59,4.3c-.94,1.38-1.71,2.87-2.61,4.27s-1.74,2.84-2.61,4.27-2.09,2.64-2.93,4.08-1.36,3.06-2.16,4.53-1.43,3.01-2.2,4.49-2.11,2.68-2.84,4.18c-.73,1.5-1.37,3.05-2.07,4.57-.69,1.52-1.24,3.1-1.9,4.64s-1.3,3.08-1.92,4.63-.86,3.24-1.45,4.81c-.58,1.56-1.46,3.02-2,4.6s-1.18,3.12-1.69,4.72c-.51,1.59-.85,3.23-1.32,4.83-.47,1.6-.75,3.25-1.18,4.87s-1.24,3.13-1.64,4.75-.19,3.38-.55,5.01-1.27,3.14-1.58,4.79-.07,3.37-.35,5.02c-.27,1.64-.6,3.28-.83,4.93-.23,1.65-.52,3.29-.72,4.95s-.57,3.29-.73,4.96-.17,3.33-.29,5c-.12,1.66-.13,3.33-.21,5s-.22,3.33-.26,5-.4,3.33-.4,5.01.63,3.37.67,5.05-.36,3.39-.28,5.07c.08,1.69.16,3.37.28,5.05.12,1.68.07,3.38.23,5.06s.47,3.35.67,5.02c.2,1.68.94,3.28,1.18,4.94.24,1.67.21,3.38.49,5.03.28,1.66.31,3.37.63,5.02s.7,3.3,1.06,4.95,1.05,3.22,1.45,4.85c.4,1.64.92,3.24,1.36,4.86.44,1.63.6,3.33,1.07,4.95s1.11,3.19,1.62,4.79.94,3.24,1.49,4.83,1.41,3.07,2,4.65c.59,1.58.98,3.24,1.61,4.8.63,1.56,1.27,3.12,1.94,4.67s1.32,3.1,2.03,4.63,1.74,2.9,2.49,4.41c.74,1.51,1.16,3.19,1.94,4.68.78,1.49,1.43,3.07,2.24,4.54s1.64,2.96,2.49,4.41,2.3,2.55,3.19,3.98c.89,1.43,1.22,3.22,2.13,4.63.92,1.41,2.14,2.63,3.09,4.02.95,1.39,2.21,2.56,3.19,3.93.99,1.37,1.82,2.84,2.84,4.18s2.03,2.69,3.08,4,1.88,2.81,2.97,4.1,2.46,2.33,3.57,3.59,1.91,2.82,3.05,4.05,2.47,2.3,3.64,3.51c1.17,1.21,2.31,2.46,3.51,3.64s2.49,2.27,3.72,3.42c1.23,1.15,2.61,2.13,3.87,3.25s2.32,2.46,3.6,3.56c1.28,1.09,2.84,1.85,4.14,2.92s2.49,2.28,3.82,3.31c1.33,1.03,2.62,2.04,3.98,3.04Z" fill="url(#uuid-fbd9097d-cd1b-42c6-8b97-c27bc537c060)"></path><path d="m420.16,268.81c0-1.69-.03-3.37-.08-5.05s.03-3.37-.07-5.05c-.1-1.69.07-3.39-.08-5.06-.15-1.68-.25-3.37-.45-5.04s-.32-3.37-.57-5.03-.74-3.3-1.04-4.96-.84-3.27-1.19-4.92-.93-3.24-1.33-4.88c-.4-1.64-.7-3.3-1.15-4.92-.45-1.63-.41-3.4-.91-5s-1.28-3.14-1.83-4.73c-.55-1.6-1.3-3.12-1.89-4.69-.6-1.58-1.34-3.09-1.99-4.65s-.8-3.33-1.49-4.87-1.4-3.08-2.14-4.59c-.74-1.52-1.63-2.96-2.42-4.45s-1.52-3.02-2.34-4.49-2.01-2.73-2.89-4.17-1.53-3.02-2.44-4.44c-.92-1.42-2.02-2.71-2.98-4.09s-2.15-2.61-3.15-3.96c-1-1.36-2-2.71-3.04-4.03s-2.12-2.61-3.2-3.9-2.02-2.7-3.14-3.96-2.16-2.59-3.31-3.82-2.18-2.59-3.37-3.78-2.56-2.21-3.78-3.37c-1.23-1.16-2.46-2.31-3.72-3.43-1.26-1.12-2.66-2.07-3.96-3.15s-2.36-2.45-3.68-3.49-2.94-1.71-4.3-2.71-2.67-2.05-4.06-3.01-2.69-2.04-4.1-2.96c-1.41-.92-2.75-1.97-4.19-2.84s-3.02-1.52-4.49-2.35-3.02-1.49-4.51-2.28-3.09-1.33-4.61-2.07-2.97-1.58-4.51-2.27c-1.53-.69-2.97-1.61-4.53-2.26-1.55-.64-3.17-1.14-4.75-1.74s-3.1-1.32-4.7-1.87-3.28-.8-4.89-1.3-3.15-1.22-4.78-1.67-3.23-.97-4.87-1.37-3.26-.88-4.91-1.23-3.32-.6-4.98-.9c-1.65-.3-3.4-.09-5.07-.34-1.66-.25-3.27-.9-4.95-1.1-1.67-.2-3.35-.33-5.04-.48s-3.37-.09-5.06-.19c-1.68-.1-3.36-.03-5.05-.08s-3.36-.03-5.05-.03-3.37-.14-5.05-.09c-1.69.05-3.37.17-5.04.27s-3.41-.27-5.08-.12-3.32.75-4.99.95-3.41.01-5.07.26c-1.67.25-3.31.69-4.97.99-1.66.3-3.25.97-4.89,1.32s-3.4.27-5.03.67-3.29.8-4.91,1.25-3.17,1.18-4.78,1.68-3.11,1.33-4.7,1.88-3.39.54-4.97,1.14-3.1,1.36-4.65,2c-1.56.65-3.17,1.18-4.71,1.87s-2.95,1.68-4.46,2.42-3.01,1.53-4.5,2.32c-1.49.79-2.97,1.61-4.43,2.43s-3.05,1.47-4.49,2.34-2.6,2.19-4.02,3.11c-1.42.92-2.96,1.63-4.34,2.59s-2.71,2-4.07,3c-1.36,1-2.92,1.74-4.24,2.78s-2.35,2.46-3.64,3.54-2.84,1.86-4.1,2.98c-1.26,1.12-2.21,2.58-3.43,3.74s-2.57,2.19-3.76,3.38c-1.19,1.19-2.27,2.49-3.43,3.71s-2.32,2.44-3.44,3.7-2.21,2.54-3.29,3.83-2.04,2.68-3.08,4-2.25,2.52-3.25,3.88c-1,1.36-2.04,2.69-3,4.08s-1.73,2.9-2.65,4.31-2.08,2.67-2.96,4.12c-.87,1.44-1.59,2.98-2.42,4.45s-1.49,3.03-2.27,4.52-1.83,2.85-2.57,4.37c-.74,1.51-1.13,3.19-1.83,4.73-.69,1.53-1.34,3.09-1.98,4.64-.64,1.55-1.71,2.95-2.3,4.53s-.79,3.3-1.34,4.89c-.55,1.59-1.39,3.09-1.89,4.7s-.51,3.36-.97,4.98-1.01,3.21-1.41,4.85-.6,3.31-.95,4.96-1.3,3.17-1.6,4.84c-.3,1.65-.25,3.38-.5,5.05s-.3,3.35-.51,5.03c-.2,1.67-.32,3.34-.47,5.03s-.71,3.32-.81,5.01c-.1,1.68.17,3.38.11,5.07s.09,3.36.09,5.05-.64,3.39-.59,5.07.2,3.38.3,5.06c.1,1.69.37,3.36.52,5.04s.33,3.36.53,5.03c.2,1.68.81,3.29,1.06,4.96.25,1.67.2,3.38.5,5.04.3,1.66.52,3.34.87,4.99s.88,3.26,1.28,4.9,1,3.22,1.45,4.84c.45,1.63.53,3.36,1.03,4.97s1.58,3.03,2.13,4.62.57,3.38,1.16,4.96c.6,1.58,1.72,2.94,2.37,4.5.65,1.56,1.25,3.13,1.94,4.66.69,1.54,1.34,3.09,2.08,4.6s1.32,3.11,2.11,4.6c.79,1.49,1.7,2.91,2.53,4.38.83,1.47,1.75,2.88,2.62,4.32s1.69,2.92,2.61,4.33c.92,1.42,1.57,3.01,2.53,4.39.96,1.39,2.43,2.4,3.43,3.76,1,1.36,1.65,2.98,2.69,4.3s2.09,2.65,3.17,3.95,2.04,2.7,3.16,3.96c1.12,1.26,2.36,2.42,3.51,3.65s2.7,2.07,3.9,3.26,2.19,2.57,3.42,3.73c1.23,1.16,2.29,2.5,3.55,3.62s2.57,2.19,3.87,3.27,2.8,1.9,4.13,2.94c1.33,1.04,2.73,1.97,4.08,2.97s2.54,2.23,3.93,3.19,2.86,1.78,4.28,2.7c1.41.92,2.78,1.92,4.22,2.79s3.04,1.47,4.51,2.3,2.82,1.85,4.32,2.64,2.99,1.56,4.51,2.3c1.51.74,3.02,1.49,4.56,2.19,1.53.69,3.22,1.04,4.78,1.69,1.55.64,2.98,1.62,4.56,2.22s3.11,1.34,4.7,1.89,3.2,1.1,4.81,1.6,3.42.32,5.04.77c1.62.45,3.08,1.53,4.72,1.94s3.36.45,5.01.81c1.64.35,3.36.33,5.02.64,1.65.3,3.28.78,4.95,1.03,1.66.25,3.32.5,5,.71,1.67.2,3.32.68,5,.83s3.38-.1,5.07,0c1.68.1,3.34.62,5.03.67s3.37-.16,5.06-.16,3.38.05,5.06,0c1.69-.05,3.37-.24,5.05-.34,1.69-.1,3.35-.44,5.02-.59s3.39-.02,5.06-.22c1.68-.2,3.29-.84,4.95-1.09s3.36-.31,5.02-.61,3.29-.74,4.93-1.09c1.65-.35,3.32-.58,4.96-.98s3.29-.76,4.91-1.21c1.63-.45,3.21-1.02,4.82-1.52s3.14-1.23,4.73-1.78,3.19-1.08,4.76-1.68c1.58-.6,3.27-.89,4.83-1.54s3.1-1.34,4.63-2.03,3.11-1.32,4.62-2.06,2.95-1.64,4.44-2.42,3.07-1.42,4.54-2.25c1.47-.83,2.85-1.82,4.29-2.69s2.73-1.98,4.15-2.9,2.91-1.71,4.29-2.67c1.39-.96,2.84-1.83,4.19-2.83,1.36-1,2.81-1.88,4.14-2.92,1.33-1.04,2.33-2.48,3.62-3.56s2.74-1.98,4-3.1c1.26-1.12,2.5-2.26,3.73-3.42s2.64-2.12,3.84-3.31c1.19-1.19,2.14-2.63,3.29-3.86s2.39-2.38,3.51-3.65c1.12-1.26,2.01-2.71,3.09-4.01s2.07-2.65,3.12-3.98,2.5-2.33,3.5-3.69,1.93-2.78,2.89-4.16c.96-1.39,1.83-2.84,2.75-4.25.92-1.41,1.7-2.92,2.57-4.36.87-1.44,1.66-2.93,2.49-4.4s1.74-2.89,2.52-4.38,1.24-3.14,1.98-4.66,1.62-2.95,2.32-4.49,1.34-3.09,1.98-4.65,1.07-3.19,1.67-4.77,1.26-3.12,1.81-4.72,1.31-3.11,1.81-4.72c.5-1.61,1.01-3.21,1.47-4.84.45-1.62,1.09-3.2,1.5-4.84s.56-3.33.91-4.99.65-3.31.96-4.97.31-3.36.56-5.03c.25-1.66.85-3.28,1.05-4.96.2-1.67.46-3.34.61-5.03s-.09-3.38.01-5.07c.1-1.68.17-3.36.22-5.05s-.15-3.36-.15-5.05Z" fill="#fff"></path><path d="m253.13,438.86c-1.68,0-3.37-.11-5.04-.16s-3.35-.39-5.02-.49-3.38.16-5.05.01-3.34-.44-5-.64c-1.67-.2-3.29-.72-4.95-.97-1.66-.25-3.38-.18-5.02-.47-1.65-.3-3.28-.76-4.91-1.11s-3.23-.93-4.86-1.32-3.26-.77-4.88-1.21c-1.62-.44-3.35-.52-4.95-1.01s-3.17-1.14-4.75-1.68c-1.59-.54-3.11-1.29-4.68-1.87s-3.14-1.18-4.69-1.82-3.04-1.42-4.57-2.1c-1.54-.68-3.18-1.11-4.69-1.83s-2.94-1.63-4.43-2.4-3.16-1.22-4.62-2.03-2.84-1.81-4.28-2.66c-1.44-.86-2.81-1.84-4.23-2.74-1.42-.9-2.91-1.69-4.29-2.63s-2.75-1.92-4.11-2.9-2.7-2-4.03-3.01c-1.33-1.02-2.39-2.38-3.69-3.44-1.3-1.06-2.72-1.97-3.99-3.06s-2.78-1.93-4.02-3.06-2.33-2.42-3.54-3.59-2.31-2.43-3.48-3.64c-1.17-1.2-2.14-2.59-3.27-3.83s-2.16-2.56-3.26-3.83-2.64-2.16-3.7-3.46-1.77-2.87-2.79-4.21-2.28-2.49-3.26-3.85-1.81-2.83-2.75-4.22c-.94-1.39-1.8-2.83-2.7-4.24s-1.88-2.78-2.74-4.22c-.85-1.44-1.68-2.91-2.49-4.37-.81-1.47-1.53-2.98-2.3-4.48-.77-1.49-1.56-2.97-2.29-4.48s-1.63-2.95-2.3-4.48c-.68-1.53-1.4-3.06-2.03-4.61-.63-1.55-.79-3.29-1.38-4.87-.58-1.57-1.3-3.09-1.84-4.68s-.99-3.2-1.48-4.81c-.49-1.6-.97-3.21-1.41-4.83-.44-1.61-.57-3.31-.97-4.94-.39-1.63-1.11-3.18-1.46-4.82s-.45-3.32-.75-4.98-.49-3.31-.74-4.97-1.06-3.24-1.25-4.91-.1-3.36-.25-5.04-.31-3.34-.41-5.02-.31-3.34-.36-5.03c-.05-1.67.09-3.36.09-5.04s.33-3.35.38-5.02-.35-3.38-.26-5.05c.1-1.68.35-3.35.49-5.01.15-1.68.66-3.31.86-4.97s-.14-3.41.11-5.06,1.04-3.24,1.33-4.88c.3-1.65.1-3.4.45-5.04s1.27-3.16,1.66-4.78c.39-1.63.37-3.37.81-4.99s1.28-3.13,1.77-4.73c.49-1.61.95-3.22,1.48-4.8.54-1.59,1-3.21,1.59-4.78s1.37-3.06,2-4.62,1.34-3.07,2.02-4.6,1.07-3.2,1.79-4.71c.72-1.51,1.78-2.86,2.55-4.35s1.29-3.11,2.11-4.58,1.59-2.96,2.44-4.4c.86-1.44,1.93-2.75,2.83-4.17.9-1.42,1.74-2.87,2.67-4.26.94-1.39,1.71-2.9,2.69-4.26s2.03-2.67,3.05-4.01c1.02-1.33,2.04-2.67,3.1-3.97,1.06-1.3,2.22-2.52,3.31-3.79,1.1-1.27,2.08-2.64,3.21-3.88s2.26-2.49,3.43-3.69,2.72-2.02,3.93-3.19c1.2-1.17,2.11-2.65,3.35-3.78,1.24-1.13,2.51-2.24,3.78-3.33s2.67-2.04,3.98-3.09,2.81-1.84,4.15-2.86c1.33-1.02,2.3-2.53,3.66-3.51s2.97-1.61,4.36-2.55,2.78-1.88,4.19-2.78,2.93-1.62,4.38-2.48,2.72-2,4.19-2.81,2.86-1.78,4.35-2.54,3.24-1.02,4.76-1.74c1.51-.72,3.05-1.37,4.59-2.05,1.53-.68,2.95-1.62,4.5-2.26,1.55-.63,3.18-1.06,4.76-1.65s3.04-1.46,4.63-2c1.59-.54,3.33-.57,4.94-1.06s3.13-1.23,4.75-1.67,3.16-1.17,4.79-1.57,3.33-.46,4.98-.81c1.64-.34,3.33-.38,4.99-.68,1.65-.3,3.26-.8,4.92-1.04s3.27-.85,4.94-1.05c1.66-.2,3.38.06,5.05-.09s3.31-.71,4.99-.8,3.36-.02,5.04-.07,3.35-.24,5.04-.24,3.35.57,5.03.62c1.68.05,3.38-.38,5.05-.28,1.68.1,3.37.15,5.03.3s3.31.67,4.97.86,3.32.52,4.97.77c1.66.25,3.35.35,4.99.64s3.31.58,4.95.93,3.31.61,4.94,1c1.63.39,3.25.88,4.86,1.32s3.22.96,4.82,1.45,3.21.99,4.8,1.53,3.06,1.41,4.63,2,3.11,1.25,4.66,1.88c1.56.63,3.31.8,4.84,1.48s2.9,1.73,4.41,2.45c1.51.72,3.16,1.19,4.65,1.96,1.49.77,2.75,1.98,4.21,2.79s3.12,1.31,4.56,2.16,2.73,1.96,4.15,2.86,3.01,1.53,4.4,2.47c1.39.94,2.76,1.91,4.12,2.89s2.67,2.03,4,3.05c1.33,1.02,2.79,1.89,4.09,2.95s2.32,2.46,3.59,3.56,2.68,2.04,3.92,3.17c1.24,1.13,2.16,2.59,3.37,3.76,1.2,1.17,2.74,2,3.91,3.2s1.98,2.74,3.11,3.98c1.13,1.24,2.66,2.12,3.76,3.39,1.1,1.27,2.21,2.54,3.27,3.84s2.02,2.69,3.04,4.02,2.14,2.6,3.12,3.96c.98,1.36,1.73,2.89,2.67,4.28s1.79,2.84,2.69,4.26,1.78,2.84,2.63,4.29,1.45,3.03,2.26,4.5,2.1,2.68,2.86,4.17c.77,1.49,1.01,3.24,1.73,4.76s1.73,2.89,2.41,4.42,1.57,2.98,2.21,4.54c.63,1.55,1.2,3.14,1.78,4.71s1.08,3.18,1.62,4.77,1.12,3.17,1.61,4.78.74,3.28,1.18,4.9c.44,1.61.93,3.22,1.33,4.86.39,1.63.33,3.36.67,5,.34,1.64,1.11,3.2,1.4,4.85.3,1.65.21,3.36.46,5.02.25,1.65.87,3.26,1.07,4.93s.32,3.34.47,5.02.28,3.34.38,5.02c.1,1.67.34,3.34.39,5.03.05,1.67,0,3.36,0,5.04s-.22,3.36-.27,5.03c-.05,1.68-.13,3.36-.22,5.03s-.46,3.33-.6,5c-.15,1.68-.46,3.32-.66,4.98s.19,3.41-.06,5.07c-.25,1.66-.99,3.24-1.28,4.89s-.26,3.37-.6,5.01c-.35,1.64-1.18,3.17-1.57,4.8-.39,1.63-.18,3.42-.62,5.04s-1.36,3.1-1.85,4.71-.78,3.28-1.31,4.86-.89,3.25-1.48,4.82c-.59,1.57-1.69,2.95-2.32,4.5-.63,1.56-.91,3.26-1.59,4.79s-1.51,3-2.23,4.52c-.72,1.51-1.48,3.02-2.25,4.5s-1.39,3.07-2.2,4.53c-.81,1.47-1.77,2.86-2.62,4.3s-1.91,2.77-2.81,4.18c-.9,1.42-1.48,3.04-2.42,4.43-.94,1.39-1.98,2.72-2.96,4.08s-2.26,2.5-3.28,3.84-1.75,2.9-2.8,4.2c-1.06,1.3-2.24,2.51-3.34,3.78s-2.22,2.52-3.36,3.75c-1.13,1.24-2.41,2.34-3.58,3.55-1.17,1.2-2.13,2.62-3.33,3.79s-2.75,1.98-3.98,3.11-2.41,2.33-3.68,3.43-2.38,2.38-3.69,3.44-2.56,2.18-3.89,3.2-2.9,1.72-4.26,2.7-2.6,2.13-3.99,3.07-2.8,1.85-4.22,2.75-3.1,1.35-4.55,2.21-2.58,2.24-4.05,3.05c-1.47.81-2.98,1.55-4.48,2.31s-3.23,1.03-4.75,1.75-2.81,1.91-4.35,2.58-3.26.91-4.81,1.54-3.08,1.31-4.65,1.9c-1.57.58-3.01,1.54-4.6,2.08-1.59.54-3.26.82-4.87,1.31s-3.24.84-4.87,1.28-3.18,1.11-4.81,1.5-3.23.95-4.87,1.29c-1.64.34-3.4.09-5.05.39s-3.31.48-4.97.73-3.26.85-4.93,1.05-3.32.51-4.99.66-3.34.35-5.02.45c-1.67.1-3.35.15-5.04.2s-3.36.09-5.04.09Zm0-334.74c-1.7,0-3.39-.06-5.07,0-1.7.05-3.4-.14-5.09-.04-1.7.1-3.35.61-5.03.77-1.69.16-3.38.22-5.06.42s-3.4.14-5.07.39-3.29.88-4.95,1.19c-1.67.31-3.35.5-5,.86s-3.36.54-5,.95c-1.65.41-3.27.89-4.9,1.36s-3.13,1.34-4.74,1.85-3.26.92-4.85,1.48-3.25.97-4.83,1.58c-1.58.61-3.15,1.26-4.7,1.93s-3.17,1.22-4.7,1.93c-1.54.71-2.94,1.71-4.45,2.47s-3.1,1.38-4.59,2.18c-1.49.8-2.78,1.96-4.24,2.81-1.47.85-3,1.56-4.44,2.46-1.44.89-2.93,1.71-4.34,2.64s-2.72,2.02-4.1,3-2.76,1.96-4.11,2.98c-1.35,1.02-2.69,2.05-4.01,3.11-1.32,1.06-2.89,1.83-4.17,2.93-1.29,1.1-2.42,2.39-3.67,3.53-1.25,1.14-2.22,2.58-3.44,3.75s-2.54,2.24-3.72,3.46-2.42,2.37-3.56,3.62-2.45,2.36-3.55,3.64-2.27,2.53-3.34,3.84-1.62,3.03-2.65,4.38-2.35,2.47-3.33,3.85-1.67,2.96-2.61,4.37c-.94,1.41-1.98,2.75-2.88,4.18s-1.82,2.86-2.67,4.32c-.85,1.46-1.57,3-2.37,4.49s-1.6,2.98-2.35,4.5-1.56,3-2.27,4.54-1.35,3.1-2.01,4.66-1.09,3.2-1.71,4.78c-.61,1.58-1.14,3.18-1.7,4.78s-1.56,3.04-2.07,4.66-.85,3.28-1.31,4.91-.97,3.24-1.38,4.89c-.41,1.64-.79,3.29-1.15,4.95s-.99,3.26-1.3,4.93-.24,3.39-.5,5.07c-.26,1.67-.71,3.32-.91,5s-.46,3.36-.62,5.05c-.15,1.68.31,3.41.2,5.11s-.45,3.36-.5,5.06-.04,3.38-.04,5.08.16,3.39.21,5.07c.05,1.7-.03,3.39.07,5.08s-.08,3.41.08,5.09c.16,1.69.81,3.32,1.02,5,.21,1.69.32,3.37.57,5.04.26,1.68.21,3.41.52,5.07s1.2,3.21,1.56,4.86.24,3.42.65,5.06,1.36,3.14,1.82,4.77c.46,1.63.41,3.42.92,5.03s1.49,3.08,2.06,4.67.8,3.32,1.41,4.89,1.31,3.13,1.97,4.69c.66,1.56,1.45,3.07,2.16,4.6.71,1.54,1.27,3.15,2.03,4.66.76,1.52,1.49,3.05,2.29,4.54s1.93,2.8,2.78,4.27,1.42,3.1,2.31,4.54c.89,1.44,2.06,2.71,3,4.11.94,1.41,1.95,2.77,2.93,4.15s1.79,2.88,2.82,4.23c1.02,1.35,2.14,2.63,3.2,3.95s2.32,2.47,3.42,3.76c1.1,1.29,2.17,2.59,3.31,3.84s2.32,2.46,3.5,3.68,2.3,2.49,3.51,3.66c1.22,1.18,2.57,2.21,3.82,3.35s2.54,2.23,3.82,3.33c1.28,1.1,2.25,2.59,3.57,3.65,1.32,1.06,2.93,1.74,4.28,2.77s2.7,2.03,4.08,3.01,2.67,2.09,4.08,3.02c1.41.94,2.66,2.12,4.1,3.02s3.22,1.21,4.68,2.06c1.46.85,2.74,2.02,4.23,2.83,1.49.8,3.01,1.56,4.52,2.32,1.51.76,2.97,1.65,4.51,2.36,1.54.71,3.23,1.07,4.79,1.73s3.19,1.12,4.77,1.73,2.97,1.72,4.57,2.29c1.59.56,3.19,1.16,4.8,1.67s3.33.7,4.96,1.17,3.21,1.09,4.86,1.5,3.36.48,5.02.84c1.65.36,3.21,1.19,4.88,1.5,1.66.31,3.38.31,5.06.57,1.67.26,3.39.17,5.07.38,1.68.21,3.32.69,5.01.85,1.68.15,3.35.57,5.05.67s3.39-.05,5.09,0,3.38-.31,5.08-.31,3.4.41,5.08.35,3.37-.57,5.05-.67,3.39-.08,5.07-.23c1.69-.16,3.35-.5,5.03-.71,1.69-.21,3.44.1,5.11-.16,1.68-.26,3.26-1.04,4.92-1.35,1.67-.31,3.3-.72,4.95-1.08s3.38-.41,5.02-.82,3.31-.75,4.93-1.22,3.2-1.12,4.81-1.63c1.62-.52,3.21-1.09,4.8-1.65s3.14-1.26,4.72-1.87,3.17-1.19,4.73-1.85,3.13-1.3,4.66-2.01,3.06-1.46,4.57-2.21,3.17-1.25,4.66-2.05,3.01-1.58,4.47-2.43,2.65-2.18,4.08-3.07c1.44-.89,3.07-1.48,4.48-2.42s2.63-2.15,4.01-3.13c1.38-.98,3.03-1.6,4.38-2.62,1.35-1.02,2.45-2.37,3.76-3.44s2.79-1.94,4.08-3.04,2.32-2.48,3.57-3.63,2.49-2.29,3.7-3.47c1.22-1.18,2.46-2.33,3.64-3.54,1.18-1.22,2.18-2.59,3.32-3.84s2.58-2.24,3.68-3.52,2.01-2.74,3.07-4.05,2.44-2.39,3.46-3.74c1.02-1.35,1.62-3.01,2.6-4.39s2.33-2.51,3.26-3.92,1.39-3.13,2.28-4.57,1.72-2.9,2.57-4.37c.85-1.46,1.76-2.88,2.57-4.37s1.45-3.05,2.21-4.57c.76-1.51,1.72-2.92,2.43-4.46s1.47-3.05,2.13-4.61,1.29-3.13,1.91-4.71,1.46-3.07,2.02-4.67.57-3.38,1.09-4.99,1.54-3.07,2.01-4.7.57-3.35.98-5c.41-1.64.55-3.34.91-5,.36-1.65.74-3.29,1.06-4.96.31-1.66.67-3.31.93-4.99s.43-3.35.63-5.03c.21-1.68.61-3.33.77-5.02s.21-3.37.31-5.07.62-3.36.68-5.06c.05-1.69-.37-3.39-.37-5.09s.33-3.4.28-5.09-.53-3.37-.64-5.06-.18-3.38-.34-5.06c-.16-1.69-.35-3.37-.55-5.05-.21-1.69-.61-3.33-.87-5-.26-1.68-.47-3.35-.78-5.01s-.45-3.36-.81-5.01c-.36-1.66-.75-3.31-1.16-4.94-.41-1.65-.63-3.34-1.09-4.97s-.82-3.3-1.34-4.91-1.64-3.03-2.2-4.62c-.57-1.6-.71-3.35-1.32-4.93s-1.59-3.01-2.25-4.57-.92-3.3-1.63-4.84-2.04-2.78-2.79-4.29c-.76-1.52-1.12-3.23-1.92-4.72s-1.84-2.85-2.69-4.32c-.85-1.47-1.91-2.8-2.8-4.23-.89-1.44-1.36-3.15-2.3-4.56-.94-1.41-2.24-2.57-3.22-3.95-.98-1.38-1.86-2.83-2.89-4.18-1.02-1.35-2.06-2.69-3.12-4.01-1.06-1.32-2.29-2.49-3.39-3.78s-2.12-2.64-3.26-3.89-2.15-2.63-3.33-3.84c-1.18-1.22-2.66-2.13-3.87-3.31s-2.38-2.4-3.63-3.55c-1.25-1.14-2.29-2.52-3.57-3.62s-2.84-1.88-4.16-2.94-2.57-2.21-3.92-3.23-2.7-2.03-4.08-3.01-2.68-2.08-4.09-3.02c-1.41-.94-3.01-1.58-4.45-2.47s-2.65-2.17-4.11-3.02c-1.46-.85-3-1.57-4.49-2.38s-3.11-1.34-4.63-2.1-3.08-1.39-4.62-2.11c-1.54-.71-2.93-1.73-4.49-2.39-1.56-.66-3.21-1.08-4.79-1.7s-3.16-1.2-4.76-1.77c-1.59-.56-3.04-1.57-4.66-2.09-1.61-.51-3.41-.4-5.05-.86s-3.24-.96-4.88-1.38-3.16-1.33-4.82-1.69-3.42-.18-5.08-.49c-1.66-.31-3.25-1.05-4.93-1.31-1.67-.26-3.36-.42-5.05-.62s-3.4.03-5.09-.13-3.35-.53-5.04-.63-3.37-.31-5.07-.36c-1.69-.05-3.38.3-5.08.3Z" fill="#3c1053"></path><path d="m253.13,413.1c-1.68,0-3.36-.2-5.03-.26s-3.34-.3-5.01-.42c-1.68-.12-3.35-.15-5.02-.33-1.67-.17-3.32-.46-4.98-.69-1.67-.23-3.33-.4-4.98-.69s-3.33-.45-4.97-.8c-1.65-.35-3.25-.84-4.88-1.25s-3.19-1.06-4.8-1.52-3.25-.83-4.84-1.35c-1.6-.52-3.14-1.17-4.72-1.74-1.58-.58-3.29-.79-4.84-1.42s-2.97-1.59-4.5-2.28-3.26-.95-4.77-1.69c-1.51-.74-2.96-1.61-4.44-2.4s-2.78-1.91-4.23-2.75c-1.45-.84-2.92-1.65-4.34-2.54s-2.84-1.78-4.23-2.72c-1.39-.94-2.86-1.77-4.21-2.76s-2.82-1.84-4.14-2.88c-1.32-1.03-2.53-2.22-3.82-3.3-1.29-1.08-2.61-2.12-3.86-3.24s-2.15-2.61-3.36-3.78c-1.21-1.17-2.54-2.2-3.7-3.41-1.17-1.21-2.58-2.19-3.7-3.44s-1.99-2.72-3.07-4.01c-1.08-1.28-2.19-2.55-3.22-3.87-1.03-1.32-1.89-2.77-2.88-4.13s-1.84-2.8-2.78-4.19-2.1-2.63-2.99-4.05c-.89-1.42-2.02-2.7-2.87-4.16s-1.24-3.15-2.03-4.63c-.79-1.48-1.39-3.05-2.13-4.55s-1.48-3-2.17-4.53-1.53-2.99-2.16-4.54-1.2-3.13-1.77-4.71-1.11-3.16-1.63-4.76-1.07-3.18-1.53-4.79-1.04-3.19-1.45-4.82c-.41-1.62-.45-3.33-.8-4.98s-1.05-3.21-1.34-4.87c-.29-1.65-.68-3.29-.91-4.96s-.12-3.36-.3-5.04-.62-3.31-.74-4.99.29-3.37.23-5.05c-.06-1.67-.05-3.34-.05-5.03s.09-3.35.14-5.02-.04-3.36.08-5.03.32-3.34.49-5c.17-1.67.21-3.36.44-5.01.23-1.67.5-3.32.79-4.97s.23-3.39.57-5.02c.35-1.65,1.14-3.19,1.55-4.81s.58-3.32,1.05-4.93,1.39-3.09,1.91-4.68.63-3.33,1.21-4.91,1.34-3.09,1.97-4.64,1.02-3.23,1.7-4.76,1.83-2.85,2.57-4.36,1.19-3.17,1.98-4.65c.79-1.48,1.6-2.96,2.44-4.41.84-1.45,2.18-2.61,3.07-4.03s1.38-3.1,2.32-4.49,1.86-2.81,2.85-4.16,2.47-2.34,3.5-3.66,1.95-2.73,3.03-4.01,1.99-2.72,3.11-3.96c1.12-1.25,2.43-2.32,3.59-3.53s2.32-2.42,3.53-3.58,2.46-2.28,3.71-3.4c1.25-1.12,2.49-2.25,3.77-3.33,1.28-1.08,2.39-2.39,3.71-3.42s2.6-2.13,3.96-3.12c1.36-.99,2.89-1.74,4.28-2.68s2.71-2,4.13-2.89,2.99-1.55,4.44-2.39c1.45-.84,2.94-1.62,4.42-2.41s2.81-1.89,4.31-2.63,3.05-1.42,4.58-2.1c1.53-.68,3.13-1.24,4.68-1.87,1.55-.63,3.16-1.14,4.74-1.72,1.57-.57,3.07-1.4,4.67-1.92s3.22-.97,4.84-1.43,3.32-.58,4.95-.99c1.62-.41,3.3-.58,4.95-.93s3.18-1.2,4.84-1.5c1.65-.29,3.31-.57,4.98-.8s3.36-.18,5.04-.35,3.32-.54,5-.65,3.37.13,5.05.08,3.35-.37,5.03-.37,3.37.06,5.04.12,3.34.54,5.01.66,3.35.24,5.01.41,3.41-.15,5.06.08,3.25.98,4.9,1.27,3.39.16,5.03.51,3.18,1.18,4.8,1.59c1.63.41,3.29.7,4.9,1.16,1.62.46,3.32.66,4.91,1.18s3.02,1.56,4.59,2.13c1.58.58,3.27.84,4.83,1.47s3.06,1.4,4.59,2.09,3.19,1.12,4.69,1.86,2.97,1.58,4.45,2.37c1.48.79,2.91,1.69,4.36,2.53,1.45.84,2.75,1.94,4.18,2.83,1.42.89,2.99,1.57,4.37,2.51s2.7,2,4.06,2.99c1.36.99,2.77,1.91,4.09,2.95s2.62,2.11,3.9,3.19,2.35,2.42,3.59,3.54,2.49,2.24,3.7,3.41,2.53,2.21,3.7,3.42c1.17,1.21,2.42,2.34,3.55,3.58,1.12,1.25,1.94,2.76,3.02,4.05s2.31,2.44,3.35,3.76c1.03,1.32,1.96,2.73,2.94,4.08.99,1.36,2.17,2.58,3.11,3.97.94,1.39,1.95,2.74,2.85,4.17s1.79,2.85,2.63,4.31c.84,1.45,1.59,2.97,2.38,4.45.79,1.48,1.54,2.99,2.28,4.5.74,1.51,1.08,3.2,1.76,4.73s1.27,3.1,1.9,4.65,1.37,3.06,1.95,4.64c.57,1.57,1.47,3.04,1.99,4.64s.66,3.31,1.12,4.92c.46,1.61.76,3.26,1.17,4.89.41,1.62,1.29,3.14,1.64,4.79s.62,3.3.92,4.96c.29,1.65.35,3.34.58,5.01s.21,3.35.38,5.02.34,3.33.45,5.01.55,3.33.61,5.01-.2,3.36-.2,5.04,0,3.36-.06,5.03c-.06,1.68-.35,3.34-.47,5.01s-.08,3.36-.25,5.02-.19,3.36-.42,5.02-.3,3.36-.59,5.01-.71,3.29-1.06,4.93-.77,3.28-1.18,4.9c-.41,1.63-.73,3.29-1.19,4.9s-1.29,3.12-1.81,4.71-1.12,3.16-1.69,4.74c-.58,1.58-1.26,3.11-1.89,4.66-.63,1.56-1.29,3.09-1.97,4.62s-.91,3.28-1.65,4.79-1.85,2.83-2.64,4.31c-.79,1.48-1.41,3.06-2.25,4.51-.84,1.45-1.97,2.73-2.86,4.15s-1.41,3.09-2.35,4.48c-.94,1.39-1.94,2.75-2.92,4.11s-2.26,2.51-3.29,3.83-2.27,2.47-3.35,3.75c-1.08,1.29-2.12,2.6-3.24,3.84s-2,2.72-3.16,3.93-2.42,2.34-3.62,3.5c-1.21,1.17-2.65,2.07-3.9,3.2-1.25,1.12-2.49,2.24-3.77,3.32-1.28,1.08-2.47,2.27-3.8,3.3s-2.45,2.34-3.8,3.32c-1.36.99-3.02,1.55-4.41,2.49-1.39.94-2.7,1.99-4.13,2.88-1.42.89-2.84,1.79-4.29,2.63s-2.95,1.59-4.43,2.38c-1.48.79-2.84,1.82-4.35,2.56s-3.09,1.33-4.62,2.01-3.02,1.49-4.57,2.12c-1.55.63-3.22.98-4.8,1.55-1.57.57-3.12,1.23-4.72,1.75s-3.31.63-4.93,1.09c-1.61.46-3.21.93-4.84,1.33s-3.16,1.21-4.8,1.56-3.32.51-4.98.8-3.3.63-4.96.86-3.34.32-5.01.49-3.34.2-5.02.32-3.34.33-5.02.39-3.35.15-5.03.15Zm0-270.3c-1.7,0-3.4-.14-5.08-.07s-3.4.01-5.09.15-3.38.41-5.05.61c-1.69.2-3.38.36-5.05.63s-3.33.67-4.98,1.01-3.28.87-4.92,1.27c-1.65.41-3.31.73-4.94,1.2-1.63.47-3.32.76-4.92,1.3s-3.17,1.23-4.75,1.83-3.2,1.14-4.76,1.81-2.94,1.74-4.46,2.47-3.19,1.19-4.69,1.98-2.74,2.04-4.21,2.88c-1.47.85-2.97,1.63-4.39,2.53s-3.03,1.55-4.42,2.52-2.73,2.01-4.08,3.03-2.67,2.09-3.98,3.16-2.49,2.29-3.76,3.42c-1.27,1.12-2.37,2.41-3.59,3.59s-2.52,2.25-3.69,3.47-2.25,2.52-3.37,3.79c-1.12,1.27-2.58,2.25-3.65,3.56s-1.96,2.77-2.98,4.13-1.71,2.93-2.67,4.32c-.96,1.39-2.16,2.62-3.07,4.05s-1.73,2.91-2.58,4.37c-.85,1.46-1.83,2.85-2.62,4.35s-1.67,2.96-2.4,4.49c-.73,1.53-1.16,3.19-1.82,4.75-.66,1.55-1.01,3.23-1.61,4.82s-1.62,3.01-2.15,4.62-1.21,3.17-1.68,4.8-.87,3.28-1.27,4.93c-.4,1.64-.58,3.34-.92,5-.34,1.65-.68,3.32-.95,4.99-.27,1.66-.52,3.34-.72,5.03-.2,1.67-.31,3.37-.44,5.06s-.08,3.38-.15,5.08c-.07,1.68-.45,3.37-.45,5.07s.42,3.39.49,5.07.29,3.37.43,5.05c.14,1.69-.01,3.41.19,5.08.2,1.69.74,3.32,1.01,4.98.27,1.68.1,3.43.43,5.08s.67,3.33,1.08,4.97c.41,1.65.79,3.31,1.26,4.93s1.16,3.2,1.69,4.8,1.06,3.23,1.66,4.81c.6,1.58,1.4,3.09,2.06,4.65.67,1.56,1.36,3.1,2.09,4.63.73,1.53,1.84,2.86,2.62,4.36s1.23,3.18,2.08,4.64,1.96,2.77,2.86,4.2c.91,1.43,1.46,3.09,2.43,4.48.96,1.39,2.33,2.5,3.35,3.85s1.93,2.78,3,4.09c1.07,1.31,2.39,2.4,3.52,3.66,1.12,1.27,1.92,2.83,3.09,4.05,1.17,1.22,2.62,2.16,3.84,3.34s2.47,2.3,3.73,3.43c1.27,1.12,2.2,2.64,3.51,3.71s2.96,1.72,4.31,2.74c1.35,1.02,2.75,1.95,4.14,2.92,1.39.96,2.48,2.39,3.91,3.29s2.97,1.64,4.44,2.49,3.07,1.44,4.57,2.23,2.91,1.74,4.44,2.47,3.09,1.39,4.65,2.06,3.11,1.34,4.7,1.94,3.19,1.14,4.8,1.68c1.6.54,3.31.73,4.94,1.21,1.62.47,3.27.81,4.92,1.21s3.22,1.04,4.89,1.37,3.34.48,5.02.75,3.3.75,4.99.95,3.36.42,5.05.55c1.68.13,3.39-.14,5.09-.07s3.36.14,5.06.14,3.39.08,5.07.02,3.39-.07,5.07-.2c1.69-.14,3.34-.59,5.01-.8s3.36-.39,5.02-.66,3.4-.25,5.05-.59c1.66-.34,3.37-.51,5-.91,1.65-.41,3.14-1.37,4.76-1.84s3.23-.99,4.83-1.52,3.28-.86,4.86-1.46,3.07-1.44,4.62-2.1,3.24-1.05,4.76-1.78c1.53-.73,2.91-1.74,4.41-2.52s2.99-1.57,4.45-2.42c1.47-.85,3.12-1.39,4.55-2.29s2.84-1.86,4.23-2.83c1.39-.96,2.45-2.38,3.8-3.4s2.99-1.67,4.3-2.74c1.31-1.07,2.3-2.52,3.56-3.64,1.27-1.12,2.82-1.93,4.04-3.1s2.32-2.48,3.49-3.7c1.17-1.22,2.09-2.67,3.21-3.94s2.61-2.22,3.68-3.53,1.83-2.87,2.85-4.22,2.11-2.65,3.07-4.04,1.64-2.96,2.55-4.39,1.85-2.82,2.7-4.29c.85-1.46,1.74-2.89,2.53-4.39.79-1.5,1.78-2.89,2.51-4.42s1.16-3.18,1.83-4.74c.66-1.55,1.4-3.08,2.01-4.66.6-1.58,1.07-3.2,1.6-4.81s1.06-3.21,1.53-4.83,1.21-3.18,1.62-4.82.75-3.3,1.09-4.96.45-3.35.72-5.03c.27-1.66.36-3.36.56-5.04s.75-3.32.88-5.01c.13-1.68,0-3.39.08-5.08s.21-3.37.21-5.07-.3-3.38-.37-5.07-.28-3.37-.41-5.05c-.14-1.69-.33-3.36-.53-5.04-.2-1.69-.36-3.36-.63-5.03s-.56-3.33-.89-4.99-.31-3.4-.72-5.04c-.41-1.65-.77-3.31-1.24-4.93s-1.13-3.2-1.66-4.81-1.45-3.08-2.05-4.65c-.6-1.58-.89-3.29-1.56-4.84s-1.24-3.17-1.96-4.69-1.95-2.81-2.74-4.3-1.56-2.99-2.41-4.46-1.55-3.01-2.45-4.44-1.65-2.97-2.62-4.36-1.97-2.76-2.99-4.11-2.34-2.47-3.41-3.78c-1.07-1.31-1.95-2.78-3.07-4.05-1.12-1.27-2.29-2.49-3.47-3.71s-2.23-2.57-3.45-3.74-2.6-2.19-3.86-3.31c-1.27-1.12-2.68-2.08-3.99-3.15-1.31-1.07-2.76-1.96-4.11-2.98s-2.66-2.09-4.05-3.05c-1.39-.96-2.77-1.93-4.2-2.84s-2.93-1.68-4.39-2.53c-1.46-.85-2.77-1.97-4.27-2.76s-2.99-1.59-4.52-2.32-3.04-1.51-4.6-2.17c-1.55-.66-3.13-1.3-4.72-1.9s-3.35-.67-4.96-1.2c-1.6-.54-3.1-1.41-4.73-1.88s-3.31-.69-4.96-1.1-3.22-1.07-4.89-1.41c-1.65-.34-3.4-.18-5.08-.45-1.66-.27-3.33-.54-5.01-.74-1.67-.2-3.32-.69-5.01-.82s-3.36-.48-5.06-.54c-1.68-.07-3.39.24-5.09.24Z" fill="#fbb200"></path><path d="m258.03,185.88c-1.7,0-3.37.17-4.99.28s-3.36.28-4.97.51c-1.68.24-3.29.72-4.87,1.08s-3.23.92-4.77,1.43-3.33.74-4.81,1.43-2.94,1.67-4.32,2.54c-1.43.89-2.74,1.93-4.01,2.98s-2.42,2.28-3.53,3.51c-1.11,1.23-2,2.63-2.92,4.01-.91,1.37-1.83,2.74-2.55,4.25-.7,1.47-1.12,3.07-1.64,4.68s-1.25,3.05-1.58,4.72c-.31,1.59-.64,3.23-.79,4.93-.14,1.61-.29,3.29-.28,4.99,0,1.64.16,3.22.22,4.72.07,1.65.5,3.19.62,4.69.14,1.64.22,3.2.42,4.69.22,1.63.57,3.15.86,4.62.31,1.6.48,3.16.85,4.63.39,1.57.72,3.06,1.16,4.53-.75,1.69-1.05,0-3.65,0s-4.18,2.31-4.18,4.2c0,.74.23,2.61.24,4.82,0,1.54-.38,3.25-.37,4.83,0,1.95-.21,3.73-.21,4.82,0,3.24,2.11,4.13,4.73,4.13,1.1,0,2.87.27,4.56.27,2.36,0,2.58-1.21,4.34.24.21,1.98.08,3.72.09,5.94,0,1.62.3,3.32.11,5.09-.17,1.63-.76,3.26-1.07,4.99-.3,1.63-.08,3.41-.49,5.1s-1.12,3.2-1.61,4.86-.66,3.34-1.21,4.97-1.15,3.21-1.74,4.81-1.2,3.2-1.84,4.77c-.65,1.58-1.28,3.18-1.97,4.72-.7,1.57-1.71,2.99-2.44,4.5-.48.99-.47,2.71.06,4.26.48,1.39,1.47,2.45,2.88,2.91,1.13.36,2.83,1.31,4.87,2.02,1.59.55,3.28,1.29,4.93,1.86,1.87.65,3.67,1.13,5.01,1.59,1.58.55,2.83.12,3.87-.15,1.6-.41,2.72-1.16,3.22-1.98.82-1.35.38-3.66,2.65-5.84,1.44.78,3.13,1.89,4.64,2.7s2.83,1.8,4.35,2.57,3.27.91,4.82,1.61,3.06,1.3,4.65,1.9c1.56.59,3.12,1.15,4.74,1.64,1.6.48,3.15,1.14,4.81,1.49,1.63.34,3.31.37,5,.55s3.3.75,5.01.75c1.79,0,3.53-.17,5.21-.37,1.77-.21,3.41-.86,5.05-1.26,1.72-.42,3.47-.61,5.06-1.21,1.66-.62,3.07-1.69,4.58-2.46s2.99-1.75,4.41-2.69c1.47-.98,3.07-1.72,4.38-2.8,1.37-1.13,2.47-2.5,3.65-3.69,1.27-1.27,2.53-2.46,3.59-3.74.82-.98,1.38-2.65,1.34-4.5-.04-1.51-.43-3.04-1.7-4.35-.96-1-2.06-2.18-3.31-3.29-1.15-1.02-2.35-2.08-3.51-3.07-1.28-1.09-2.32-2.33-3.35-3.24-1.3-1.16-3.04-1.42-4.4-1.28-1.75.19-3.46,1.2-4.09,2.03-1.1,1.49-1.85,3.12-2.95,4.32-1.25,1.36-2.61,2.46-3.96,3.42-1.44,1.01-3.06,1.56-4.75,2.07-1.56.47-3.21.54-5.1.54-1.61,0-3.34.41-5.08.09-1.6-.29-3.21-.91-4.88-1.42-1.57-.48-3.1-1.21-4.71-1.86s-3.01-1.44-4.57-2.17-3.06-1.37-4.57-2.17-2.81-1.54-4.28-2.37c.5-1.72.88-3.36,1.3-5.17.4-1.75.61-3.57.92-5.41.3-1.76.67-3.56.87-5.41s.57-3.59.67-5.46.01-3.63,0-5.5c-.09-2.78-1.11-2.83-.15-5.43s1.97-.21,5.23-.22c1.65,0,3.55.32,5.53.32,1.82,0,3.71-.5,5.54-.5,1.97,0,3.87.1,5.54.1,2.57,0,4.6.34,5.53.34,1.8,0,3.2-.41,4.1-1.06,1.06-.77,1.57-2.12,1.57-3.84,0-1.09-.17-2.75-.17-4.57,0-1.5-.21-3.1-.21-4.57,0-1.92.15-3.62.15-4.57,0-1.38-.9-2.48-2.23-3.33-1.14-.72-2.5-1.6-4-1.6-.72,0-2.57.21-5.02.22-1.49,0-3.2.37-5.02.38-1.62,0-3.33-.31-5.03-.3s-3.41.07-5.03.08c-1.83,0-3.55-.18-5.03-.17-3,0-2.77,1.32-4.85-.07-.37-1.6-.93-2.9-1.31-4.43-.4-1.57-1.09-3.04-1.46-4.59-.37-1.55-.26-3.2-.58-4.79s-.4-3.12-.62-4.75c-.21-1.53-.42-3.09-.53-4.75-.1-1.53-.37-3.1-.37-4.79.03-1.94.34-3.64.84-5.19.57-1.8,1.42-3.28,2.52-4.57,1.15-1.35,2.48-2.45,4.07-3.28,1.51-.79,3.14-1.5,4.95-1.87,1.67-.34,3.46-.16,5.29-.17,1.54,0,3.16-.3,4.79-.01,1.52.26,3.14.58,4.66,1.22,1.4.59,2.65,1.65,4.01,2.65,1.2.89,2.59,1.76,3.72,3.05.98,1.12,1.53,2.69,2.42,4.15.78,1.27,1.47,2.67,2.17,4.23,1,2.27,4.47,2.28,6.47,1.1.3-.18,1.79-1.16,3.85-2.22,1.21-.62,2.62-1.28,4-1.99s2.68-1.56,3.9-2.18c2.06-1.05,3.65-1.85,3.98-2.02,1.06-.54,2.6-2.61,1.11-5.76-.71-1.49-1.09-3.1-1.88-4.46-.84-1.42-1.94-2.62-2.86-3.9s-1.62-2.88-2.67-4.06c-1.09-1.22-2.56-2.04-3.74-3.1s-2.35-2.22-3.65-3.15-2.82-1.54-4.23-2.32-2.63-1.92-4.12-2.55c-1.47-.63-3.11-.85-4.66-1.33-1.52-.48-3.07-.87-4.66-1.21s-3.05-1.15-4.67-1.37-3.24.14-4.87.04c-1.59-.1-3.22-.09-4.85-.09-.18-.02-.08-.47-.2-.47Z" fill="#fbb200"></path><path d="m381.93,374.79c-1.81,1.76-2.4.26-4.92.26s-2.52.21-5.05.21c-2.52,0-2.52-.41-5.05-.41-2.52,0-2.52-.2-5.05-.2-2.52,0-2.52-.08-5.05-.08s-2.52.64-5.05.64-2.52-.37-5.05-.37c-2.52,0-2.52.3-5.05.3s-2.52-.5-5.05-.5c-2.52,0-2.52.56-5.05.56-2.52,0-2.52-.16-5.05-.16s-2.52,0-5.05,0-2.52-.43-5.05-.43-2.52.59-5.05.59c-2.52,0-2.52-.26-5.05-.26s-2.52,0-5.05,0c-2.52,0-2.52-.21-5.04-.21s-2.52.25-5.04.25c-2.52,0-2.52-.33-5.04-.33-2.52,0-2.52.38-5.04.38s-2.52-.31-5.05-.31-2.52.42-5.05.42-2.52-.16-5.04-.16c-2.52,0-2.52-.32-5.04-.32s-2.52.41-5.05.41c-2.53,0-2.53.01-5.05.01-2.52,0-2.52-.26-5.05-.26-2.52,0-2.52.17-5.05.17-2.52,0-2.52-.26-5.05-.26-2.52,0-2.52.17-5.05.17-2.52,0-2.52-.12-5.05-.12-2.52,0-2.52.19-5.05.19-2.53,0-2.53-.1-5.05-.1s-2.52.4-5.05.4-2.53-.5-5.05-.5-2.52-.08-5.05-.08-2.53.14-5.05.14c-2.52,0-2.52-.03-5.05-.03-2.53,0-2.53-.12-5.05-.12-2.52,0-2.52.27-5.05.27-2.53,0-2.53-.31-5.05-.31-2.53,0-2.53.16-5.05.16s-2.53.01-5.05.01-2.52.25-5.05.25c-2.53,0-2.53.13-5.05.13-2.52,0-2.52-.31-5.05-.31-2.53,0-2.53-.24-5.05-.24-2.53,0-2.53.03-5.05.03s-2.53.4-5.05.4c-2.53,0-2.53-.08-5.05-.08-2.53,0-2.53.14-5.05.14-2.53,0-2.53.12-5.05.12-2.53,0-2.53-.53-5.06-.53s-2.53.31-5.06.31-3.04,1.46-4.86-.3-.36-2.24-.36-4.69.15-2.45.15-4.9c0-2.45.11-2.45.11-4.91,0-2.45-1.84-3.19-.08-4.9s2.51.29,5.04.29,2.52-.45,5.05-.45,2.52-.08,5.05-.08,2.52.5,5.05.5,2.52-.53,5.05-.53,2.52.17,5.05.17,2.52-.03,5.05-.03,2.52.35,5.05.35,2.52-.19,5.05-.19,2.52.17,5.05.17,2.52-.11,5.05-.11,2.52-.38,5.05-.38,2.52.42,5.05.42,2.52.09,5.05.09,2.52-.57,5.05-.57,2.52.29,5.05.29,2.52-.25,5.04-.25,2.52.03,5.04.03,2.52.22,5.04.22,2.52.21,5.04.21,2.52.01,5.05.01,2.52-.05,5.05-.05,2.52-.06,5.04-.06,2.52.26,5.04.26,2.52-.07,5.05-.07,2.53,0,5.05,0,2.52-.27,5.05-.27,2.52.28,5.05.28,2.52-.41,5.05-.41,2.52.03,5.05.03,2.52-.1,5.05-.1,2.52-.02,5.05-.02,2.53.07,5.05.07,2.52,0,5.05,0,2.53.02,5.05.02,2.52-.18,5.05-.18,2.53.07,5.05.07,2.52.36,5.05.36,2.53.1,5.05.1,2.52-.54,5.05-.54,2.53.69,5.05.69,2.53-.59,5.05-.59,2.53-.09,5.05-.09,2.52.58,5.05.58,2.53-.35,5.05-.35,2.52-.12,5.05-.12,2.53.41,5.05.41,2.53-.37,5.05-.37,2.53.26,5.05.26,2.53-.04,5.05-.04,2.53-.05,5.05-.05,2.53-.09,5.05-.09,2.53.14,5.06.14,2.53.19,5.06.19,3.33-2.09,5.15-.33.22,2.54.22,4.99-.41,2.45-.41,4.9-.28,2.48.21,4.88c.51,2.5,1.52,3.09-.24,4.8Z" fill="#fff"></path><path d="m384.67,377.54c-1.81,1.76-2.69-.16-5.21-.16-2.52,0-2.52.24-5.04.24-2.52,0-2.52-.21-5.04-.21-2.52,0-2.52.03-5.05.03s-2.52-.08-5.05-.08c-2.52,0-2.52-.13-5.04-.13-2.52,0-2.52.37-5.04.37-2.52,0-2.52-.08-5.04-.08-2.52,0-2.52-.39-5.05-.39-2.52,0-2.52.33-5.05.33s-2.52-.29-5.04-.29-2.52-.09-5.04-.09-2.52.4-5.05.4c-2.52,0-2.52-.24-5.05-.24-2.52,0-2.52.37-5.04.37-2.52,0-2.52-.23-5.05-.23-2.52,0-2.52-.18-5.04-.18-2.52,0-2.52-.06-5.04-.06-2.52,0-2.52-.11-5.04-.11-2.52,0-2.52.08-5.04.08-2.52,0-2.52.1-5.04.1s-2.52-.2-5.05-.2c-2.52,0-2.52.05-5.04.05-2.52,0-2.52.37-5.04.37-2.52,0-2.52.22-5.04.22-2.52,0-2.52-.1-5.04-.1s-2.52.14-5.05.14-2.52-.43-5.04-.43-2.52.15-5.04.15-2.52-.07-5.05-.07c-2.52,0-2.52.17-5.05.17s-2.52-.28-5.04-.28-2.52.13-5.05.13-2.52-.14-5.05-.14c-2.52,0-2.52-.13-5.05-.13-2.52,0-2.52-.03-5.05-.03-2.52,0-2.52-.01-5.05-.01-2.52,0-2.52.34-5.05.34-2.52,0-2.52-.22-5.05-.22-2.52,0-2.52-.09-5.05-.09-2.52,0-2.52.4-5.05.4-2.52,0-2.52-.44-5.05-.44-2.52,0-2.52.66-5.05.66-2.52,0-2.52-.67-5.05-.67-2.52,0-2.52.51-5.04.51-2.52,0-2.52-.29-5.05-.29-2.52,0-2.52.01-5.05.01-2.52,0-2.52.14-5.05.14-2.53,0-2.53.08-5.05.08s-2.53-.16-5.05-.16-2.53.03-5.05.03c-2.53,0-2.53.37-5.05.37s-2.52-.07-5.05-.07-2.53-.42-5.05-.42-2.53-.17-5.06-.17c-2.53,0-3.41,2.25-5.22.49-1.76-1.7.14-2.62.14-5.07s.33-2.45.33-4.9c0-2.45-.37-2.45-.37-4.9,0-2.45-.11-2.45-.11-4.91s-1.54-3.15.22-4.87c1.81-1.76,2.48.23,5,.23s2.52-.52,5.04-.52,2.52.58,5.04.58,2.52-.52,5.05-.52,2.52.03,5.05.03,2.52.05,5.04.05,2.52-.23,5.04-.23,2.52.08,5.04.08,2.52,0,5.05,0,2.52-.05,5.05-.05,2.52.25,5.04.25,2.52,0,5.04,0,2.52.03,5.05.03,2.52.36,5.05.36,2.52-.22,5.04-.22,2.52.16,5.05.16,2.52-.12,5.04-.12,2.52-.33,5.04-.33,2.52.45,5.04.45,2.52-.61,5.04-.61,2.52.44,5.04.44,2.52-.29,5.05-.29,2.52.03,5.04.03,2.52.11,5.04.11,2.52.33,5.04.33,2.52-.22,5.04-.22,2.52.23,5.05.23,2.52-.1,5.04-.1,2.52.07,5.04.07,2.52-.38,5.05-.38,2.52.03,5.05.03,2.52.33,5.04.33,2.52-.32,5.05-.32,2.52.06,5.05.06,2.52-.19,5.05-.19,2.52.44,5.05.44,2.52-.26,5.05-.26,2.52.37,5.05.37,2.52-.38,5.05-.38,2.52-.12,5.05-.12,2.52.35,5.05.35,2.52-.39,5.05-.39,2.52.3,5.05.3,2.52-.43,5.05-.43,2.52.21,5.04.21,2.52-.18,5.05-.18,2.52.16,5.05.16,2.52.27,5.05.27,2.53,0,5.05,0,2.53.08,5.05.08,2.53-.47,5.05-.47,2.53.19,5.05.19,2.52-.13,5.05-.13,2.53.29,5.05.29,2.53-.17,5.06-.17,3.38-1.85,5.19-.09c1.76,1.7.17,2.59.17,5.04,0,2.45-.15,2.45-.15,4.9,0,2.45-.04,2.45-.04,4.9,0,2.45-.41,2.46.14,4.85.62,2.65,1.67,3.43-.09,5.14Zm-277.69-5.24c1.81,1.76,2.36.16,4.88.16s2.53-.24,5.05-.24,2.53.21,5.05.21,2.52-.03,5.05-.03,2.52.08,5.05.08,2.53.13,5.05.13,2.53-.37,5.05-.37,2.53.08,5.05.08,2.52.39,5.05.39,2.53-.33,5.05-.33,2.53.29,5.05.29,2.53.09,5.05.09,2.53-.4,5.05-.4,2.53.24,5.05.24,2.53-.37,5.05-.37,2.52.23,5.05.23,2.52.18,5.05.18,2.52.06,5.05.06,2.52.11,5.05.11,2.53-.08,5.05-.08,2.53-.1,5.05-.1,2.52.2,5.05.2,2.52-.05,5.05-.05,2.52-.37,5.05-.37,2.53-.22,5.05-.22,2.52.1,5.05.1,2.52-.14,5.05-.14,2.53.43,5.05.43,2.53-.15,5.05-.15,2.52.07,5.05.07,2.53-.17,5.05-.17,2.53.28,5.05.28,2.53-.13,5.05-.13,2.53.14,5.05.14,2.53.13,5.05.13,2.53.03,5.05.03,2.53.01,5.05.01,2.53-.34,5.05-.34,2.53.22,5.05.22,2.53.09,5.05.09,2.53-.4,5.05-.4,2.53.44,5.05.44,2.52-.66,5.05-.66,2.53.67,5.05.67,2.53-.51,5.05-.51,2.53.29,5.05.29,2.53-.01,5.06-.01,2.53-.14,5.06-.14,2.53-.08,5.06-.08,2.53.16,5.06.16,2.53-.03,5.05-.03,2.53-.37,5.06-.37,2.53.07,5.06.07,3.35,2.14,5.16.38.22-2.56.22-5.01c0-2.45-.56-2.45-.56-4.91,0-2.45,1.98-3.18.22-4.89s-2.51-.32-5.03-.32-2.53.37-5.05.37c-2.53,0-2.53.11-5.05.11-2.52,0-2.52-.24-5.05-.24s-2.52-.21-5.05-.21c-2.53,0-2.53.52-5.05.52-2.53,0-2.53-.58-5.05-.58s-2.53.52-5.05.52c-2.52,0-2.52-.03-5.05-.03-2.53,0-2.53-.05-5.05-.05-2.53,0-2.53.23-5.05.23-2.53,0-2.53-.08-5.05-.08s-2.53,0-5.05,0-2.53.05-5.05.05c-2.53,0-2.53-.25-5.05-.25q-2.52,0-5.05,0c-2.52,0-2.52-.03-5.05-.03-2.52,0-2.52-.36-5.05-.36-2.52,0-2.52.22-5.05.22s-2.53-.16-5.05-.16c-2.53,0-2.53.12-5.05.12-2.52,0-2.52.33-5.05.33s-2.52-.45-5.05-.45c-2.52,0-2.52.61-5.05.61-2.53,0-2.53-.44-5.05-.44-2.52,0-2.52.29-5.05.29s-2.52-.03-5.05-.03-2.53-.11-5.05-.11c-2.53,0-2.53-.33-5.05-.33-2.52,0-2.52.22-5.05.22s-2.53-.23-5.05-.23c-2.53,0-2.53.1-5.05.1s-2.53-.07-5.05-.07-2.53.38-5.05.38-2.53-.03-5.05-.03c-2.53,0-2.53-.33-5.05-.33-2.53,0-2.53.32-5.05.32-2.53,0-2.53-.06-5.05-.06-2.53,0-2.53.19-5.05.19-2.53,0-2.53-.44-5.05-.44s-2.53.26-5.05.26-2.53-.37-5.05-.37-2.52.38-5.05.38-2.53.12-5.05.12-2.53-.35-5.05-.35c-2.53,0-2.53.39-5.05.39-2.53,0-2.53-.3-5.06-.3s-2.53.43-5.06.43c-2.53,0-2.53-.21-5.06-.21s-2.53.18-5.06.18-2.53-.16-5.05-.16-2.53-.27-5.06-.27q-2.53,0-5.06,0c-2.53,0-3.41-1.78-5.23-.02s.39,2.62.39,5.08c0,2.45.29,2.51-.19,4.91-.5,2.48-1.63,3.02.13,4.73Z" fill="#3c1053"></path><path d="m118.01,327.48c-1.62-1.63-1.78-1.47-3.39-3.11-1.62-1.63-1.76-1.49-3.38-3.13s-1.39-1.86-3.01-3.5c-1.62-1.64-1.66-1.6-3.28-3.23-.35-.36-.75-.26-1.1.09-1.62,1.63-1.67,1.58-3.28,3.22-1.62,1.63-1.53,1.72-3.15,3.35-1.62,1.64-1.75,1.5-3.37,3.14-1.62,1.64-1.86,1.4-3.48,3.04-.17.17.04.6.04.84,0,2.56.18,2.56.18,5.12,0,2.56-.03,2.56-.03,5.11,0,2.56-.5,2.56-.5,5.11,0,2.56.44,2.56.44,5.11s0,2.56,0,5.12-.19,2.56-.19,5.11c0,2.56-.02,2.56-.02,5.12s.04,2.56.04,5.12.29,2.56.29,5.12c0,2.56-.55,2.56-.55,5.11,0,2.56.34,2.56.34,5.12,0,2.56.18,2.56.18,5.11,0,2.56.05,2.56.05,5.12,0,2.56-.4,2.56-.4,5.12s.35,2.56.35,5.12-.41,2.56-.41,5.12.42,2.56.42,5.12-.02,2.56-.02,5.12c0,2.56-.34,2.56-.34,5.12,0,2.56.09,2.56.09,5.12,0,2.56-1.69,3.15.19,4.9,2.03,1.88,2.55.09,5.32.09s2.76-.09,5.53-.09,2.77.55,5.53.55,2.77-.09,5.54-.09,3.37,1.5,5.4-.38c1.88-1.74.1-2.41.1-4.97,0-2.56.28-2.56.28-5.11,0-2.56-.54-2.56-.54-5.11,0-2.56.24-2.56.24-5.11s.39-2.56.39-5.12-.04-2.56-.04-5.11-.31-2.56-.31-5.12-.15-2.56-.15-5.12.32-2.56.32-5.12.12-2.56.12-5.11c0-2.56-.47-2.56-.47-5.12,0-2.56.52-2.56.52-5.11,0-2.56-.41-2.56-.41-5.12s.03-2.56.03-5.12c0-2.56.13-2.56.13-5.12s-.22-2.56-.22-5.12.23-2.56.23-5.12q0-2.56,0-5.12c0-2.56.02-2.56.02-5.12s-.29-2.56-.29-5.12.26-2.56.26-5.12c0-.24-.08-.54-.25-.71Z" fill="#fff"></path><path d="m120.54,437.97c-1.99,1.84-2.61.22-5.32.22s-2.71-.39-5.43-.39c-2.71,0-2.71.19-5.42.19-2.71,0-2.71-.15-5.43-.15-2.72,0-2.72.04-5.43.04-2.72,0-3.4,2-5.4.17-1.84-1.69.01-2.46.01-4.95s-.18-2.5-.18-4.99.45-2.5.45-4.99-.11-2.5-.11-4.99c0-2.5-.42-2.5-.42-4.99,0-2.5.07-2.5.07-4.99s.32-2.5.32-4.99-.02-2.5-.02-5-.36-2.5-.36-5c0-2.5.29-2.5.29-5s-.04-2.5-.04-4.99c0-2.5-.05-2.5-.05-4.99s.04-2.5.04-4.99c0-2.5.11-2.5.11-4.99,0-2.5-.16-2.5-.16-5,0-2.5.02-2.5.02-5,0-2.5-.17-2.5-.17-5,0-2.5.02-2.5.02-5,0-2.5-.15-2.5-.15-5,0-2.5.37-2.5.37-5,0-2.5.23-2.5.23-5s-.32-2.5-.32-5c0-.89.47-1.62,1.1-2.25,1.62-1.63,1.42-1.83,3.03-3.46,1.62-1.63,1.92-1.33,3.54-2.96,1.62-1.64,1.16-2.09,2.78-3.72q1.62-1.64,3.24-3.27c1.27-1.28,3.93-1.25,5.2.03,1.61,1.63,1.27,1.97,2.89,3.6,1.62,1.63,1.6,1.65,3.22,3.28s1.56,1.69,3.18,3.33c1.62,1.64,1.58,1.67,3.2,3.31.63.63,1.03,1.23,1.03,2.12,0,2.5.42,2.5.42,4.99s-.47,2.5-.47,4.99.37,2.5.37,4.99c0,2.5-.48,2.5-.48,4.99,0,2.5.69,2.5.69,4.99s-.22,2.5-.22,4.99.21,2.5.21,4.99-.23,2.5-.23,5-.22,2.5-.22,5c0,2.5-.16,2.5-.16,5,0,2.5.37,2.5.37,4.99s.17,2.5.17,4.99.04,2.5.04,4.99c0,2.5-.66,2.5-.66,4.99,0,2.5.58,2.5.58,5s-.57,2.5-.57,5c0,2.5.46,2.5.46,5s-.08,2.5-.08,5-.32,2.5-.32,5c0,2.5.41,2.5.41,5,0,2.5-.69,2.56-.17,5.01.54,2.57,1.77,3.18-.07,4.88Zm-27.68-4.68c1.54,1.68,2.39-.21,4.67-.21s2.28.39,4.55.39,2.28-.19,4.55-.19,2.28.15,4.56.15,3.17,1.58,4.71-.1c1.68-1.83-.1-2.62-.1-5.11,0-2.48,0-2.48,0-4.97,0-2.48-.18-2.48-.18-4.97s.45-2.48.45-4.97-.11-2.48-.11-4.97c0-2.48-.42-2.48-.42-4.97,0-2.48.07-2.48.07-4.97,0-2.48.32-2.48.32-4.97,0-2.48-.02-2.48-.02-4.97,0-2.48-.36-2.48-.36-4.96s.29-2.48.29-4.97c0-2.48-.04-2.48-.04-4.97,0-2.48-.05-2.48-.05-4.97,0-2.49.04-2.49.04-4.97,0-2.49.11-2.49.11-4.97,0-2.49-.16-2.49-.16-4.97,0-2.49.02-2.49.02-4.97,0-2.48-.17-2.48-.17-4.97s.02-2.49.02-4.97-.15-2.49-.15-4.98c0-2.49,1.34-2.72.36-5.01-1.07-2.48-1.75-2.1-3.65-4.02-1.9-1.92-2.13-1.69-4.03-3.61-1.9-1.92-1.09-4-3.79-4.01-2.7,0-1.81,2.16-3.7,4.08s-2.21,1.61-4.11,3.53c-1.9,1.92-2.2,1.71-3.27,4.19-.98,2.28.02,2.35.02,4.84,0,2.48-.05,2.48-.05,4.97,0,2.48-.48,2.48-.48,4.97s-.02,2.48-.02,4.97-.08,2.48-.08,4.97-.05,2.48-.05,4.97c0,2.48.16,2.48.16,4.97,0,2.48.42,2.48.42,4.97,0,2.48-.47,2.48-.47,4.97,0,2.48.37,2.48.37,4.96,0,2.48-.48,2.48-.48,4.97,0,2.48.69,2.48.69,4.97s-.22,2.48-.22,4.97.21,2.49.21,4.97c0,2.49-.23,2.49-.23,4.97,0,2.49-.22,2.49-.22,4.97,0,2.49-.16,2.49-.16,4.97,0,2.48.37,2.48.37,4.97,0,2.49.17,2.49.17,4.97,0,2.49.57,2.61.04,5.04-.58,2.64-2.11,3.18-.43,5.02Zm23.34-103.86s.12-.16.12-.15c0,.08-.12.15-.12.15Zm-23.79-.26s.2.17.19.17c0,0-.2-.17-.19-.17Z" fill="#3c1053"></path><path d="m188.77,327.51c-1.62-1.63-1.64-1.61-3.26-3.24-1.62-1.63-1.41-1.84-3.03-3.47-1.62-1.64-2.07-1.19-3.69-2.83s-1.55-1.7-3.17-3.34c-.35-.36-.99-.75-1.34-.4-1.62,1.63-1.46,1.78-3.08,3.42s-1.58,1.67-3.19,3.31c-1.62,1.64-1.47,1.78-3.09,3.42s-1.53,1.72-3.15,3.36c-.17.17-.26.21-.26.45,0,2.56-.4,2.56-.4,5.12,0,2.56.44,2.56.44,5.11,0,2.56-.11,2.56-.11,5.11s.16,2.56.16,5.11-.34,2.56-.34,5.12-.05,2.56-.05,5.11c0,2.56.42,2.56.42,5.12,0,2.56-.24,2.56-.24,5.12,0,2.56-.1,2.56-.1,5.12s-.27,2.56-.27,5.11c0,2.56.17,2.56.17,5.12,0,2.56.06,2.56.06,5.11,0,2.56-.04,2.56-.04,5.12s.04,2.56.04,5.12c0,2.56.07,2.56.07,5.12s-.34,2.56-.34,5.12c0,2.56.06,2.56.06,5.12,0,2.56.4,2.56.4,5.12,0,2.56.05,2.56.05,5.12,0,2.56-.31,2.56-.31,5.12s-1.85,3.49.03,5.23c2.03,1.88,2.86-.16,5.63-.16s2.76.19,5.53.19,2.77-.28,5.53-.28,2.77.04,5.54.04,3.71,2.22,5.75.34c1.88-1.74.04-2.78.04-5.34,0-2.56-.23-2.56-.23-5.11,0-2.56.27-2.56.27-5.11,0-2.56.03-2.56.03-5.11s-.14-2.56-.14-5.12c0-2.56-.29-2.56-.29-5.11s0-2.56,0-5.12.16-2.56.16-5.12c0-2.56-.17-2.56-.17-5.12,0-2.56.23-2.56.23-5.11s.13-2.56.13-5.12-.44-2.56-.44-5.11c0-2.56.03-2.56.03-5.12s-.01-2.56-.01-5.12c0-2.56.06-2.56.06-5.12s.45-2.56.45-5.12-.39-2.56-.39-5.12.37-2.56.37-5.12-.48-2.56-.48-5.12c0-2.56.01-2.56.01-5.12s.25-2.56.25-5.12c0-.24-.14-.5-.31-.67Z" fill="#fff"></path><path d="m191.38,438.01c-1.99,1.84-2.65-.13-5.36-.13s-2.71.37-5.43.37c-2.71,0-2.71-.21-5.42-.21-2.71,0-2.71.2-5.43.2s-2.72-.14-5.43-.14c-2.72,0-3.58,1.98-5.58.14-1.84-1.69.31-2.65.31-5.15s-.29-2.5-.29-4.99.13-2.5.13-4.99c0-2.5-.23-2.5-.23-4.99,0-2.5.03-2.5.03-4.99s.38-2.5.38-4.99c0-2.5-.47-2.5-.47-4.99s.02-2.5.02-5,0-2.5,0-5c0-2.5.56-2.5.56-5s-.59-2.5-.59-4.99c0-2.5.38-2.5.38-4.99,0-2.5-.19-2.5-.19-4.99,0-2.5.17-2.5.17-4.99,0-2.5.25-2.5.25-5,0-2.5-.1-2.5-.1-5,0-2.5-.36-2.5-.36-5,0-2.5.37-2.5.37-5s.09-2.5.09-5c0-2.5-.54-2.5-.54-5,0-2.5.17-2.5.17-5,0-2.5.26-2.5.26-5,0-.89.14-1.74.77-2.37,1.62-1.63,1.83-1.42,3.45-3.05,1.62-1.63,1.25-1.99,2.87-3.63,1.62-1.64,1.67-1.58,3.29-3.22s1.83-1.42,3.45-3.06c1.27-1.28,3.41-1.41,4.67-.13,1.61,1.63,1.7,1.55,3.32,3.18q1.62,1.63,3.23,3.27c1.62,1.64,1.41,1.84,3.03,3.47,1.62,1.64,1.52,1.74,3.13,3.37.63.63.96,1.27.96,2.16,0,2.5.03,2.5.03,4.99,0,2.5.04,2.5.04,4.99s.26,2.5.26,4.99-.34,2.5-.34,4.99c0,2.5-.07,2.5-.07,4.99,0,2.5.23,2.5.23,4.99s.18,2.5.18,4.99.08,2.5.08,5-.18,2.5-.18,5c0,2.5.04,2.5.04,5,0,2.5-.27,2.5-.27,4.99q0,2.5,0,4.99c0,2.5.45,2.5.45,4.99,0,2.5.02,2.5.02,4.99,0,2.5-.23,2.5-.23,5,0,2.5.09,2.5.09,5,0,2.5-.06,2.5-.06,5s-.34,2.5-.34,5-.08,2.5-.08,5c0,2.5.45,2.5.45,5,0,2.5-.3,2.48.23,4.93.56,2.59,1.43,3.31-.41,5.01Zm-27.68-4.77c1.54,1.68,2.35.14,4.62.14s2.28-.37,4.55-.37,2.28.21,4.55.21,2.28-.2,4.56-.2,3,1.83,4.54.15c1.68-1.83-.2-2.47-.2-4.96s.37-2.48.37-4.97c0-2.48-.29-2.48-.29-4.97s.13-2.48.13-4.97c0-2.48-.23-2.48-.23-4.97,0-2.48.03-2.48.03-4.97s.38-2.48.38-4.97-.47-2.48-.47-4.97.02-2.48.02-4.97q0-2.48,0-4.96c0-2.48.56-2.48.56-4.97,0-2.48-.59-2.48-.59-4.97,0-2.48.38-2.48.38-4.97s-.19-2.49-.19-4.97c0-2.49.17-2.49.17-4.97,0-2.49.25-2.49.25-4.97,0-2.49-.1-2.49-.1-4.97,0-2.48-.36-2.48-.36-4.97,0-2.49.37-2.49.37-4.97s.09-2.49.09-4.98c0-2.49.47-2.6-.52-4.88-1.07-2.48-1.72-1.96-3.62-3.88-1.9-1.92-1.72-2.1-3.61-4.02-1.9-1.92-1.23-3.69-3.93-3.69-2.7,0-2.1,1.7-4,3.61s-1.54,2.28-3.43,4.2-2.75,1.26-3.82,3.74c-.98,2.28-.29,2.43-.29,4.91,0,2.48.19,2.48.19,4.97,0,2.48.12,2.48.12,4.97q0,2.48,0,4.97c0,2.48-.29,2.48-.29,4.97,0,2.48-.14,2.48-.14,4.97,0,2.48.07,2.48.07,4.97s.03,2.48.03,4.97c0,2.48.04,2.48.04,4.97,0,2.48.26,2.48.26,4.96,0,2.48-.34,2.48-.34,4.97,0,2.48-.07,2.48-.07,4.97,0,2.48.23,2.48.23,4.97s.18,2.49.18,4.97c0,2.49.08,2.49.08,4.97,0,2.49-.18,2.49-.18,4.97,0,2.49.04,2.49.04,4.97,0,2.48-.27,2.48-.27,4.97q0,2.49,0,4.97c0,2.49.96,2.6.44,5.03-.56,2.62-1.99,3.15-.31,4.99Zm23.29-103.88s-.19-.12-.19-.11c0,.05.18.11.19.11Zm-23.74-.16s-.07-.08-.07-.08c0,0,.07.08.07.08Z" fill="#3c1053"></path><path d="m259.76,327.32c-1.62-1.63-1.81-1.44-3.42-3.08-1.62-1.63-1.66-1.59-3.27-3.23s-1.76-1.49-3.38-3.13-1.51-1.75-3.12-3.39c-.35-.36-.96-.46-1.31-.11-1.62,1.63-1.49,1.76-3.1,3.39-1.62,1.63-1.87,1.39-3.48,3.02s-1.18,2.07-2.8,3.71-1.93,1.33-3.55,2.96c-.17.17.12.47.12.7,0,2.56-.64,2.56-.64,5.12,0,2.56.66,2.56.66,5.11q0,2.56,0,5.11c0,2.56-.25,2.56-.25,5.11s-.21,2.56-.21,5.12.19,2.56.19,5.11c0,2.56-.32,2.56-.32,5.12,0,2.56.48,2.56.48,5.12,0,2.56-.02,2.56-.02,5.12,0,2.56-.51,2.56-.51,5.11,0,2.56.55,2.56.55,5.12s-.33,2.56-.33,5.11c0,2.56-.18,2.56-.18,5.12,0,2.56.52,2.56.52,5.12,0,2.56-.41,2.56-.41,5.12s-.02,2.56-.02,5.12.32,2.56.32,5.12c0,2.56.02,2.56.02,5.12q0,2.56,0,5.12c0,2.56-.16,2.56-.16,5.12s-1.77,3.26.11,5c2.03,1.88,2.65.15,5.42.15s2.76.12,5.53.12,2.77,0,5.53,0,2.77-.04,5.54-.04,3.56,1.82,5.6-.05c1.88-1.74-.21-2.62-.21-5.18,0-2.56.35-2.56.35-5.11,0-2.56-.14-2.56-.14-5.11s-.41-2.56-.41-5.11.49-2.56.49-5.12.21-2.56.21-5.11c0-2.56-.38-2.56-.38-5.12,0-2.56-.27-2.56-.27-5.12s.47-2.56.47-5.12-.13-2.56-.13-5.11c0-2.56-.02-2.56-.02-5.12,0-2.56-.12-2.56-.12-5.11s.12-2.56.12-5.12c0-2.56-.19-2.56-.19-5.12s.3-2.56.3-5.12-.44-2.56-.44-5.12.02-2.56.02-5.12c0-2.56.51-2.56.51-5.12,0-2.56.05-2.56.05-5.12s-.48-2.56-.48-5.12-.08-2.56-.08-5.12c0-.24.44-.69.27-.86Z" fill="#fff"></path><path d="m262.26,438.11c-1.99,1.84-2.74-.29-5.45-.29s-2.71.29-5.43.29c-2.71,0-2.71.08-5.42.08-2.71,0-2.71-.22-5.43-.22-2.72,0-2.72-.12-5.43-.12s-3.32,1.95-5.32.11c-1.84-1.69-.18-2.38-.18-4.87s-.17-2.5-.17-4.99.45-2.5.45-4.99c0-2.5-.16-2.5-.16-4.99,0-2.5-.04-2.5-.04-4.99s.18-2.5.18-4.99c0-2.5-.17-2.5-.17-4.99s-.14-2.5-.14-5-.24-2.5-.24-5,.66-2.5.66-5-.32-2.5-.32-4.99c0-2.5.09-2.5.09-4.99,0-2.5-.26-2.5-.26-4.99,0-2.5.4-2.5.4-4.99s-.19-2.5-.19-5-.22-2.5-.22-5c0-2.5,0-2.5,0-5,0-2.5.37-2.5.37-5,0-2.5-.33-2.5-.33-5,0-2.5-.2-2.5-.2-5,0-2.5.07-2.5.07-5s.05-2.5.05-5c0-.89.79-1.5,1.42-2.14,1.62-1.63,1.26-1.99,2.87-3.62,1.62-1.63,1.66-1.59,3.28-3.22s1.9-1.36,3.52-2.99,1.31-1.94,2.93-3.58c1.27-1.28,3.64-1.2,4.91.08,1.61,1.63,1.52,1.73,3.13,3.36s1.88,1.37,3.5,3c1.62,1.64,1.35,1.9,2.97,3.54,1.62,1.64,1.58,1.67,3.2,3.31.63.63,1,1.37,1,2.26,0,2.5-.17,2.5-.17,4.99s.36,2.5.36,4.99-.39,2.5-.39,4.99c0,2.5.54,2.5.54,4.99s-.34,2.5-.34,4.99-.09,2.5-.09,4.99.41,2.5.41,4.99,0,2.5,0,5-.16,2.5-.16,5c0,2.5.25,2.5.25,5q0,2.5,0,4.99c0,2.5-.31,2.5-.31,4.99s-.34,2.5-.34,4.99.64,2.5.64,4.99c0,2.5-.23,2.5-.23,5,0,2.5-.16,2.5-.16,5,0,2.5.35,2.5.35,5,0,2.5-.19,2.5-.19,5,0,2.5-.3,2.5-.3,5,0,2.5.09,2.5.09,5,0,2.5-.14,2.49.41,4.94.59,2.64,1.56,3.4-.28,5.1Zm-27.67-4.95c1.54,1.68,2.25.29,4.52.29s2.28-.29,4.55-.29,2.28-.08,4.55-.08,2.28.22,4.56.22,3.19,1.72,4.73.04c1.68-1.83,0-2.64,0-5.13,0-2.48-.23-2.48-.23-4.97,0-2.48-.17-2.48-.17-4.97,0-2.48.45-2.48.45-4.97s-.16-2.48-.16-4.97-.04-2.48-.04-4.97.18-2.48.18-4.97-.17-2.48-.17-4.97c0-2.48-.14-2.48-.14-4.97s-.24-2.48-.24-4.96.66-2.48.66-4.97-.32-2.48-.32-4.97c0-2.48.09-2.48.09-4.97,0-2.49-.26-2.49-.26-4.97,0-2.49.4-2.49.4-4.97,0-2.49-.19-2.49-.19-4.97,0-2.49-.22-2.49-.22-4.97,0-2.48,0-2.48,0-4.97,0-2.49.37-2.49.37-4.97s-.33-2.49-.33-4.98c0-2.49.82-2.56-.17-4.84-1.07-2.48-1.77-1.86-3.67-3.78-1.9-1.92-1.87-1.95-3.76-3.87-1.9-1.92-.94-4.31-3.64-4.31-2.7,0-1.76,2.36-3.66,4.28-1.9,1.92-1.95,1.87-3.84,3.79-1.9,1.92-3.07,1.17-4.14,3.65-.98,2.28.41,2.6.41,5.08,0,2.48-.11,2.48-.11,4.97,0,2.48-.14,2.48-.14,4.97,0,2.48.38,2.48.38,4.97,0,2.48-.38,2.48-.38,4.97s-.05,2.48-.05,4.97.07,2.48.07,4.97c0,2.48-.17,2.48-.17,4.97,0,2.48.36,2.48.36,4.97,0,2.48-.39,2.48-.39,4.96,0,2.48.54,2.48.54,4.97,0,2.48-.34,2.48-.34,4.97,0,2.48-.09,2.48-.09,4.97,0,2.49.41,2.49.41,4.97q0,2.49,0,4.97c0,2.49-.16,2.49-.16,4.97,0,2.49.25,2.49.25,4.97q0,2.48,0,4.97c0,2.49-.31,2.49-.31,4.97,0,2.49.17,2.48-.33,4.92-.53,2.58-1.35,3.18.33,5.01Zm23.19-103.92s.27,0,.27,0c0-.02-.28,0-.27,0Zm-23.63.05s-.22-.2-.22-.2c0,0,.22.2.22.2Z" fill="#3c1053"></path><path d="m330.38,327.49c-1.62-1.63-1.48-1.76-3.1-3.4-1.62-1.63-1.73-1.52-3.35-3.15-1.62-1.64-1.77-1.49-3.39-3.12s-1.59-1.66-3.21-3.3c-.35-.36-1.11-.64-1.47-.29-1.62,1.63-1.45,1.79-3.07,3.43s-1.72,1.53-3.33,3.17-1.59,1.67-3.2,3.31-1.62,1.63-3.24,3.27c-.17.17-.12.55-.12.78,0,2.56.16,2.56.16,5.12,0,2.56.18,2.56.18,5.11,0,2.56-.1,2.56-.1,5.11s.08,2.56.08,5.11c0,2.56-.58,2.56-.58,5.12s.2,2.56.2,5.11c0,2.56-.12,2.56-.12,5.12,0,2.56.02,2.56.02,5.12,0,2.56.52,2.56.52,5.12,0,2.56-.36,2.56-.36,5.11,0,2.56.22,2.56.22,5.12s-.19,2.56-.19,5.11c0,2.56-.29,2.56-.29,5.12s.61,2.56.61,5.12c0,2.56-.1,2.56-.1,5.12s-.11,2.56-.11,5.12-.36,2.56-.36,5.12.54,2.56.54,5.12c0,2.56.01,2.56.01,5.12s-.25,2.56-.25,5.12-1.72,3.15.16,4.89c2.03,1.88,2.55.37,5.32.37s2.76-.18,5.53-.18,2.77.29,5.53.29,2.77-.43,5.54-.43,3.71,2.29,5.75.41c1.88-1.74-.5-2.78-.5-5.34q0-2.56,0-5.11c0-2.56.33-2.56.33-5.11,0-2.56-.01-2.56-.01-5.11s.2-2.56.2-5.12c0-2.56-.2-2.56-.2-5.11,0-2.56.01-2.56.01-5.12,0-2.56.03-2.56.03-5.12,0-2.56.08-2.56.08-5.12,0-2.56.01-2.56.01-5.11,0-2.56.17-2.56.17-5.12s-.09-2.56-.09-5.11c0-2.56-.51-2.56-.51-5.12,0-2.56.54-2.56.54-5.12s.04-2.56.04-5.12-.27-2.56-.27-5.12-.37-2.56-.37-5.12.21-2.56.21-5.12c0-2.56.09-2.56.09-5.12,0-2.56.16-2.56.16-5.12,0-2.56-.36-2.56-.36-5.12,0-.24.19-.52.03-.69Z" fill="#fff"></path><path d="m333.05,438.1c-1.99,1.84-2.73.1-5.44.1s-2.71.13-5.43.13-2.71,0-5.42,0c-2.71,0-2.71-.2-5.43-.2s-2.72-.17-5.43-.17c-2.72,0-3.44,1.97-5.44.14-1.84-1.69.13-2.5.13-5s-.32-2.5-.32-4.99-.1-2.5-.1-4.99.22-2.5.22-4.99c0-2.5.26-2.5.26-4.99s-.3-2.5-.3-4.99-.12-2.5-.12-4.99.52-2.5.52-5c0-2.5-.38-2.5-.38-5,0-2.5.02-2.5.02-5s-.08-2.5-.08-4.99c0-2.5.03-2.5.03-4.99s.25-2.5.25-4.99c0-2.5-.03-2.5-.03-4.99,0-2.5-.26-2.5-.26-5s.06-2.5.06-5c0-2.5.03-2.5.03-5,0-2.5-.02-2.5-.02-5s.11-2.5.11-5c0-2.5-.23-2.5-.23-5,0-2.5.14-2.5.14-5,0-2.5.11-2.5.11-5,0-.89.37-1.65,1-2.29,1.62-1.63,1.37-1.88,2.98-3.51,1.62-1.63,1.63-1.62,3.25-3.25,1.62-1.64,1.96-1.3,3.57-2.94,1.62-1.64,1.68-1.58,3.3-3.21,1.27-1.28,3.45-1.71,4.72-.43,1.62,1.63,1.65,1.6,3.26,3.24s1.58,1.67,3.2,3.3,1.48,1.77,3.1,3.41c1.62,1.64,1.59,1.67,3.21,3.3.62.63,1.16,1.49,1.16,2.37,0,2.5-.44,2.5-.44,4.99s.05,2.5.05,4.99-.04,2.5-.04,4.99.08,2.5.08,4.99c0,2.5.15,2.5.15,4.99,0,2.5.23,2.5.23,4.99,0,2.5.08,2.5.08,4.99s-.38,2.5-.38,5,.21,2.5.21,5-.27,2.5-.27,5c0,2.5.3,2.5.3,4.99,0,2.5.13,2.5.13,4.99s-.09,2.5-.09,4.99-.2,2.5-.2,4.99c0,2.5-.17,2.5-.17,5s-.15,2.5-.15,5c0,2.5.08,2.5.08,5s.4,2.5.4,5c0,2.5.16,2.5.16,5s-.33,2.5-.33,5c0,2.5-.32,2.51.23,4.95.59,2.63,1.63,3.38-.21,5.07Zm-27.67-4.94c1.54,1.68,2.26-.1,4.53-.1s2.28-.13,4.55-.13,2.28,0,4.55,0,2.28.2,4.56.2,3.11,1.81,4.65.13c1.68-1.83-.1-2.57-.1-5.06,0-2.48.13-2.48.13-4.97,0-2.48-.32-2.48-.32-4.97,0-2.48-.1-2.48-.1-4.97s.22-2.48.22-4.97.26-2.48.26-4.97-.3-2.48-.3-4.97c0-2.48-.12-2.48-.12-4.97s.52-2.48.52-4.97c0-2.48-.38-2.48-.38-4.96,0-2.48.02-2.48.02-4.97s-.08-2.48-.08-4.97c0-2.48.03-2.48.03-4.97s.25-2.49.25-4.97c0-2.49-.03-2.49-.03-4.97,0-2.49-.26-2.49-.26-4.97s.06-2.49.06-4.97c0-2.48.03-2.48.03-4.97s-.02-2.49-.02-4.97c0-2.49.11-2.49.11-4.98,0-2.49.77-2.61-.22-4.89-1.07-2.48-1.75-1.95-3.64-3.87-1.9-1.92-1.82-2-3.72-3.92-1.9-1.92-1.13-3.91-3.83-3.91-2.7,0-1.72,2.19-3.62,4.11-1.9,1.92-1.91,1.91-3.81,3.83-1.9,1.92-3.12,1.1-4.19,3.58-.98,2.28-.11,2.58-.11,5.07,0,2.48.61,2.48.61,4.97,0,2.48.05,2.48.05,4.97,0,2.48-.05,2.48-.05,4.97s-.19,2.48-.19,4.97-.04,2.48-.04,4.97c0,2.48.19,2.48.19,4.97,0,2.48-.44,2.48-.44,4.97s.05,2.48.05,4.97c0,2.48-.04,2.48-.04,4.96s.08,2.48.08,4.97c0,2.48.15,2.48.15,4.97,0,2.48.23,2.48.23,4.97,0,2.49.08,2.49.08,4.97,0,2.49-.38,2.49-.38,4.97,0,2.49.21,2.49.21,4.97s-.27,2.49-.27,4.97c0,2.48.3,2.48.3,4.97,0,2.49.13,2.49.13,4.97,0,2.49.4,2.59-.1,5.02-.53,2.58-1.89,3.08-.21,4.91Zm23.2-103.92s-.1.06-.1.06c0-.02.09-.06.1-.06Zm-23.64.03s.06.07.06.07c0,0-.06-.07-.06-.07Z" fill="#3c1053"></path><path d="m401.14,327.52c-1.62-1.63-1.53-1.72-3.14-3.36-1.62-1.63-1.63-1.62-3.24-3.26-1.62-1.64-1.51-1.75-3.13-3.38s-1.88-1.37-3.5-3.01c-.35-.36-.97-.49-1.32-.14-1.62,1.63-1.58,1.67-3.19,3.3s-1.7,1.55-3.31,3.19c-1.62,1.64-1.57,1.69-3.19,3.32-1.62,1.64-1.41,1.85-3.02,3.48-.17.17-.7.27-.7.51,0,2.56.43,2.56.43,5.12,0,2.56-.15,2.56-.15,5.11,0,2.56-.19,2.56-.19,5.11,0,2.56-.1,2.56-.1,5.11s.24,2.56.24,5.12c0,2.56.11,2.56.11,5.11s.3,2.56.3,5.12-.25,2.56-.25,5.12-.15,2.56-.15,5.12c0,2.56-.04,2.56-.04,5.11,0,2.56.2,2.56.2,5.12,0,2.56.26,2.56.26,5.11s-.02,2.56-.02,5.12c0,2.56-.6,2.56-.6,5.12s.56,2.56.56,5.12c0,2.56-.51,2.56-.51,5.12s.11,2.56.11,5.12c0,2.56.18,2.56.18,5.12,0,2.56.15,2.56.15,5.12s-.14,2.56-.14,5.12c0,2.56-1.76,3.17.12,4.91,2.03,1.88,2.57.43,5.33.43s2.76.08,5.53.08,2.77-.28,5.53-.28,2.77.31,5.54.31,3.51,1.56,5.54-.32c1.88-1.74.22-2.56.22-5.12s-.2-2.56-.2-5.11-.09-2.56-.09-5.11.15-2.56.15-5.11-.43-2.56-.43-5.12c0-2.56.04-2.56.04-5.11,0-2.56.18-2.56.18-5.12,0-2.56.14-2.56.14-5.12s-.04-2.56-.04-5.12c0-2.56-.24-2.56-.24-5.11s.48-2.56.48-5.12c0-2.56.07-2.56.07-5.11s-.08-2.56-.08-5.12-.53-2.56-.53-5.12c0-2.56.01-2.56.01-5.12,0-2.56.15-2.56.15-5.12,0-2.56.49-2.56.49-5.12,0-2.56-.63-2.56-.63-5.12,0-2.56-.05-2.56-.05-5.12s.6-2.56.6-5.12.02-2.56.02-5.12c0-.24-.34-.49-.51-.66Z" fill="#fff"></path><path d="m403.91,438.18c-1.99,1.84-2.8.11-5.51.11-2.71,0-2.71-.55-5.43-.55-2.71,0-2.71.07-5.42.07s-2.71.08-5.43.08-2.72.13-5.43.13-3.44,1.9-5.44.07c-1.84-1.69.11-2.5.11-5,0-2.5-.34-2.5-.34-4.99s.19-2.5.19-4.99c0-2.5-.02-2.5-.02-4.99,0-2.5-.21-2.5-.21-4.99,0-2.5.09-2.5.09-4.99s.25-2.5.25-4.99.04-2.5.04-5c0-2.5.22-2.5.22-5s-.23-2.5-.23-5c0-2.5-.03-2.5-.03-4.99,0-2.5-.28-2.5-.28-4.99s.37-2.5.37-4.99c0-2.5.08-2.5.08-4.99,0-2.5-.36-2.5-.36-5q0-2.5,0-5c0-2.5-.08-2.5-.08-5,0-2.5-.09-2.5-.09-5s.36-2.5.36-5c0-2.5,0-2.5,0-5,0-2.5.06-2.5.06-5,0-2.5-.25-2.5-.25-5,0-.89.24-1.93.87-2.56,1.62-1.63,1.95-1.3,3.57-2.93s1.63-1.62,3.24-3.25,1.3-1.96,2.91-3.59,1.58-1.68,3.2-3.31c1.27-1.28,3.69-1.04,4.95.24q1.61,1.63,3.23,3.27c1.62,1.63,1.8,1.46,3.41,3.09,1.62,1.64,1.38,1.87,3,3.51,1.62,1.64,1.66,1.59,3.28,3.23.63.63.94,1.42.94,2.31,0,2.5.17,2.5.17,4.99,0,2.5-.3,2.5-.3,4.99s.26,2.5.26,4.99-.31,2.5-.31,4.99c0,2.5.47,2.5.47,4.99q0,2.5,0,4.99c0,2.5-.41,2.5-.41,4.99s-.06,2.5-.06,5,.27,2.5.27,5,0,2.5,0,5c0,2.5.22,2.5.22,4.99,0,2.5.01,2.5.01,4.99q0,2.5,0,4.99c0,2.5-.1,2.5-.1,4.99s-.43,2.5-.43,5,.26,2.5.26,5c0,2.5-.17,2.5-.17,5,0,2.5-.13,2.5-.13,5,0,2.5.19,2.5.19,5,0,2.5-.18,2.5-.18,5,0,2.5.04,2.5.6,4.94.61,2.67,1.65,3.47-.19,5.16Zm-27.66-5.08c1.54,1.68,2.18-.12,4.46-.12s2.28.55,4.55.55,2.28-.07,4.55-.07,2.28-.08,4.56-.08,3.06,1.53,4.6-.15c1.68-1.83-.05-2.52-.05-5.01,0-2.48.12-2.48.12-4.97,0-2.48-.34-2.48-.34-4.97,0-2.48.19-2.48.19-4.97s-.02-2.48-.02-4.97c0-2.48-.21-2.48-.21-4.97s.09-2.48.09-4.97c0-2.48.25-2.48.25-4.97s.04-2.48.04-4.97c0-2.48.22-2.48.22-4.96s-.23-2.48-.23-4.97c0-2.48-.03-2.48-.03-4.97,0-2.48-.28-2.48-.28-4.97,0-2.49.37-2.49.37-4.97,0-2.49.08-2.49.08-4.97,0-2.49-.36-2.49-.36-4.97q0-2.49,0-4.97c0-2.48-.08-2.48-.08-4.97,0-2.49-.09-2.49-.09-4.97s.36-2.49.36-4.98c0-2.49.97-2.72-.01-5.01-1.07-2.48-1.87-1.98-3.77-3.9-1.9-1.92-2.07-1.75-3.97-3.67s-1.02-3.62-3.72-3.62c-2.7,0-2.03,1.49-3.92,3.41-1.9,1.92-1.91,1.91-3.81,3.83s-2.35,1.6-3.42,4.08c-.98,2.28.08,2.39.08,4.87,0,2.48-.34,2.48-.34,4.97q0,2.48,0,4.97c0,2.48.25,2.48.25,4.97,0,2.48-.34,2.48-.34,4.97s.06,2.48.06,4.97c0,2.48-.02,2.48-.02,4.97,0,2.48.17,2.48.17,4.97s-.3,2.48-.3,4.97c0,2.48.26,2.48.26,4.96,0,2.48-.31,2.48-.31,4.97,0,2.48.47,2.48.47,4.97q0,2.48,0,4.97c0,2.49-.41,2.49-.41,4.97,0,2.49-.06,2.49-.06,4.97,0,2.49.27,2.49.27,4.97q0,2.49,0,4.97c0,2.48.22,2.48.22,4.97,0,2.49.01,2.49.01,4.97s.48,2.58,0,5.02-1.82,3.01-.14,4.84Zm23.13-103.95s-.19.15-.19.14c0-.07.19-.14.19-.14Zm-23.56.2s.04.07.04.07c0,0-.04-.07-.04-.07Z" fill="#3c1053"></path></g></svg>