<?xml version="1.0" encoding="UTF-8"?>
<svg xmlns="http://www.w3.org/2000/svg" viewBox="0 0 500 500" width="64" height="64"><defs><linearGradient id="a" x1="8007.48" x2="8165.98" y1="38.47" y2="-111.97" gradientTransform="matrix(-.82004 -.67167 .82062 -.67218 6875.21 5657.89)" gradientUnits="userSpaceOnUse"><stop offset=".1" stop-color="#3ad356" stop-opacity=".9"/><stop offset=".15" stop-color="#3ad356" stop-opacity=".83"/><stop offset=".37" stop-color="#3ad356" stop-opacity=".54"/><stop offset=".58" stop-color="#3ad356" stop-opacity=".31"/><stop offset=".76" stop-color="#3ad356" stop-opacity=".14"/><stop offset=".9" stop-color="#3ad356" stop-opacity=".04"/><stop offset="1" stop-color="#3ad356" stop-opacity="0"/></linearGradient></defs><path fill="url(#a)" d="M307.47 136.82c0 3.62.2 3.62.2 7.24s.11 3.62.11 7.24-.26 3.62-.26 7.23c0 3.62.54 3.62.54 7.23 0 3.62-.63 3.62-.63 7.24s.66 3.62.66 7.24-.27 3.62-.27 7.24-.42 3.62-.42 7.24.97 3.62.97 7.24-.02 3.62-.02 7.24-.08 3.62-.08 7.24v7.24c0 3.62-.76 3.62-.76 7.24s.34 3.62.34 7.24-.48 3.62-.48 7.24.54 3.62.54 7.24-.52 3.62-.52 7.24.4 3.62.4 7.24-.11 3.62-.11 7.24.28 3.62.28 7.24-.2 3.62-.2 7.24.07 3.62.07 7.24-.17 3.62-.17 7.24-.25 3.62-.25 7.24.32 3.62.32 7.24.42 3.62.42 7.24-.73 3.62-.73 7.24.01 3.62.01 7.25c0 3.62.23 3.62.23 7.24s-.13 3.62-.13 7.25c0 3.62.55 3.62.55 7.25 0 2.18-1.25 4-2.68 5.43s-3.25 2.73-5.43 2.73c-3.72 0-3.72-.51-7.43-.51-3.71 0-3.71.37-7.42.37s-3.71.24-7.43.24-3.72-.78-7.43-.78c-3.71 0-3.71.12-7.43.12-3.71 0-3.71.53-7.43.53-3.72 0-3.72-.71-7.43-.71-3.71 0-3.71.8-7.43.8-3.72 0-3.72-.71-7.43-.71h-7.43c-3.72 0-3.72.51-7.43.51-3.72 0-3.72-.08-7.43-.08-3.72 0-3.72.02-7.43.02-3.72 0-3.72.34-7.43.34-3.72 0-3.72-.9-7.43-.9-3.72 0-3.72.5-7.43.5s-3.72-.15-7.43-.15c-3.72 0-3.72.33-7.43.33s-3.72-.53-7.43-.53c-3.72 0-3.72.22-7.43.22-3.71 0-3.71.63-7.43.63-3.72 0-3.72-.37-7.43-.37s-3.72-.54-7.43-.54c-3.72 0-3.72.42-7.43.42s-3.72.31-7.43.31c-3.72 0-3.72-.35-7.44-.35s-3.72.1-7.44.1-3.72-.24-7.44-.24-3.72.24-7.44.24c-2.18 0-4.1-1.01-5.53-2.44-1.43-1.43-2.18-3.35-2.18-5.53 0-3.62-.68-3.62-.68-7.24s.83-3.62.83-7.24-.16-3.62-.16-7.23c0-3.62-.1-3.62-.1-7.23 0-3.62-.42-3.62-.42-7.24s.48-3.62.48-7.24-.61-3.62-.61-7.24.62-3.62.62-7.24.23-3.62.23-7.24-.12-3.62-.12-7.24.21-3.62.21-7.24-.2-3.62-.2-7.24-.07-3.62-.07-7.24.11-3.62.11-7.24-.38-3.62-.38-7.24-.28-3.62-.28-7.24.63-3.62.63-7.24-.04-3.62-.04-7.24.04-3.62.04-7.24-.67-3.62-.67-7.24.87-3.62.87-7.24-.53-3.62-.53-7.24.08-3.62.08-7.24.46-3.62.46-7.24-.45-3.62-.45-7.24.02-3.62.02-7.24-.45-3.62-.45-7.24.59-3.62.59-7.25c0-3.62-.53-3.62-.53-7.24s.2-3.62.2-7.25v-7.25c0-2.18 1.1-4.07 2.53-5.5s3.31-2.09 5.5-2.09c3.72 0 3.72-.25 7.43-.25s3.71-.04 7.42-.04 3.71.29 7.43.29 3.72.12 7.43.12 3.71-.43 7.43-.43 3.71.3 7.43.3 3.72-.33 7.43-.33 3.71.47 7.43.47 3.72-.21 7.43-.21 3.71-.57 7.43-.57 3.72-.15 7.43-.15 3.72.27 7.43.27 3.72.29 7.43.29 3.72-.2 7.43-.2 3.72.58 7.43.58 3.72-.41 7.43-.41 3.72-.47 7.43-.47 3.72.61 7.43.61 3.72-.34 7.43-.34 3.72.26 7.43.26 3.71.24 7.43.24 3.72-.11 7.43-.11 3.72-.42 7.43-.42 3.72-.21 7.43-.21 3.72.36 7.43.36 3.72.42 7.44.42h7.44c3.72 0 3.72-.73 7.44-.73s3.72.2 7.44.2c2.18 0 4.42.76 5.85 2.19 1.43 1.43 1.64 3.67 1.64 5.85z"/><g fill="#3c1053"><path d="M404.89 371c-1.79 0-1.79.23-3.58.23s-1.79-.11-3.58-.11-1.79-.13-3.58-.13-1.79-.08-3.58-.08-1.79.26-3.58.26-1.79-.29-3.58-.29-1.79.35-3.58.35-1.79-.31-3.58-.31-1.79.22-3.58.22-1.79.13-3.58.13-1.79.02-3.57.02c-1.79 0-1.79-.35-3.57-.35s-1.79.16-3.58.16-1.79-.09-3.58-.09-1.79.24-3.58.24-1.79-.36-3.58-.36-1.79.2-3.58.2-1.79.17-3.58.17-1.79-.06-3.58-.06-1.79.05-3.58.05-1.79-.36-3.58-.36-1.79.46-3.58.46-1.79-.23-3.58-.23-1.79-.17-3.58-.17-1.79.25-3.58.25-1.79-.26-3.58-.26-1.79-.02-3.58-.02-1.79.25-3.58.25-1.79.16-3.58.16-1.79-.43-3.58-.43-1.79.35-3.58.35-1.79-.29-3.58-.29-1.79-.04-3.58-.04-1.79.11-3.58.11-1.79.14-3.58.14-1.79.14-3.58.14-1.79-.41-3.58-.41-1.79.15-3.58.15-1.79.13-3.58.13-1.79-.06-3.58-.06-1.79-.07-3.58-.07-1.79-.17-3.58-.17-1.79.43-3.58.43-1.79-.24-3.58-.24-1.79.06-3.58.06-1.79-.12-3.58-.12-1.79.29-3.58.29-1.79-.24-3.58-.24-1.79-.02-3.58-.02-1.79.23-3.58.23-1.79.08-3.58.08-1.79-.46-3.58-.46-1.79.04-3.59.04-1.79.15-3.58.15-1.79.08-3.58.08-1.79-.02-3.59-.02-1.79.08-3.59.08c-1.79 0-1.79.14-3.59.14s-1.79-.1-3.59-.1-1.79-.35-3.59-.35-1.79.19-3.59.19-1.8.13-3.59.13c-1.8 0-1.8.04-3.59.04-.83 0-1.52-.83-1.52-1.66s.69-1.61 1.52-1.61c1.79 0 1.79.1 3.58.1s1.79.07 3.58.07 1.79-.27 3.58-.27 1.79.06 3.58.06 1.79.36 3.58.36 1.79-.06 3.58-.06 1.79-.06 3.58-.06 1.79-.21 3.58-.21 1.79-.1 3.58-.1 1.79.14 3.58.14 1.79.06 3.57.06 1.79.19 3.57.19 1.79-.27 3.58-.27 1.79-.15 3.58-.15 1.79.43 3.58.43 1.79-.18 3.58-.18 1.79-.06 3.58-.06 1.79-.15 3.58-.15 1.79.21 3.58.21h3.58c1.79 0 1.79.22 3.58.22s1.79-.45 3.58-.45 1.79.36 3.58.36 1.79-.27 3.58-.27 1.79-.1 3.58-.1 1.79.06 3.58.06 1.79.04 3.58.04 1.79.22 3.58.22 1.79-.17 3.58-.17 1.79-.02 3.58-.02 1.79.3 3.58.3 1.79.04 3.58.04h3.58c1.79 0 1.79-.22 3.58-.22s1.79-.26 3.58-.26 1.79.03 3.58.03 1.79.45 3.58.45 1.79-.37 3.58-.37 1.79.19 3.58.19 1.79.08 3.58.08 1.79-.28 3.58-.28 1.79.31 3.58.31 1.79-.11 3.58-.11 1.79.13 3.58.13 1.79-.32 3.58-.32 1.79.31 3.58.31 1.79-.06 3.58-.06 1.79-.22 3.58-.22 1.79-.12 3.58-.12 1.79.07 3.58.07 1.79.27 3.58.27 1.79-.3 3.58-.3 1.79.06 3.59.06 1.79.07 3.58.07 1.79-.03 3.58-.03 1.79.23 3.59.23 1.79-.2 3.59-.2 1.79.19 3.59.19 1.79-.08 3.59-.08 1.79.03 3.59.03 1.79-.13 3.59-.13 1.8-.03 3.59-.03 1.8.31 3.59.31c.83 0 1.34.44 1.34 1.27s-.51 1.42-1.34 1.42zM419.37 370.87h-3.53c-1.77 0-1.77.25-3.53.25-.83 0-1.69-.71-1.69-1.54s.86-1.48 1.69-1.48c1.77 0 1.77.17 3.53.17s1.77.01 3.53.01c.83 0 1.69.47 1.69 1.3s-.86 1.3-1.69 1.3z"/></g><path fill="#fff" d="M423.56 250.03c0-1.21-.17-2.41-.2-3.61s-.15-2.41-.22-3.6-.29-2.39-.4-3.59c-.11-1.2-.15-2.4-.29-3.6s-.37-2.38-.55-3.57-.22-2.4-.43-3.59-.28-2.4-.53-3.58c-.25-1.18-.63-2.33-.92-3.5s-.81-2.28-1.13-3.43c-.32-1.16-.3-2.42-.66-3.57s-1-2.21-1.39-3.35c-.39-1.14-.65-2.33-1.08-3.45s-.74-2.3-1.2-3.41-1.02-2.19-1.51-3.29-1.15-2.12-1.68-3.2-.82-2.29-1.38-3.36-1.14-2.13-1.74-3.18-1.54-1.89-2.16-2.92c-.62-1.03-1.2-2.09-1.85-3.1s-1.28-2.04-1.96-3.03c-.69-.99-1.42-1.94-2.14-2.91s-1.57-1.83-2.31-2.77-1.2-2.12-1.97-3.05-1.66-1.75-2.46-2.65-1.48-1.92-2.3-2.79c-.83-.88-1.77-1.65-2.62-2.5s-1.83-1.57-2.71-2.4-1.86-1.53-2.76-2.32c-.9-.8-1.59-1.83-2.52-2.61s-1.84-1.55-2.79-2.3c-.95-.74-2.06-1.27-3.03-1.99s-1.93-1.44-2.92-2.13-2.04-1.28-3.05-1.93-1.85-1.59-2.88-2.21-2.06-1.26-3.11-1.85-2.11-1.16-3.18-1.73-2.18-1.02-3.27-1.55-2.14-1.1-3.24-1.6-2.2-.99-3.31-1.45-2.34-.63-3.46-1.06-2.27-.79-3.41-1.19-2.19-1.04-3.34-1.4-2.4-.38-3.56-.7-2.3-.71-3.47-1-2.37-.42-3.55-.67-2.32-.63-3.51-.85-2.38-.29-3.58-.47-2.35-.56-3.55-.71c-1.19-.14-2.41-.1-3.61-.2s-2.38-.39-3.58-.46-2.41.08-3.62.04-2.4-.05-3.61-.05-2.41-.09-3.61-.06-2.4.14-3.6.22c-1.21.07-2.43-.19-3.63-.08s-2.35.69-3.54.83-2.39.24-3.58.42-2.43.07-3.61.29-2.35.54-3.53.79c-1.18.25-2.39.37-3.56.66-1.17.29-2.26.88-3.42 1.2s-2.39.42-3.54.78c-1.15.36-2.23.94-3.37 1.33s-2.34.61-3.47 1.04-2.16 1.09-3.27 1.55c-1.11.46-2.2.98-3.29 1.47s-2.19 1-3.27 1.53-2.21.96-3.28 1.52c-1.07.56-2.12 1.15-3.17 1.74-1.05.59-2.03 1.3-3.06 1.92-1.03.62-2.08 1.22-3.09 1.87s-2.01 1.32-3 2-1.91 1.46-2.88 2.18c-.97.71-1.91 1.46-2.85 2.2s-1.86 1.53-2.78 2.3-2.11 1.24-3.01 2.04-1.83 1.58-2.7 2.41-1.6 1.81-2.45 2.67c-.85.85-1.73 1.68-2.56 2.55s-1.61 1.8-2.41 2.7-1.44 1.93-2.22 2.86c-.77.92-1.53 1.85-2.27 2.8s-1.58 1.82-2.29 2.79-1.49 1.89-2.18 2.88-1.21 2.09-1.87 3.1-1.24 2.06-1.86 3.09c-.62 1.03-1.17 2.1-1.76 3.15-.59 1.05-1.14 2.11-1.71 3.18s-1.15 2.11-1.67 3.19c-.53 1.08-1.04 2.17-1.53 3.27s-1.14 2.12-1.61 3.24-.96 2.21-1.38 3.34-.92 2.23-1.31 3.37-.71 2.3-1.07 3.45-.74 2.29-1.07 3.45-.47 2.37-.75 3.54-.42 2.37-.67 3.55-.46 2.36-.67 3.54c-.22 1.18-.64 2.33-.82 3.52s-.45 2.37-.59 3.57-.3 2.39-.41 3.59-.15 2.4-.22 3.61.17 2.41.14 3.62-.4 2.4-.4 3.61.01 2.42.05 3.62.08 2.42.15 3.61.52 2.38.62 3.58-.07 2.43.07 3.62c.14 1.2.55 2.36.73 3.55s.06 2.44.27 3.62.82 2.3 1.07 3.47.2 2.43.49 3.59.77 2.29 1.09 3.45c.32 1.16.63 2.33.98 3.48s.56 2.36.95 3.49c.39 1.14.79 2.28 1.22 3.41s1 2.2 1.46 3.31 1.01 2.19 1.5 3.29.82 2.28 1.35 3.36 1.28 2.05 1.84 3.12 1.18 2.1 1.78 3.14.94 2.24 1.56 3.27 1.39 1.98 2.04 2.99 1.55 1.86 2.24 2.85c.69.99 1.42 1.94 2.14 2.91s1.18 2.12 1.93 3.07 1.55 1.85 2.32 2.77 1.71 1.7 2.51 2.6c.8.9 1.66 1.74 2.48 2.62.83.88 1.54 1.85 2.4 2.7s1.74 1.66 2.61 2.49 1.67 1.74 2.57 2.54 1.68 1.74 2.61 2.51 2.07 1.27 3.02 2.01 1.79 1.63 2.76 2.34 2.02 1.31 3.01 2c.99.68 2 1.33 3.01 1.99s1.99 1.35 3.02 1.98 2.05 1.27 3.1 1.86 2.13 1.12 3.2 1.68 2.21.96 3.29 1.49 2.05 1.29 3.15 1.79 2.34.65 3.45 1.11 2.14 1.12 3.27 1.55 2.26.82 3.4 1.21c1.14.39 2.33.61 3.48.97s2.2 1.05 3.36 1.38 2.34.6 3.51.89 2.39.35 3.57.61 2.34.58 3.52.79 2.36.47 3.56.65 2.37.42 3.57.56 2.41.13 3.61.24 2.39.36 3.59.43 2.41.02 3.62.06c1.2.04 2.41-.03 3.62-.03s2.42.05 3.61.02 2.4-.34 3.6-.41c1.21-.07 2.42.02 3.61-.08s2.4-.21 3.6-.36c1.2-.14 2.4-.25 3.59-.43s2.36-.52 3.54-.74c1.19-.22 2.43-.17 3.6-.42s2.35-.56 3.52-.84 2.34-.61 3.5-.93 2.32-.68 3.47-1.04 2.16-1.14 3.3-1.53 2.37-.54 3.49-.96 2.18-1.04 3.29-1.5 2.36-.61 3.46-1.11 2.11-1.19 3.19-1.72 2.22-.96 3.28-1.52c1.07-.56 2.13-1.13 3.18-1.72s1.97-1.4 3-2.03c1.03-.62 2.05-1.26 3.06-1.92s2.09-1.2 3.08-1.89 1.84-1.56 2.81-2.27 1.94-1.42 2.88-2.17c.95-.74 1.82-1.57 2.75-2.34s2-1.36 2.9-2.16 1.79-1.62 2.66-2.44 1.87-1.53 2.73-2.38 1.46-1.94 2.29-2.81 1.75-1.66 2.54-2.57c.8-.9 1.37-1.99 2.15-2.91.77-.92 1.59-1.81 2.33-2.75s1.56-1.83 2.27-2.8 1.34-2 2.02-2.99 1.38-1.97 2.04-2.98 1.37-1.98 1.99-3.01 1.06-2.16 1.66-3.21c.59-1.05 1.17-2.1 1.73-3.16s1.2-2.09 1.73-3.17.98-2.19 1.48-3.29c.49-1.1 1.02-2.18 1.48-3.29s.82-2.26 1.25-3.39.99-2.2 1.38-3.34.7-2.3 1.06-3.45.9-2.24 1.22-3.41.47-2.36.76-3.54.44-2.36.69-3.54.65-2.32.86-3.51.3-2.39.48-3.58.5-2.36.64-3.56c.14-1.19.02-2.41.12-3.62s.64-2.36.71-3.57c.07-1.2-.02-2.41.02-3.62s.06-2.41.06-3.62z"/><path fill="none" stroke="#3c1053" stroke-miterlimit="10" stroke-width="3.46" d="M423.56 250.03c0-1.21-.17-2.41-.2-3.61s-.15-2.41-.22-3.6-.29-2.39-.4-3.59c-.11-1.2-.15-2.4-.29-3.6s-.37-2.38-.55-3.57-.22-2.4-.43-3.59-.28-2.4-.53-3.58c-.25-1.18-.63-2.33-.92-3.5s-.81-2.28-1.13-3.43c-.32-1.16-.3-2.42-.66-3.57s-1-2.21-1.39-3.35c-.39-1.14-.65-2.33-1.08-3.45s-.74-2.3-1.2-3.41-1.02-2.19-1.51-3.29-1.15-2.12-1.68-3.2-.82-2.29-1.38-3.36-1.14-2.13-1.74-3.18-1.54-1.89-2.16-2.92c-.62-1.03-1.2-2.09-1.85-3.1s-1.28-2.04-1.96-3.03c-.69-.99-1.42-1.94-2.14-2.91s-1.57-1.83-2.31-2.77-1.2-2.12-1.97-3.05-1.66-1.75-2.46-2.65-1.48-1.92-2.3-2.79c-.83-.88-1.77-1.65-2.62-2.5s-1.83-1.57-2.71-2.4-1.86-1.53-2.76-2.32c-.9-.8-1.59-1.83-2.52-2.61s-1.84-1.55-2.79-2.3c-.95-.74-2.06-1.27-3.03-1.99s-1.93-1.44-2.92-2.13-2.04-1.28-3.05-1.93-1.85-1.59-2.88-2.21-2.06-1.26-3.11-1.85-2.11-1.16-3.18-1.73-2.18-1.02-3.27-1.55-2.14-1.1-3.24-1.6-2.2-.99-3.31-1.45-2.34-.63-3.46-1.06-2.27-.79-3.41-1.19-2.19-1.04-3.34-1.4-2.4-.38-3.56-.7-2.3-.71-3.47-1-2.37-.42-3.55-.67-2.32-.63-3.51-.85-2.38-.29-3.58-.47-2.35-.56-3.55-.71c-1.19-.14-2.41-.1-3.61-.2s-2.38-.39-3.58-.46-2.41.08-3.62.04-2.4-.05-3.61-.05-2.41-.09-3.61-.06-2.4.14-3.6.22c-1.21.07-2.43-.19-3.63-.08s-2.35.69-3.54.83-2.39.24-3.58.42-2.43.07-3.61.29-2.35.54-3.53.79c-1.18.25-2.39.37-3.56.66-1.17.29-2.26.88-3.42 1.2s-2.39.42-3.54.78c-1.15.36-2.23.94-3.37 1.33s-2.34.61-3.47 1.04-2.16 1.09-3.27 1.55c-1.11.46-2.2.98-3.29 1.47s-2.19 1-3.27 1.53-2.21.96-3.28 1.52c-1.07.56-2.12 1.15-3.17 1.74-1.05.59-2.03 1.3-3.06 1.92-1.03.62-2.08 1.22-3.09 1.87s-2.01 1.32-3 2-1.91 1.46-2.88 2.18c-.97.71-1.91 1.46-2.85 2.2s-1.86 1.53-2.78 2.3-2.11 1.24-3.01 2.04-1.83 1.58-2.7 2.41-1.6 1.81-2.45 2.67c-.85.85-1.73 1.68-2.56 2.55s-1.61 1.8-2.41 2.7-1.44 1.93-2.22 2.86c-.77.92-1.53 1.85-2.27 2.8s-1.58 1.82-2.29 2.79-1.49 1.89-2.18 2.88-1.21 2.09-1.87 3.1-1.24 2.06-1.86 3.09c-.62 1.03-1.17 2.1-1.76 3.15-.59 1.05-1.14 2.11-1.71 3.18s-1.15 2.11-1.67 3.19c-.53 1.08-1.04 2.17-1.53 3.27s-1.14 2.12-1.61 3.24-.96 2.21-1.38 3.34-.92 2.23-1.31 3.37-.71 2.3-1.07 3.45-.74 2.29-1.07 3.45-.47 2.37-.75 3.54-.42 2.37-.67 3.55-.46 2.36-.67 3.54c-.22 1.18-.64 2.33-.82 3.52s-.45 2.37-.59 3.57-.3 2.39-.41 3.59-.15 2.4-.22 3.61.17 2.41.14 3.62-.4 2.4-.4 3.61.01 2.42.05 3.62.08 2.42.15 3.61.52 2.38.62 3.58-.07 2.43.07 3.62c.14 1.2.55 2.36.73 3.55s.06 2.44.27 3.62.82 2.3 1.07 3.47.2 2.43.49 3.59.77 2.29 1.09 3.45c.32 1.16.63 2.33.98 3.48s.56 2.36.95 3.49c.39 1.14.79 2.28 1.22 3.41s1 2.2 1.46 3.31 1.01 2.19 1.5 3.29.82 2.28 1.35 3.36 1.28 2.05 1.84 3.12 1.18 2.1 1.78 3.14.94 2.24 1.56 3.27 1.39 1.98 2.04 2.99 1.55 1.86 2.24 2.85c.69.99 1.42 1.94 2.14 2.91s1.18 2.12 1.93 3.07 1.55 1.85 2.32 2.77 1.71 1.7 2.51 2.6c.8.9 1.66 1.74 2.48 2.62.83.88 1.54 1.85 2.4 2.7s1.74 1.66 2.61 2.49 1.67 1.74 2.57 2.54 1.68 1.74 2.61 2.51 2.07 1.27 3.02 2.01 1.79 1.63 2.76 2.34 2.02 1.31 3.01 2c.99.68 2 1.33 3.01 1.99s1.99 1.35 3.02 1.98 2.05 1.27 3.1 1.86 2.13 1.12 3.2 1.68 2.21.96 3.29 1.49 2.05 1.29 3.15 1.79 2.34.65 3.45 1.11 2.14 1.12 3.27 1.55 2.26.82 3.4 1.21c1.14.39 2.33.61 3.48.97s2.2 1.05 3.36 1.38 2.34.6 3.51.89 2.39.35 3.57.61 2.34.58 3.52.79 2.36.47 3.56.65 2.37.42 3.57.56 2.41.13 3.61.24 2.39.36 3.59.43 2.41.02 3.62.06c1.2.04 2.41-.03 3.62-.03s2.42.05 3.61.02 2.4-.34 3.6-.41c1.21-.07 2.42.02 3.61-.08s2.4-.21 3.6-.36c1.2-.14 2.4-.25 3.59-.43s2.36-.52 3.54-.74c1.19-.22 2.43-.17 3.6-.42s2.35-.56 3.52-.84 2.34-.61 3.5-.93 2.32-.68 3.47-1.04 2.16-1.14 3.3-1.53 2.37-.54 3.49-.96 2.18-1.04 3.29-1.5 2.36-.61 3.46-1.11 2.11-1.19 3.19-1.72 2.22-.96 3.28-1.52c1.07-.56 2.13-1.13 3.18-1.72s1.97-1.4 3-2.03c1.03-.62 2.05-1.26 3.06-1.92s2.09-1.2 3.08-1.89 1.84-1.56 2.81-2.27 1.94-1.42 2.88-2.17c.95-.74 1.82-1.57 2.75-2.34s2-1.36 2.9-2.16 1.79-1.62 2.66-2.44 1.87-1.53 2.73-2.38 1.46-1.94 2.29-2.81 1.75-1.66 2.54-2.57c.8-.9 1.37-1.99 2.15-2.91.77-.92 1.59-1.81 2.33-2.75s1.56-1.83 2.27-2.8 1.34-2 2.02-2.99 1.38-1.97 2.04-2.98 1.37-1.98 1.99-3.01 1.06-2.16 1.66-3.21c.59-1.05 1.17-2.1 1.73-3.16s1.2-2.09 1.73-3.17.98-2.19 1.48-3.29c.49-1.1 1.02-2.18 1.48-3.29s.82-2.26 1.25-3.39.99-2.2 1.38-3.34.7-2.3 1.06-3.45.9-2.24 1.22-3.41.47-2.36.76-3.54.44-2.36.69-3.54.65-2.32.86-3.51.3-2.39.48-3.58.5-2.36.64-3.56c.14-1.19.02-2.41.12-3.62s.64-2.36.71-3.57c.07-1.2-.02-2.41.02-3.62s.06-2.41.06-3.62z"/><path fill="#3ad356" d="M405.1 250.03c0-1.21-.13-2.41-.17-3.61s.19-2.43.11-3.63-.21-2.41-.33-3.61-.21-2.41-.38-3.6-.82-2.31-1.03-3.5-.44-2.36-.7-3.54c-.26-1.18-.52-2.35-.81-3.51s-.61-2.33-.95-3.48-.39-2.4-.77-3.54-.7-2.32-1.12-3.44-1.21-2.12-1.67-3.23-.87-2.25-1.37-3.34-1.12-2.13-1.66-3.21-1.02-2.18-1.6-3.23-1.15-2.11-1.77-3.15-1.06-2.18-1.71-3.19-1.4-1.96-2.09-2.95-1.62-1.8-2.34-2.76-1.44-1.93-2.19-2.86-1.32-2.04-2.11-2.95-1.83-1.59-2.65-2.47-1.4-1.99-2.25-2.84-1.73-1.68-2.61-2.5c-.88-.82-1.72-1.7-2.63-2.49s-1.87-1.52-2.81-2.28-1.99-1.37-2.96-2.09-1.92-1.45-2.91-2.14-2.02-1.31-3.03-1.96c-1.01-.65-2.09-1.2-3.12-1.81-1.03-.61-2.04-1.27-3.1-1.85s-2.14-1.1-3.21-1.64-2.14-1.09-3.24-1.59-2.19-1-3.3-1.46-2.18-1.04-3.31-1.46c-1.13-.42-2.23-.92-3.38-1.3s-2.31-.68-3.47-1.02-2.37-.47-3.54-.77-2.27-.85-3.45-1.11-2.38-.41-3.57-.62-2.39-.3-3.59-.47c-1.19-.17-2.4-.15-3.61-.27s-2.39-.21-3.6-.29-2.39-.35-3.6-.39-2.41-.07-3.62-.07-2.41.13-3.61.17-2.41.09-3.61.17-2.43 0-3.62.12-2.4.33-3.58.5-2.33.69-3.51.9c-1.19.21-2.46-.02-3.64.24s-2.33.66-3.49.96-2.28.8-3.44 1.14-2.3.71-3.44 1.09-2.3.71-3.43 1.13c-1.13.42-2.34.64-3.45 1.1-1.11.46-2.22.95-3.32 1.45s-2.08 1.24-3.16 1.78-2.22.96-3.27 1.54-2.14 1.12-3.17 1.74-1.97 1.4-2.98 2.06-2.14 1.15-3.13 1.84-1.81 1.62-2.77 2.34c-.96.72-1.96 1.4-2.9 2.16s-1.8 1.61-2.71 2.4-2.01 1.37-2.89 2.19-1.5 1.92-2.35 2.77c-.85.85-1.91 1.51-2.73 2.39-.82.88-1.5 1.9-2.29 2.81s-1.67 1.75-2.43 2.68-1.55 1.85-2.27 2.82-1.46 1.92-2.15 2.91c-.69.99-1.13 2.15-1.78 3.16s-1.47 1.93-2.08 2.96c-.61 1.03-.92 2.25-1.5 3.31s-1.12 2.13-1.66 3.2c-.54 1.08-1.31 2.04-1.81 3.14s-.7 2.32-1.16 3.43-1.06 2.17-1.48 3.3c-.42 1.13-1.04 2.19-1.42 3.33s-.46 2.38-.8 3.54-.85 2.26-1.15 3.43-.43 2.37-.68 3.55-.47 2.36-.68 3.55-.27 2.39-.44 3.58c-.17 1.19-.63 2.34-.76 3.55s-.19 2.4-.28 3.61.08 2.41.04 3.62 0 2.4 0 3.61-.05 2.41 0 3.61-.1 2.42-.02 3.62c.09 1.21.16 2.41.29 3.61.13 1.2.46 2.38.63 3.56s.46 2.36.68 3.55c.21 1.19.12 2.44.37 3.61s.74 2.3 1.04 3.47.33 2.41.67 3.57.99 2.22 1.37 3.36.9 2.23 1.32 3.36c.42 1.13.58 2.36 1.04 3.47s.95 2.22 1.45 3.31c.5 1.1 1.1 2.15 1.64 3.22.54 1.08 1.04 2.18 1.62 3.23s1.12 2.14 1.73 3.18 1.5 1.91 2.15 2.92c.65 1.01 1.4 1.95 2.09 2.94s1.27 2.05 1.99 3.01 1.26 2.07 2.02 3.01 1.76 1.67 2.55 2.58 1.31 2.06 2.13 2.94 1.72 1.7 2.57 2.55 1.96 1.44 2.84 2.26 1.77 1.62 2.68 2.41 1.57 1.87 2.51 2.63 2.05 1.29 3.01 2.02c.96.72 1.79 1.64 2.78 2.32.99.69 2.13 1.15 3.15 1.8 1.01.65 2.05 1.25 3.09 1.87 1.03.61 2.06 1.24 3.12 1.82 1.06.58 2.15 1.08 3.23 1.62s2.09 1.21 3.19 1.71 2.32.7 3.43 1.16 2.13 1.15 3.26 1.57 2.29.73 3.44 1.11 2.21.99 3.37 1.33 2.34.6 3.51.9 2.32.65 3.5.91c1.17.25 2.41.25 3.59.47s2.33.66 3.53.83c1.19.17 2.39.32 3.59.44s2.44-.23 3.64-.15 2.39.3 3.6.34 2.4.37 3.61.37 2.42-.19 3.62-.23c1.21-.04 2.42 0 3.62-.08s2.42-.15 3.61-.28 2.36-.63 3.54-.8 2.4-.24 3.58-.46c1.19-.21 2.37-.45 3.54-.7s2.39-.38 3.56-.68 2.24-.96 3.39-1.29c1.16-.34 2.41-.36 3.55-.74s2.18-1.05 3.31-1.47 2.36-.58 3.47-1.04c1.11-.46 2.18-1.04 3.28-1.54 1.1-.5 2.16-1.07 3.24-1.61s2.19-1.01 3.25-1.59 2.05-1.28 3.08-1.89 1.97-1.38 2.99-2.04 2.03-1.29 3.01-1.98 2.19-1.08 3.16-1.8 1.87-1.54 2.8-2.29 1.88-1.52 2.79-2.31c.91-.79 1.66-1.76 2.54-2.58s1.88-1.52 2.73-2.37 1.64-1.77 2.47-2.65c.82-.88 1.67-1.74 2.46-2.65s1.29-2.06 2.05-3c.76-.94 1.63-1.78 2.35-2.74s1.43-1.93 2.12-2.92c.69-.99 1.25-2.06 1.9-3.07s1.53-1.88 2.15-2.92 1.08-2.16 1.66-3.22 1.3-2.04 1.84-3.12.76-2.3 1.27-3.4 1.36-2.04 1.82-3.15.49-2.39.91-3.52c.42-1.13 1.07-2.17 1.45-3.32s.64-2.32.98-3.48.59-2.33.88-3.5.91-2.26 1.16-3.44.1-2.43.31-3.62.44-2.36.61-3.56.65-2.34.77-3.55-.21-2.43-.12-3.64.5-2.38.54-3.59-.04-2.41-.04-3.62z"/><path fill="#fff" d="M392.82 250.03c0-1.2-.06-2.39-.1-3.58-.05-1.2-.33-2.37-.42-3.56s-.17-2.38-.31-3.56-.09-2.4-.28-3.58-.47-2.35-.71-3.51-.46-2.35-.75-3.5-.59-2.32-.92-3.46-.62-2.32-.99-3.44-1.12-2.14-1.54-3.25c-.42-1.12-.77-2.26-1.24-3.35s-1.02-2.15-1.53-3.23-.8-2.27-1.36-3.32-1.15-2.1-1.75-3.13-1.22-2.05-1.86-3.06-1.27-2.03-1.95-3.01-1.7-1.72-2.41-2.67-1.28-2.02-2.03-2.95c-.75-.92-1.34-2-2.13-2.89-.79-.89-1.81-1.58-2.64-2.44s-1.79-1.58-2.65-2.41c-.86-.83-1.43-1.96-2.33-2.75-.89-.79-1.99-1.34-2.91-2.1s-1.73-1.67-2.68-2.38-2.16-1.08-3.14-1.76-1.77-1.65-2.77-2.29-2.11-1.12-3.15-1.71-2.05-1.22-3.11-1.77-2.08-1.17-3.16-1.68-2.23-.86-3.33-1.33-2.1-1.17-3.22-1.6c-1.11-.42-2.33-.58-3.46-.95s-2.24-.8-3.39-1.14c-1.14-.33-2.35-.43-3.51-.71s-2.29-.63-3.47-.87-2.34-.41-3.52-.6-2.32-.61-3.51-.75-2.37-.25-3.56-.35-2.39.1-3.59.05-2.37-.27-3.57-.27-2.4-.05-3.58 0-2.4.08-3.58.17-2.39.19-3.57.33-2.34.51-3.52.7-2.36.37-3.53.6-2.35.44-3.51.72-2.26.78-3.41 1.11-2.37.43-3.49.81c-1.13.38-2.13 1.13-3.24 1.55s-2.34.56-3.44 1.03-2.11 1.12-3.19 1.63c-1.08.51-2.15 1.03-3.2 1.59-1.06.56-2 1.31-3.03 1.9s-2.23.91-3.24 1.55-1.96 1.37-2.94 2.05c-.98.68-1.96 1.36-2.91 2.08-.95.72-2 1.32-2.92 2.08-.92.75-1.73 1.65-2.62 2.44s-1.74 1.63-2.6 2.45-1.76 1.61-2.59 2.47-1.65 1.73-2.44 2.62c-.79.89-1.45 1.9-2.21 2.82s-1.43 1.91-2.14 2.86-1.44 1.89-2.12 2.87c-.68.98-1.37 1.95-2.01 2.96s-1.18 2.07-1.78 3.1c-.6 1.03-1.25 2.03-1.81 3.08s-1.33 2-1.84 3.08-.55 2.37-1.02 3.46-1.37 2.02-1.79 3.13-.52 2.35-.9 3.48-.97 2.19-1.31 3.34-.49 2.34-.78 3.5c-.28 1.15-.53 2.32-.76 3.49s-.63 2.31-.82 3.49c-.19 1.17.07 2.41-.08 3.6-.14 1.18-.56 2.33-.66 3.52s.11 2.39.06 3.58-.3 2.37-.3 3.57-.03 2.39.01 3.58c.05 1.2.09 2.39.19 3.58s.51 2.35.66 3.53-.06 2.42.13 3.59.41 2.36.65 3.52c.24 1.17.57 2.32.86 3.48s.8 2.26 1.13 3.4.33 2.4.7 3.53 1.11 2.14 1.53 3.25.74 2.27 1.2 3.37 1.06 2.14 1.57 3.21.9 2.22 1.45 3.27c.56 1.06 1.17 2.08 1.76 3.12.6 1.03 1.4 1.94 2.04 2.95s1.09 2.14 1.77 3.12c.68.98 1.47 1.88 2.18 2.84s1.34 1.98 2.09 2.91 1.54 1.83 2.33 2.72 1.82 1.56 2.65 2.42c.83.86 1.5 1.87 2.36 2.7.86.83 1.66 1.72 2.56 2.51s1.88 1.47 2.81 2.23 1.99 1.33 2.94 2.04c.95.72 1.89 1.44 2.87 2.12s2.01 1.27 3.02 1.91 1.82 1.6 2.85 2.19 2.08 1.17 3.14 1.72 2.28.77 3.36 1.28c1.07.51 2.07 1.19 3.17 1.66s2.29.68 3.41 1.1 2.14 1.09 3.27 1.46 2.31.57 3.46.91 2.24.85 3.4 1.14 2.36.34 3.54.58c1.16.24 2.33.5 3.51.69s2.34.47 3.53.62c1.18.14 2.37.2 3.57.29s2.37.33 3.56.38 2.39.07 3.58.07 2.38-.45 3.57-.5c1.2-.05 2.38-.12 3.56-.21s2.37-.18 3.55-.32c1.19-.14 2.43.14 3.61-.05s2.32-.61 3.49-.84c1.17-.24 2.29-.69 3.45-.97 1.16-.29 2.33-.5 3.48-.83s2.36-.45 3.49-.83 2.28-.74 3.39-1.16 2.05-1.3 3.14-1.77 2.38-.53 3.45-1.04 2.04-1.27 3.09-1.82 2.11-1.11 3.14-1.7 2.02-1.27 3.03-1.91 1.92-1.41 2.9-2.09 1.99-1.31 2.94-2.03 1.93-1.4 2.85-2.15c.92-.75 2-1.33 2.89-2.12s1.62-1.77 2.48-2.6c.86-.83 1.64-1.73 2.46-2.59.83-.86 1.67-1.7 2.46-2.6.79-.89 1.56-1.8 2.32-2.72s1.58-1.79 2.3-2.74c.72-.95 1.3-2 1.98-2.98.68-.98 1.56-1.83 2.2-2.84.64-1.01 1.17-2.08 1.77-3.12s1.17-2.08 1.73-3.13 1.02-2.16 1.53-3.23.85-2.23 1.32-3.33.88-2.21 1.3-3.32.85-2.22 1.23-3.35.82-2.24 1.15-3.38.66-2.29.95-3.45c.28-1.15.34-2.36.57-3.53s.86-2.26 1.05-3.44c.19-1.17.12-2.39.27-3.58.14-1.18.53-2.34.63-3.53s-.27-2.4-.23-3.6.44-2.37.44-3.57z"/><g><path fill="#3ad356" d="M353.33 223.6c-1.27-1.27-1.04-1.5-2.32-2.77s-1.44-1.11-2.71-2.38-1.21-1.34-2.48-2.61c-1.27-1.27-1.39-1.16-2.66-2.44-1.27-1.27-1.02-1.53-2.3-2.8-1.05-1.05-2.99-.98-4.04.07q-1.24 1.24-2.49 2.48c-1.24 1.24-1.21 1.27-2.45 2.51s-1.12 1.37-2.36 2.61-1.48 1.01-2.72 2.25-1.22 1.27-2.46 2.51c-1.24 1.24-1.28 1.21-2.53 2.45s-.97 1.51-2.22 2.76c-1.24 1.24-1.34 1.15-2.58 2.4-1.24 1.24-1.3 1.18-2.55 2.43s-1.02 1.46-2.27 2.71-1.3 1.19-2.54 2.44c-1.24 1.24-1.2 1.29-2.44 2.53s-1.53.96-2.77 2.2-1.19 1.3-2.44 2.55c-1.25 1.25-1.08 1.41-2.32 2.66-1.25 1.25-1.18 1.31-2.43 2.56s-1.49 1-2.74 2.25-1.1 1.39-2.35 2.64c-.35.35-1.1.39-1.45.04l-2.49-2.49c-1.24-1.24-1.19-1.29-2.43-2.54s-1.03-1.46-2.27-2.7c-1.25-1.25-1.34-1.15-2.58-2.4s-1.47-1.02-2.72-2.26c-1.25-1.25-1.22-1.27-2.47-2.51s-1.28-1.21-2.53-2.46c-1.25-1.25-.96-1.54-2.2-2.79-1.05-1.05-3.02-1.08-4.07-.02-1.27 1.27-1.28 1.26-2.55 2.53s-1.2 1.35-2.47 2.62-1.05 1.5-2.32 2.77-1.28 1.27-2.56 2.54-1.33 1.22-2.6 2.49c-1.05 1.05-1.3 2.84-.25 3.9 1.26 1.25 1.24 1.27 2.5 2.52 1.26 1.26 1.46 1.06 2.71 2.31s1.2 1.31 2.45 2.57c1.26 1.26 1.14 1.37 2.4 2.63s1.49 1.02 2.75 2.28 1.02 1.5 2.28 2.75c1.26 1.26 1.47 1.05 2.73 2.3 1.26 1.25 1.06 1.45 2.31 2.71s1.28 1.23 2.54 2.48 1.37 1.15 2.63 2.4 1.12 1.4 2.38 2.65 1.23 1.29 2.49 2.54c1.26 1.26 1.42 1.1 2.68 2.36s1.3 1.22 2.56 2.48c1.05 1.05 2.89 1.24 3.95.18 1.25-1.25 1.21-1.29 2.46-2.54s1.3-1.2 2.55-2.45 1.19-1.31 2.43-2.56 1.11-1.39 2.35-2.64 1.16-1.33 2.41-2.58c1.25-1.25 1.24-1.26 2.49-2.52s1.44-1.06 2.69-2.31 1.15-1.35 2.39-2.6 1.25-1.25 2.5-2.5 1.22-1.29 2.47-2.54 1.26-1.24 2.51-2.49c1.25-1.25 1.32-1.18 2.58-2.43 1.25-1.25 1.35-1.15 2.6-2.4s1.33-1.18 2.58-2.43c1.25-1.25 1.15-1.35 2.4-2.6s1.01-1.49 2.27-2.74c1.25-1.25 1.57-.94 2.82-2.19 1.25-1.25 1.16-1.34 2.41-2.59s1.25-1.25 2.5-2.51 1.29-1.22 2.54-2.47 1.13-1.37 2.39-2.63 1.12-1.38 2.38-2.64c1.26-1.26 1.37-1.14 2.63-2.4 1.26-1.26 1.31-1.2 2.56-2.46 1.05-1.05.93-2.65-.12-3.71z"/></g></svg>
