<?xml version="1.0" encoding="UTF-8"?>
<svg xmlns="http://www.w3.org/2000/svg" viewBox="0 0 500 500" width="64" height="64"><defs><linearGradient id="a" x1="3443.46" x2="3611.93" y1="4595.3" y2="4435.39" gradientTransform="matrix(-.82004 -.67167 .82062 -.67218 -649.44 5652.99)" gradientUnits="userSpaceOnUse"><stop offset=".1" stop-color="#fbb200" stop-opacity=".9"/><stop offset=".24" stop-color="#fbb200" stop-opacity=".7"/><stop offset=".44" stop-color="#fbb200" stop-opacity=".45"/><stop offset=".63" stop-color="#fbb200" stop-opacity=".26"/><stop offset=".79" stop-color="#fbb200" stop-opacity=".12"/><stop offset=".92" stop-color="#fbb200" stop-opacity=".03"/><stop offset="1" stop-color="#fbb200" stop-opacity="0"/></linearGradient></defs><path fill="none" stroke="#fbb200" stroke-linecap="round" stroke-linejoin="round" stroke-width="10" d="M420.74 224.08c.17-1.16.59-2.27.69-3.42s.32-2.32.36-3.48c.04-1.17-.31-2.33-.34-3.49s.19-2.35.09-3.5-.46-2.29-.64-3.44-.22-2.33-.46-3.46c-.24-1.14-.42-2.3-.74-3.42s-.88-2.17-1.26-3.26-.63-2.25-1.09-3.32-1.05-2.09-1.57-3.12c-.52-1.04-1.25-1.96-1.84-2.96s-1.08-2.06-1.73-3.02-1.4-1.85-2.12-2.76c-.72-.91-1.38-1.88-2.16-2.74s-1.59-1.78-2.46-2.6-1.79-1.58-2.71-2.33-1.86-1.49-2.84-2.17-1.92-1.43-2.94-2.04-2.15-1.05-3.21-1.59-2.14-1.05-3.24-1.51-2.31-.58-3.45-.97-2.15-1.09-3.31-1.39-2.33-.49-3.5-.72c-1.16-.23-2.37-.16-3.56-.32-1.17-.16-2.32-.61-3.52-.7s-2.38-.13-3.58-.15-2.38-.03-3.58.03-2.36.19-3.55.31c-1.17.11-2.38.1-3.55.28s-2.3.64-3.46.87c-1.16.23-2.37.28-3.52.58s-2.22.85-3.36 1.2-2.19.89-3.31 1.3-2.33.53-3.43 1-2.09 1.12-3.16 1.64"/><path fill="#fbb200" d="M418.04 234.71c1.87.17 1.12-1.56 2.2-3.1s.89-1.67 1.97-3.2 1.14-1.49 2.22-3.02 1.28-1.39 2.36-2.93.88-1.67 1.96-3.21 1.25-1.42 2.33-2.95c1.08-1.54.86-1.69 1.94-3.23s3.07-1.32 2.28-3.02-1.88-.36-3.75-.52-1.88-.05-3.75-.21c-1.87-.16-1.87-.14-3.74-.3s-1.86-.25-3.73-.42-1.89.04-3.76-.13-1.87-.18-3.74-.34-1.87-.23-3.74-.4-2.87-1.96-3.95-.42.99 1.84 1.78 3.54.76 1.72 1.55 3.42 1.02 1.59 1.82 3.29c.79 1.7.78 1.71 1.57 3.41.79 1.7.5 1.84 1.29 3.54s1.08 1.57 1.88 3.27c.8 1.7 1.25 1.6 1.61 3.45.4 2.06-.48 3.33 1.4 3.5z"/><path fill="none" stroke="#fbb200" stroke-linecap="round" stroke-linejoin="round" stroke-width="10" d="M418.04 234.71c1.87.17 1.12-1.56 2.2-3.1s.89-1.67 1.97-3.2 1.14-1.49 2.22-3.02 1.28-1.39 2.36-2.93.88-1.67 1.96-3.21 1.25-1.42 2.33-2.95c1.08-1.54.86-1.69 1.94-3.23s3.07-1.32 2.28-3.02-1.88-.36-3.75-.52-1.88-.05-3.75-.21c-1.87-.16-1.87-.14-3.74-.3s-1.86-.25-3.73-.42-1.89.04-3.76-.13-1.87-.18-3.74-.34-1.87-.23-3.74-.4-2.87-1.96-3.95-.42.99 1.84 1.78 3.54.76 1.72 1.55 3.42 1.02 1.59 1.82 3.29c.79 1.7.78 1.71 1.57 3.41.79 1.7.5 1.84 1.29 3.54s1.08 1.57 1.88 3.27c.8 1.7 1.25 1.6 1.61 3.45.4 2.06-.48 3.33 1.4 3.5z"/><path fill="url(#a)" d="M264.01 151.48c0 1.8-.06 1.8-.06 3.6s.02 1.8.02 3.6.1 1.8.1 3.6-.17 1.8-.17 3.6-.1 1.8-.1 3.6.41 1.8.41 3.6-.07 1.8-.07 3.6.08 1.8.08 3.6-.12 1.8-.12 3.6.12 1.8.12 3.6-.18 1.8-.18 3.6.1 1.8.1 3.6.1 1.8.1 3.6-.15 1.8-.15 3.6-.13 1.8-.13 3.6-.16 1.8-.16 3.6.3 1.8.3 3.6-.16 1.8-.16 3.6.04 1.8.04 3.6.14 1.8.14 3.6-.31 1.8-.31 3.6.04 1.8.04 3.6.19 1.8.19 3.6.11 1.8.11 3.6-.15 1.8-.15 3.61c0 1.8.05 1.8.05 3.6s-.17 1.8-.17 3.6.09 1.8.09 3.6.13 1.8.13 3.6.03 1.8.03 3.6.02 1.8.02 3.6.03 1.8.03 3.6-.16 1.8-.16 3.6.22 1.8.22 3.6-.07 1.8-.07 3.6-.32 1.8-.32 3.6-.04 1.8-.04 3.6.42 1.8.42 3.61-.15 1.8-.15 3.6.16 1.8.16 3.6-.17 1.8-.17 3.6-.21 1.8-.21 3.61.28 1.8.28 3.6-.25 1.8-.25 3.61-.16 1.8-.16 3.6.12 1.8.12 3.61-.1 1.8-.1 3.61c0 1.8.36 1.8.36 3.61 0 1.8-.03 1.8-.03 3.61 0 1.8-.25 1.8-.25 3.61 0 1.8.32 1.8.32 3.61s-.4 1.8-.4 3.61c0 1.81.18 1.81.18 3.61s.3 1.81.3 3.61c0 1.44-.6 2.81-1.27 3.97s-1.72 2.19-2.92 2.88-2.51 1.13-3.95 1.13c-1.81 0-1.81.02-3.62.02s-1.81-.04-3.62-.04h-3.62c-1.81 0-1.81.16-3.62.16s-1.81-.31-3.62-.31-1.81-.06-3.62-.06-1.81.28-3.62.28-1.81-.04-3.62-.04-1.81.11-3.62.11-1.81-.12-3.62-.12-1.81.01-3.61.01c-1.81 0-1.81-.09-3.61-.09s-1.81.02-3.61.02-1.81.19-3.61.19-1.81-.32-3.61-.32-1.81.05-3.62.05-1.81-.07-3.62-.07-1.81.09-3.62.09-1.81.09-3.61.09c-1.81 0-1.81-.03-3.61-.03-1.81 0-1.81-.21-3.61-.21-1.81 0-1.81.25-3.61.25s-1.81.09-3.62.09-1.81-.29-3.62-.29-1.81-.07-3.62-.07-1.81.13-3.62.13-1.81.31-3.61.31-1.81.02-3.61.02-1.81-.25-3.62-.25-1.81-.22-3.62-.22-1.81.13-3.62.13-1.81.3-3.62.3-1.81-.02-3.62-.02-1.81-.34-3.62-.34-1.81-.03-3.62-.03-1.81.33-3.62.33-1.81-.35-3.62-.35-1.81.35-3.62.35-1.81-.39-3.62-.39-1.81.05-3.62.05-1.81-.03-3.62-.03-1.81.18-3.62.18-1.81-.13-3.62-.13-1.81-.03-3.62-.03-1.81.25-3.62.25-1.81.06-3.62.06-1.81.1-3.62.1-1.81-.4-3.62-.4-1.81.18-3.62.18-1.81.11-3.62.11-1.81-.1-3.62-.1-1.81-.24-3.62-.24h-3.62c-1.81 0-1.81.44-3.62.44s-1.81-.01-3.62-.01-1.81-.11-3.62-.11-1.81-.1-3.62-.1-1.81.01-3.62.01-1.81-.19-3.62-.19-1.81.03-3.62.03-1.81.12-3.62.12-1.81.09-3.62.09-1.81.05-3.63.05c-1.81 0-1.81-.28-3.63-.28-1.44 0-2.84-.1-4-.77-1.2-.69-1.93-1.91-2.62-3.11-.67-1.16-1.3-2.39-1.3-3.83v-3.6c0-1.8.23-1.8.23-3.6s-.12-1.8-.12-3.6.06-1.8.06-3.6-.08-1.8-.08-3.6-.03-1.8-.03-3.6-.21-1.8-.21-3.6.26-1.8.26-3.6-.06-1.8-.06-3.6-.07-1.8-.07-3.6.27-1.8.27-3.6-.36-1.8-.36-3.6.27-1.8.27-3.6-.13-1.8-.13-3.6.09-1.8.09-3.6.11-1.8.11-3.6-.2-1.8-.2-3.6.15-1.8.15-3.6-.18-1.8-.18-3.6.03-1.8.03-3.6-.06-1.8-.06-3.6-.1-1.8-.1-3.6.29-1.8.29-3.6-.03-1.8-.03-3.6-.23-1.8-.23-3.61c0-1.8-.12-1.8-.12-3.6s.13-1.8.13-3.6-.1-1.8-.1-3.6.33-1.8.33-3.6-.27-1.8-.27-3.6.18-1.8.18-3.6-.12-1.8-.12-3.6.27-1.8.27-3.6-.34-1.8-.34-3.6.19-1.8.19-3.6-.15-1.8-.15-3.6.31-1.8.31-3.6.04-1.8.04-3.61-.05-1.8-.05-3.6-.05-1.8-.05-3.6-.29-1.8-.29-3.6.11-1.8.11-3.61-.2-1.8-.2-3.6.21-1.8.21-3.61.12-1.8.12-3.6-.31-1.8-.31-3.61c0-1.8.26-1.8.26-3.61s-.23-1.8-.23-3.61c0-1.8.08-1.8.08-3.61 0-1.8.17-1.8.17-3.61 0-1.8.12-1.8.12-3.61 0-1.8-.37-1.8-.37-3.61s.04-1.81.04-3.61c0-1.81.1-1.81.1-3.61 0-1.44.28-2.88.95-4.04s1.82-2.16 3.01-2.86c1.16-.67 2.54-.88 3.98-.88 1.81 0 1.81-.36 3.62-.36s1.81.06 3.62.06 1.81.38 3.62.38 1.81-.19 3.62-.19 1.81-.14 3.62-.14 1.81.21 3.62.21 1.81-.11 3.62-.11 1.81.22 3.62.22 1.81-.1 3.62-.1 1.81-.16 3.62-.16 1.81-.06 3.61-.06 1.81.28 3.61.28 1.81-.35 3.61-.35 1.81.04 3.61.04 1.81.35 3.61.35 1.81-.45 3.62-.45 1.81.44 3.62.44 1.81-.12 3.62-.12 1.81-.2 3.61-.2 1.81.31 3.61.31 1.81-.17 3.61-.17 1.81-.05 3.61-.05 1.81-.01 3.62-.01 1.81.23 3.62.23 1.81-.4 3.62-.4 1.81.38 3.62.38 1.81.04 3.61.04h3.61c1.8 0 1.81-.13 3.62-.13s1.81.1 3.62.1 1.81-.2 3.62-.2 1.81-.18 3.62-.18 1.81.1 3.62.1 1.81.2 3.62.2 1.81.15 3.62.15h3.62c1.81 0 1.81-.08 3.62-.08s1.81-.33 3.62-.33 1.81.18 3.62.18 1.81-.07 3.62-.07 1.81.29 3.62.29 1.81-.11 3.62-.11 1.81.11 3.62.11 1.81-.2 3.62-.2 1.81-.24 3.62-.24 1.81.09 3.62.09 1.81.14 3.62.14 1.81-.04 3.62-.04 1.81.15 3.62.15 1.81-.35 3.62-.35 1.81.19 3.62.19 1.81.03 3.62.03 1.81-.1 3.62-.1 1.81.05 3.62.05 1.81.23 3.62.23 1.81-.29 3.62-.29 1.81.04 3.62.04 1.81-.17 3.62-.17 1.81.03 3.62.03 1.81.17 3.62.17 1.81-.05 3.62-.05 1.81.19 3.62.19 1.81-.24 3.63-.24 1.81.11 3.63.11c1.44 0 2.67.61 3.84 1.28s2.25 1.53 2.95 2.73 1.14 2.48 1.14 3.92z"/><path fill="#fff" d="M351.78 247.75c0-1.22.1-2.43.06-3.64s-.18-2.42-.26-3.63c-.08-1.21-.28-2.41-.41-3.61s-.09-2.43-.25-3.63-.32-2.41-.53-3.6-.3-2.42-.55-3.6-.79-2.31-1.09-3.48-.47-2.39-.8-3.55c-.33-1.17-.67-2.34-1.04-3.49s-.7-2.33-1.11-3.47-1.1-2.18-1.55-3.3-.73-2.33-1.23-3.43-1.05-2.19-1.58-3.28-1.07-2.18-1.64-3.25-1.35-2.02-1.96-3.07-1.1-2.17-1.74-3.19-1.25-2.08-1.93-3.09-1.61-1.83-2.33-2.81-1.35-2.01-2.1-2.97-1.53-1.87-2.31-2.8-1.36-2.04-2.17-2.94-1.87-1.57-2.71-2.44-1.66-1.76-2.53-2.61-1.78-1.65-2.68-2.46-1.68-1.76-2.61-2.54c-.93-.78-1.8-1.64-2.75-2.39-.95-.75-1.99-1.39-2.97-2.11s-1.93-1.48-2.94-2.16-2.14-1.16-3.17-1.8-2.17-1.09-3.22-1.7-1.88-1.61-2.95-2.18c-1.07-.57-2.23-.97-3.32-1.5-1.09-.53-2.24-.93-3.35-1.42s-2.16-1.11-3.28-1.57-2.34-.66-3.48-1.08c-1.14-.41-2.22-.99-3.37-1.36s-2.27-.86-3.44-1.19-2.41-.38-3.58-.68-2.34-.64-3.52-.89c-1.18-.25-2.4-.31-3.6-.52-1.19-.21-2.34-.68-3.54-.85-1.2-.17-2.44.02-3.65-.11s-2.4-.29-3.61-.37-2.4-.39-3.62-.43-2.42-.03-3.64-.03-2.42.26-3.63.31c-1.22.04-2.45-.32-3.65-.23s-2.42.27-3.62.39c-1.21.13-2.42.28-3.62.44s-2.37.57-3.56.78-2.37.52-3.55.77-2.39.44-3.56.73c-1.18.29-2.33.67-3.49 1s-2.44.31-3.59.69-2.27.88-3.41 1.29-2.29.81-3.42 1.26-2.09 1.27-3.2 1.77c-1.11.49-2.18 1.05-3.27 1.58s-2.2 1.01-3.27 1.58-2.25.94-3.3 1.54-1.91 1.52-2.94 2.17-2.06 1.26-3.07 1.94-2.06 1.27-3.04 1.98-2.02 1.35-2.97 2.1-1.87 1.54-2.8 2.32-1.93 1.48-2.83 2.29-1.79 1.64-2.67 2.48-1.79 1.65-2.63 2.52-1.61 1.82-2.42 2.72c-.81.9-1.53 1.89-2.31 2.81s-1.35 2.02-2.1 2.98-1.62 1.81-2.34 2.79-1.59 1.85-2.27 2.85-1.24 2.09-1.88 3.12-1.05 2.2-1.65 3.25-1.17 2.11-1.74 3.18c-.57 1.07-1.11 2.15-1.64 3.24s-1.06 2.17-1.55 3.28-1.32 2.07-1.77 3.2-.83 2.28-1.25 3.42c-.41 1.14-.9 2.26-1.27 3.41s-.76 2.31-1.1 3.48c-.33 1.16-.65 2.34-.95 3.52s-.11 2.46-.36 3.65-.88 2.3-1.09 3.49-.2 2.42-.36 3.63-.12 2.42-.24 3.63-.56 2.38-.65 3.59-.16 2.42-.21 3.64.17 2.42.17 3.64-.03 2.43.01 3.64c.04 1.22.27 2.41.35 3.62s-.12 2.45 0 3.65c.13 1.21.26 2.42.43 3.62.17 1.2.36 2.41.57 3.6.21 1.2.36 2.41.61 3.59s.77 2.32 1.06 3.49.76 2.31 1.09 3.47.45 2.4.83 3.55.75 2.31 1.17 3.45.73 2.32 1.19 3.44c.46 1.13 1.15 2.15 1.64 3.25s1.15 2.13 1.69 3.22.8 2.31 1.37 3.38 1.05 2.2 1.66 3.24 1.58 1.88 2.22 2.91 1.34 2.02 2.01 3.02c.68 1 1.3 2.04 2.01 3.02s1.45 1.93 2.2 2.89c.75.96 1.45 1.94 2.23 2.87s1.53 1.88 2.34 2.78 1.58 1.84 2.42 2.72 1.63 1.81 2.5 2.65 1.95 1.46 2.85 2.27 1.73 1.7 2.66 2.48 1.86 1.56 2.82 2.3 1.99 1.38 2.97 2.1 1.81 1.65 2.81 2.33c1 .68 2.01 1.37 3.04 2.01 1.03.64 2.08 1.25 3.13 1.86s2.31.83 3.38 1.4 2.03 1.34 3.13 1.87 2.13 1.17 3.24 1.67 2.21 1 3.34 1.46 2.4.51 3.54.93 2.21 1.02 3.36 1.4 2.27.89 3.43 1.22c1.16.33 2.43.29 3.61.58s2.27.94 3.46 1.19c1.18.25 2.41.32 3.61.53 1.19.21 2.4.29 3.61.46s2.38.54 3.59.66 2.43.08 3.64.17 2.42.15 3.63.19 2.42.27 3.64.27 2.43-.13 3.64-.17c1.22-.04 2.44 0 3.64-.09s2.41-.43 3.61-.56c1.21-.13 2.44-.07 3.64-.23s2.38-.54 3.57-.75 2.44-.21 3.62-.46 2.31-.79 3.49-1.08 2.4-.43 3.56-.76c1.17-.33 2.27-.9 3.42-1.27s2.34-.67 3.47-1.09 2.33-.7 3.46-1.15 2.19-1.06 3.3-1.55 2.11-1.21 3.2-1.74 2.32-.79 3.39-1.36 2.06-1.3 3.11-1.9 2.15-1.14 3.17-1.79c1.03-.64 1.86-1.58 2.87-2.26s2.19-1.1 3.17-1.82 2.01-1.38 2.96-2.12c.96-.75 1.9-1.52 2.83-2.3s1.59-1.86 2.49-2.67 1.92-1.49 2.8-2.33 1.58-1.84 2.42-2.71c.84-.87 1.66-1.75 2.48-2.66s1.78-1.66 2.56-2.59 1.42-1.97 2.17-2.92 1.64-1.8 2.36-2.78 1.14-2.16 1.82-3.16 1.33-2.02 1.97-3.05c.64-1.03 1.25-2.07 1.85-3.12.61-1.05 1.52-1.93 2.09-3s1.2-2.12 1.73-3.21c.53-1.09.72-2.34 1.22-3.45s1.04-2.18 1.5-3.31.75-2.3 1.17-3.44 1.08-2.19 1.45-3.34.69-2.32 1.03-3.49c.33-1.16.47-2.38.76-3.56s.93-2.27 1.18-3.46.26-2.42.47-3.62c.21-1.19.43-2.38.6-3.59.17-1.2.28-2.41.4-3.62s0-2.43.08-3.64.22-2.41.26-3.62.09-2.41.09-3.63z"/><path fill="none" stroke="#3c1053" stroke-miterlimit="10" stroke-width="3.46" d="M351.78 247.75c0-1.22.1-2.43.06-3.64s-.18-2.42-.26-3.63c-.08-1.21-.28-2.41-.41-3.61s-.09-2.43-.25-3.63-.32-2.41-.53-3.6-.3-2.42-.55-3.6-.79-2.31-1.09-3.48-.47-2.39-.8-3.55c-.33-1.17-.67-2.34-1.04-3.49s-.7-2.33-1.11-3.47-1.1-2.18-1.55-3.3-.73-2.33-1.23-3.43-1.05-2.19-1.58-3.28-1.07-2.18-1.64-3.25-1.35-2.02-1.96-3.07-1.1-2.17-1.74-3.19-1.25-2.08-1.93-3.09-1.61-1.83-2.33-2.81-1.35-2.01-2.1-2.97-1.53-1.87-2.31-2.8-1.36-2.04-2.17-2.94-1.87-1.57-2.71-2.44-1.66-1.76-2.53-2.61-1.78-1.65-2.68-2.46-1.68-1.76-2.61-2.54c-.93-.78-1.8-1.64-2.75-2.39-.95-.75-1.99-1.39-2.97-2.11s-1.93-1.48-2.94-2.16-2.14-1.16-3.17-1.8-2.17-1.09-3.22-1.7-1.88-1.61-2.95-2.18c-1.07-.57-2.23-.97-3.32-1.5-1.09-.53-2.24-.93-3.35-1.42s-2.16-1.11-3.28-1.57-2.34-.66-3.48-1.08c-1.14-.41-2.22-.99-3.37-1.36s-2.27-.86-3.44-1.19-2.41-.38-3.58-.68-2.34-.64-3.52-.89c-1.18-.25-2.4-.31-3.6-.52-1.19-.21-2.34-.68-3.54-.85-1.2-.17-2.44.02-3.65-.11s-2.4-.29-3.61-.37-2.4-.39-3.62-.43-2.42-.03-3.64-.03-2.42.26-3.63.31c-1.22.04-2.45-.32-3.65-.23s-2.42.27-3.62.39c-1.21.13-2.42.28-3.62.44s-2.37.57-3.56.78-2.37.52-3.55.77-2.39.44-3.56.73c-1.18.29-2.33.67-3.49 1s-2.44.31-3.59.69-2.27.88-3.41 1.29-2.29.81-3.42 1.26-2.09 1.27-3.2 1.77c-1.11.49-2.18 1.05-3.27 1.58s-2.2 1.01-3.27 1.58-2.25.94-3.3 1.54-1.91 1.52-2.94 2.17-2.06 1.26-3.07 1.94-2.06 1.27-3.04 1.98-2.02 1.35-2.97 2.1-1.87 1.54-2.8 2.32-1.93 1.48-2.83 2.29-1.79 1.64-2.67 2.48-1.79 1.65-2.63 2.52-1.61 1.82-2.42 2.72c-.81.9-1.53 1.89-2.31 2.81s-1.35 2.02-2.1 2.98-1.62 1.81-2.34 2.79-1.59 1.85-2.27 2.85-1.24 2.09-1.88 3.12-1.05 2.2-1.65 3.25-1.17 2.11-1.74 3.18c-.57 1.07-1.11 2.15-1.64 3.24s-1.06 2.17-1.55 3.28-1.32 2.07-1.77 3.2-.83 2.28-1.25 3.42c-.41 1.14-.9 2.26-1.27 3.41s-.76 2.31-1.1 3.48c-.33 1.16-.65 2.34-.95 3.52s-.11 2.46-.36 3.65-.88 2.3-1.09 3.49-.2 2.42-.36 3.63-.12 2.42-.24 3.63-.56 2.38-.65 3.59-.16 2.42-.21 3.64.17 2.42.17 3.64-.03 2.43.01 3.64c.04 1.22.27 2.41.35 3.62s-.12 2.45 0 3.65c.13 1.21.26 2.42.43 3.62.17 1.2.36 2.41.57 3.6.21 1.2.36 2.41.61 3.59s.77 2.32 1.06 3.49.76 2.31 1.09 3.47.45 2.4.83 3.55.75 2.31 1.17 3.45.73 2.32 1.19 3.44c.46 1.13 1.15 2.15 1.64 3.25s1.15 2.13 1.69 3.22.8 2.31 1.37 3.38 1.05 2.2 1.66 3.24 1.58 1.88 2.22 2.91 1.34 2.02 2.01 3.02c.68 1 1.3 2.04 2.01 3.02s1.45 1.93 2.2 2.89c.75.96 1.45 1.94 2.23 2.87s1.53 1.88 2.34 2.78 1.58 1.84 2.42 2.72 1.63 1.81 2.5 2.65 1.95 1.46 2.85 2.27 1.73 1.7 2.66 2.48 1.86 1.56 2.82 2.3 1.99 1.38 2.97 2.1 1.81 1.65 2.81 2.33c1 .68 2.01 1.37 3.04 2.01 1.03.64 2.08 1.25 3.13 1.86s2.31.83 3.38 1.4 2.03 1.34 3.13 1.87 2.13 1.17 3.24 1.67 2.21 1 3.34 1.46 2.4.51 3.54.93 2.21 1.02 3.36 1.4 2.27.89 3.43 1.22c1.16.33 2.43.29 3.61.58s2.27.94 3.46 1.19c1.18.25 2.41.32 3.61.53 1.19.21 2.4.29 3.61.46s2.38.54 3.59.66 2.43.08 3.64.17 2.42.15 3.63.19 2.42.27 3.64.27 2.43-.13 3.64-.17c1.22-.04 2.44 0 3.64-.09s2.41-.43 3.61-.56c1.21-.13 2.44-.07 3.64-.23s2.38-.54 3.57-.75 2.44-.21 3.62-.46 2.31-.79 3.49-1.08 2.4-.43 3.56-.76c1.17-.33 2.27-.9 3.42-1.27s2.34-.67 3.47-1.09 2.33-.7 3.46-1.15 2.19-1.06 3.3-1.55 2.11-1.21 3.2-1.74 2.32-.79 3.39-1.36 2.06-1.3 3.11-1.9 2.15-1.14 3.17-1.79c1.03-.64 1.86-1.58 2.87-2.26s2.19-1.1 3.17-1.82 2.01-1.38 2.96-2.12c.96-.75 1.9-1.52 2.83-2.3s1.59-1.86 2.49-2.67 1.92-1.49 2.8-2.33 1.58-1.84 2.42-2.71c.84-.87 1.66-1.75 2.48-2.66s1.78-1.66 2.56-2.59 1.42-1.97 2.17-2.92 1.64-1.8 2.36-2.78 1.14-2.16 1.82-3.16 1.33-2.02 1.97-3.05c.64-1.03 1.25-2.07 1.85-3.12.61-1.05 1.52-1.93 2.09-3s1.2-2.12 1.73-3.21c.53-1.09.72-2.34 1.22-3.45s1.04-2.18 1.5-3.31.75-2.3 1.17-3.44 1.08-2.19 1.45-3.34.69-2.32 1.03-3.49c.33-1.16.47-2.38.76-3.56s.93-2.27 1.18-3.46.26-2.42.47-3.62c.21-1.19.43-2.38.6-3.59.17-1.2.28-2.41.4-3.62s0-2.43.08-3.64.22-2.41.26-3.62.09-2.41.09-3.63z"/><path fill="#fbb200" d="M335.96 247.75c0-1.22.09-2.44.04-3.65s-.32-2.42-.42-3.63c-.1-1.22-.07-2.44-.22-3.64-.15-1.21-.51-2.39-.71-3.58-.2-1.2-.17-2.45-.42-3.63s-.46-2.4-.75-3.58c-.3-1.18-1.07-2.23-1.41-3.39s-.73-2.31-1.13-3.46-.38-2.45-.82-3.58-.99-2.23-1.48-3.34-1.28-2.09-1.82-3.18-1.04-2.19-1.62-3.26-1.07-2.19-1.69-3.23-1.28-2.07-1.95-3.08-1.16-2.16-1.86-3.15-1.53-1.9-2.28-2.86c-.75-.96-1.71-1.74-2.5-2.67-.79-.93-1.35-2.05-2.18-2.94-.82-.89-1.75-1.7-2.61-2.56s-1.78-1.65-2.68-2.48c-.89-.82-1.92-1.49-2.85-2.27s-1.76-1.69-2.71-2.43-1.96-1.44-2.95-2.14-2.06-1.28-3.08-1.95-1.99-1.38-3.04-2c-1.04-.62-2.11-1.2-3.18-1.78s-1.98-1.47-3.07-2.01-2.4-.61-3.51-1.1-2.16-1.12-3.29-1.57-2.28-.82-3.43-1.21-2.3-.76-3.47-1.11-2.29-.82-3.47-1.11-2.34-.66-3.54-.91c-1.19-.25-2.44-.17-3.64-.37s-2.4-.28-3.61-.43c-1.2-.15-2.38-.55-3.59-.65s-2.43.11-3.65.06-2.41-.43-3.64-.43-2.43.3-3.64.35c-1.22.05-2.46-.25-3.66-.15s-2.42.32-3.62.47-2.41.37-3.61.57c-1.2.2-2.4.42-3.59.67s-2.3.83-3.48 1.12-2.39.46-3.55.8-2.33.7-3.47 1.1c-1.15.4-2.38.58-3.51 1.02-1.13.44-2.17 1.13-3.28 1.62s-2.21 1.01-3.3 1.55-2.09 1.24-3.16 1.82c-1.07.58-2.24.97-3.28 1.6-1.04.62-2.07 1.27-3.09 1.94-1.02.67-2 1.38-2.99 2.08s-2.13 1.21-3.09 1.96-1.86 1.58-2.79 2.36c-.93.79-1.58 1.88-2.47 2.71s-1.88 1.54-2.74 2.4-1.56 1.86-2.38 2.76c-.82.89-1.93 1.54-2.71 2.46s-1.42 1.98-2.17 2.94-1.41 1.98-2.11 2.97-1.51 1.91-2.18 2.93-1.36 2.02-1.98 3.06-1.2 2.11-1.78 3.18-1.07 2.18-1.61 3.27-.84 2.28-1.33 3.4-1.26 2.1-1.7 3.24c-.44 1.13-.88 2.27-1.27 3.42s-.82 2.29-1.17 3.46c-.35 1.16-.5 2.39-.8 3.57s-.47 2.38-.72 3.57-.56 2.36-.76 3.56-.31 2.41-.46 3.62-.54 2.39-.64 3.6c-.1 1.21-.17 2.43-.22 3.65s.29 2.43.29 3.65-.36 2.45-.32 3.66c.05 1.22.44 2.42.54 3.62s.36 2.41.51 3.61.23 2.42.42 3.62.08 2.47.32 3.65.53 2.38.83 3.56c.3 1.18.74 2.33 1.08 3.49.35 1.17.85 2.28 1.24 3.43s.6 2.37 1.04 3.5 1.06 2.2 1.55 3.31c.49 1.11 1 2.22 1.53 3.31s1.13 2.15 1.71 3.22c.58 1.07 1.32 2.04 1.95 3.08.62 1.04 1.2 2.11 1.86 3.13s1.31 2.04 2.02 3.03 1.43 1.97 2.17 2.93 1.58 1.84 2.37 2.77 1.54 1.88 2.36 2.77 1.48 1.95 2.34 2.81 1.97 1.46 2.86 2.28 1.57 1.9 2.49 2.69 2.12 1.25 3.08 1.99 1.91 1.49 2.9 2.19c.99.71 1.78 1.7 2.8 2.37s2.21 1.05 3.26 1.67 2.14 1.14 3.21 1.72c1.07.58 1.97 1.48 3.06 2.02s2.32.78 3.43 1.27 2.13 1.2 3.27 1.64c1.13.44 2.34.68 3.49 1.08 1.15.39 2.34.65 3.51.99s2.26.94 3.44 1.23 2.38.48 3.58.73 2.37.54 3.57.74 2.43.11 3.65.26 2.39.5 3.6.6 2.42.16 3.64.21 2.43.22 3.65.22 2.43-.43 3.64-.48 2.46.31 3.67.21 2.42-.32 3.63-.47c1.21-.15 2.43-.25 3.63-.45s2.35-.72 3.53-.97 2.37-.53 3.55-.83 2.4-.44 3.56-.79 2.34-.7 3.48-1.09 2.17-1.13 3.3-1.57c1.13-.44 2.44-.47 3.55-.96s2.08-1.3 3.17-1.83 2.21-1.02 3.28-1.59 2.09-1.24 3.14-1.86c1.04-.62 2.12-1.2 3.13-1.86 1.02-.67 1.99-1.4 2.97-2.11s1.85-1.58 2.8-2.33 2.16-1.2 3.09-1.98 1.69-1.76 2.58-2.59c.89-.82 1.64-1.8 2.5-2.66s1.78-1.65 2.6-2.55 1.9-1.57 2.69-2.49 1.43-1.98 2.17-2.94 1.37-2.01 2.07-3 1.47-1.94 2.14-2.95 1.43-1.97 2.06-3.02c.62-1.04 1.27-2.08 1.85-3.15s.81-2.32 1.34-3.41 1.35-2.05 1.84-3.17.84-2.29 1.28-3.42c.44-1.13.89-2.26 1.29-3.41s.62-2.35.97-3.52.86-2.28 1.16-3.46c.3-1.17.54-2.37.79-3.57s.14-2.44.34-3.64c.2-1.19.48-2.38.63-3.59s.54-2.38.64-3.6 0-2.43.04-3.65.11-2.42.11-3.65z"/><path fill="#fff" d="M325.23 247.75c0-1.2-.06-2.39-.11-3.58s-.22-2.38-.33-3.56-.09-2.4-.25-3.57-.36-2.37-.58-3.54-.45-2.35-.72-3.51c-.27-1.16-.5-2.35-.82-3.49s-.84-2.25-1.21-3.37-.76-2.27-1.19-3.37-.9-2.22-1.38-3.3-.94-2.2-1.48-3.26-1.29-2.02-1.87-3.06-1.26-2.02-1.89-3.03-1.14-2.1-1.81-3.08-1.44-1.9-2.16-2.85-1.32-2-2.08-2.91c-.76-.92-1.74-1.64-2.54-2.52s-1.46-1.9-2.3-2.74-1.61-1.78-2.49-2.58-1.87-1.49-2.79-2.25-2.02-1.29-2.97-2c-.95-.72-1.78-1.6-2.76-2.28-.98-.67-2.14-1.08-3.15-1.71s-1.92-1.43-2.96-2.01-1.99-1.35-3.05-1.88-2.31-.69-3.4-1.17-2.16-1-3.27-1.43-2.23-.83-3.36-1.21-2.25-.77-3.4-1.1-2.28-.69-3.44-.97-2.34-.42-3.52-.64-2.32-.58-3.5-.74-2.38-.12-3.57-.23-2.36-.32-3.56-.37-2.38 0-3.58 0-2.38.12-3.57.18c-1.2.05-2.37.2-3.56.31s-2.39.11-3.56.27-2.34.44-3.51.66-2.37.34-3.52.61c-1.16.27-2.36.43-3.5.76s-2.18 1.01-3.31 1.39-2.27.71-3.38 1.14-2.34.59-3.43 1.07c-1.09.48-2.06 1.23-3.12 1.76s-2.05 1.21-3.09 1.79-2.18 1-3.19 1.62-2.08 1.18-3.06 1.86c-.98.67-1.74 1.66-2.69 2.38s-2.17 1.1-3.09 1.86-1.73 1.65-2.61 2.45-1.83 1.54-2.67 2.39c-.84.84-1.42 1.94-2.22 2.82-.8.88-1.82 1.58-2.58 2.5s-1.35 1.98-2.07 2.93-1.24 2.03-1.92 3.02-1.53 1.84-2.16 2.85c-.63 1.01-1.26 2.02-1.84 3.06s-1.29 2.02-1.83 3.08-.69 2.31-1.17 3.4-1.01 2.15-1.44 3.27-.95 2.19-1.33 3.32c-.38 1.13-.47 2.34-.8 3.49s-1.04 2.19-1.31 3.35-.32 2.37-.54 3.54-.49 2.33-.65 3.52c-.16 1.18-.43 2.35-.54 3.54s.11 2.39.05 3.59-.21 2.37-.21 3.57-.14 2.4-.08 3.58c.05 1.2.56 2.36.66 3.54s.12 2.38.29 3.56c.16 1.19.07 2.41.28 3.58s.61 2.32.88 3.47c.27 1.16.43 2.36.75 3.5s.97 2.2 1.35 3.33.79 2.25 1.22 3.35.93 2.19 1.41 3.28c.48 1.09.95 2.18 1.48 3.24s.83 2.26 1.41 3.3 1.39 1.95 2.01 2.96 1.16 2.09 1.83 3.07 1.24 2.06 1.96 3.01 1.53 1.84 2.3 2.75 1.54 1.83 2.35 2.71 1.79 1.59 2.63 2.43 1.5 1.89 2.38 2.69 1.85 1.52 2.77 2.28 1.83 1.54 2.78 2.26 2.13 1.12 3.12 1.79 1.88 1.47 2.89 2.1 2 1.29 3.04 1.88 2.11 1.1 3.18 1.64 2.08 1.19 3.17 1.68c1.09.48 2.3.68 3.41 1.11s2.25.76 3.38 1.14 2.22.87 3.37 1.2 2.33.49 3.49.76 2.32.47 3.5.69c1.17.22 2.29.75 3.47.91 1.18.16 2.4-.03 3.59.08s2.36.23 3.56.28 2.37.22 3.57.22 2.39.05 3.58 0 2.39-.12 3.57-.23 2.39-.17 3.57-.34 2.3-.75 3.46-.96 2.39-.23 3.54-.5 2.26-.77 3.4-1.1 2.31-.59 3.44-.96c1.13-.38 2.27-.72 3.38-1.15 1.11-.43 2.13-1.07 3.22-1.55s2.35-.61 3.41-1.14c1.07-.53 2-1.33 3.04-1.91 1.04-.58 2.21-.96 3.22-1.59s1.84-1.55 2.82-2.22c.98-.67 1.89-1.44 2.84-2.16s1.87-1.46 2.79-2.22 1.85-1.49 2.73-2.29c.88-.8 1.72-1.64 2.56-2.48s1.82-1.56 2.62-2.44c.8-.88 1.43-1.91 2.19-2.82s1.64-1.74 2.36-2.69 1.32-1.98 1.99-2.96c.67-.98 1.61-1.79 2.24-2.81s1.04-2.16 1.62-3.2 1.01-2.16 1.54-3.22.96-2.17 1.44-3.26 1.12-2.1 1.55-3.22.65-2.29 1.03-3.42 1.1-2.15 1.43-3.3.56-2.32.83-3.48c.27-1.16.25-2.38.46-3.55.22-1.17.43-2.33.59-3.52s.5-2.33.61-3.53.26-2.37.32-3.57.09-2.38.09-3.58z"/><path fill="#fbb200" d="M250.79 196.13c-1.24 0-2.43.41-3.6.51-1.24.1-2.49-.16-3.64.04-1.22.21-2.42.46-3.55.77-1.19.34-2.31.85-3.4 1.3-1.14.48-2.12 1.2-3.14 1.8s-1.96 1.39-2.87 2.15-1.85 1.52-2.64 2.43c-.78.91-1.38 1.93-2 2.98-.61 1.02-1.44 1.94-1.89 3.09-.43 1.09-.83 2.25-1.11 3.46-.27 1.14-.23 2.37-.36 3.61-.12 1.16-.45 2.36-.45 3.6 0 1.24.24 2.41.29 3.52.06 1.24-.12 2.43 0 3.54.13 1.23.32 2.4.5 3.5.21 1.22.52 2.35.77 3.44.28 1.18.76 2.29 1.09 3.38-.36 1.09-.72-.25-2.35-.25s-2.8 1.67-2.8 2.84c0 .46.12 1.63.13 3 0 .96.28 2.02.28 3.01 0 1.21-.21 2.32-.21 3 0 2.02 1.11 2.67 2.73 2.67.69 0 1.79.07 2.84.07 1.47 0 1.77-.94 2.86-.04.13 1.23.06 2.51.07 3.89 0 1.12.17 2.34.02 3.58-.13 1.14-.4 2.31-.64 3.52-.22 1.14-.65 2.27-.95 3.45s-.38 2.35-.74 3.51-.71 2.28-1.11 3.4-1.02 2.17-1.46 3.27-.75 2.28-1.23 3.36c-.49 1.1-1.03 2.18-1.54 3.23-.3.61-.46 1.62-.13 2.59.3.87.86 1.72 1.75 2.01.7.22 1.9.41 3.17.85.99.34 2 .92 3.02 1.28 1.16.4 2.24.85 3.07 1.13 2.51.87 4.07-.46 4.58-1.3.51-.84.12-2.34 1.59-3.64 1.02.56 2.14 1.19 3.22 1.76 1.04.55 2.14 1.03 3.23 1.56 1.06.52 2.12 1.08 3.23 1.55 1.09.46 2.18.98 3.32 1.36s2.27.76 3.44 1.03c1.15.27 2.34.49 3.54.64 1.17.14 2.37 0 3.59-.01 1.28 0 2.51.06 3.7-.1 1.26-.17 2.52-.25 3.68-.57 1.22-.34 2.26-1.11 3.36-1.59 1.16-.5 2.3-.95 3.34-1.57s2.13-1.31 3.08-2.05c1-.78 1.98-1.55 2.83-2.39.92-.9 1.84-1.75 2.59-2.66.51-.61.55-1.82.52-2.97-.02-.94-.19-1.87-.99-2.68-.88-.91-2.06-1.9-3.23-2.91s-2.31-2.08-3.24-2.91c-.81-.72-1.73-1.16-2.58-1.07-1.09.12-2.04.91-2.43 1.43-.69.93-1.53 1.62-2.21 2.37-.78.85-1.24 1.94-2.08 2.53-.89.63-2.02.8-3.07 1.11-.97.29-1.99.43-3.17.43-1.19 0-2.45-.04-3.75-.31-1.18-.25-2.47-.37-3.71-.8-1.16-.4-2.25-1.09-3.44-1.62-1.13-.5-2.32-.96-3.46-1.55s-2.3-1.22-3.39-1.84c.31-1.07.47-2.28.73-3.4s.67-2.15.87-3.29.51-2.2.64-3.36.17-2.25.23-3.41c.06-1.11.06-2.25.05-3.42-.06-1.73-.98-1.9-.38-3.52s1.61.28 3.64.27c1.03 0 2.21-.08 3.44-.08 1.13 0 2.31-.26 3.45-.27 1.22 0 2.41.1 3.45.1 1.6 0 2.86.1 3.44.1 2.45 0 3.36-1.05 3.36-3.02 0-.96-.02-2.62-.03-4.27 0-1.74.24-3.45.24-4.27 0-1.6-2.03-2.79-4.06-2.79-.51 0-1.92-.32-3.75-.32-1.13 0-2.41.34-3.75.35-1.24 0-2.52.04-3.75.04-1.35 0-2.64.09-3.76.1-2.21 0-2.1.69-3.66-.34-.28-1.2-.77-2.2-1.05-3.33s-.59-2.32-.85-3.49c-.26-1.14-.23-2.36-.42-3.57-.18-1.13-.68-2.27-.78-3.52-.09-1.13-.06-2.34-.06-3.6.02-1.21.48-2.23.79-3.19.36-1.12.82-2.04 1.5-2.84.71-.84 1.4-1.75 2.39-2.27.94-.49 2.1-.52 3.22-.75 1.04-.21 2.11-.32 3.25-.32 1.14 0 2.31.04 3.52.3 1.11.24 2.18.66 3.29 1.26.98.53 1.91 1.18 2.83 2.08.78.76 1.77 1.48 2.48 2.57.6.92.9 2.11 1.43 3.29.63 1.41 2.67 1.25 3.92.51.23-.13 1.56-.96 3.23-1.82 1.06-.54 2.25-1.13 3.31-1.67 1.67-.85 3.12-1.43 3.37-1.55.66-.34 1.86-1.76.93-3.72-.53-1.12-1.32-2.06-1.93-3.06-.65-1.06-1.24-2.09-1.97-3.01s-1.55-1.86-2.39-2.69c-.87-.86-1.6-1.87-2.56-2.58-.97-.73-2.09-1.24-3.14-1.83s-2.14-1.11-3.26-1.56-2.31-.62-3.49-.94-2.26-.85-3.46-1.05-2.39-.17-3.61-.27c-1.18-.09-2.36-.36-3.58-.36-.11-.01-.09.05-.16.05zM450.12 354.46c-1.78.02-1.78.09-3.56.11s-1.78.38-3.56.4c-1.78.02-1.78-.3-3.56-.28-1.78.02-1.78.28-3.56.3-1.78.02-1.78-.07-3.56-.05-1.78.02-1.78.12-3.56.14s-1.78.11-3.56.13c-1.78.02-1.78-.17-3.56-.15-1.78.02-1.78.15-3.56.17-1.78.02-1.78-.11-3.56-.09-1.78.02-1.78-.12-3.56-.1-1.78.02-1.78-.06-3.56-.04s-1.78.27-3.56.29c-1.78.02-1.78-.03-3.56-.01-1.78.02-1.78.21-3.56.23-1.78.02-1.78-.25-3.57-.23-1.78.02-1.78.22-3.56.24s-1.78-.33-3.57-.31c-1.78.02-1.78.05-3.56.07s-1.78.23-3.56.25c-1.78.02-1.78.04-3.56.06s-1.78-.12-3.56-.1-1.78.04-3.56.06c-1.78.02-1.78.3-3.56.32s-1.78-.16-3.57-.14-1.78-.04-3.56-.02-1.78-.16-3.57-.14c-1.78.02-1.78.26-3.56.28s-1.78-.11-3.56-.09c-1.78.02-1.78.28-3.56.3s-1.78.04-3.56.06-1.78-.18-3.56-.16-1.78-.19-3.57-.18c-1.78.02-1.78.04-3.57.06s-1.78.04-3.57.06-1.78.41-3.56.43c-1.78.02-1.79-.23-3.57-.21-1.78.02-1.78.09-3.56.1-1.78.02-1.78.18-3.56.2-1.79.02-1.79-.11-3.57-.09s-1.78.19-3.57.21c-1.23.01-2.45-.29-3.59-.58s-2.22-.94-3.25-1.53-1.92-1.37-2.78-2.21c-.86-.84-1.81-1.6-2.42-2.64s-.87-2.21-1.19-3.38-.5-2.28-.51-3.51c-.02-1.8-.21-1.8-.23-3.59s-.07-1.8-.09-3.6l-.04-3.6c-.02-1.8-.11-1.8-.13-3.6s.32-1.8.3-3.6c-.02-1.8-.4-1.79-.42-3.59s.32-1.8.3-3.6-.08-1.8-.1-3.6.1-1.8.08-3.59-.04-1.8-.06-3.6-.29-1.79-.31-3.59c-.02-1.8.16-1.8.14-3.6s.12-1.8.1-3.6c-.02-1.8-.15-1.8-.17-3.6-.02-1.8.09-1.8.07-3.6s-.27-1.8-.29-3.6.08-1.8.07-3.6.05-1.8.03-3.6-.09-1.8-.11-3.6c-.02-1.8.2-1.8.18-3.6-.02-1.8-.28-1.8-.3-3.6s.1-1.8.08-3.61c-.01-1.23-.07-2.45.22-3.59.3-1.18.94-2.22 1.53-3.26s1.15-2.15 1.98-3.01 1.89-1.49 2.93-2.11 2.09-1.21 3.26-1.54c1.13-.32 2.36-.36 3.59-.37 1.78-.02 1.78.16 3.56.14 1.78-.02 1.78-.14 3.56-.16 1.78-.02 1.78-.04 3.56-.06 1.78-.02 1.78-.24 3.56-.26 1.78-.02 1.78.1 3.56.08s1.78.15 3.56.13c1.78-.02 1.78-.37 3.56-.39 1.78-.02 1.78.05 3.56.03 1.78-.02 1.78-.07 3.56-.09 1.78-.02 1.78.38 3.56.36s1.78-.14 3.56-.16 1.78-.19 3.56-.21 1.78-.12 3.56-.14c1.78-.02 1.78.06 3.56.04 1.78-.02 1.78.03 3.56.01s1.78-.08 3.56-.1c1.78-.02 1.78-.05 3.56-.07 1.78-.02 1.78.28 3.57.26s1.78-.29 3.56-.31c1.78-.02 1.78 0 3.56-.03s1.78.18 3.57.16 1.78.11 3.56.09c1.78-.02 1.78-.41 3.56-.43 1.78-.02 1.78.06 3.56.04 1.78-.02 1.78.18 3.57.16s1.78-.06 3.56-.08c1.78-.02 1.78.06 3.56.04s1.78 0 3.56-.03 1.78-.32 3.56-.34c1.78-.02 1.78.35 3.57.33l3.56-.04c1.78-.02 1.78 0 3.56-.03 1.78-.02 1.78-.47 3.56-.49s1.78.12 3.57.1 1.79.22 3.57.2c1.78-.02 1.78-.05 3.57-.07s1.78-.28 3.56-.3 1.79.36 3.57.34 1.78-.42 3.56-.44c1.79-.02 1.79.03 3.57 0 1.79-.02 1.79.06 3.57.04 1.23-.01 2.47.02 3.61.31s2.33.78 3.37 1.37 1.91 1.48 2.77 2.32 1.54 1.81 2.15 2.85c.61 1.02 1.26 2.05 1.59 3.22.32 1.13.62 2.35.63 3.58.02 1.8-.07 1.8-.05 3.6s.12 1.8.14 3.6c.02 1.8-.11 1.8-.09 3.6.02 1.8-.16 1.8-.14 3.6s-.06 1.8-.04 3.6c.02 1.8.09 1.8.11 3.6s-.09 1.8-.07 3.59.05 1.8.07 3.6c.02 1.8.31 1.79.33 3.59s-.3 1.8-.28 3.6c.02 1.8.41 1.79.43 3.59.02 1.8-.19 1.8-.17 3.6.02 1.8.18 1.8.2 3.59s-.29 1.8-.27 3.6c.02 1.8-.05 1.8-.03 3.6.02 1.8.46 1.79.48 3.59.02 1.8.04 1.8.06 3.6.02 1.8-.25 1.8-.23 3.6.02 1.8.04 1.8.06 3.6s.27 1.8.29 3.6c.02 1.8-.37 1.81-.36 3.61s.01 1.8.03 3.61c.01 1.23-.19 2.37-.48 3.51s-.68 2.28-1.26 3.31c-.59 1.05-1.3 1.98-2.14 2.84s-1.75 1.59-2.79 2.21c-1.02.61-2.01 1.38-3.18 1.71-1.13.32-2.38.07-3.61.08z"/><path fill="#fff" d="M441.83 266.94c-.01-1.28.05-2.55-.42-3.66s-1.38-2.07-2.26-2.93c-.88-.86-1.79-1.8-2.95-2.27s-2.42-.67-3.7-.66c-1.28.01-2.53.39-3.63.86-1.15.49-2.14 1.28-3 2.16s-1.47 1.95-1.94 3.11c-.45 1.11-.95 2.31-.93 3.59s.25 2.58.72 3.69c.49 1.15 1.29 2.22 2.16 3.07s2.13 1.21 3.29 1.67c1.11.45 2.25.83 3.53.82 1.28-.01 2.54-.1 3.65-.57 1.15-.49 2.29-1.16 3.14-2.04s1.38-2.08 1.84-3.24.5-2.33.49-3.61z"/><path fill="none" stroke="#3c1053" stroke-miterlimit="10" stroke-width="2.95" d="M441.83 266.94c-.01-1.28.05-2.55-.42-3.66s-1.38-2.07-2.26-2.93c-.88-.86-1.79-1.8-2.95-2.27s-2.42-.67-3.7-.66c-1.28.01-2.53.39-3.63.86-1.15.49-2.14 1.28-3 2.16s-1.47 1.95-1.94 3.11c-.45 1.11-.95 2.31-.93 3.59s.25 2.58.72 3.69c.49 1.15 1.29 2.22 2.16 3.07s2.13 1.21 3.29 1.67c1.11.45 2.25.83 3.53.82 1.28-.01 2.54-.1 3.65-.57 1.15-.49 2.29-1.16 3.14-2.04s1.38-2.08 1.84-3.24.5-2.33.49-3.61z"/><path fill="#3c1053" d="M451.53 266.83c-.01-1.28-.28-2.53-.75-3.64s-1.44-1.99-2.31-2.85-1.86-1.5-3.01-1.96-2.26-1.07-3.54-1.05-2.57.28-3.67.75c-1.15.49-2.05 1.43-2.91 2.3s-1.55 1.9-2.01 3.05c-.45 1.11-.53 2.32-.52 3.59.01 1.28.02 2.52.49 3.63.49 1.15 1.4 2.01 2.28 2.87s1.88 1.45 3.04 1.92 2.24.76 3.52.75c1.28-.01 2.5-.09 3.61-.57s2.32-1.07 3.18-1.95 1.31-2.11 1.78-3.26c.45-1.11.86-2.31.84-3.58z"/><path fill="#fff" d="M323.15 297.15c-1.55.02-1.55-.05-3.09-.03s-1.55-.27-3.1-.25-1.55.13-3.1.14c-.82 0-1.54.82-1.49 1.66.05.85.64 1.39 1.52 1.39 1.55-.02 1.55.27 3.1.26s1.55.08 3.1.06 1.55-.33 3.09-.35c.82 0 1.81-.65 1.76-1.5-.05-.85-.91-1.39-1.79-1.38zM338.18 296.49c-1.58.02-1.58.24-3.16.26-1.59.02-1.59-.15-3.17-.13s-1.59-.02-3.17 0c-.82 0-1.41.83-1.37 1.68.05.85.52 1.68 1.4 1.67 1.58-.02 1.58.05 3.17.03 1.59-.02 1.58-.31 3.17-.32 1.59-.02 1.59-.01 3.17-.03.82 0 1.7-.63 1.65-1.48-.05-.85-.8-1.68-1.68-1.67zM338.69 302.29c-1.75.02-1.75-.08-3.51-.06s-1.75-.14-3.5-.12-1.75.28-3.5.29c-1.75.02-1.75-.14-3.51-.13-1.75.02-1.75.12-3.51.14-1.76.02-1.76.09-3.51.11-1.76.02-1.76.05-3.51.07-2.02.02-1.99 3.02.03 2.99 1.75-.02 1.75.11 3.51.09s1.75-.11 3.5-.13 1.75-.26 3.5-.28 1.75-.09 3.5-.1 1.76.34 3.51.32c1.76-.02 1.75-.14 3.51-.16 1.76-.02 1.76 0 3.51-.03 2.02-.02 1.99-3.03-.03-3.01zM330.56 307.96c-1.63.02-1.63.17-3.27.19s-1.63.19-3.27.21-1.64 0-3.27.02c-1.64.02-1.64-.29-3.28-.27-1.64.02-1.64.22-3.27.24-2.02.02-1.99 3.21.03 3.19 1.63-.02 1.64.03 3.27 0s1.63-.28 3.27-.3 1.64.06 3.27.04l3.28-.04c1.64-.02 1.64.2 3.28.19 2.02-.02 1.98-3.5-.04-3.48zM338.97 307.88c-1.77.02-1.77.39-3.53.41-.4 0-.9-.04-1.18.25-.27.28-.54.81-.51 1.2.05.85.85 1.78 1.73 1.77 1.77-.02 1.77-.33 3.53-.35.4 0 .68-.24.96-.53.27-.27.84-.59.82-.98-.05-.85-.94-1.77-1.82-1.76z"/><path fill="none" stroke="#fff" stroke-linecap="round" stroke-miterlimit="10" stroke-width="3.46" d="M361.4 252.44c.37.76.93 1.67 1.4 2.69.42.91 1.01 1.79 1.42 2.69.48 1.05.52 2.2.86 2.94M368.88 269.51c.35 1.12.6 2.28.92 3.41s.64 2.27.92 3.41.36 2.33.59 3.48.31 2.33.5 3.49c.19 1.16.64 2.28.79 3.45s.32 2.34.43 3.51-.05 2.36.02 3.54c.07 1.17.05 2.35.07 3.52s-.05 2.34-.07 3.52.03 2.35-.03 3.52-.18 2.34-.28 3.51.07 2.37-.07 3.54-.3 2.33-.49 3.5-.44 2.31-.66 3.47-.3 2.34-.57 3.49-.86 2.21-1.17 3.35-.53 2.29-.88 3.42-.89 2.18-1.28 3.29-.74 2.22-1.17 3.32-.9 2.16-1.37 3.24-.69 2.27-1.2 3.33-1.24 2.01-1.78 3.06-1.11 2.06-1.69 3.09-1.23 2-1.84 3"/><g fill="#3c1053"><path d="M462.78 356.29c-1.79 0-1.79.32-3.59.32-1.79 0-1.79-.42-3.59-.42-1.79 0-1.79.46-3.59.46-1.79 0-1.79.02-3.59.02s-1.79-.28-3.59-.28c-1.79 0-1.79.05-3.59.05h-3.59c-1.79 0-1.79-.12-3.59-.12-1.79 0-1.79.02-3.59.02-1.79 0-1.79.24-3.59.24-1.79 0-1.79.05-3.59.05-1.79 0-1.79.05-3.59.05-1.79 0-1.79-.15-3.59-.15-1.79 0-1.79-.26-3.59-.26s-1.79.23-3.59.23c-1.79 0-1.79-.18-3.59-.18s-1.79-.03-3.59-.03-1.79.22-3.59.22-1.79-.12-3.59-.12c-1.79 0-1.79-.17-3.59-.17s-1.79.22-3.59.22-1.79.03-3.59.03c-1.79 0-1.79.1-3.59.1-1.79 0-1.79-.33-3.59-.33s-1.79.44-3.59.44c-1.79 0-1.79-.12-3.59-.12-1.79 0-1.79-.14-3.59-.14-1.79 0-1.79-.15-3.58-.15s-1.79.09-3.58.09-1.79.29-3.58.29-1.79-.4-3.58-.4-1.79.03-3.58.03-1.79.05-3.59.05-1.79.01-3.59.01c-1.79 0-1.79.19-3.59.19-1.79 0-1.79-.17-3.58-.17s-1.79.11-3.58.11-1.79.12-3.58.12-1.79-.23-3.58-.23-1.79-.12-3.59-.12h-3.59c-1.8 0-1.79.38-3.59.38s-1.79-.04-3.59-.04-1.79-.14-3.59-.14-1.79-.11-3.59-.11-1.79.22-3.59.22-1.79-.35-3.59-.35-1.79.07-3.59.07h-3.59c-1.8 0-1.79.39-3.59.39s-1.79-.38-3.59-.38-1.8.4-3.59.4-1.79-.18-3.59-.18h-3.59c-1.79 0-1.79.11-3.59.11-1.79 0-1.79-.32-3.59-.32h-3.59c-1.79 0-1.79.17-3.59.17s-1.8.09-3.59.09c-1.79 0-1.79-.11-3.59-.11s-1.8.16-3.59.16c-1.79 0-1.79-.04-3.59-.04-1.8 0-1.8-.17-3.59-.17-1.8 0-1.8.02-3.59.02s-1.8.17-3.59.17-1.79-.27-3.59-.27-1.8.12-3.59.12-1.79.23-3.59.23c-1.8 0-1.8-.11-3.59-.11-1.79 0-1.79-.23-3.59-.23s-1.8.09-3.59.09h-3.59c-1.8 0-1.8.08-3.59.08s-1.8.03-3.59.03-1.8.04-3.59.04-1.8-.06-3.59-.06c-1.8 0-1.8-.21-3.59-.21-1.8 0-1.8.19-3.59.19s-1.8-.19-3.59-.19-1.8.09-3.6.09-1.8.17-3.6.17c-1.07 0-2.18-.78-2.18-1.6s1.11-1.28 2.18-1.28c1.79 0 1.79-.08 3.59-.08s1.79-.25 3.59-.25 1.79.35 3.59.35 1.79-.28 3.59-.28 1.79.27 3.59.27 1.79-.46 3.59-.46 1.79.18 3.59.18 1.79.11 3.59.11 1.79.05 3.59.05 1.79.07 3.59.07 1.79-.14 3.59-.14 1.79-.23 3.59-.23 1.79.17 3.59.17 1.79-.02 3.59-.02 1.79-.19 3.59-.19 1.79.14 3.59.14h3.59c1.8 0 1.79.02 3.59.02s1.79.2 3.59.2 1.79-.08 3.59-.08 1.79-.06 3.59-.06 1.79-.17 3.59-.17 1.79.24 3.59.24 1.79-.29 3.59-.29 1.79.46 3.59.46 1.79-.25 3.59-.25 1.79.19 3.59.19 1.79.03 3.58.03 1.79-.44 3.58-.44 1.79.05 3.58.05 1.79.35 3.58.35 1.79-.04 3.58-.04 1.79-.12 3.59-.12 1.79-.04 3.59-.04h3.59c1.8 0 1.79-.04 3.58-.04s1.79-.12 3.58-.12 1.79.18 3.58.18 1.79-.12 3.58-.12 1.79.36 3.59.36 1.79-.26 3.59-.26 1.79-.2 3.59-.2 1.79.27 3.59.27 1.79.09 3.59.09 1.79.03 3.59.03 1.79-.13 3.59-.13 1.79-.27 3.59-.27 1.79.34 3.59.34 1.79.14 3.59.14h3.59c1.8 0 1.79-.47 3.59-.47s1.8.48 3.59.48 1.79-.34 3.59-.34 1.79.17 3.59.17 1.79-.06 3.59-.06 1.79.09 3.59.09 1.79.14 3.59.14 1.79-.21 3.59-.21 1.8-.21 3.59-.21 1.79.38 3.59.38 1.8-.12 3.59-.12 1.79.06 3.59.06 1.8-.02 3.59-.02 1.8-.26 3.59-.26 1.8.3 3.59.3 1.79-.38 3.59-.38 1.8.46 3.59.46 1.79-.04 3.59-.04 1.8-.09 3.59-.09 1.79-.23 3.59-.23 1.8.22 3.59.22 1.79.14 3.59.14h3.59c1.79 0 1.8.01 3.59.01s1.8-.07 3.59-.07 1.8-.19 3.59-.19 1.8.07 3.59.07 1.8-.21 3.59-.21 1.8.19 3.59.19h3.6c1.8 0 1.8.05 3.6.05 1.07 0 2.13.61 2.13 1.44s-1.06 1.37-2.13 1.37zM481.42 356.2c-1.51 0-1.51.45-3.03.45s-1.52-.17-3.03-.17h-3.03c-1.07 0-2.1-.73-2.1-1.56s1.03-1.73 2.1-1.73c1.51 0 1.51.45 3.03.45s1.52-.07 3.03-.07 1.52-.18 3.03-.18c1.07 0 2.06.71 2.06 1.54s-.99 1.28-2.06 1.28z"/></g></svg>
