<?xml version="1.0" encoding="UTF-8"?>
<svg xmlns="http://www.w3.org/2000/svg" viewBox="0 0 500 500" width="64" height="64"><defs><linearGradient id="a" x1="989.38" x2="1147.85" y1="1993.14" y2="1842.72" gradientTransform="matrix(-.82004 -.67167 .82062 -.67218 -485.47 2255.92)" gradientUnits="userSpaceOnUse"><stop offset=".1" stop-color="#db3700" stop-opacity=".9"/><stop offset=".17" stop-color="#db3700" stop-opacity=".8"/><stop offset=".39" stop-color="#db3700" stop-opacity=".52"/><stop offset=".59" stop-color="#db3700" stop-opacity=".29"/><stop offset=".76" stop-color="#db3700" stop-opacity=".13"/><stop offset=".91" stop-color="#db3700" stop-opacity=".04"/><stop offset="1" stop-color="#db3700" stop-opacity="0"/></linearGradient></defs><path fill="url(#a)" d="M307.65 136.82c0 1.81.15 1.81.15 3.62s.23 1.81.23 3.62-.2 1.81-.2 3.62-.1 1.81-.1 3.62v3.62c0 1.81.21 1.81.21 3.62s-.15 1.81-.15 3.62.28 1.81.28 3.62-.39 1.81-.39 3.62.22 1.81.22 3.61c0 1.81-.05 1.81-.05 3.61 0 1.81.08 1.81.08 3.61 0 1.81.12 1.81.12 3.62s.05 1.81.05 3.62-.32 1.81-.32 3.62.26 1.81.26 3.62-.19 1.81-.19 3.62.04 1.81.04 3.62.06 1.81.06 3.62-.21 1.81-.21 3.62.3 1.81.3 3.62-.15 1.81-.15 3.62.2 1.81.2 3.62-.4 1.81-.4 3.62.09 1.81.09 3.62.34 1.81.34 3.62-.06 1.81-.06 3.62-.04 1.81-.04 3.62-.21 1.81-.21 3.62.27 1.81.27 3.62-.31 1.81-.31 3.62.29 1.81.29 3.62.08 1.81.08 3.62-.02 1.81-.02 3.62-.31 1.81-.31 3.62.31 1.81.31 3.62-.23 1.81-.23 3.62-.15 1.81-.15 3.62.41 1.81.41 3.62-.45 1.81-.45 3.62.39 1.81.39 3.62.06 1.81.06 3.62-.42 1.81-.42 3.62-.06 1.81-.06 3.62.36 1.81.36 3.62-.02 1.81-.02 3.62-.11 1.81-.11 3.62-.24 1.81-.24 3.62v3.62c0 1.81.3 1.81.3 3.62s.15 1.81.15 3.62.03 1.81.03 3.62-.03 1.81-.03 3.62-.4 1.81-.4 3.62.41 1.81.41 3.62-.43 1.81-.43 3.62-.02 1.81-.02 3.62.1 1.81.1 3.62.07 1.81.07 3.62-.08 1.81-.08 3.63.3 1.82.3 3.63-.34 1.82-.34 3.63c0 1.44-.18 2.8-.85 3.96s-1.79 2.04-2.99 2.74-2.43 1.43-3.87 1.43c-1.8 0-1.8-.12-3.59-.12s-1.8-.22-3.59-.22c-1.8 0-1.8.36-3.59.36-1.8 0-1.8-.3-3.59-.3s-1.8-.18-3.59-.18h-3.59c-1.79 0-1.79.16-3.59.16h-3.59c-1.79 0-1.79.17-3.59.17-1.79 0-1.79-.14-3.59-.14-1.79 0-1.79.02-3.59.02s-1.79.2-3.59.2-1.8-.05-3.59-.05-1.8-.26-3.59-.26h-3.59c-1.8 0-1.79.15-3.59.15s-1.79-.03-3.59-.03c-1.79 0-1.79.11-3.59.11s-1.79-.19-3.59-.19c-1.8 0-1.8.28-3.59.28-1.8 0-1.8-.21-3.59-.21-1.8 0-1.8.07-3.59.07-1.79 0-1.79.1-3.59.1s-1.79.02-3.59.02-1.8-.22-3.59-.22c-1.8 0-1.8-.06-3.59-.06-1.8 0-1.8.35-3.59.35h-3.59c-1.79 0-1.8-.04-3.59-.04-1.8 0-1.8-.42-3.59-.42-1.8 0-1.8.01-3.59.01s-1.8-.02-3.59-.02c-1.8 0-1.8.48-3.59.48s-1.8-.48-3.59-.48c-1.8 0-1.8.27-3.59.27s-1.8-.24-3.59-.24c-1.8 0-1.8.13-3.59.13s-1.8.32-3.59.32c-1.8 0-1.8-.28-3.59-.28s-1.8-.19-3.59-.19-1.8.4-3.59.4-1.8-.41-3.59-.41-1.8.23-3.59.23-1.8-.18-3.59-.18h-3.59c-1.8 0-1.8.02-3.59.02s-1.8.01-3.59.01-1.8.13-3.59.13c-1.8 0-1.8.19-3.59.19s-1.8-.41-3.6-.41-1.8.21-3.59.21c-1.8 0-1.8.17-3.6.17s-1.8.02-3.6.02-1.8-.42-3.6-.42-1.8.16-3.6.16-1.8.07-3.6.07-1.8-.18-3.6-.18-1.8.08-3.6.08-1.8-.01-3.6-.01-1.8.08-3.6.08c-1.44 0-2.68-.52-3.84-1.2s-2.4-1.45-3.09-2.65-.86-2.56-.86-4c0-1.81-.18-1.81-.18-3.62s-.02-1.81-.02-3.62.21-1.81.21-3.62.03-1.81.03-3.62-.33-1.81-.33-3.62.02-1.81.02-3.62v-3.62c0-1.81-.07-1.81-.07-3.62s.33-1.81.33-3.62-.29-1.81-.29-3.61v-3.61c0-1.81.34-1.81.34-3.61 0-1.81-.35-1.81-.35-3.62s.1-1.81.1-3.62.03-1.81.03-3.62-.07-1.81-.07-3.62.25-1.81.25-3.62-.29-1.81-.29-3.62.28-1.81.28-3.62v-3.62-3.62c0-1.81-.09-1.81-.09-3.62s.2-1.81.2-3.62-.42-1.81-.42-3.62.08-1.81.08-3.62.14-1.81.14-3.62.05-1.81.05-3.62-.28-1.81-.28-3.62.4-1.81.4-3.62-.11-1.81-.11-3.62.11-1.81.11-3.62-.23-1.81-.23-3.62.22-1.81.22-3.62-.43-1.81-.43-3.62.1-1.81.1-3.62-.07-1.81-.07-3.62.26-1.81.26-3.62-.26-1.81-.26-3.62.43-1.81.43-3.62-.21-1.81-.21-3.62.18-1.81.18-3.62-.06-1.81-.06-3.62-.29-1.81-.29-3.62.4-1.81.4-3.62-.37-1.81-.37-3.62-.07-1.81-.07-3.62.25-1.81.25-3.62-.08-1.81-.08-3.62.24-1.81.24-3.62-.29-1.81-.29-3.62v-3.62c0-1.81-.12-1.81-.12-3.62s.43-1.81.43-3.62.02-1.81.02-3.62.01-1.81.01-3.62-.24-1.81-.24-3.62.21-1.81.21-3.62-.21-1.81-.21-3.62.06-1.81.06-3.62.14-1.81.14-3.63-.11-1.82-.11-3.63c0-1.82-.33-1.82-.33-3.63 0-1.44.7-2.75 1.37-3.91s1.61-2.26 2.81-2.95 2.52-1.05 3.96-1.05c1.8 0 1.8.17 3.59.17s1.8-.12 3.59-.12 1.8.12 3.59.12 1.8-.27 3.59-.27 1.8-.05 3.59-.05 1.8-.06 3.59-.06 1.79.16 3.59.16 1.79.04 3.59.04 1.79-.13 3.59-.13 1.79-.07 3.59-.07 1.79-.02 3.59-.02 1.79.12 3.59.12 1.8-.13 3.59-.13 1.8.01 3.59.01 1.79.31 3.59.31 1.79-.33 3.59-.33 1.79.09 3.59.09 1.79.05 3.59.05 1.79.28 3.59.28 1.8-.12 3.59-.12 1.8.15 3.59.15 1.8-.38 3.59-.38 1.79.35 3.59.35 1.79-.36 3.59-.36 1.8.12 3.59.12 1.8.11 3.59.11 1.8-.03 3.59-.03 1.8-.09 3.59-.09 1.8.31 3.59.31 1.8-.49 3.59-.49 1.8.12 3.59.12 1.8.05 3.59.05 1.8-.01 3.59-.01 1.8-.13 3.59-.13 1.8.13 3.59.13 1.8-.12 3.59-.12 1.8.4 3.59.4 1.8-.39 3.59-.39 1.8.16 3.59.16 1.8.26 3.59.26 1.8-.08 3.59-.08 1.8.11 3.59.11 1.8-.07 3.59-.07 1.8-.3 3.59-.3 1.8.09 3.59.09 1.8-.21 3.59-.21 1.8.32 3.59.32 1.8-.08 3.59-.08 1.8-.03 3.59-.03 1.8.05 3.6.05 1.8-.14 3.59-.14 1.8.19 3.6.19 1.8-.07 3.6-.07 1.8-.13 3.6-.13 1.8.11 3.6.11 1.8-.24 3.6-.24 1.8.43 3.6.43 1.8-.07 3.6-.07 1.8-.29 3.6-.29 1.8.06 3.6.06c1.44 0 2.91.3 4.07.97s1.95 1.97 2.65 3.17.95 2.44.95 3.88z"/><g fill="#3c1053"><path d="M404.89 371.1c-1.79 0-1.79-.09-3.58-.09s-1.79.09-3.58.09-1.79-.24-3.58-.24-1.79.45-3.58.45-1.79-.2-3.58-.2-1.79-.17-3.58-.17-1.79.13-3.58.13-1.79-.14-3.58-.14-1.79.29-3.58.29-1.79-.33-3.58-.33-1.79.16-3.57.16-1.79-.13-3.57-.13c-1.79 0-1.79.21-3.58.21s-1.79-.16-3.58-.16-1.79.24-3.58.24-1.79.09-3.58.09-1.79-.18-3.58-.18-1.79-.12-3.58-.12-1.79.17-3.58.17h-3.58c-1.79 0-1.79.09-3.58.09s-1.79-.05-3.58-.05-1.79.1-3.58.1-1.79-.4-3.58-.4-1.79.29-3.58.29-1.79.06-3.58.06-1.79-.33-3.58-.33-1.79.06-3.58.06-1.79-.11-3.58-.11-1.79.2-3.58.2-1.79.23-3.58.23-1.79-.45-3.58-.45-1.79.18-3.58.18-1.79.22-3.58.22-1.79-.3-3.58-.3h-3.58c-1.79 0-1.79-.05-3.58-.05s-1.79-.07-3.58-.07-1.79.3-3.58.3-1.79-.13-3.58-.13-1.79-.09-3.58-.09-1.79-.06-3.58-.06-1.79.38-3.58.38-1.79-.22-3.58-.22-1.79.03-3.58.03-1.79.02-3.58.02-1.79-.06-3.58-.06-1.79-.02-3.58-.02-1.79-.15-3.58-.15-1.79.04-3.58.04-1.79.1-3.58.1-1.79.02-3.58.02-1.79.24-3.59.24c-1.79 0-1.79-.09-3.58-.09s-1.79-.23-3.58-.23-1.79.24-3.59.24h-3.59c-1.8 0-1.79-.07-3.59-.07-1.79 0-1.79-.06-3.59-.06s-1.79.27-3.59.27c-1.79 0-1.79-.35-3.59-.35s-1.8-.07-3.59-.07c-1.8 0-1.8.22-3.59.22-.83 0-1.72-.7-1.72-1.53s.9-1.27 1.72-1.27c1.79 0 1.79-.32 3.58-.32s1.79.17 3.58.17 1.79-.15 3.58-.15 1.79-.1 3.58-.1 1.79.26 3.58.26 1.79-.12 3.58-.12 1.79.01 3.58.01 1.79-.08 3.58-.08 1.79-.05 3.58-.05 1.79-.03 3.58-.03 1.79.34 3.57.34 1.79.08 3.57.08 1.79-.19 3.58-.19 1.79.07 3.58.07 1.79-.1 3.58-.1 1.79-.08 3.58-.08 1.79.18 3.58.18 1.79-.25 3.58-.25 1.79.26 3.58.26 1.79-.19 3.58-.19 1.79.23 3.58.23 1.79-.36 3.58-.36 1.79.18 3.58.18 1.79-.16 3.58-.16 1.79-.01 3.58-.01 1.79.36 3.58.36 1.79-.19 3.58-.19 1.79.06 3.58.06 1.79.08 3.58.08 1.79-.16 3.58-.16 1.79.08 3.58.08 1.79-.08 3.58-.08 1.79.12 3.58.12 1.79.08 3.58.08 1.79-.15 3.58-.15 1.79.05 3.58.05 1.79-.05 3.58-.05 1.79-.13 3.58-.13 1.79-.15 3.58-.15 1.79.04 3.58.04 1.79.07 3.58.07 1.79.16 3.58.16 1.79-.02 3.58-.02 1.79.08 3.58.08 1.79-.32 3.58-.32h3.58c1.79 0 1.79.06 3.58.06s1.79.21 3.58.21 1.79-.09 3.58-.09 1.79.16 3.58.16 1.79.01 3.58.01 1.79-.33 3.58-.33 1.79.36 3.59.36 1.79.08 3.58.08 1.79-.34 3.58-.34 1.79.34 3.59.34 1.79-.08 3.59-.08 1.79.02 3.59.02 1.79.08 3.59.08 1.79-.02 3.59-.02 1.79.03 3.59.03 1.8-.3 3.59-.3 1.8.22 3.59.22c.83 0 1.62.51 1.62 1.34s-.79 1.53-1.62 1.53zM419.37 371.11c-1.77 0-1.77.07-3.53.07-1.77 0-1.77-.18-3.53-.18-.83 0-1.47-.6-1.47-1.43s.64-1.59 1.47-1.59c1.77 0 1.77.14 3.53.14s1.77-.13 3.53-.13c.83 0 1.44.76 1.44 1.59s-.61 1.53-1.44 1.53z"/></g><path fill="#fff" d="M423.37 250.03c0-1.21-.11-2.41-.14-3.61s-.06-2.41-.13-3.61.02-2.42-.09-3.61-.38-2.38-.53-3.58-.38-2.38-.56-3.57c-.18-1.19-.34-2.38-.55-3.57-.22-1.19-.25-2.41-.51-3.58s-.35-2.4-.63-3.57-.61-2.34-.93-3.5-.89-2.25-1.24-3.4-.8-2.27-1.19-3.41-.95-2.21-1.38-3.34-.84-2.25-1.3-3.36-.97-2.2-1.46-3.3-.57-2.39-1.1-3.48-1.14-2.13-1.7-3.19c-.56-1.07-1.28-2.05-1.87-3.09s-1.35-2-1.98-3.03-1.01-2.21-1.66-3.22-1.6-1.83-2.29-2.81-1.03-2.23-1.74-3.2-1.66-1.77-2.4-2.71c-.74-.95-1.42-1.95-2.19-2.88-.77-.92-1.44-1.94-2.24-2.84s-1.77-1.65-2.6-2.52c-.83-.88-1.83-1.58-2.68-2.43s-1.47-1.94-2.34-2.77-1.72-1.69-2.62-2.49c-.9-.8-1.9-1.48-2.83-2.26s-2.02-1.33-2.97-2.07-1.78-1.63-2.75-2.34-1.82-1.6-2.81-2.28-2.17-1.09-3.18-1.74c-1.01-.65-1.97-1.38-3-2.01s-2.02-1.32-3.07-1.91-2.21-.98-3.28-1.54-1.99-1.4-3.08-1.92c-1.08-.53-2.37-.61-3.47-1.1s-2.18-1-3.3-1.46-2.08-1.29-3.2-1.72-2.26-.84-3.4-1.24-2.3-.73-3.45-1.08-2.32-.64-3.48-.97-2.39-.38-3.56-.67-2.26-.89-3.44-1.15-2.36-.49-3.55-.71c-1.18-.22-2.37-.44-3.56-.62s-2.41-.17-3.61-.32-2.42.04-3.62-.07c-1.2-.11-2.36-.63-3.57-.7s-2.41.11-3.62.07c-1.2-.04-2.4-.15-3.61-.15s-2.41.12-3.61.16-2.41.04-3.61.11-2.41.16-3.6.27-2.39.29-3.59.43-2.42.14-3.6.32-2.36.52-3.54.74-2.34.6-3.51.85-2.44.15-3.61.43c-1.17.29-2.23 1-3.39 1.32s-2.39.42-3.53.78-2.21 1-3.34 1.39-2.26.81-3.39 1.23-2.32.68-3.43 1.14c-1.11.46-2.26.84-3.36 1.34s-2.18 1.04-3.26 1.57-2.18 1.03-3.24 1.59c-1.07.56-2.17 1.05-3.22 1.65s-2.08 1.22-3.11 1.85-1.84 1.6-2.85 2.26-2.04 1.27-3.03 1.96c-.99.69-1.95 1.4-2.92 2.11s-2.14 1.17-3.08 1.91-1.76 1.65-2.69 2.42c-.92.77-1.93 1.45-2.83 2.25s-1.74 1.67-2.62 2.49-1.84 1.56-2.7 2.41c-.85.85-1.5 1.9-2.33 2.78-.83.88-1.57 1.82-2.37 2.72s-1.87 1.57-2.64 2.49c-.77.92-1.45 1.93-2.2 2.87s-1.54 1.86-2.26 2.83-1.27 2.05-1.96 3.04-1.15 2.12-1.81 3.13-1.53 1.88-2.15 2.91c-.62 1.03-1.39 1.98-1.98 3.03-.59 1.05-.86 2.27-1.42 3.34s-1.18 2.1-1.71 3.18-.97 2.2-1.47 3.3-.9 2.23-1.36 3.34-.97 2.2-1.39 3.33-1.05 2.18-1.45 3.32-.56 2.35-.92 3.5-.61 2.32-.93 3.49-.63 2.32-.91 3.49-.95 2.25-1.2 3.43-.33 2.39-.54 3.58c-.22 1.18-.41 2.37-.59 3.56s-.49 2.36-.63 3.56-.1 2.41-.21 3.61-.19 2.4-.26 3.6-.26 2.4-.29 3.61 0 2.41 0 3.62.2 2.41.24 3.61c.04 1.21.14 2.4.21 3.6s.27 2.39.38 3.59-.12 2.44.02 3.63.19 2.41.37 3.6.44 2.38.66 3.56.69 2.32.95 3.5.41 2.38.7 3.55.77 2.29 1.09 3.45.73 2.29 1.09 3.44.48 2.38.87 3.51c.39 1.14.8 2.27 1.23 3.4s.73 2.31 1.19 3.42c.46 1.11 1.01 2.19 1.5 3.29s1.33 2.04 1.85 3.12.82 2.28 1.38 3.35 1.17 2.11 1.76 3.15 1.29 2.04 1.91 3.06 1.06 2.18 1.71 3.19 1.65 1.79 2.34 2.78c.69.99 1.22 2.09 1.93 3.05s1.6 1.8 2.35 2.75c.74.95 1.36 1.99 2.13 2.91.77.92 1.69 1.72 2.49 2.62s1.45 1.93 2.28 2.81 1.72 1.68 2.57 2.53 1.73 1.67 2.6 2.5 1.83 1.55 2.73 2.35 1.69 1.72 2.61 2.49c.92.77 1.88 1.5 2.83 2.25s1.94 1.41 2.91 2.13 1.79 1.63 2.78 2.32 2 1.35 3.01 2 1.98 1.38 3.01 2 2.26.9 3.31 1.49 2.08 1.2 3.15 1.76c1.06.56 1.98 1.42 3.06 1.95s2.29.8 3.38 1.3c1.1.49 2.1 1.21 3.21 1.67s2.36.59 3.48 1.01 2.25.84 3.39 1.23 2.26.81 3.41 1.17 2.33.59 3.49.92c1.16.32 2.29.72 3.46 1.01s2.28.82 3.46 1.07 2.4.29 3.58.5 2.37.4 3.56.58c1.19.18 2.36.49 3.56.63 1.19.14 2.41.08 3.61.19s2.39.2 3.6.27c1.2.07 2.4.13 3.61.17s2.4.34 3.61.34 2.42-.07 3.62-.1c1.21-.04 2.42-.04 3.62-.11s2.41-.18 3.61-.29c1.2-.11 2.39-.38 3.58-.52 1.2-.14 2.42-.15 3.6-.33s2.35-.6 3.53-.81 2.42-.19 3.6-.44 2.34-.61 3.51-.9 2.31-.72 3.46-1.04 2.36-.53 3.51-.89 2.25-.87 3.39-1.26 2.26-.83 3.39-1.26 2.26-.84 3.37-1.3c1.11-.46 2.19-1.02 3.28-1.51s2.18-1.02 3.26-1.55 2.21-.96 3.28-1.52c1.07-.56 2.18-1.04 3.23-1.63 1.05-.59 1.95-1.44 2.98-2.07s2.05-1.26 3.06-1.91c1.01-.66 2.07-1.24 3.06-1.92.99-.69 1.96-1.4 2.93-2.11s1.98-1.37 2.93-2.12 1.94-1.44 2.86-2.21 1.77-1.64 2.67-2.44 1.68-1.73 2.56-2.55 1.76-1.64 2.61-2.5 1.58-1.81 2.4-2.69 1.92-1.5 2.72-2.4c.8-.9 1.35-2.01 2.13-2.93.77-.92 1.74-1.69 2.48-2.64s1.47-1.91 2.18-2.88 1.18-2.11 1.87-3.1c.68-.99 1.33-2 1.99-3.01s1.41-1.95 2.03-2.98c.62-1.03 1.12-2.13 1.71-3.18.59-1.05 1.44-1.95 2-3.02s.95-2.22 1.48-3.3 1.19-2.1 1.69-3.2c.49-1.1.77-2.29 1.23-3.4s1.02-2.18 1.45-3.31.99-2.2 1.38-3.34c.39-1.14.8-2.28 1.16-3.43s.54-2.35.86-3.52.49-2.36.78-3.53.6-2.33.85-3.51.34-2.38.56-3.57c.22-1.18.46-2.36.64-3.55s.72-2.33.87-3.53.2-2.4.31-3.61.07-2.41.15-3.61-.07-2.41-.03-3.62c.04-1.2.12-2.4.12-3.61z"/><path fill="#3c1053" d="M303.89 371.5c-.76 0-1.47-.09-2.15-.19-.53-.07-1.04-.14-1.51-.15-1.23-.04-2.44-.1-3.66-.17-1.22-.07-2.44-.16-3.65-.27-.51-.05-1.02-.06-1.53-.07-.69-.02-1.4-.04-2.13-.12-.74-.09-1.45-.23-2.13-.37-.49-.1-.98-.2-1.48-.27-1.21-.18-2.42-.37-3.61-.59-.5-.09-1.01-.15-1.52-.2-.68-.08-1.39-.16-2.12-.31-.74-.16-1.42-.39-2.07-.62a17.1 17.1 0 0 0-1.45-.46c-.73-.18-1.45-.4-2.16-.62-.45-.14-.9-.28-1.35-.4-.46-.13-.93-.24-1.4-.36-.7-.17-1.42-.35-2.14-.57-.85-.26-1.68-.56-2.52-.85l-.95-.33c-1.16-.4-2.3-.81-3.44-1.25-.43-.16-.92-.28-1.44-.41-.68-.16-1.38-.33-2.09-.63-.69-.29-1.31-.64-1.92-.98-.47-.26-.91-.52-1.35-.71-.44-.2-.92-.36-1.43-.54-.65-.22-1.33-.45-2-.78-.7-.34-1.29-.76-1.86-1.16-.44-.31-.85-.6-1.25-.81-.82-.43-1.62-.89-2.43-1.35l-.77-.44c-.39-.22-.86-.41-1.36-.6-.65-.25-1.33-.52-2-.92-.64-.39-1.26-.81-1.87-1.24-.39-.27-.78-.54-1.18-.8-1.03-.66-2.05-1.34-3.05-2.03-.62-.43-1.15-.9-1.66-1.37-.4-.36-.78-.7-1.16-.98-.35-.26-.71-.51-1.06-.77-.64-.46-1.28-.91-1.89-1.4l-.58-.46c-.77-.6-1.53-1.2-2.28-1.82-.57-.47-1.07-.98-1.56-1.47-.36-.36-.72-.72-1.09-1.06a49.5 49.5 0 0 0-1.1-.94c-.55-.46-1.12-.93-1.67-1.45l-.22-.2c-.82-.77-1.63-1.54-2.42-2.33-.33-.33-.66-.65-1-.97-.55-.52-1.09-1.05-1.61-1.6-.51-.54-.94-1.11-1.36-1.65-.31-.41-.62-.81-.95-1.19-.33-.38-.69-.73-1.05-1.09-.49-.49-.99-1-1.47-1.56-.47-.57-.88-1.16-1.28-1.72-.29-.42-.58-.83-.89-1.23-.31-.4-.65-.77-1-1.15-.46-.51-.94-1.04-1.38-1.64-.44-.6-.8-1.21-1.15-1.8-.26-.44-.52-.88-.81-1.29-.25-.37-.6-.73-.96-1.12-.46-.49-.98-1.04-1.41-1.7-.41-.63-.72-1.27-1.03-1.88-.24-.48-.46-.94-.71-1.35-.25-.41-.51-.81-.77-1.21-.4-.62-.81-1.25-1.17-1.9l-.46-.8c-.45-.79-.91-1.59-1.33-2.4-.35-.67-.6-1.34-.83-1.98-.19-.5-.36-.98-.57-1.41-.2-.41-.48-.83-.77-1.27-.39-.58-.79-1.18-1.1-1.89-.18-.41-.37-.81-.56-1.21-.33-.7-.66-1.41-.96-2.12-.28-.69-.51-1.37-.72-2.04-.16-.48-.31-.96-.49-1.43-.43-1.14-.85-2.29-1.25-3.45-.25-.71-.39-1.41-.53-2.08-.11-.53-.21-1.02-.35-1.48-.13-.42-.27-.84-.41-1.26-.24-.74-.49-1.48-.7-2.23-.14-.49-.3-.97-.47-1.45-.23-.65-.46-1.33-.64-2.05-.18-.73-.31-1.46-.44-2.17-.09-.48-.17-.95-.27-1.43-.1-.47-.25-.95-.41-1.47-.2-.66-.41-1.34-.55-2.08l-.24-1.25c-.15-.79-.31-1.57-.43-2.36-.11-.74-.17-1.47-.23-2.18-.04-.49-.08-.98-.14-1.47-.09-.77-.06-1.49-.03-2.18.02-.54.05-1.04 0-1.5-.04-.48-.1-.96-.16-1.44-.09-.71-.18-1.44-.22-2.2l-.07-1.09c-.06-.85-.11-1.71-.14-2.56-.01-.51-.06-1.01-.11-1.52-.06-.69-.13-1.4-.13-2.14v-1.08c-.01-.87-.02-1.73 0-2.59.02-.75.09-1.48.17-2.18.05-.49.1-.99.13-1.48.07-1.22.15-2.44.26-3.65.04-.5.06-1.01.08-1.52.02-.7.05-1.41.14-2.15.09-.74.23-1.45.37-2.14.1-.49.2-.98.27-1.47.18-1.21.38-2.42.6-3.62.09-.5.16-1 .22-1.51.09-.69.18-1.4.33-2.12.17-.77.46-1.48.71-2.1.2-.49.39-.95.5-1.38.29-1.19.6-2.36.93-3.54.12-.45.24-.9.35-1.36.18-.73.37-1.46.59-2.18.15-.49.26-.98.38-1.48.16-.67.32-1.36.56-2.07.24-.71.55-1.35.85-1.97.23-.48.45-.94.62-1.39.28-.74.6-1.47.91-2.2.17-.39.34-.79.5-1.18.17-.41.33-.83.5-1.24.28-.72.57-1.44.88-2.14.18-.4.36-.81.53-1.22.31-.72.62-1.43.96-2.13.33-.69.7-1.35 1.07-2.02.22-.4.44-.8.66-1.21.21-.41.39-.88.58-1.39.24-.65.49-1.33.87-2 .37-.65.77-1.24 1.16-1.81.29-.42.58-.84.84-1.27.39-.65.84-1.2 1.27-1.74.34-.42.65-.81.91-1.21.26-.4.5-.85.75-1.32.32-.61.66-1.24 1.08-1.85.29-.42.55-.85.82-1.29.36-.59.73-1.2 1.17-1.8.45-.61.94-1.2 1.42-1.79.29-.36.58-.71.87-1.07.29-.37.58-.76.86-1.14.44-.6.89-1.2 1.37-1.77.5-.6 1.05-1.07 1.59-1.52.41-.35.79-.67 1.09-1.01.3-.34.59-.69.89-1.03.5-.58.99-1.17 1.52-1.72.33-.35.64-.75.97-1.18.42-.54.86-1.11 1.39-1.64.53-.53 1.08-1 1.61-1.45.38-.33.76-.65 1.13-1 .33-.31.65-.62.97-.93.55-.54 1.11-1.08 1.69-1.59.56-.49 1.13-.93 1.69-1.36.4-.3.8-.6 1.18-.92.39-.32.76-.68 1.12-1.03.5-.48 1.02-.97 1.6-1.43.61-.48 1.24-.83 1.84-1.16.47-.26.91-.51 1.28-.78l.1-.07c.95-.7 1.9-1.4 2.87-2.07.67-.47 1.37-.91 2.06-1.34.34-.21.67-.43 1.01-.64.37-.24.74-.57 1.14-.92.5-.45 1.07-.95 1.75-1.36l.37-.22c.92-.56 1.85-1.12 2.79-1.65.65-.37 1.32-.7 2-1.03.42-.21.85-.42 1.27-.64.76-.4 1.54-.77 2.31-1.14l1.75-.85c.84-.41 1.68-.83 2.54-1.21.69-.31 1.38-.57 2.06-.83.45-.17.9-.34 1.35-.53.69-.28 1.37-.49 2.03-.68.49-.15.98-.29 1.45-.47 1.14-.43 2.28-.85 3.44-1.25.45-.15.9-.37 1.39-.59.63-.29 1.28-.59 2-.82.71-.22 1.42-.35 2.09-.48.53-.1 1.03-.19 1.49-.32.42-.12.88-.32 1.36-.54.61-.28 1.31-.6 2.08-.79.76-.19 1.48-.23 2.18-.28.53-.04 1.04-.07 1.48-.16.49-.1.97-.23 1.46-.36.67-.18 1.37-.37 2.11-.5.49-.09.97-.2 1.46-.31.69-.16 1.4-.32 2.14-.43.73-.11 1.44-.16 2.13-.2.51-.03 1.01-.06 1.52-.12l1.18-.15c.82-.11 1.63-.21 2.46-.29 1.21-.11 2.43-.2 3.65-.27.84-.05 1.69-.07 2.53-.09l1.13-.03c.48-.01.95-.04 1.43-.07 1.49-.09 2.99-.09 4.48 0 .47.03.94.05 1.42.07.49.01 1-.01 1.53-.04.69-.04 1.4-.07 2.14-.03.8.05 1.54.24 2.2.41.51.13.99.26 1.42.3.47.04.98.03 1.52.02.69-.02 1.4-.03 2.16.06.5.06 1.01.09 1.52.12.69.04 1.41.09 2.14.2 1.1.17 2.2.36 3.29.56l.33.06c1.2.22 2.41.46 3.6.72.76.16 1.43.42 2.08.67.5.19.97.38 1.41.48.47.12.97.19 1.5.27.68.1 1.38.21 2.11.41.39.11.77.21 1.16.31.8.21 1.59.43 2.38.67l1.02.31c.83.25 1.66.5 2.48.79 1.16.4 2.31.82 3.45 1.26.74.28 1.39.68 1.97 1.03.45.28.88.54 1.28.71.91.38 1.79.78 2.68 1.18l.66.3c.39.17.87.29 1.38.42.66.17 1.41.35 2.14.71.69.34 1.28.74 1.85 1.14.44.3.86.59 1.27.81.45.24.92.44 1.39.64.63.27 1.29.56 1.94.92.65.37 1.27.77 1.89 1.17.4.26.81.52 1.22.77.65.39 1.26.81 1.85 1.22.4.28.8.55 1.2.81.39.25.85.48 1.33.72.62.31 1.27.62 1.89 1.06.61.42 1.15.89 1.67 1.34.39.33.77.67 1.18.97.6.44 1.13.92 1.64 1.38.38.34.75.68 1.15 1 .38.3.8.57 1.25.86.58.37 1.18.76 1.75 1.24.38.32.78.62 1.17.92.56.43 1.14.87 1.69 1.37.59.52 1.16 1.07 1.72 1.62.31.3.62.6.94.9.56.53 1 1.1 1.42 1.65.33.42.63.83.96 1.15.34.34.73.67 1.14 1.02.52.44 1.07.9 1.58 1.45.35.37.73.71 1.11 1.06.51.46 1.04.95 1.53 1.5.49.56.93 1.13 1.35 1.69.3.4.61.81.93 1.19.48.58.92 1.18 1.34 1.75.29.39.58.78.87 1.16.29.38.65.74 1.02 1.13.48.5.97 1.02 1.42 1.62.47.64.8 1.34 1.09 1.95.22.48.44.93.68 1.29.26.38.6.76.96 1.16.46.52.94 1.05 1.36 1.7.41.64.71 1.29 1 1.92.23.49.44.95.68 1.35.26.43.55.84.83 1.26.39.57.8 1.16 1.17 1.81.25.44.52.87.79 1.29.37.59.76 1.19 1.11 1.85l.63 1.17c.37.68.75 1.37 1.09 2.07.35.73.54 1.48.7 2.14.12.51.24 1 .42 1.38l.34.76c.39.86.78 1.71 1.14 2.59.36.86.69 1.73 1.01 2.61l.3.81c.18.47.38.93.58 1.39.28.64.57 1.3.81 2 .14.41.29.82.44 1.23.27.74.54 1.47.77 2.22.14.46.33.93.53 1.43.26.64.52 1.3.72 2.02.33 1.17.66 2.36.95 3.55.18.72.28 1.42.39 2.11.08.5.15 1.01.26 1.51.15.72.23 1.43.31 2.11.06.51.11 1.02.2 1.52.16.89.29 1.77.42 2.67l.14.95c.07.44.14.88.21 1.31.13.76.26 1.53.35 2.3.06.49.14.99.23 1.48.12.69.24 1.4.3 2.15.07.74.07 1.45.07 2.14 0 .51 0 1.02.03 1.52.06.98.09 1.96.11 2.95l.02.71c.01.47.04.94.06 1.41.04.75.08 1.5.08 2.25s-.03 1.57-.07 2.35c-.02.44-.04.87-.05 1.31-.02.51 0 1.02.02 1.54.03.69.05 1.4 0 2.13-.03.5-.04.99-.05 1.49-.02.71-.03 1.44-.1 2.18-.04.43-.07.87-.1 1.3-.06.79-.12 1.58-.21 2.36-.09.78-.31 1.5-.51 2.15-.15.51-.3.99-.37 1.43-.13.84-.29 1.67-.44 2.5l-.21 1.1c-.09.5-.16.99-.23 1.49-.09.69-.19 1.41-.35 2.13-.18.85-.39 1.69-.61 2.53l-.26 1.03c-.12.49-.22.98-.31 1.47-.14.69-.28 1.4-.48 2.11-.14.49-.24.99-.35 1.48-.15.68-.3 1.38-.52 2.08-.28.9-.59 1.79-.9 2.67l-.28.81c-.24.7-.53 1.36-.81 2-.2.46-.41.92-.59 1.39-.27.7-.57 1.36-.87 2-.21.45-.41.9-.6 1.35-.2.47-.35.96-.51 1.44-.21.65-.44 1.33-.74 2.01-.31.68-.66 1.3-1 1.91-.25.44-.49.88-.71 1.33-.22.46-.42.92-.61 1.39-.27.64-.54 1.3-.89 1.96-.36.68-.78 1.25-1.18 1.82-.32.43-.61.84-.84 1.25-.24.43-.47.87-.7 1.31-.32.63-.66 1.27-1.04 1.91-.39.64-.8 1.23-1.21 1.8-.29.41-.58.81-.85 1.23l-.16.24c-.61.95-1.22 1.89-1.86 2.81-.27.39-.52.84-.78 1.31-.33.6-.67 1.23-1.12 1.83-.73.98-1.46 1.96-2.21 2.92-.46.59-.97 1.09-1.46 1.58-.38.38-.75.73-1.05 1.1-.3.36-.58.79-.88 1.23-.38.58-.78 1.17-1.28 1.74-.52.58-1.09 1.04-1.64 1.47-.42.33-.81.64-1.12.97-.34.36-.67.75-.99 1.12-.45.53-.92 1.08-1.45 1.6-.75.75-1.53 1.48-2.31 2.21l-.34.32c-.37.34-.71.71-1.06 1.08-.48.5-.98 1.02-1.53 1.51-.36.32-.71.66-1.07.99-.52.49-1.06 1-1.64 1.49-.59.49-1.2.95-1.81 1.41-.37.28-.74.55-1.1.84-.6.47-1.21.9-1.83 1.34l-1.14.81c-.98.72-1.97 1.45-2.97 2.14-.62.43-1.26.81-1.87 1.19-.41.25-.83.5-1.23.76-1.03.66-2.06 1.31-3.1 1.94-.41.25-.81.55-1.24.87-.55.42-1.12.85-1.78 1.22-.65.37-1.32.69-1.96 1-.44.21-.88.43-1.31.65-.66.35-1.34.65-1.99.93-.45.2-.9.4-1.34.61-1.09.53-2.19 1.07-3.31 1.57-.41.18-.82.38-1.23.57-.7.33-1.39.66-2.1.96-.89.37-1.79.71-2.69 1.05l-1.27.48c-.96.37-1.93.73-2.9 1.07-.47.16-.93.35-1.4.53-.65.26-1.33.53-2.04.75-.71.22-1.42.38-2.1.54-.49.11-.98.23-1.46.36-.48.13-.95.29-1.42.44-.67.22-1.37.44-2.1.62-.46.11-.91.24-1.37.36-.73.2-1.46.39-2.19.55-.73.16-1.45.22-2.13.27-.54.04-1.04.09-1.52.17-.5.09-.99.22-1.48.35-.67.18-1.36.36-2.1.47-.73.11-1.45.16-2.14.21-.5.03-1.01.07-1.51.13-.49.06-.99.14-1.48.22-.69.12-1.41.24-2.15.3-1.21.11-2.43.22-3.66.29-.83.05-1.67.07-2.5.08-.39 0-.78.02-1.17.03l-1.13.04c-.84.03-1.69.06-2.54.06zm0-239.35c-.68 0-1.35.04-2.02.08-.51.03-1.02.06-1.54.08l-1.16.03c-.8.02-1.6.03-2.4.08-1.19.07-2.37.16-3.55.26-.78.07-1.55.17-2.32.27l-1.21.15c-.57.07-1.14.11-1.71.14-.65.04-1.25.08-1.84.17-.61.09-1.22.23-1.88.38-.54.12-1.07.25-1.62.34-.6.11-1.2.27-1.83.44-.54.14-1.08.29-1.62.4-.68.15-1.34.19-1.97.23-.58.04-1.12.08-1.59.19-.45.11-.95.34-1.47.58-.58.27-1.18.54-1.87.73-.61.17-1.21.28-1.79.39-.6.11-1.17.22-1.69.38-.51.16-1.03.4-1.58.65-.54.25-1.1.51-1.71.72-1.12.39-2.23.79-3.34 1.21-.55.21-1.12.38-1.69.55-.6.18-1.17.35-1.69.57-.48.2-.96.38-1.45.57-.63.24-1.25.47-1.86.75-.82.37-1.63.77-2.43 1.16l-1.78.86c-.74.35-1.47.71-2.19 1.08-.45.24-.9.46-1.35.68-.61.3-1.23.6-1.82.94-.91.51-1.81 1.06-2.7 1.6l-.37.22c-.4.24-.81.61-1.24.99-.48.42-.97.86-1.56 1.24-.35.22-.7.45-1.04.66-.65.41-1.31.82-1.94 1.26-.94.65-1.86 1.33-2.78 2.01l-.1.07c-.55.4-1.11.72-1.65 1.02-.51.29-1 .55-1.39.86-.46.36-.89.77-1.35 1.21-.42.4-.85.8-1.29 1.18-.42.35-.86.69-1.3 1.02-.53.4-1.03.79-1.49 1.19-.54.48-1.05.98-1.56 1.48-.34.33-.67.66-1.01.98-.4.38-.83.74-1.25 1.1-.5.43-.98.84-1.41 1.27-.38.38-.73.83-1.1 1.31-.37.47-.74.96-1.19 1.43-.48.51-.94 1.05-1.4 1.59-.31.37-.62.73-.94 1.09-.46.52-.96.94-1.44 1.35-.44.38-.86.73-1.17 1.1-.44.52-.84 1.07-1.24 1.61-.3.41-.61.82-.92 1.22-.3.38-.61.76-.92 1.13-.45.54-.89 1.08-1.31 1.65-.35.47-.66.99-1 1.54-.3.49-.6.99-.93 1.46-.31.45-.58.96-.88 1.51-.28.52-.56 1.05-.9 1.58-.35.55-.74 1.03-1.12 1.5-.38.47-.74.92-1.01 1.37-.3.49-.62.96-.95 1.44-.37.53-.71 1.04-1 1.55-.24.43-.44.95-.64 1.5-.22.58-.44 1.19-.76 1.79-.22.43-.46.85-.69 1.27-.34.61-.68 1.23-.99 1.86-.32.65-.6 1.32-.89 1.98-.18.42-.37.85-.55 1.27-.29.65-.56 1.32-.82 1.99-.17.43-.34.87-.52 1.3-.17.41-.35.82-.52 1.23-.29.68-.59 1.36-.85 2.05-.22.58-.48 1.13-.73 1.65-.27.56-.52 1.09-.7 1.62-.18.53-.32 1.11-.46 1.72-.13.58-.27 1.16-.45 1.73-.21.66-.37 1.33-.54 2-.12.48-.24.96-.38 1.44-.32 1.14-.62 2.28-.9 3.44-.17.68-.42 1.29-.66 1.88-.22.53-.43 1.04-.53 1.5-.12.58-.2 1.19-.28 1.84-.07.56-.15 1.13-.25 1.69-.21 1.16-.4 2.34-.58 3.51-.08.54-.19 1.09-.3 1.63-.13.65-.25 1.27-.33 1.87-.07.59-.09 1.21-.12 1.86-.02.57-.04 1.14-.09 1.7-.11 1.18-.18 2.36-.25 3.55-.03.54-.09 1.08-.14 1.62-.07.67-.13 1.31-.15 1.94-.03.82-.02 1.64-.01 2.46v1.1c0 .58.06 1.19.12 1.83.05.58.1 1.15.12 1.73.02.81.08 1.63.13 2.44l.07 1.12c.04.66.12 1.32.2 1.98.06.52.13 1.03.17 1.55.06.69.03 1.34 0 1.96-.03.58-.05 1.13 0 1.62.06.53.11 1.06.15 1.6.06.68.11 1.33.21 1.95.11.74.26 1.48.4 2.21.08.43.17.86.25 1.3.1.54.27 1.09.45 1.68.17.56.35 1.14.49 1.76.11.51.2 1.02.29 1.54.12.66.24 1.31.39 1.95.14.57.34 1.14.55 1.75.19.55.38 1.1.53 1.65.19.7.42 1.39.65 2.07.14.44.29.87.42 1.31.19.62.32 1.22.44 1.8.12.59.24 1.16.41 1.66.39 1.12.79 2.24 1.21 3.35.2.52.37 1.06.54 1.59.2.63.39 1.22.63 1.78.28.67.59 1.32.89 1.97.2.42.4.84.59 1.27.2.45.51.91.83 1.4.34.52.7 1.05 1 1.67.29.58.5 1.17.71 1.73.21.57.41 1.1.65 1.57.41.78.84 1.54 1.28 2.3l.46.81c.33.59.7 1.16 1.07 1.72.28.43.55.86.82 1.29.33.54.6 1.08.86 1.61.27.55.53 1.08.83 1.54.26.4.63.79 1.02 1.21.43.46.88.94 1.29 1.52.33.48.64.99.94 1.5.32.54.62 1.05.96 1.51.34.46.74.9 1.16 1.37.4.44.79.88 1.15 1.34.35.45.68.92 1.01 1.39.37.53.72 1.03 1.09 1.48.38.45.81.88 1.26 1.34.41.41.81.81 1.19 1.24.4.45.76.92 1.12 1.39.38.5.74.97 1.12 1.38.48.51.98.99 1.49 1.47.35.34.71.68 1.05 1.02.77.77 1.56 1.51 2.35 2.25l.22.21c.49.46 1 .88 1.51 1.31.4.33.8.67 1.19 1.01.43.38.84.79 1.25 1.21.45.45.88.88 1.32 1.25.72.6 1.46 1.17 2.19 1.75l.59.46c.58.45 1.17.88 1.77 1.3.37.26.74.53 1.1.8.52.38.98.79 1.42 1.19.45.41.88.79 1.32 1.09.98.67 1.97 1.33 2.97 1.97.42.28.84.56 1.26.85.56.39 1.12.77 1.71 1.13.41.25.92.45 1.46.66.59.23 1.2.47 1.81.81l.78.44c.77.44 1.54.88 2.32 1.29.61.32 1.13.69 1.64 1.05.48.34.93.66 1.37.87.48.23 1.03.42 1.6.62.56.19 1.15.39 1.73.66.58.26 1.11.56 1.63.86.53.3 1.04.59 1.54.79.46.19 1 .32 1.57.46.6.14 1.23.29 1.86.54 1.11.42 2.22.82 3.34 1.21l.97.34c.79.28 1.59.56 2.4.81.64.2 1.29.36 1.93.52.5.12 1.01.25 1.5.39.48.13.96.28 1.44.43.65.2 1.31.4 1.97.57.62.15 1.2.36 1.76.55.58.2 1.12.39 1.65.5.55.12 1.15.18 1.78.25.59.07 1.18.13 1.76.24 1.16.21 2.33.4 3.51.57.55.08 1.09.19 1.63.3.65.13 1.26.25 1.87.32.57.07 1.17.08 1.81.1.58.01 1.17.03 1.75.08 1.18.11 2.36.19 3.55.27 1.18.07 2.36.13 3.55.16.65.02 1.27.1 1.86.18 1.51.2 2.77.15 4.1.09l1.16-.04 1.2-.03c.79-.02 1.58-.03 2.36-.08 1.19-.07 2.38-.18 3.55-.28.61-.06 1.23-.16 1.89-.27.55-.09 1.09-.18 1.64-.25.56-.07 1.13-.11 1.69-.14.65-.04 1.27-.09 1.86-.17.55-.08 1.13-.23 1.74-.39.56-.15 1.14-.3 1.74-.41.64-.12 1.25-.17 1.85-.22.61-.05 1.18-.1 1.7-.21.67-.14 1.34-.33 2.01-.51.48-.13.96-.26 1.45-.38.61-.15 1.22-.35 1.86-.55.52-.17 1.03-.33 1.55-.48.53-.15 1.07-.27 1.6-.4.65-.15 1.27-.29 1.85-.48.59-.18 1.17-.42 1.79-.66.51-.2 1.03-.41 1.54-.58.94-.33 1.87-.68 2.8-1.03l1.28-.48c.87-.33 1.73-.65 2.58-1 .66-.27 1.3-.58 1.94-.88.43-.21.86-.41 1.29-.6 1.08-.49 2.15-1 3.21-1.52.48-.23.97-.45 1.46-.67.62-.28 1.21-.54 1.78-.83.47-.25.94-.48 1.42-.71.6-.29 1.19-.58 1.77-.9.46-.26.92-.6 1.4-.97.48-.36.97-.73 1.53-1.07 1.02-.61 2.02-1.24 3.02-1.88.43-.28.88-.55 1.32-.82.57-.35 1.14-.69 1.69-1.07.98-.68 1.93-1.38 2.89-2.08.4-.29.8-.57 1.2-.86.57-.4 1.14-.8 1.69-1.23.38-.3.77-.59 1.16-.88.56-.42 1.13-.85 1.67-1.3.51-.43.99-.89 1.48-1.34.38-.36.76-.72 1.15-1.06.45-.4.88-.84 1.33-1.32.39-.41.78-.81 1.19-1.2l.34-.32c.75-.71 1.5-1.41 2.23-2.14.43-.43.84-.9 1.26-1.41.36-.42.72-.84 1.1-1.25.48-.51.99-.92 1.49-1.31.45-.36.88-.7 1.2-1.06.34-.39.65-.86.98-1.36.34-.51.68-1.03 1.11-1.54.41-.5.85-.93 1.28-1.35.43-.42.84-.83 1.17-1.25.73-.93 1.45-1.89 2.15-2.84.31-.42.58-.92.88-1.45.29-.53.59-1.07.96-1.61.62-.9 1.21-1.81 1.8-2.72l.16-.24c.3-.46.61-.91.93-1.35.39-.54.75-1.06 1.07-1.59.32-.53.62-1.1.92-1.7.25-.48.5-.96.76-1.43.33-.58.7-1.09 1.06-1.58.35-.48.68-.94.92-1.39.27-.52.51-1.08.76-1.68.22-.53.44-1.06.7-1.57.25-.51.53-1.01.8-1.51.32-.57.62-1.1.86-1.64.23-.51.42-1.07.61-1.67.18-.55.37-1.12.6-1.69.21-.5.43-.99.66-1.48.28-.62.55-1.2.77-1.78.2-.53.43-1.04.65-1.56.26-.6.51-1.17.71-1.73l.28-.82c.3-.85.59-1.7.86-2.56.17-.56.31-1.16.44-1.79.12-.56.25-1.12.4-1.67.16-.59.29-1.21.42-1.86.11-.54.22-1.08.35-1.62l.26-1.05c.2-.8.4-1.6.58-2.41.13-.6.21-1.22.3-1.87.07-.55.15-1.1.25-1.64l.21-1.13c.15-.79.3-1.57.42-2.37.1-.69.29-1.31.47-1.92.17-.56.33-1.08.38-1.56.09-.73.14-1.47.2-2.2.03-.45.07-.9.11-1.35.06-.62.07-1.27.09-1.95.01-.54.02-1.08.06-1.62.03-.57.01-1.17-.01-1.8-.02-.59-.04-1.18-.03-1.77.01-.45.03-.91.05-1.36.03-.73.07-1.46.07-2.2 0-.69-.04-1.38-.08-2.06-.03-.5-.05-1-.07-1.49l-.02-.71c-.03-.95-.05-1.89-.11-2.84-.03-.58-.04-1.15-.04-1.73 0-.64 0-1.25-.05-1.83-.05-.61-.16-1.23-.27-1.88-.09-.55-.19-1.09-.25-1.64-.09-.72-.21-1.43-.33-2.14-.08-.46-.15-.92-.22-1.37l-.14-.96c-.12-.85-.25-1.7-.4-2.55-.11-.58-.17-1.17-.24-1.75-.07-.63-.14-1.22-.26-1.78-.12-.57-.21-1.14-.3-1.72-.1-.63-.19-1.24-.33-1.8-.28-1.15-.6-2.3-.92-3.44-.15-.54-.37-1.08-.6-1.66-.22-.54-.44-1.1-.63-1.69-.22-.7-.47-1.38-.72-2.07-.16-.43-.31-.86-.46-1.29-.2-.57-.45-1.14-.71-1.74-.22-.51-.45-1.03-.65-1.55l-.31-.82c-.31-.84-.63-1.67-.97-2.5-.35-.84-.72-1.66-1.09-2.48l-.35-.77c-.3-.67-.47-1.37-.62-1.98-.13-.54-.26-1.06-.45-1.45-.32-.65-.67-1.28-1.01-1.92-.22-.41-.45-.82-.66-1.23-.28-.53-.61-1.05-.96-1.6-.31-.48-.61-.96-.89-1.45-.29-.51-.64-1.01-1-1.55-.33-.47-.65-.94-.95-1.43-.34-.57-.61-1.14-.86-1.69-.25-.54-.49-1.05-.77-1.49-.27-.42-.64-.84-1.04-1.28-.41-.46-.83-.94-1.22-1.49-.41-.59-.71-1.23-.97-1.79-.24-.51-.47-1-.74-1.36-.32-.43-.71-.84-1.13-1.28-.41-.43-.84-.88-1.24-1.39-.32-.41-.63-.83-.94-1.25-.39-.54-.79-1.07-1.21-1.58-.36-.43-.7-.88-1.04-1.33-.4-.53-.77-1.02-1.17-1.47-.37-.42-.81-.82-1.27-1.24-.43-.39-.87-.79-1.29-1.24-.38-.4-.82-.78-1.29-1.18-.45-.38-.91-.77-1.35-1.21-.48-.48-.88-1-1.26-1.49-.36-.46-.69-.9-1.05-1.24-.33-.31-.65-.62-.98-.94-.53-.51-1.06-1.03-1.61-1.52-.46-.41-.97-.8-1.5-1.21-.43-.33-.87-.67-1.29-1.01-.41-.34-.9-.66-1.41-.99-.5-.32-1.01-.65-1.52-1.05-.46-.36-.9-.76-1.33-1.15-.47-.42-.91-.83-1.37-1.16-.5-.37-.95-.76-1.39-1.14-.47-.41-.92-.8-1.38-1.11-.42-.29-.92-.54-1.45-.8-.55-.27-1.12-.55-1.69-.92-.43-.28-.86-.58-1.29-.87-.55-.38-1.1-.76-1.67-1.11-.44-.27-.87-.54-1.3-.82-.57-.37-1.13-.73-1.72-1.06-.49-.28-1.03-.51-1.6-.76-.53-.23-1.08-.47-1.63-.75-.59-.31-1.12-.67-1.62-1.02-.49-.34-.95-.66-1.41-.88-.4-.19-.91-.32-1.46-.46-.61-.15-1.3-.32-1.97-.62l-.67-.3c-.85-.39-1.71-.78-2.58-1.14-.66-.27-1.22-.62-1.77-.95-.49-.3-.95-.58-1.39-.75-1.11-.42-2.23-.83-3.35-1.22-.77-.27-1.56-.51-2.35-.75l-1.05-.32c-.74-.23-1.49-.43-2.24-.63-.4-.11-.8-.21-1.19-.32-.52-.14-1.09-.23-1.7-.32-.58-.09-1.19-.18-1.81-.33-.66-.16-1.26-.39-1.84-.62-.55-.21-1.07-.41-1.55-.52-1.16-.25-2.33-.49-3.5-.7l-.33-.06c-1.06-.19-2.12-.39-3.18-.55-.58-.09-1.2-.13-1.84-.17-.57-.04-1.14-.07-1.71-.14-.51-.06-1.07-.05-1.67-.03-.61.01-1.24.03-1.9-.03-.71-.06-1.36-.23-1.98-.39-.55-.14-1.07-.28-1.53-.31-.55-.03-1.13 0-1.75.03-.58.03-1.19.06-1.82.04-.5-.02-1.01-.04-1.51-.07-.68-.04-1.37-.08-2.05-.08z"/><path fill="#db3700" d="M405.13 250.03c0-1.21.1-2.42.06-3.62s-.18-2.41-.27-3.61-.25-2.4-.38-3.6-.27-2.4-.44-3.59-.45-2.37-.66-3.55c-.21-1.19-.28-2.4-.54-3.58-.26-1.18-.42-2.39-.72-3.55s-.95-2.24-1.29-3.4-.63-2.33-1.01-3.47-.84-2.26-1.26-3.39c-.42-1.13-.6-2.35-1.06-3.47s-1.19-2.11-1.69-3.2c-.5-1.1-1.11-2.13-1.65-3.21s-1.08-2.15-1.66-3.2c-.58-1.06-.97-2.22-1.58-3.25s-1.18-2.11-1.83-3.12c-.65-1.01-1.26-2.07-1.94-3.06s-1.7-1.74-2.42-2.71-1.4-1.96-2.16-2.89-1.41-1.96-2.2-2.87-1.79-1.63-2.61-2.51c-.82-.88-1.6-1.79-2.45-2.65s-1.59-1.82-2.47-2.65-1.66-1.76-2.57-2.55c-.91-.79-2.07-1.28-3.01-2.04s-1.93-1.44-2.89-2.16-1.88-1.5-2.87-2.19-1.89-1.5-2.91-2.15-2.11-1.17-3.14-1.79-2.13-1.12-3.18-1.7c-1.06-.58-2.15-1.08-3.22-1.62s-2.15-1.07-3.25-1.57-2.02-1.4-3.13-1.86c-1.11-.46-2.27-.83-3.4-1.25s-2.29-.76-3.43-1.14-2.32-.65-3.48-.99-2.33-.61-3.5-.91c-1.16-.3-2.32-.65-3.5-.9s-2.33-.65-3.52-.86-2.44 0-3.63-.17-2.37-.42-3.57-.54c-1.19-.13-2.4-.11-3.6-.19-1.2-.08-2.38-.52-3.59-.56s-2.41-.04-3.62-.04-2.41.39-3.6.43-2.43-.35-3.63-.27-2.39.41-3.59.53-2.43.04-3.62.21-2.35.59-3.54.8-2.32.69-3.49.95-2.35.51-3.51.81-2.45.18-3.6.52-2.3.76-3.44 1.14-2.2 1.02-3.32 1.44-2.32.68-3.43 1.15c-1.11.46-2.1 1.21-3.2 1.71s-2.35.68-3.42 1.22-2.06 1.27-3.11 1.85-2.2 1.01-3.24 1.63-1.83 1.62-2.85 2.27-2.01 1.31-3 2-2.11 1.19-3.07 1.91-1.78 1.63-2.72 2.39c-.94.76-1.85 1.53-2.76 2.32s-2.05 1.32-2.93 2.14-1.78 1.63-2.63 2.48c-.85.85-1.73 1.69-2.55 2.57s-1.44 1.95-2.23 2.86c-.79.91-1.55 1.84-2.31 2.78-.76.94-1.45 1.92-2.17 2.89s-1.6 1.82-2.29 2.81-1.33 2.02-1.98 3.03-1.13 2.14-1.74 3.17-1.08 2.15-1.66 3.2-1.56 1.9-2.1 2.98-.85 2.27-1.35 3.36-.79 2.28-1.25 3.39-1.14 2.14-1.56 3.27c-.42 1.13-.7 2.3-1.08 3.45-.38 1.14-.92 2.23-1.26 3.39s-.35 2.4-.64 3.57c-.3 1.16-1.02 2.23-1.27 3.41s-.2 2.42-.42 3.6-.67 2.33-.84 3.53c-.17 1.19-.32 2.39-.45 3.59s.18 2.43.09 3.64c-.08 1.2-.34 2.39-.38 3.6s-.14 2.4-.14 3.61.07 2.42.11 3.61.08 2.41.17 3.61.45 2.38.58 3.57.26 2.39.43 3.58.29 2.39.51 3.57c.21 1.19.32 2.4.57 3.57s.42 2.38.71 3.55.9 2.25 1.24 3.41.77 2.28 1.15 3.42c.38 1.15.65 2.32 1.07 3.45.42 1.13.94 2.22 1.4 3.33.46 1.11.68 2.33 1.18 3.43s1.23 2.08 1.77 3.16 1.19 2.09 1.77 3.15.84 2.3 1.45 3.33 1.34 2.01 1.99 3.02 1.51 1.89 2.2 2.88c.69.99 1.45 1.92 2.17 2.88s1.18 2.13 1.94 3.07 1.77 1.66 2.56 2.57c.79.91 1.3 2.07 2.12 2.95.82.88 1.68 1.74 2.53 2.59s1.7 1.71 2.58 2.53 2.02 1.35 2.93 2.14 1.58 1.87 2.52 2.62 1.91 1.48 2.87 2.21 2.2 1.06 3.19 1.75c.99.69 1.95 1.41 2.96 2.06 1.01.65 1.93 1.45 2.96 2.07 1.03.61 2.02 1.33 3.07 1.91s2.3.79 3.38 1.33 2.12 1.13 3.22 1.63 2.21.94 3.32 1.4 2.21.93 3.34 1.35c1.13.42 2.17 1.09 3.31 1.47s2.36.52 3.52.86 2.29.75 3.46 1.05 2.33.62 3.51.87 2.4.25 3.59.46 2.36.41 3.56.58c1.19.17 2.35.54 3.56.67 1.19.13 2.4.09 3.61.17s2.39.38 3.6.42 2.41.2 3.62.2 2.41-.43 3.61-.47 2.43.27 3.63.18 2.4-.28 3.6-.4 2.38-.42 3.57-.59 2.41-.24 3.59-.46 2.36-.51 3.54-.76 2.32-.68 3.48-.97c1.17-.3 2.38-.45 3.53-.79s2.31-.7 3.45-1.08c1.15-.38 2.29-.76 3.42-1.18s2.2-1 3.31-1.46 2.26-.86 3.35-1.36 2.22-.96 3.29-1.5 2.09-1.21 3.15-1.78c1.06-.58 2.12-1.15 3.15-1.77s2.1-1.19 3.11-1.84 1.94-1.43 2.93-2.12 2.1-1.21 3.07-1.93c.96-.72 1.87-1.52 2.81-2.28s1.74-1.68 2.65-2.47c.91-.79 1.85-1.55 2.73-2.37s1.81-1.59 2.66-2.45 1.66-1.75 2.48-2.63c.82-.88 1.57-1.83 2.35-2.74s1.71-1.71 2.47-2.65 1.33-2.02 2.05-2.98 1.48-1.9 2.17-2.89 1.43-1.94 2.08-2.96 1.24-2.07 1.86-3.1 1.35-2.01 1.93-3.06.92-2.24 1.46-3.32 1.23-2.08 1.73-3.18.84-2.26 1.3-3.38 1.02-2.19 1.44-3.32c.42-1.13.86-2.25 1.24-3.4s.82-2.27 1.16-3.43.21-2.44.51-3.61.63-2.32.88-3.5.84-2.29 1.06-3.47.36-2.38.53-3.58c.17-1.19.08-2.41.21-3.62s.34-2.38.43-3.59.16-2.4.2-3.61.07-2.4.07-3.61z"/><path fill="#fff" d="M392.56 250.03c0-1.2.31-2.4.27-3.59s-.2-2.39-.29-3.57-.46-2.36-.6-3.54c-.14-1.19-.43-2.34-.62-3.52-.19-1.18-.16-2.39-.39-3.56s-.59-2.31-.87-3.47-.4-2.37-.73-3.51-.63-2.31-1-3.44-.76-2.27-1.18-3.38-1.2-2.09-1.67-3.18-.6-2.35-1.11-3.43-1.38-1.98-1.93-3.04-1.08-2.13-1.67-3.16-1.29-2-1.93-3.01-1.03-2.18-1.71-3.16-1.57-1.81-2.29-2.76-1.24-2.06-2-2.98c-.75-.92-1.56-1.82-2.35-2.71s-1.8-1.58-2.63-2.44-1.69-1.67-2.55-2.5-1.79-1.57-2.68-2.36-1.56-1.84-2.48-2.6-2-1.31-2.95-2.03-1.9-1.43-2.88-2.11-2.05-1.22-3.05-1.86-1.96-1.35-2.99-1.95-2.11-1.11-3.16-1.66-2.08-1.16-3.16-1.67-2.04-1.28-3.14-1.75-2.23-.87-3.34-1.29-2.34-.52-3.48-.9c-1.13-.38-2.26-.74-3.41-1.08s-2.31-.56-3.47-.85c-1.15-.28-2.31-.55-3.48-.79-1.16-.24-2.29-.7-3.47-.89s-2.34-.49-3.53-.64-2.4.07-3.59-.02-2.36-.45-3.55-.5-2.39.25-3.58.25-2.4-.31-3.58-.26c-1.2.05-2.37.48-3.55.58s-2.38.12-3.56.26-2.37.29-3.54.47-2.36.34-3.53.58c-1.17.24-2.37.34-3.53.63s-2.29.69-3.43 1.02-2.32.6-3.45.98-2.26.78-3.38 1.2-2.09 1.19-3.19 1.65-2.33.64-3.41 1.15-2.1 1.15-3.15 1.7-2.18.99-3.21 1.59-1.93 1.42-2.94 2.06-1.9 1.45-2.88 2.13c-.98.68-2.1 1.15-3.06 1.87-.95.72-1.71 1.68-2.63 2.43s-2.06 1.26-2.95 2.05-1.86 1.51-2.72 2.34c-.86.83-1.6 1.78-2.43 2.64s-1.62 1.76-2.41 2.65c-.79.89-1.61 1.76-2.37 2.69-.75.92-1.53 1.84-2.25 2.79s-1.24 2.05-1.92 3.03-1.55 1.84-2.19 2.85-1.01 2.18-1.61 3.21c-.6 1.03-1.27 2.02-1.82 3.08s-1.07 2.13-1.58 3.21c-.51 1.07-.89 2.21-1.35 3.31s-1.26 2.06-1.68 3.18c-.42 1.11-.54 2.34-.92 3.47s-.96 2.2-1.29 3.35-.43 2.35-.71 3.51-.59 2.31-.83 3.48c-.24 1.16-.63 2.31-.82 3.49s-.33 2.37-.47 3.55c-.14 1.18-.18 2.38-.27 3.57s-.18 2.38-.22 3.57 0 2.38 0 3.58.06 2.39.1 3.58c.05 1.2.33 2.37.42 3.55s-.24 2.43-.09 3.6.38 2.37.57 3.54.52 2.34.76 3.5.55 2.33.83 3.48.7 2.28 1.03 3.42.63 2.3 1.01 3.43.89 2.21 1.31 3.32.58 2.34 1.05 3.43.97 2.18 1.48 3.26c.51 1.08 1.11 2.11 1.67 3.17.56 1.06 1.02 2.16 1.62 3.2s1.26 2.03 1.89 3.04 1.44 1.91 2.12 2.89 1.34 1.97 2.06 2.93c.72.95 1.38 1.95 2.14 2.87.75.92 1.59 1.78 2.38 2.67.79.89 1.51 1.86 2.33 2.72.83.86 1.82 1.55 2.68 2.37.86.83 1.56 1.82 2.45 2.62s2.03 1.3 2.95 2.05 1.78 1.58 2.74 2.3 1.85 1.51 2.83 2.18 2.07 1.19 3.07 1.83 2.04 1.21 3.08 1.81 2.09 1.13 3.14 1.69 1.93 1.47 3.01 1.98 2.19.96 3.28 1.43 2.26.77 3.38 1.2 2.27.71 3.41 1.09 2.22.89 3.36 1.22 2.28.69 3.44.98 2.33.53 3.5.76 2.32.57 3.5.76 2.4.03 3.59.17c1.18.14 2.34.56 3.53.65s2.4-.28 3.6-.23 2.37.15 3.57.15 2.38-.05 3.57-.1c1.2-.05 2.41.22 3.59.12s2.39-.19 3.57-.33 2.38-.32 3.55-.5 2.35-.46 3.52-.69c1.17-.24 2.28-.73 3.44-1.01 1.16-.29 2.4-.28 3.54-.61s2.26-.79 3.39-1.17 2.27-.74 3.39-1.17c1.12-.42 2.23-.88 3.32-1.34s2.22-.91 3.29-1.42 2-1.34 3.05-1.89 2.05-1.21 3.08-1.81 2.04-1.22 3.04-1.86 2.19-1.01 3.17-1.68 1.79-1.6 2.74-2.31 2.09-1.2 3.02-1.95c.92-.75 1.82-1.55 2.72-2.34s1.57-1.81 2.43-2.64 1.8-1.57 2.62-2.43 1.75-1.63 2.54-2.52 1.39-1.95 2.14-2.88c.75-.92 1.74-1.67 2.46-2.62s1.1-2.15 1.78-3.13 1.44-1.9 2.08-2.91 1.27-2.02 1.86-3.05.97-2.18 1.52-3.24 1.25-2.03 1.76-3.11c.51-1.07.86-2.22 1.33-3.32s1.21-2.08 1.64-3.19.84-2.23 1.22-3.37.44-2.36.77-3.5.89-2.23 1.17-3.39c.28-1.15.5-2.33.74-3.5.24-1.16.32-2.36.51-3.54s.52-2.33.67-3.52c.14-1.18.18-2.37.28-3.57s0-2.38.04-3.58.12-2.37.12-3.57z"/><path fill="#db3700" d="M359.41 286.07c.01 1.88-1.16 1.24-2.48 2.58s-1.34 1.32-2.65 2.66-1.11 1.54-2.43 2.89c-1.32 1.34-1.56 1.11-2.87 2.45-1.32 1.34-1.21 1.45-2.53 2.79s-1.24 1.43-2.56 2.77c-1.32 1.35-.8 2.54-2.68 2.57-1.86.03-1.47-1.07-2.8-2.37-1.33-1.3-1.27-1.37-2.59-2.67s-1.4-1.23-2.73-2.54-1.18-1.46-2.51-2.76c-1.33-1.3-1.38-1.25-2.71-2.55-1.33-1.3-1.21-1.42-2.54-2.73s-1.4-1.23-2.73-2.54-1.46-1.17-2.79-2.47-1.14-1.49-2.47-2.8c-1.33-1.31-1.49-1.15-2.82-2.45s-1.15-1.49-2.48-2.8c-1.33-1.31-1.43-1.2-2.76-2.51s-1.43-1.21-2.76-2.52-.68-2.87-2.54-2.86-1.43 1.31-2.73 2.63c-1.3 1.32-1.01 1.61-2.31 2.93s-1.55 1.08-2.84 2.4-1.27 1.36-2.56 2.68-1.31 1.31-2.61 2.64-1.28 1.34-2.58 2.67-1.37 1.25-2.67 2.58c-1.3 1.32-1.17 1.45-2.46 2.77s-1.37 1.26-2.67 2.58-1.09 1.53-2.39 2.85-1.3 1.33-2.6 2.65-1.35 1.28-2.65 2.61-1.46 1.17-2.76 2.5-.69 2.58-2.55 2.58-1.35-1.18-2.69-2.5-1.25-1.41-2.59-2.73-1.59-1.06-2.94-2.38c-1.34-1.32-1.11-1.56-2.45-2.87s-1.27-1.4-2.61-2.72-1.48-1.19-2.82-2.51-2.63-.74-2.66-2.63c-.03-1.85 1.21-1.36 2.51-2.69 1.3-1.32 1.4-1.23 2.69-2.55s1.21-1.41 2.51-2.73 1.21-1.41 2.51-2.74 1.57-1.06 2.86-2.38.98-1.63 2.28-2.96 1.46-1.17 2.76-2.49c1.3-1.32 1.16-1.46 2.45-2.78 1.3-1.32 1.31-1.31 2.61-2.64 1.3-1.33 1.56-1.07 2.86-2.39s1.06-1.56 2.36-2.88 1.48-1.15 2.78-2.48 1.28-1.35 2.58-2.68 2.63-.83 2.62-2.69c0-1.84-1.36-1.3-2.68-2.59-1.32-1.29-1.24-1.37-2.56-2.66s-1.51-1.1-2.83-2.39-1.34-1.27-2.65-2.57l-2.64-2.58c-1.32-1.29-1.28-1.33-2.6-2.62s-1.17-1.45-2.48-2.74c-1.32-1.29-1.29-1.31-2.61-2.6s-1.39-1.22-2.7-2.52c-1.32-1.29-1.47-1.14-2.78-2.44-1.32-1.29-1.27-1.35-2.59-2.64s-1.29-1.33-2.61-2.62c-1.32-1.3-1.35-1.27-2.67-2.56-1.32-1.3-2.48-.83-2.49-2.68 0-1.88 1.11-1.47 2.43-2.81s1.31-1.35 2.62-2.69c1.32-1.34 1.3-1.36 2.62-2.7s1.64-1.03 2.95-2.37c1.32-1.34 1.27-1.39 2.59-2.73 1.32-1.35 1.2-1.47 2.52-2.81s.76-2.46 2.65-2.5 1.37 1.05 2.68 2.34c1.32 1.29 1.37 1.24 2.69 2.53s1.26 1.35 2.58 2.64 1.17 1.44 2.49 2.74 1.27 1.34 2.59 2.63 1.38 1.23 2.7 2.52 1.35 1.26 2.67 2.56c1.32 1.29 1.27 1.34 2.58 2.63s1.53 1.08 2.84 2.37c1.32 1.29 1.07 1.55 2.39 2.85 1.32 1.29 1.5 1.11 2.82 2.4 1.32 1.29 1.29 1.33 2.61 2.62s1.36 1.26 2.68 2.56.74 2.55 2.6 2.53 1.17-1.34 2.46-2.66c1.3-1.32 1.4-1.23 2.7-2.55 1.3-1.32 1.37-1.26 2.66-2.58s1.09-1.53 2.39-2.85 1.45-1.18 2.74-2.5c1.3-1.32 1.25-1.37 2.55-2.69s1.21-1.41 2.51-2.74 1.5-1.12 2.8-2.44c1.3-1.32 1.17-1.45 2.46-2.78 1.3-1.32 1.53-1.1 2.83-2.43s1.08-1.54 2.38-2.86 1.4-1.23 2.7-2.56c1.3-1.33 1.22-1.4 2.53-2.73 1.3-1.33.81-2.53 2.67-2.54s1.29 1.31 2.63 2.62 1.37 1.29 2.71 2.6 1.5 1.15 2.85 2.47 1.09 1.58 2.43 2.89 1.62 1.03 2.97 2.35 1.28 1.38 2.63 2.7c1.35 1.32 2.72.86 2.76 2.75s-1.57 1.23-2.86 2.55-1.36 1.26-2.66 2.59c-1.3 1.32-1.17 1.45-2.47 2.77s-1.1 1.51-2.4 2.84c-1.3 1.32-1.31 1.31-2.61 2.63-1.3 1.32-1.31 1.32-2.6 2.64s-1.52 1.1-2.82 2.43-1.13 1.48-2.43 2.8c-1.3 1.32-1.52 1.11-2.81 2.43-1.3 1.32-1.14 1.48-2.44 2.8s-1.36 1.27-2.66 2.6-1.22 1.4-2.52 2.73-1.32 1.31-2.62 2.64-2.88.77-2.86 2.63c.02 1.86 1.68 1.18 3 2.49 1.33 1.3 1.11 1.52 2.44 2.83 1.33 1.3 1.5 1.13 2.83 2.43 1.33 1.3 1.39 1.25 2.72 2.55 1.33 1.3 1.17 1.47 2.5 2.77s1.37 1.27 2.7 2.57 1.5 1.13 2.83 2.44c1.33 1.3 1.22 1.41 2.55 2.71s1.12 1.52 2.45 2.83 1.55 1.08 2.88 2.39c1.33 1.31 1.4 1.24 2.73 2.54s1.07 1.57 2.4 2.88c1.33 1.31 1.32 1.33 2.88 2.36s2.32.88 2.34 2.75z"/></svg>
